G04 #@! TF.GenerationSoftware,KiCad,Pcbnew,(5.1.4-0-10_14)*
G04 #@! TF.CreationDate,2020-02-25T06:48:49+00:00*
G04 #@! TF.ProjectId,ruler,72756c65-722e-46b6-9963-61645f706362,1.0*
G04 #@! TF.SameCoordinates,Original*
G04 #@! TF.FileFunction,Soldermask,Bot*
G04 #@! TF.FilePolarity,Negative*
%FSLAX46Y46*%
G04 Gerber Fmt 4.6, Leading zero omitted, Abs format (unit mm)*
G04 Created by KiCad (PCBNEW (5.1.4-0-10_14)) date 2020-02-25 06:48:49*
%MOMM*%
%LPD*%
G04 APERTURE LIST*
%ADD10C,1.000000*%
%ADD11C,0.800000*%
%ADD12C,0.760000*%
%ADD13C,0.700000*%
%ADD14C,0.600000*%
%ADD15C,0.500000*%
%ADD16C,0.450000*%
%ADD17C,0.400000*%
%ADD18C,0.350000*%
%ADD19C,0.300000*%
%ADD20C,0.250000*%
%ADD21C,0.200000*%
%ADD22C,0.150000*%
%ADD23C,0.100000*%
%ADD24C,0.990000*%
%ADD25C,0.800000*%
%ADD26O,2.100000X2.100000*%
%ADD27R,2.100000X2.100000*%
%ADD28C,4.800000*%
%ADD29C,4.300000*%
%ADD30C,1.700000*%
%ADD31C,1.600000*%
%ADD32C,3.800000*%
%ADD33C,3.200000*%
%ADD34C,2.600000*%
%ADD35C,2.100000*%
%ADD36C,1.800000*%
%ADD37C,1.500000*%
%ADD38C,1.400000*%
%ADD39C,1.300000*%
%ADD40C,1.200000*%
%ADD41C,1.100000*%
%ADD42C,1.000000*%
%ADD43C,0.900000*%
%ADD44C,2.900000*%
%ADD45C,2.400000*%
%ADD46C,1.900000*%
%ADD47C,1.550000*%
%ADD48C,1.375000*%
%ADD49C,1.350000*%
%ADD50C,1.275000*%
%ADD51C,1.925000*%
%ADD52C,1.750000*%
%ADD53C,1.825000*%
%ADD54C,1.650000*%
G04 APERTURE END LIST*
D10*
X148786000Y-122230000D02*
X142036800Y-122230000D01*
D11*
X148886000Y-120730000D02*
X141986000Y-120730000D01*
D12*
X148859000Y-119253000D02*
X141859000Y-119253000D01*
D13*
X148859000Y-117729000D02*
X141859000Y-117729000D01*
D14*
X148859000Y-116230000D02*
X141859000Y-116230000D01*
D15*
X148859000Y-114730000D02*
X141859000Y-114730000D01*
D16*
X148859000Y-113230000D02*
X141859000Y-113230000D01*
D17*
X148859000Y-111730000D02*
X141859000Y-111730000D01*
D18*
X148859000Y-110230000D02*
X141859000Y-110230000D01*
D19*
X148859000Y-108712000D02*
X141859000Y-108712000D01*
D20*
X148859000Y-107230000D02*
X141859000Y-107230000D01*
D21*
X141859000Y-105730000D02*
X148859000Y-105730000D01*
D22*
X141859000Y-104230000D02*
X148859000Y-104230000D01*
X86000000Y-130000000D02*
X86000000Y-129000000D01*
X90000000Y-130000000D02*
X90000000Y-129000000D01*
X89000000Y-130000000D02*
X89000000Y-129000000D01*
X87000000Y-130000000D02*
X87000000Y-128000000D01*
X91000000Y-130000000D02*
X91000000Y-129000000D01*
X88000000Y-130000000D02*
X88000000Y-129000000D01*
X99000000Y-130000000D02*
X99000000Y-129000000D01*
X96000000Y-130000000D02*
X96000000Y-129000000D01*
X94000000Y-130000000D02*
X94000000Y-129000000D01*
X100000000Y-130000000D02*
X100000000Y-129000000D01*
X101000000Y-130000000D02*
X101000000Y-129000000D01*
X97000000Y-130000000D02*
X97000000Y-128000000D01*
X98000000Y-130000000D02*
X98000000Y-129000000D01*
X93000000Y-130000000D02*
X93000000Y-129000000D01*
X95000000Y-130000000D02*
X95000000Y-129000000D01*
X92000000Y-130000000D02*
X92000000Y-127000000D01*
X119000000Y-130000000D02*
X119000000Y-129000000D01*
X120000000Y-130000000D02*
X120000000Y-129000000D01*
X104000000Y-130000000D02*
X104000000Y-129000000D01*
X110000000Y-130000000D02*
X110000000Y-129000000D01*
X121000000Y-130000000D02*
X121000000Y-129000000D01*
X112000000Y-130000000D02*
X112000000Y-127000000D01*
X105000000Y-130000000D02*
X105000000Y-129000000D01*
X107000000Y-130000000D02*
X107000000Y-128000000D01*
X106000000Y-130000000D02*
X106000000Y-129000000D01*
X116000000Y-130000000D02*
X116000000Y-129000000D01*
X117000000Y-130000000D02*
X117000000Y-128000000D01*
X108000000Y-130000000D02*
X108000000Y-129000000D01*
X111000000Y-130000000D02*
X111000000Y-129000000D01*
X115000000Y-130000000D02*
X115000000Y-129000000D01*
X118000000Y-130000000D02*
X118000000Y-129000000D01*
X102000000Y-130000000D02*
X102000000Y-127000000D01*
X103000000Y-130000000D02*
X103000000Y-129000000D01*
X114000000Y-130000000D02*
X114000000Y-129000000D01*
X113000000Y-130000000D02*
X113000000Y-129000000D01*
X109000000Y-130000000D02*
X109000000Y-129000000D01*
X132000000Y-130000000D02*
X132000000Y-127000000D01*
X126000000Y-130000000D02*
X126000000Y-129000000D01*
X133000000Y-130000000D02*
X133000000Y-129000000D01*
X140000000Y-130000000D02*
X140000000Y-129000000D01*
X124000000Y-130000000D02*
X124000000Y-129000000D01*
X134000000Y-130000000D02*
X134000000Y-129000000D01*
X129000000Y-130000000D02*
X129000000Y-129000000D01*
X136000000Y-130000000D02*
X136000000Y-129000000D01*
X138000000Y-130000000D02*
X138000000Y-129000000D01*
X128000000Y-130000000D02*
X128000000Y-129000000D01*
X131000000Y-130000000D02*
X131000000Y-129000000D01*
X127000000Y-130000000D02*
X127000000Y-128000000D01*
X135000000Y-130000000D02*
X135000000Y-129000000D01*
X139000000Y-130000000D02*
X139000000Y-129000000D01*
X123000000Y-130000000D02*
X123000000Y-129000000D01*
X122000000Y-130000000D02*
X122000000Y-127000000D01*
X125000000Y-130000000D02*
X125000000Y-129000000D01*
X141000000Y-130000000D02*
X141000000Y-129000000D01*
X130000000Y-130000000D02*
X130000000Y-129000000D01*
X137000000Y-130000000D02*
X137000000Y-128000000D01*
X157000000Y-130000000D02*
X157000000Y-128000000D01*
X150000000Y-130000000D02*
X150000000Y-129000000D01*
X152000000Y-130000000D02*
X152000000Y-127000000D01*
X146000000Y-130000000D02*
X146000000Y-129000000D01*
X155000000Y-130000000D02*
X155000000Y-129000000D01*
X144000000Y-130000000D02*
X144000000Y-129000000D01*
X159000000Y-130000000D02*
X159000000Y-129000000D01*
X158000000Y-130000000D02*
X158000000Y-129000000D01*
X154000000Y-130000000D02*
X154000000Y-129000000D01*
X143000000Y-130000000D02*
X143000000Y-129000000D01*
X148000000Y-130000000D02*
X148000000Y-129000000D01*
X153000000Y-130000000D02*
X153000000Y-129000000D01*
X142000000Y-130000000D02*
X142000000Y-127000000D01*
X151000000Y-130000000D02*
X151000000Y-129000000D01*
X156000000Y-130000000D02*
X156000000Y-129000000D01*
X149000000Y-130000000D02*
X149000000Y-129000000D01*
X147000000Y-130000000D02*
X147000000Y-128000000D01*
X145000000Y-130000000D02*
X145000000Y-129000000D01*
X161000000Y-130000000D02*
X161000000Y-129000000D01*
X160000000Y-130000000D02*
X160000000Y-129000000D01*
X162000000Y-130000000D02*
X162000000Y-127000000D01*
X163000000Y-130000000D02*
X163000000Y-129000000D01*
X164000000Y-130000000D02*
X164000000Y-129000000D01*
X165000000Y-130000000D02*
X165000000Y-129000000D01*
X166000000Y-130000000D02*
X166000000Y-129000000D01*
X167000000Y-130000000D02*
X167000000Y-128000000D01*
X168000000Y-130000000D02*
X168000000Y-129000000D01*
X169000000Y-130000000D02*
X169000000Y-129000000D01*
X170000000Y-130000000D02*
X170000000Y-129000000D01*
X171000000Y-130000000D02*
X171000000Y-129000000D01*
X172000000Y-130000000D02*
X172000000Y-127000000D01*
X173000000Y-130000000D02*
X173000000Y-129000000D01*
X174000000Y-130000000D02*
X174000000Y-129000000D01*
X175000000Y-130000000D02*
X175000000Y-129000000D01*
X176000000Y-130000000D02*
X176000000Y-129000000D01*
X177000000Y-130000000D02*
X177000000Y-128000000D01*
X178000000Y-130000000D02*
X178000000Y-129000000D01*
X179000000Y-130000000D02*
X179000000Y-129000000D01*
X180000000Y-130000000D02*
X180000000Y-129000000D01*
X181000000Y-130000000D02*
X181000000Y-129000000D01*
X182000000Y-127000000D02*
X182000000Y-127000000D01*
X182000000Y-130000000D02*
X182000000Y-127000000D01*
X92450000Y-98000000D02*
X92450000Y-99000000D01*
X86100000Y-98000000D02*
X86100000Y-100000000D01*
X89275000Y-98000000D02*
X89275000Y-99000000D01*
X95625000Y-98000000D02*
X95625000Y-99000000D01*
X105150000Y-98000000D02*
X105150000Y-99000000D01*
X114675000Y-98000000D02*
X114675000Y-99000000D01*
X121025000Y-98000000D02*
X121025000Y-99000000D01*
X98800000Y-98000000D02*
X98800000Y-101000000D01*
X101975000Y-98000000D02*
X101975000Y-99000000D01*
X111500000Y-98000000D02*
X111500000Y-100000000D01*
X117850000Y-98000000D02*
X117850000Y-99000000D01*
X108325000Y-98000000D02*
X108325000Y-99000000D01*
X136900000Y-98000000D02*
X136900000Y-100000000D01*
X143250000Y-98000000D02*
X143250000Y-99000000D01*
X140075000Y-98000000D02*
X140075000Y-99000000D01*
X124200000Y-98000000D02*
X124200000Y-101000000D01*
X133725000Y-98000000D02*
X133725000Y-99000000D01*
X130550000Y-98000000D02*
X130550000Y-99000000D01*
X127375000Y-98000000D02*
X127375000Y-99000000D01*
X146425000Y-98000000D02*
X146425000Y-99000000D01*
X149600000Y-98000000D02*
X149600000Y-101000000D01*
X155950000Y-98000000D02*
X155950000Y-99000000D01*
X152775000Y-98000000D02*
X152775000Y-99000000D01*
X159125000Y-98000000D02*
X159125000Y-99000000D01*
X162300000Y-98000000D02*
X162300000Y-100000000D01*
X165475000Y-98000000D02*
X165475000Y-99000000D01*
X168650000Y-98000000D02*
X168650000Y-99000000D01*
X171825000Y-98000000D02*
X171825000Y-99000000D01*
X175000000Y-98000000D02*
X175000000Y-101000000D01*
D23*
G36*
X111754759Y-107685192D02*
G01*
X111778785Y-107688756D01*
X111802345Y-107694657D01*
X111825214Y-107702840D01*
X111847171Y-107713224D01*
X111868004Y-107725711D01*
X111887512Y-107740180D01*
X111905509Y-107756491D01*
X111921820Y-107774488D01*
X111936289Y-107793996D01*
X111948776Y-107814829D01*
X111959160Y-107836786D01*
X111967343Y-107859655D01*
X111973244Y-107883215D01*
X111976808Y-107907241D01*
X111978000Y-107931500D01*
X111978000Y-108476500D01*
X111976808Y-108500759D01*
X111973244Y-108524785D01*
X111967343Y-108548345D01*
X111959160Y-108571214D01*
X111948776Y-108593171D01*
X111936289Y-108614004D01*
X111921820Y-108633512D01*
X111905509Y-108651509D01*
X111887512Y-108667820D01*
X111868004Y-108682289D01*
X111847171Y-108694776D01*
X111825214Y-108705160D01*
X111802345Y-108713343D01*
X111778785Y-108719244D01*
X111754759Y-108722808D01*
X111730500Y-108724000D01*
X111235500Y-108724000D01*
X111211241Y-108722808D01*
X111187215Y-108719244D01*
X111163655Y-108713343D01*
X111140786Y-108705160D01*
X111118829Y-108694776D01*
X111097996Y-108682289D01*
X111078488Y-108667820D01*
X111060491Y-108651509D01*
X111044180Y-108633512D01*
X111029711Y-108614004D01*
X111017224Y-108593171D01*
X111006840Y-108571214D01*
X110998657Y-108548345D01*
X110992756Y-108524785D01*
X110989192Y-108500759D01*
X110988000Y-108476500D01*
X110988000Y-107931500D01*
X110989192Y-107907241D01*
X110992756Y-107883215D01*
X110998657Y-107859655D01*
X111006840Y-107836786D01*
X111017224Y-107814829D01*
X111029711Y-107793996D01*
X111044180Y-107774488D01*
X111060491Y-107756491D01*
X111078488Y-107740180D01*
X111097996Y-107725711D01*
X111118829Y-107713224D01*
X111140786Y-107702840D01*
X111163655Y-107694657D01*
X111187215Y-107688756D01*
X111211241Y-107685192D01*
X111235500Y-107684000D01*
X111730500Y-107684000D01*
X111754759Y-107685192D01*
X111754759Y-107685192D01*
G37*
D24*
X111483000Y-108204000D03*
D23*
G36*
X110784759Y-107685192D02*
G01*
X110808785Y-107688756D01*
X110832345Y-107694657D01*
X110855214Y-107702840D01*
X110877171Y-107713224D01*
X110898004Y-107725711D01*
X110917512Y-107740180D01*
X110935509Y-107756491D01*
X110951820Y-107774488D01*
X110966289Y-107793996D01*
X110978776Y-107814829D01*
X110989160Y-107836786D01*
X110997343Y-107859655D01*
X111003244Y-107883215D01*
X111006808Y-107907241D01*
X111008000Y-107931500D01*
X111008000Y-108476500D01*
X111006808Y-108500759D01*
X111003244Y-108524785D01*
X110997343Y-108548345D01*
X110989160Y-108571214D01*
X110978776Y-108593171D01*
X110966289Y-108614004D01*
X110951820Y-108633512D01*
X110935509Y-108651509D01*
X110917512Y-108667820D01*
X110898004Y-108682289D01*
X110877171Y-108694776D01*
X110855214Y-108705160D01*
X110832345Y-108713343D01*
X110808785Y-108719244D01*
X110784759Y-108722808D01*
X110760500Y-108724000D01*
X110265500Y-108724000D01*
X110241241Y-108722808D01*
X110217215Y-108719244D01*
X110193655Y-108713343D01*
X110170786Y-108705160D01*
X110148829Y-108694776D01*
X110127996Y-108682289D01*
X110108488Y-108667820D01*
X110090491Y-108651509D01*
X110074180Y-108633512D01*
X110059711Y-108614004D01*
X110047224Y-108593171D01*
X110036840Y-108571214D01*
X110028657Y-108548345D01*
X110022756Y-108524785D01*
X110019192Y-108500759D01*
X110018000Y-108476500D01*
X110018000Y-107931500D01*
X110019192Y-107907241D01*
X110022756Y-107883215D01*
X110028657Y-107859655D01*
X110036840Y-107836786D01*
X110047224Y-107814829D01*
X110059711Y-107793996D01*
X110074180Y-107774488D01*
X110090491Y-107756491D01*
X110108488Y-107740180D01*
X110127996Y-107725711D01*
X110148829Y-107713224D01*
X110170786Y-107702840D01*
X110193655Y-107694657D01*
X110217215Y-107688756D01*
X110241241Y-107685192D01*
X110265500Y-107684000D01*
X110760500Y-107684000D01*
X110784759Y-107685192D01*
X110784759Y-107685192D01*
G37*
D24*
X110513000Y-108204000D03*
D23*
G36*
X114294759Y-107685192D02*
G01*
X114318785Y-107688756D01*
X114342345Y-107694657D01*
X114365214Y-107702840D01*
X114387171Y-107713224D01*
X114408004Y-107725711D01*
X114427512Y-107740180D01*
X114445509Y-107756491D01*
X114461820Y-107774488D01*
X114476289Y-107793996D01*
X114488776Y-107814829D01*
X114499160Y-107836786D01*
X114507343Y-107859655D01*
X114513244Y-107883215D01*
X114516808Y-107907241D01*
X114518000Y-107931500D01*
X114518000Y-108476500D01*
X114516808Y-108500759D01*
X114513244Y-108524785D01*
X114507343Y-108548345D01*
X114499160Y-108571214D01*
X114488776Y-108593171D01*
X114476289Y-108614004D01*
X114461820Y-108633512D01*
X114445509Y-108651509D01*
X114427512Y-108667820D01*
X114408004Y-108682289D01*
X114387171Y-108694776D01*
X114365214Y-108705160D01*
X114342345Y-108713343D01*
X114318785Y-108719244D01*
X114294759Y-108722808D01*
X114270500Y-108724000D01*
X113775500Y-108724000D01*
X113751241Y-108722808D01*
X113727215Y-108719244D01*
X113703655Y-108713343D01*
X113680786Y-108705160D01*
X113658829Y-108694776D01*
X113637996Y-108682289D01*
X113618488Y-108667820D01*
X113600491Y-108651509D01*
X113584180Y-108633512D01*
X113569711Y-108614004D01*
X113557224Y-108593171D01*
X113546840Y-108571214D01*
X113538657Y-108548345D01*
X113532756Y-108524785D01*
X113529192Y-108500759D01*
X113528000Y-108476500D01*
X113528000Y-107931500D01*
X113529192Y-107907241D01*
X113532756Y-107883215D01*
X113538657Y-107859655D01*
X113546840Y-107836786D01*
X113557224Y-107814829D01*
X113569711Y-107793996D01*
X113584180Y-107774488D01*
X113600491Y-107756491D01*
X113618488Y-107740180D01*
X113637996Y-107725711D01*
X113658829Y-107713224D01*
X113680786Y-107702840D01*
X113703655Y-107694657D01*
X113727215Y-107688756D01*
X113751241Y-107685192D01*
X113775500Y-107684000D01*
X114270500Y-107684000D01*
X114294759Y-107685192D01*
X114294759Y-107685192D01*
G37*
D24*
X114023000Y-108204000D03*
D23*
G36*
X113324759Y-107685192D02*
G01*
X113348785Y-107688756D01*
X113372345Y-107694657D01*
X113395214Y-107702840D01*
X113417171Y-107713224D01*
X113438004Y-107725711D01*
X113457512Y-107740180D01*
X113475509Y-107756491D01*
X113491820Y-107774488D01*
X113506289Y-107793996D01*
X113518776Y-107814829D01*
X113529160Y-107836786D01*
X113537343Y-107859655D01*
X113543244Y-107883215D01*
X113546808Y-107907241D01*
X113548000Y-107931500D01*
X113548000Y-108476500D01*
X113546808Y-108500759D01*
X113543244Y-108524785D01*
X113537343Y-108548345D01*
X113529160Y-108571214D01*
X113518776Y-108593171D01*
X113506289Y-108614004D01*
X113491820Y-108633512D01*
X113475509Y-108651509D01*
X113457512Y-108667820D01*
X113438004Y-108682289D01*
X113417171Y-108694776D01*
X113395214Y-108705160D01*
X113372345Y-108713343D01*
X113348785Y-108719244D01*
X113324759Y-108722808D01*
X113300500Y-108724000D01*
X112805500Y-108724000D01*
X112781241Y-108722808D01*
X112757215Y-108719244D01*
X112733655Y-108713343D01*
X112710786Y-108705160D01*
X112688829Y-108694776D01*
X112667996Y-108682289D01*
X112648488Y-108667820D01*
X112630491Y-108651509D01*
X112614180Y-108633512D01*
X112599711Y-108614004D01*
X112587224Y-108593171D01*
X112576840Y-108571214D01*
X112568657Y-108548345D01*
X112562756Y-108524785D01*
X112559192Y-108500759D01*
X112558000Y-108476500D01*
X112558000Y-107931500D01*
X112559192Y-107907241D01*
X112562756Y-107883215D01*
X112568657Y-107859655D01*
X112576840Y-107836786D01*
X112587224Y-107814829D01*
X112599711Y-107793996D01*
X112614180Y-107774488D01*
X112630491Y-107756491D01*
X112648488Y-107740180D01*
X112667996Y-107725711D01*
X112688829Y-107713224D01*
X112710786Y-107702840D01*
X112733655Y-107694657D01*
X112757215Y-107688756D01*
X112781241Y-107685192D01*
X112805500Y-107684000D01*
X113300500Y-107684000D01*
X113324759Y-107685192D01*
X113324759Y-107685192D01*
G37*
D24*
X113053000Y-108204000D03*
D23*
G36*
X116393603Y-105010963D02*
G01*
X116413018Y-105013843D01*
X116432057Y-105018612D01*
X116450537Y-105025224D01*
X116468279Y-105033616D01*
X116485114Y-105043706D01*
X116500879Y-105055398D01*
X116515421Y-105068579D01*
X116528602Y-105083121D01*
X116540294Y-105098886D01*
X116550384Y-105115721D01*
X116558776Y-105133463D01*
X116565388Y-105151943D01*
X116570157Y-105170982D01*
X116573037Y-105190397D01*
X116574000Y-105210000D01*
X116574000Y-105610000D01*
X116573037Y-105629603D01*
X116570157Y-105649018D01*
X116565388Y-105668057D01*
X116558776Y-105686537D01*
X116550384Y-105704279D01*
X116540294Y-105721114D01*
X116528602Y-105736879D01*
X116515421Y-105751421D01*
X116500879Y-105764602D01*
X116485114Y-105776294D01*
X116468279Y-105786384D01*
X116450537Y-105794776D01*
X116432057Y-105801388D01*
X116413018Y-105806157D01*
X116393603Y-105809037D01*
X116374000Y-105810000D01*
X115914000Y-105810000D01*
X115894397Y-105809037D01*
X115874982Y-105806157D01*
X115855943Y-105801388D01*
X115837463Y-105794776D01*
X115819721Y-105786384D01*
X115802886Y-105776294D01*
X115787121Y-105764602D01*
X115772579Y-105751421D01*
X115759398Y-105736879D01*
X115747706Y-105721114D01*
X115737616Y-105704279D01*
X115729224Y-105686537D01*
X115722612Y-105668057D01*
X115717843Y-105649018D01*
X115714963Y-105629603D01*
X115714000Y-105610000D01*
X115714000Y-105210000D01*
X115714963Y-105190397D01*
X115717843Y-105170982D01*
X115722612Y-105151943D01*
X115729224Y-105133463D01*
X115737616Y-105115721D01*
X115747706Y-105098886D01*
X115759398Y-105083121D01*
X115772579Y-105068579D01*
X115787121Y-105055398D01*
X115802886Y-105043706D01*
X115819721Y-105033616D01*
X115837463Y-105025224D01*
X115855943Y-105018612D01*
X115874982Y-105013843D01*
X115894397Y-105010963D01*
X115914000Y-105010000D01*
X116374000Y-105010000D01*
X116393603Y-105010963D01*
X116393603Y-105010963D01*
G37*
D25*
X116144000Y-105410000D03*
D23*
G36*
X115753603Y-105010963D02*
G01*
X115773018Y-105013843D01*
X115792057Y-105018612D01*
X115810537Y-105025224D01*
X115828279Y-105033616D01*
X115845114Y-105043706D01*
X115860879Y-105055398D01*
X115875421Y-105068579D01*
X115888602Y-105083121D01*
X115900294Y-105098886D01*
X115910384Y-105115721D01*
X115918776Y-105133463D01*
X115925388Y-105151943D01*
X115930157Y-105170982D01*
X115933037Y-105190397D01*
X115934000Y-105210000D01*
X115934000Y-105610000D01*
X115933037Y-105629603D01*
X115930157Y-105649018D01*
X115925388Y-105668057D01*
X115918776Y-105686537D01*
X115910384Y-105704279D01*
X115900294Y-105721114D01*
X115888602Y-105736879D01*
X115875421Y-105751421D01*
X115860879Y-105764602D01*
X115845114Y-105776294D01*
X115828279Y-105786384D01*
X115810537Y-105794776D01*
X115792057Y-105801388D01*
X115773018Y-105806157D01*
X115753603Y-105809037D01*
X115734000Y-105810000D01*
X115274000Y-105810000D01*
X115254397Y-105809037D01*
X115234982Y-105806157D01*
X115215943Y-105801388D01*
X115197463Y-105794776D01*
X115179721Y-105786384D01*
X115162886Y-105776294D01*
X115147121Y-105764602D01*
X115132579Y-105751421D01*
X115119398Y-105736879D01*
X115107706Y-105721114D01*
X115097616Y-105704279D01*
X115089224Y-105686537D01*
X115082612Y-105668057D01*
X115077843Y-105649018D01*
X115074963Y-105629603D01*
X115074000Y-105610000D01*
X115074000Y-105210000D01*
X115074963Y-105190397D01*
X115077843Y-105170982D01*
X115082612Y-105151943D01*
X115089224Y-105133463D01*
X115097616Y-105115721D01*
X115107706Y-105098886D01*
X115119398Y-105083121D01*
X115132579Y-105068579D01*
X115147121Y-105055398D01*
X115162886Y-105043706D01*
X115179721Y-105033616D01*
X115197463Y-105025224D01*
X115215943Y-105018612D01*
X115234982Y-105013843D01*
X115254397Y-105010963D01*
X115274000Y-105010000D01*
X115734000Y-105010000D01*
X115753603Y-105010963D01*
X115753603Y-105010963D01*
G37*
D25*
X115504000Y-105410000D03*
D23*
G36*
X114361603Y-105010963D02*
G01*
X114381018Y-105013843D01*
X114400057Y-105018612D01*
X114418537Y-105025224D01*
X114436279Y-105033616D01*
X114453114Y-105043706D01*
X114468879Y-105055398D01*
X114483421Y-105068579D01*
X114496602Y-105083121D01*
X114508294Y-105098886D01*
X114518384Y-105115721D01*
X114526776Y-105133463D01*
X114533388Y-105151943D01*
X114538157Y-105170982D01*
X114541037Y-105190397D01*
X114542000Y-105210000D01*
X114542000Y-105610000D01*
X114541037Y-105629603D01*
X114538157Y-105649018D01*
X114533388Y-105668057D01*
X114526776Y-105686537D01*
X114518384Y-105704279D01*
X114508294Y-105721114D01*
X114496602Y-105736879D01*
X114483421Y-105751421D01*
X114468879Y-105764602D01*
X114453114Y-105776294D01*
X114436279Y-105786384D01*
X114418537Y-105794776D01*
X114400057Y-105801388D01*
X114381018Y-105806157D01*
X114361603Y-105809037D01*
X114342000Y-105810000D01*
X113882000Y-105810000D01*
X113862397Y-105809037D01*
X113842982Y-105806157D01*
X113823943Y-105801388D01*
X113805463Y-105794776D01*
X113787721Y-105786384D01*
X113770886Y-105776294D01*
X113755121Y-105764602D01*
X113740579Y-105751421D01*
X113727398Y-105736879D01*
X113715706Y-105721114D01*
X113705616Y-105704279D01*
X113697224Y-105686537D01*
X113690612Y-105668057D01*
X113685843Y-105649018D01*
X113682963Y-105629603D01*
X113682000Y-105610000D01*
X113682000Y-105210000D01*
X113682963Y-105190397D01*
X113685843Y-105170982D01*
X113690612Y-105151943D01*
X113697224Y-105133463D01*
X113705616Y-105115721D01*
X113715706Y-105098886D01*
X113727398Y-105083121D01*
X113740579Y-105068579D01*
X113755121Y-105055398D01*
X113770886Y-105043706D01*
X113787721Y-105033616D01*
X113805463Y-105025224D01*
X113823943Y-105018612D01*
X113842982Y-105013843D01*
X113862397Y-105010963D01*
X113882000Y-105010000D01*
X114342000Y-105010000D01*
X114361603Y-105010963D01*
X114361603Y-105010963D01*
G37*
D25*
X114112000Y-105410000D03*
D23*
G36*
X113721603Y-105010963D02*
G01*
X113741018Y-105013843D01*
X113760057Y-105018612D01*
X113778537Y-105025224D01*
X113796279Y-105033616D01*
X113813114Y-105043706D01*
X113828879Y-105055398D01*
X113843421Y-105068579D01*
X113856602Y-105083121D01*
X113868294Y-105098886D01*
X113878384Y-105115721D01*
X113886776Y-105133463D01*
X113893388Y-105151943D01*
X113898157Y-105170982D01*
X113901037Y-105190397D01*
X113902000Y-105210000D01*
X113902000Y-105610000D01*
X113901037Y-105629603D01*
X113898157Y-105649018D01*
X113893388Y-105668057D01*
X113886776Y-105686537D01*
X113878384Y-105704279D01*
X113868294Y-105721114D01*
X113856602Y-105736879D01*
X113843421Y-105751421D01*
X113828879Y-105764602D01*
X113813114Y-105776294D01*
X113796279Y-105786384D01*
X113778537Y-105794776D01*
X113760057Y-105801388D01*
X113741018Y-105806157D01*
X113721603Y-105809037D01*
X113702000Y-105810000D01*
X113242000Y-105810000D01*
X113222397Y-105809037D01*
X113202982Y-105806157D01*
X113183943Y-105801388D01*
X113165463Y-105794776D01*
X113147721Y-105786384D01*
X113130886Y-105776294D01*
X113115121Y-105764602D01*
X113100579Y-105751421D01*
X113087398Y-105736879D01*
X113075706Y-105721114D01*
X113065616Y-105704279D01*
X113057224Y-105686537D01*
X113050612Y-105668057D01*
X113045843Y-105649018D01*
X113042963Y-105629603D01*
X113042000Y-105610000D01*
X113042000Y-105210000D01*
X113042963Y-105190397D01*
X113045843Y-105170982D01*
X113050612Y-105151943D01*
X113057224Y-105133463D01*
X113065616Y-105115721D01*
X113075706Y-105098886D01*
X113087398Y-105083121D01*
X113100579Y-105068579D01*
X113115121Y-105055398D01*
X113130886Y-105043706D01*
X113147721Y-105033616D01*
X113165463Y-105025224D01*
X113183943Y-105018612D01*
X113202982Y-105013843D01*
X113222397Y-105010963D01*
X113242000Y-105010000D01*
X113702000Y-105010000D01*
X113721603Y-105010963D01*
X113721603Y-105010963D01*
G37*
D25*
X113472000Y-105410000D03*
D23*
G36*
X110297603Y-105010963D02*
G01*
X110317018Y-105013843D01*
X110336057Y-105018612D01*
X110354537Y-105025224D01*
X110372279Y-105033616D01*
X110389114Y-105043706D01*
X110404879Y-105055398D01*
X110419421Y-105068579D01*
X110432602Y-105083121D01*
X110444294Y-105098886D01*
X110454384Y-105115721D01*
X110462776Y-105133463D01*
X110469388Y-105151943D01*
X110474157Y-105170982D01*
X110477037Y-105190397D01*
X110478000Y-105210000D01*
X110478000Y-105610000D01*
X110477037Y-105629603D01*
X110474157Y-105649018D01*
X110469388Y-105668057D01*
X110462776Y-105686537D01*
X110454384Y-105704279D01*
X110444294Y-105721114D01*
X110432602Y-105736879D01*
X110419421Y-105751421D01*
X110404879Y-105764602D01*
X110389114Y-105776294D01*
X110372279Y-105786384D01*
X110354537Y-105794776D01*
X110336057Y-105801388D01*
X110317018Y-105806157D01*
X110297603Y-105809037D01*
X110278000Y-105810000D01*
X109818000Y-105810000D01*
X109798397Y-105809037D01*
X109778982Y-105806157D01*
X109759943Y-105801388D01*
X109741463Y-105794776D01*
X109723721Y-105786384D01*
X109706886Y-105776294D01*
X109691121Y-105764602D01*
X109676579Y-105751421D01*
X109663398Y-105736879D01*
X109651706Y-105721114D01*
X109641616Y-105704279D01*
X109633224Y-105686537D01*
X109626612Y-105668057D01*
X109621843Y-105649018D01*
X109618963Y-105629603D01*
X109618000Y-105610000D01*
X109618000Y-105210000D01*
X109618963Y-105190397D01*
X109621843Y-105170982D01*
X109626612Y-105151943D01*
X109633224Y-105133463D01*
X109641616Y-105115721D01*
X109651706Y-105098886D01*
X109663398Y-105083121D01*
X109676579Y-105068579D01*
X109691121Y-105055398D01*
X109706886Y-105043706D01*
X109723721Y-105033616D01*
X109741463Y-105025224D01*
X109759943Y-105018612D01*
X109778982Y-105013843D01*
X109798397Y-105010963D01*
X109818000Y-105010000D01*
X110278000Y-105010000D01*
X110297603Y-105010963D01*
X110297603Y-105010963D01*
G37*
D25*
X110048000Y-105410000D03*
D23*
G36*
X109657603Y-105010963D02*
G01*
X109677018Y-105013843D01*
X109696057Y-105018612D01*
X109714537Y-105025224D01*
X109732279Y-105033616D01*
X109749114Y-105043706D01*
X109764879Y-105055398D01*
X109779421Y-105068579D01*
X109792602Y-105083121D01*
X109804294Y-105098886D01*
X109814384Y-105115721D01*
X109822776Y-105133463D01*
X109829388Y-105151943D01*
X109834157Y-105170982D01*
X109837037Y-105190397D01*
X109838000Y-105210000D01*
X109838000Y-105610000D01*
X109837037Y-105629603D01*
X109834157Y-105649018D01*
X109829388Y-105668057D01*
X109822776Y-105686537D01*
X109814384Y-105704279D01*
X109804294Y-105721114D01*
X109792602Y-105736879D01*
X109779421Y-105751421D01*
X109764879Y-105764602D01*
X109749114Y-105776294D01*
X109732279Y-105786384D01*
X109714537Y-105794776D01*
X109696057Y-105801388D01*
X109677018Y-105806157D01*
X109657603Y-105809037D01*
X109638000Y-105810000D01*
X109178000Y-105810000D01*
X109158397Y-105809037D01*
X109138982Y-105806157D01*
X109119943Y-105801388D01*
X109101463Y-105794776D01*
X109083721Y-105786384D01*
X109066886Y-105776294D01*
X109051121Y-105764602D01*
X109036579Y-105751421D01*
X109023398Y-105736879D01*
X109011706Y-105721114D01*
X109001616Y-105704279D01*
X108993224Y-105686537D01*
X108986612Y-105668057D01*
X108981843Y-105649018D01*
X108978963Y-105629603D01*
X108978000Y-105610000D01*
X108978000Y-105210000D01*
X108978963Y-105190397D01*
X108981843Y-105170982D01*
X108986612Y-105151943D01*
X108993224Y-105133463D01*
X109001616Y-105115721D01*
X109011706Y-105098886D01*
X109023398Y-105083121D01*
X109036579Y-105068579D01*
X109051121Y-105055398D01*
X109066886Y-105043706D01*
X109083721Y-105033616D01*
X109101463Y-105025224D01*
X109119943Y-105018612D01*
X109138982Y-105013843D01*
X109158397Y-105010963D01*
X109178000Y-105010000D01*
X109638000Y-105010000D01*
X109657603Y-105010963D01*
X109657603Y-105010963D01*
G37*
D25*
X109408000Y-105410000D03*
D23*
G36*
X112329603Y-105010963D02*
G01*
X112349018Y-105013843D01*
X112368057Y-105018612D01*
X112386537Y-105025224D01*
X112404279Y-105033616D01*
X112421114Y-105043706D01*
X112436879Y-105055398D01*
X112451421Y-105068579D01*
X112464602Y-105083121D01*
X112476294Y-105098886D01*
X112486384Y-105115721D01*
X112494776Y-105133463D01*
X112501388Y-105151943D01*
X112506157Y-105170982D01*
X112509037Y-105190397D01*
X112510000Y-105210000D01*
X112510000Y-105610000D01*
X112509037Y-105629603D01*
X112506157Y-105649018D01*
X112501388Y-105668057D01*
X112494776Y-105686537D01*
X112486384Y-105704279D01*
X112476294Y-105721114D01*
X112464602Y-105736879D01*
X112451421Y-105751421D01*
X112436879Y-105764602D01*
X112421114Y-105776294D01*
X112404279Y-105786384D01*
X112386537Y-105794776D01*
X112368057Y-105801388D01*
X112349018Y-105806157D01*
X112329603Y-105809037D01*
X112310000Y-105810000D01*
X111850000Y-105810000D01*
X111830397Y-105809037D01*
X111810982Y-105806157D01*
X111791943Y-105801388D01*
X111773463Y-105794776D01*
X111755721Y-105786384D01*
X111738886Y-105776294D01*
X111723121Y-105764602D01*
X111708579Y-105751421D01*
X111695398Y-105736879D01*
X111683706Y-105721114D01*
X111673616Y-105704279D01*
X111665224Y-105686537D01*
X111658612Y-105668057D01*
X111653843Y-105649018D01*
X111650963Y-105629603D01*
X111650000Y-105610000D01*
X111650000Y-105210000D01*
X111650963Y-105190397D01*
X111653843Y-105170982D01*
X111658612Y-105151943D01*
X111665224Y-105133463D01*
X111673616Y-105115721D01*
X111683706Y-105098886D01*
X111695398Y-105083121D01*
X111708579Y-105068579D01*
X111723121Y-105055398D01*
X111738886Y-105043706D01*
X111755721Y-105033616D01*
X111773463Y-105025224D01*
X111791943Y-105018612D01*
X111810982Y-105013843D01*
X111830397Y-105010963D01*
X111850000Y-105010000D01*
X112310000Y-105010000D01*
X112329603Y-105010963D01*
X112329603Y-105010963D01*
G37*
D25*
X112080000Y-105410000D03*
D23*
G36*
X111689603Y-105010963D02*
G01*
X111709018Y-105013843D01*
X111728057Y-105018612D01*
X111746537Y-105025224D01*
X111764279Y-105033616D01*
X111781114Y-105043706D01*
X111796879Y-105055398D01*
X111811421Y-105068579D01*
X111824602Y-105083121D01*
X111836294Y-105098886D01*
X111846384Y-105115721D01*
X111854776Y-105133463D01*
X111861388Y-105151943D01*
X111866157Y-105170982D01*
X111869037Y-105190397D01*
X111870000Y-105210000D01*
X111870000Y-105610000D01*
X111869037Y-105629603D01*
X111866157Y-105649018D01*
X111861388Y-105668057D01*
X111854776Y-105686537D01*
X111846384Y-105704279D01*
X111836294Y-105721114D01*
X111824602Y-105736879D01*
X111811421Y-105751421D01*
X111796879Y-105764602D01*
X111781114Y-105776294D01*
X111764279Y-105786384D01*
X111746537Y-105794776D01*
X111728057Y-105801388D01*
X111709018Y-105806157D01*
X111689603Y-105809037D01*
X111670000Y-105810000D01*
X111210000Y-105810000D01*
X111190397Y-105809037D01*
X111170982Y-105806157D01*
X111151943Y-105801388D01*
X111133463Y-105794776D01*
X111115721Y-105786384D01*
X111098886Y-105776294D01*
X111083121Y-105764602D01*
X111068579Y-105751421D01*
X111055398Y-105736879D01*
X111043706Y-105721114D01*
X111033616Y-105704279D01*
X111025224Y-105686537D01*
X111018612Y-105668057D01*
X111013843Y-105649018D01*
X111010963Y-105629603D01*
X111010000Y-105610000D01*
X111010000Y-105210000D01*
X111010963Y-105190397D01*
X111013843Y-105170982D01*
X111018612Y-105151943D01*
X111025224Y-105133463D01*
X111033616Y-105115721D01*
X111043706Y-105098886D01*
X111055398Y-105083121D01*
X111068579Y-105068579D01*
X111083121Y-105055398D01*
X111098886Y-105043706D01*
X111115721Y-105033616D01*
X111133463Y-105025224D01*
X111151943Y-105018612D01*
X111170982Y-105013843D01*
X111190397Y-105010963D01*
X111210000Y-105010000D01*
X111670000Y-105010000D01*
X111689603Y-105010963D01*
X111689603Y-105010963D01*
G37*
D25*
X111440000Y-105410000D03*
D23*
G36*
X122489603Y-105010963D02*
G01*
X122509018Y-105013843D01*
X122528057Y-105018612D01*
X122546537Y-105025224D01*
X122564279Y-105033616D01*
X122581114Y-105043706D01*
X122596879Y-105055398D01*
X122611421Y-105068579D01*
X122624602Y-105083121D01*
X122636294Y-105098886D01*
X122646384Y-105115721D01*
X122654776Y-105133463D01*
X122661388Y-105151943D01*
X122666157Y-105170982D01*
X122669037Y-105190397D01*
X122670000Y-105210000D01*
X122670000Y-105610000D01*
X122669037Y-105629603D01*
X122666157Y-105649018D01*
X122661388Y-105668057D01*
X122654776Y-105686537D01*
X122646384Y-105704279D01*
X122636294Y-105721114D01*
X122624602Y-105736879D01*
X122611421Y-105751421D01*
X122596879Y-105764602D01*
X122581114Y-105776294D01*
X122564279Y-105786384D01*
X122546537Y-105794776D01*
X122528057Y-105801388D01*
X122509018Y-105806157D01*
X122489603Y-105809037D01*
X122470000Y-105810000D01*
X122010000Y-105810000D01*
X121990397Y-105809037D01*
X121970982Y-105806157D01*
X121951943Y-105801388D01*
X121933463Y-105794776D01*
X121915721Y-105786384D01*
X121898886Y-105776294D01*
X121883121Y-105764602D01*
X121868579Y-105751421D01*
X121855398Y-105736879D01*
X121843706Y-105721114D01*
X121833616Y-105704279D01*
X121825224Y-105686537D01*
X121818612Y-105668057D01*
X121813843Y-105649018D01*
X121810963Y-105629603D01*
X121810000Y-105610000D01*
X121810000Y-105210000D01*
X121810963Y-105190397D01*
X121813843Y-105170982D01*
X121818612Y-105151943D01*
X121825224Y-105133463D01*
X121833616Y-105115721D01*
X121843706Y-105098886D01*
X121855398Y-105083121D01*
X121868579Y-105068579D01*
X121883121Y-105055398D01*
X121898886Y-105043706D01*
X121915721Y-105033616D01*
X121933463Y-105025224D01*
X121951943Y-105018612D01*
X121970982Y-105013843D01*
X121990397Y-105010963D01*
X122010000Y-105010000D01*
X122470000Y-105010000D01*
X122489603Y-105010963D01*
X122489603Y-105010963D01*
G37*
D25*
X122240000Y-105410000D03*
D23*
G36*
X121849603Y-105010963D02*
G01*
X121869018Y-105013843D01*
X121888057Y-105018612D01*
X121906537Y-105025224D01*
X121924279Y-105033616D01*
X121941114Y-105043706D01*
X121956879Y-105055398D01*
X121971421Y-105068579D01*
X121984602Y-105083121D01*
X121996294Y-105098886D01*
X122006384Y-105115721D01*
X122014776Y-105133463D01*
X122021388Y-105151943D01*
X122026157Y-105170982D01*
X122029037Y-105190397D01*
X122030000Y-105210000D01*
X122030000Y-105610000D01*
X122029037Y-105629603D01*
X122026157Y-105649018D01*
X122021388Y-105668057D01*
X122014776Y-105686537D01*
X122006384Y-105704279D01*
X121996294Y-105721114D01*
X121984602Y-105736879D01*
X121971421Y-105751421D01*
X121956879Y-105764602D01*
X121941114Y-105776294D01*
X121924279Y-105786384D01*
X121906537Y-105794776D01*
X121888057Y-105801388D01*
X121869018Y-105806157D01*
X121849603Y-105809037D01*
X121830000Y-105810000D01*
X121370000Y-105810000D01*
X121350397Y-105809037D01*
X121330982Y-105806157D01*
X121311943Y-105801388D01*
X121293463Y-105794776D01*
X121275721Y-105786384D01*
X121258886Y-105776294D01*
X121243121Y-105764602D01*
X121228579Y-105751421D01*
X121215398Y-105736879D01*
X121203706Y-105721114D01*
X121193616Y-105704279D01*
X121185224Y-105686537D01*
X121178612Y-105668057D01*
X121173843Y-105649018D01*
X121170963Y-105629603D01*
X121170000Y-105610000D01*
X121170000Y-105210000D01*
X121170963Y-105190397D01*
X121173843Y-105170982D01*
X121178612Y-105151943D01*
X121185224Y-105133463D01*
X121193616Y-105115721D01*
X121203706Y-105098886D01*
X121215398Y-105083121D01*
X121228579Y-105068579D01*
X121243121Y-105055398D01*
X121258886Y-105043706D01*
X121275721Y-105033616D01*
X121293463Y-105025224D01*
X121311943Y-105018612D01*
X121330982Y-105013843D01*
X121350397Y-105010963D01*
X121370000Y-105010000D01*
X121830000Y-105010000D01*
X121849603Y-105010963D01*
X121849603Y-105010963D01*
G37*
D25*
X121600000Y-105410000D03*
D23*
G36*
X124521603Y-105010963D02*
G01*
X124541018Y-105013843D01*
X124560057Y-105018612D01*
X124578537Y-105025224D01*
X124596279Y-105033616D01*
X124613114Y-105043706D01*
X124628879Y-105055398D01*
X124643421Y-105068579D01*
X124656602Y-105083121D01*
X124668294Y-105098886D01*
X124678384Y-105115721D01*
X124686776Y-105133463D01*
X124693388Y-105151943D01*
X124698157Y-105170982D01*
X124701037Y-105190397D01*
X124702000Y-105210000D01*
X124702000Y-105610000D01*
X124701037Y-105629603D01*
X124698157Y-105649018D01*
X124693388Y-105668057D01*
X124686776Y-105686537D01*
X124678384Y-105704279D01*
X124668294Y-105721114D01*
X124656602Y-105736879D01*
X124643421Y-105751421D01*
X124628879Y-105764602D01*
X124613114Y-105776294D01*
X124596279Y-105786384D01*
X124578537Y-105794776D01*
X124560057Y-105801388D01*
X124541018Y-105806157D01*
X124521603Y-105809037D01*
X124502000Y-105810000D01*
X124042000Y-105810000D01*
X124022397Y-105809037D01*
X124002982Y-105806157D01*
X123983943Y-105801388D01*
X123965463Y-105794776D01*
X123947721Y-105786384D01*
X123930886Y-105776294D01*
X123915121Y-105764602D01*
X123900579Y-105751421D01*
X123887398Y-105736879D01*
X123875706Y-105721114D01*
X123865616Y-105704279D01*
X123857224Y-105686537D01*
X123850612Y-105668057D01*
X123845843Y-105649018D01*
X123842963Y-105629603D01*
X123842000Y-105610000D01*
X123842000Y-105210000D01*
X123842963Y-105190397D01*
X123845843Y-105170982D01*
X123850612Y-105151943D01*
X123857224Y-105133463D01*
X123865616Y-105115721D01*
X123875706Y-105098886D01*
X123887398Y-105083121D01*
X123900579Y-105068579D01*
X123915121Y-105055398D01*
X123930886Y-105043706D01*
X123947721Y-105033616D01*
X123965463Y-105025224D01*
X123983943Y-105018612D01*
X124002982Y-105013843D01*
X124022397Y-105010963D01*
X124042000Y-105010000D01*
X124502000Y-105010000D01*
X124521603Y-105010963D01*
X124521603Y-105010963D01*
G37*
D25*
X124272000Y-105410000D03*
D23*
G36*
X123881603Y-105010963D02*
G01*
X123901018Y-105013843D01*
X123920057Y-105018612D01*
X123938537Y-105025224D01*
X123956279Y-105033616D01*
X123973114Y-105043706D01*
X123988879Y-105055398D01*
X124003421Y-105068579D01*
X124016602Y-105083121D01*
X124028294Y-105098886D01*
X124038384Y-105115721D01*
X124046776Y-105133463D01*
X124053388Y-105151943D01*
X124058157Y-105170982D01*
X124061037Y-105190397D01*
X124062000Y-105210000D01*
X124062000Y-105610000D01*
X124061037Y-105629603D01*
X124058157Y-105649018D01*
X124053388Y-105668057D01*
X124046776Y-105686537D01*
X124038384Y-105704279D01*
X124028294Y-105721114D01*
X124016602Y-105736879D01*
X124003421Y-105751421D01*
X123988879Y-105764602D01*
X123973114Y-105776294D01*
X123956279Y-105786384D01*
X123938537Y-105794776D01*
X123920057Y-105801388D01*
X123901018Y-105806157D01*
X123881603Y-105809037D01*
X123862000Y-105810000D01*
X123402000Y-105810000D01*
X123382397Y-105809037D01*
X123362982Y-105806157D01*
X123343943Y-105801388D01*
X123325463Y-105794776D01*
X123307721Y-105786384D01*
X123290886Y-105776294D01*
X123275121Y-105764602D01*
X123260579Y-105751421D01*
X123247398Y-105736879D01*
X123235706Y-105721114D01*
X123225616Y-105704279D01*
X123217224Y-105686537D01*
X123210612Y-105668057D01*
X123205843Y-105649018D01*
X123202963Y-105629603D01*
X123202000Y-105610000D01*
X123202000Y-105210000D01*
X123202963Y-105190397D01*
X123205843Y-105170982D01*
X123210612Y-105151943D01*
X123217224Y-105133463D01*
X123225616Y-105115721D01*
X123235706Y-105098886D01*
X123247398Y-105083121D01*
X123260579Y-105068579D01*
X123275121Y-105055398D01*
X123290886Y-105043706D01*
X123307721Y-105033616D01*
X123325463Y-105025224D01*
X123343943Y-105018612D01*
X123362982Y-105013843D01*
X123382397Y-105010963D01*
X123402000Y-105010000D01*
X123862000Y-105010000D01*
X123881603Y-105010963D01*
X123881603Y-105010963D01*
G37*
D25*
X123632000Y-105410000D03*
D23*
G36*
X118425603Y-105010963D02*
G01*
X118445018Y-105013843D01*
X118464057Y-105018612D01*
X118482537Y-105025224D01*
X118500279Y-105033616D01*
X118517114Y-105043706D01*
X118532879Y-105055398D01*
X118547421Y-105068579D01*
X118560602Y-105083121D01*
X118572294Y-105098886D01*
X118582384Y-105115721D01*
X118590776Y-105133463D01*
X118597388Y-105151943D01*
X118602157Y-105170982D01*
X118605037Y-105190397D01*
X118606000Y-105210000D01*
X118606000Y-105610000D01*
X118605037Y-105629603D01*
X118602157Y-105649018D01*
X118597388Y-105668057D01*
X118590776Y-105686537D01*
X118582384Y-105704279D01*
X118572294Y-105721114D01*
X118560602Y-105736879D01*
X118547421Y-105751421D01*
X118532879Y-105764602D01*
X118517114Y-105776294D01*
X118500279Y-105786384D01*
X118482537Y-105794776D01*
X118464057Y-105801388D01*
X118445018Y-105806157D01*
X118425603Y-105809037D01*
X118406000Y-105810000D01*
X117946000Y-105810000D01*
X117926397Y-105809037D01*
X117906982Y-105806157D01*
X117887943Y-105801388D01*
X117869463Y-105794776D01*
X117851721Y-105786384D01*
X117834886Y-105776294D01*
X117819121Y-105764602D01*
X117804579Y-105751421D01*
X117791398Y-105736879D01*
X117779706Y-105721114D01*
X117769616Y-105704279D01*
X117761224Y-105686537D01*
X117754612Y-105668057D01*
X117749843Y-105649018D01*
X117746963Y-105629603D01*
X117746000Y-105610000D01*
X117746000Y-105210000D01*
X117746963Y-105190397D01*
X117749843Y-105170982D01*
X117754612Y-105151943D01*
X117761224Y-105133463D01*
X117769616Y-105115721D01*
X117779706Y-105098886D01*
X117791398Y-105083121D01*
X117804579Y-105068579D01*
X117819121Y-105055398D01*
X117834886Y-105043706D01*
X117851721Y-105033616D01*
X117869463Y-105025224D01*
X117887943Y-105018612D01*
X117906982Y-105013843D01*
X117926397Y-105010963D01*
X117946000Y-105010000D01*
X118406000Y-105010000D01*
X118425603Y-105010963D01*
X118425603Y-105010963D01*
G37*
D25*
X118176000Y-105410000D03*
D23*
G36*
X117785603Y-105010963D02*
G01*
X117805018Y-105013843D01*
X117824057Y-105018612D01*
X117842537Y-105025224D01*
X117860279Y-105033616D01*
X117877114Y-105043706D01*
X117892879Y-105055398D01*
X117907421Y-105068579D01*
X117920602Y-105083121D01*
X117932294Y-105098886D01*
X117942384Y-105115721D01*
X117950776Y-105133463D01*
X117957388Y-105151943D01*
X117962157Y-105170982D01*
X117965037Y-105190397D01*
X117966000Y-105210000D01*
X117966000Y-105610000D01*
X117965037Y-105629603D01*
X117962157Y-105649018D01*
X117957388Y-105668057D01*
X117950776Y-105686537D01*
X117942384Y-105704279D01*
X117932294Y-105721114D01*
X117920602Y-105736879D01*
X117907421Y-105751421D01*
X117892879Y-105764602D01*
X117877114Y-105776294D01*
X117860279Y-105786384D01*
X117842537Y-105794776D01*
X117824057Y-105801388D01*
X117805018Y-105806157D01*
X117785603Y-105809037D01*
X117766000Y-105810000D01*
X117306000Y-105810000D01*
X117286397Y-105809037D01*
X117266982Y-105806157D01*
X117247943Y-105801388D01*
X117229463Y-105794776D01*
X117211721Y-105786384D01*
X117194886Y-105776294D01*
X117179121Y-105764602D01*
X117164579Y-105751421D01*
X117151398Y-105736879D01*
X117139706Y-105721114D01*
X117129616Y-105704279D01*
X117121224Y-105686537D01*
X117114612Y-105668057D01*
X117109843Y-105649018D01*
X117106963Y-105629603D01*
X117106000Y-105610000D01*
X117106000Y-105210000D01*
X117106963Y-105190397D01*
X117109843Y-105170982D01*
X117114612Y-105151943D01*
X117121224Y-105133463D01*
X117129616Y-105115721D01*
X117139706Y-105098886D01*
X117151398Y-105083121D01*
X117164579Y-105068579D01*
X117179121Y-105055398D01*
X117194886Y-105043706D01*
X117211721Y-105033616D01*
X117229463Y-105025224D01*
X117247943Y-105018612D01*
X117266982Y-105013843D01*
X117286397Y-105010963D01*
X117306000Y-105010000D01*
X117766000Y-105010000D01*
X117785603Y-105010963D01*
X117785603Y-105010963D01*
G37*
D25*
X117536000Y-105410000D03*
D23*
G36*
X120457603Y-105010963D02*
G01*
X120477018Y-105013843D01*
X120496057Y-105018612D01*
X120514537Y-105025224D01*
X120532279Y-105033616D01*
X120549114Y-105043706D01*
X120564879Y-105055398D01*
X120579421Y-105068579D01*
X120592602Y-105083121D01*
X120604294Y-105098886D01*
X120614384Y-105115721D01*
X120622776Y-105133463D01*
X120629388Y-105151943D01*
X120634157Y-105170982D01*
X120637037Y-105190397D01*
X120638000Y-105210000D01*
X120638000Y-105610000D01*
X120637037Y-105629603D01*
X120634157Y-105649018D01*
X120629388Y-105668057D01*
X120622776Y-105686537D01*
X120614384Y-105704279D01*
X120604294Y-105721114D01*
X120592602Y-105736879D01*
X120579421Y-105751421D01*
X120564879Y-105764602D01*
X120549114Y-105776294D01*
X120532279Y-105786384D01*
X120514537Y-105794776D01*
X120496057Y-105801388D01*
X120477018Y-105806157D01*
X120457603Y-105809037D01*
X120438000Y-105810000D01*
X119978000Y-105810000D01*
X119958397Y-105809037D01*
X119938982Y-105806157D01*
X119919943Y-105801388D01*
X119901463Y-105794776D01*
X119883721Y-105786384D01*
X119866886Y-105776294D01*
X119851121Y-105764602D01*
X119836579Y-105751421D01*
X119823398Y-105736879D01*
X119811706Y-105721114D01*
X119801616Y-105704279D01*
X119793224Y-105686537D01*
X119786612Y-105668057D01*
X119781843Y-105649018D01*
X119778963Y-105629603D01*
X119778000Y-105610000D01*
X119778000Y-105210000D01*
X119778963Y-105190397D01*
X119781843Y-105170982D01*
X119786612Y-105151943D01*
X119793224Y-105133463D01*
X119801616Y-105115721D01*
X119811706Y-105098886D01*
X119823398Y-105083121D01*
X119836579Y-105068579D01*
X119851121Y-105055398D01*
X119866886Y-105043706D01*
X119883721Y-105033616D01*
X119901463Y-105025224D01*
X119919943Y-105018612D01*
X119938982Y-105013843D01*
X119958397Y-105010963D01*
X119978000Y-105010000D01*
X120438000Y-105010000D01*
X120457603Y-105010963D01*
X120457603Y-105010963D01*
G37*
D25*
X120208000Y-105410000D03*
D23*
G36*
X119817603Y-105010963D02*
G01*
X119837018Y-105013843D01*
X119856057Y-105018612D01*
X119874537Y-105025224D01*
X119892279Y-105033616D01*
X119909114Y-105043706D01*
X119924879Y-105055398D01*
X119939421Y-105068579D01*
X119952602Y-105083121D01*
X119964294Y-105098886D01*
X119974384Y-105115721D01*
X119982776Y-105133463D01*
X119989388Y-105151943D01*
X119994157Y-105170982D01*
X119997037Y-105190397D01*
X119998000Y-105210000D01*
X119998000Y-105610000D01*
X119997037Y-105629603D01*
X119994157Y-105649018D01*
X119989388Y-105668057D01*
X119982776Y-105686537D01*
X119974384Y-105704279D01*
X119964294Y-105721114D01*
X119952602Y-105736879D01*
X119939421Y-105751421D01*
X119924879Y-105764602D01*
X119909114Y-105776294D01*
X119892279Y-105786384D01*
X119874537Y-105794776D01*
X119856057Y-105801388D01*
X119837018Y-105806157D01*
X119817603Y-105809037D01*
X119798000Y-105810000D01*
X119338000Y-105810000D01*
X119318397Y-105809037D01*
X119298982Y-105806157D01*
X119279943Y-105801388D01*
X119261463Y-105794776D01*
X119243721Y-105786384D01*
X119226886Y-105776294D01*
X119211121Y-105764602D01*
X119196579Y-105751421D01*
X119183398Y-105736879D01*
X119171706Y-105721114D01*
X119161616Y-105704279D01*
X119153224Y-105686537D01*
X119146612Y-105668057D01*
X119141843Y-105649018D01*
X119138963Y-105629603D01*
X119138000Y-105610000D01*
X119138000Y-105210000D01*
X119138963Y-105190397D01*
X119141843Y-105170982D01*
X119146612Y-105151943D01*
X119153224Y-105133463D01*
X119161616Y-105115721D01*
X119171706Y-105098886D01*
X119183398Y-105083121D01*
X119196579Y-105068579D01*
X119211121Y-105055398D01*
X119226886Y-105043706D01*
X119243721Y-105033616D01*
X119261463Y-105025224D01*
X119279943Y-105018612D01*
X119298982Y-105013843D01*
X119318397Y-105010963D01*
X119338000Y-105010000D01*
X119798000Y-105010000D01*
X119817603Y-105010963D01*
X119817603Y-105010963D01*
G37*
D25*
X119568000Y-105410000D03*
D23*
G36*
X121914759Y-107685192D02*
G01*
X121938785Y-107688756D01*
X121962345Y-107694657D01*
X121985214Y-107702840D01*
X122007171Y-107713224D01*
X122028004Y-107725711D01*
X122047512Y-107740180D01*
X122065509Y-107756491D01*
X122081820Y-107774488D01*
X122096289Y-107793996D01*
X122108776Y-107814829D01*
X122119160Y-107836786D01*
X122127343Y-107859655D01*
X122133244Y-107883215D01*
X122136808Y-107907241D01*
X122138000Y-107931500D01*
X122138000Y-108476500D01*
X122136808Y-108500759D01*
X122133244Y-108524785D01*
X122127343Y-108548345D01*
X122119160Y-108571214D01*
X122108776Y-108593171D01*
X122096289Y-108614004D01*
X122081820Y-108633512D01*
X122065509Y-108651509D01*
X122047512Y-108667820D01*
X122028004Y-108682289D01*
X122007171Y-108694776D01*
X121985214Y-108705160D01*
X121962345Y-108713343D01*
X121938785Y-108719244D01*
X121914759Y-108722808D01*
X121890500Y-108724000D01*
X121395500Y-108724000D01*
X121371241Y-108722808D01*
X121347215Y-108719244D01*
X121323655Y-108713343D01*
X121300786Y-108705160D01*
X121278829Y-108694776D01*
X121257996Y-108682289D01*
X121238488Y-108667820D01*
X121220491Y-108651509D01*
X121204180Y-108633512D01*
X121189711Y-108614004D01*
X121177224Y-108593171D01*
X121166840Y-108571214D01*
X121158657Y-108548345D01*
X121152756Y-108524785D01*
X121149192Y-108500759D01*
X121148000Y-108476500D01*
X121148000Y-107931500D01*
X121149192Y-107907241D01*
X121152756Y-107883215D01*
X121158657Y-107859655D01*
X121166840Y-107836786D01*
X121177224Y-107814829D01*
X121189711Y-107793996D01*
X121204180Y-107774488D01*
X121220491Y-107756491D01*
X121238488Y-107740180D01*
X121257996Y-107725711D01*
X121278829Y-107713224D01*
X121300786Y-107702840D01*
X121323655Y-107694657D01*
X121347215Y-107688756D01*
X121371241Y-107685192D01*
X121395500Y-107684000D01*
X121890500Y-107684000D01*
X121914759Y-107685192D01*
X121914759Y-107685192D01*
G37*
D24*
X121643000Y-108204000D03*
D23*
G36*
X120944759Y-107685192D02*
G01*
X120968785Y-107688756D01*
X120992345Y-107694657D01*
X121015214Y-107702840D01*
X121037171Y-107713224D01*
X121058004Y-107725711D01*
X121077512Y-107740180D01*
X121095509Y-107756491D01*
X121111820Y-107774488D01*
X121126289Y-107793996D01*
X121138776Y-107814829D01*
X121149160Y-107836786D01*
X121157343Y-107859655D01*
X121163244Y-107883215D01*
X121166808Y-107907241D01*
X121168000Y-107931500D01*
X121168000Y-108476500D01*
X121166808Y-108500759D01*
X121163244Y-108524785D01*
X121157343Y-108548345D01*
X121149160Y-108571214D01*
X121138776Y-108593171D01*
X121126289Y-108614004D01*
X121111820Y-108633512D01*
X121095509Y-108651509D01*
X121077512Y-108667820D01*
X121058004Y-108682289D01*
X121037171Y-108694776D01*
X121015214Y-108705160D01*
X120992345Y-108713343D01*
X120968785Y-108719244D01*
X120944759Y-108722808D01*
X120920500Y-108724000D01*
X120425500Y-108724000D01*
X120401241Y-108722808D01*
X120377215Y-108719244D01*
X120353655Y-108713343D01*
X120330786Y-108705160D01*
X120308829Y-108694776D01*
X120287996Y-108682289D01*
X120268488Y-108667820D01*
X120250491Y-108651509D01*
X120234180Y-108633512D01*
X120219711Y-108614004D01*
X120207224Y-108593171D01*
X120196840Y-108571214D01*
X120188657Y-108548345D01*
X120182756Y-108524785D01*
X120179192Y-108500759D01*
X120178000Y-108476500D01*
X120178000Y-107931500D01*
X120179192Y-107907241D01*
X120182756Y-107883215D01*
X120188657Y-107859655D01*
X120196840Y-107836786D01*
X120207224Y-107814829D01*
X120219711Y-107793996D01*
X120234180Y-107774488D01*
X120250491Y-107756491D01*
X120268488Y-107740180D01*
X120287996Y-107725711D01*
X120308829Y-107713224D01*
X120330786Y-107702840D01*
X120353655Y-107694657D01*
X120377215Y-107688756D01*
X120401241Y-107685192D01*
X120425500Y-107684000D01*
X120920500Y-107684000D01*
X120944759Y-107685192D01*
X120944759Y-107685192D01*
G37*
D24*
X120673000Y-108204000D03*
D23*
G36*
X124454759Y-107685192D02*
G01*
X124478785Y-107688756D01*
X124502345Y-107694657D01*
X124525214Y-107702840D01*
X124547171Y-107713224D01*
X124568004Y-107725711D01*
X124587512Y-107740180D01*
X124605509Y-107756491D01*
X124621820Y-107774488D01*
X124636289Y-107793996D01*
X124648776Y-107814829D01*
X124659160Y-107836786D01*
X124667343Y-107859655D01*
X124673244Y-107883215D01*
X124676808Y-107907241D01*
X124678000Y-107931500D01*
X124678000Y-108476500D01*
X124676808Y-108500759D01*
X124673244Y-108524785D01*
X124667343Y-108548345D01*
X124659160Y-108571214D01*
X124648776Y-108593171D01*
X124636289Y-108614004D01*
X124621820Y-108633512D01*
X124605509Y-108651509D01*
X124587512Y-108667820D01*
X124568004Y-108682289D01*
X124547171Y-108694776D01*
X124525214Y-108705160D01*
X124502345Y-108713343D01*
X124478785Y-108719244D01*
X124454759Y-108722808D01*
X124430500Y-108724000D01*
X123935500Y-108724000D01*
X123911241Y-108722808D01*
X123887215Y-108719244D01*
X123863655Y-108713343D01*
X123840786Y-108705160D01*
X123818829Y-108694776D01*
X123797996Y-108682289D01*
X123778488Y-108667820D01*
X123760491Y-108651509D01*
X123744180Y-108633512D01*
X123729711Y-108614004D01*
X123717224Y-108593171D01*
X123706840Y-108571214D01*
X123698657Y-108548345D01*
X123692756Y-108524785D01*
X123689192Y-108500759D01*
X123688000Y-108476500D01*
X123688000Y-107931500D01*
X123689192Y-107907241D01*
X123692756Y-107883215D01*
X123698657Y-107859655D01*
X123706840Y-107836786D01*
X123717224Y-107814829D01*
X123729711Y-107793996D01*
X123744180Y-107774488D01*
X123760491Y-107756491D01*
X123778488Y-107740180D01*
X123797996Y-107725711D01*
X123818829Y-107713224D01*
X123840786Y-107702840D01*
X123863655Y-107694657D01*
X123887215Y-107688756D01*
X123911241Y-107685192D01*
X123935500Y-107684000D01*
X124430500Y-107684000D01*
X124454759Y-107685192D01*
X124454759Y-107685192D01*
G37*
D24*
X124183000Y-108204000D03*
D23*
G36*
X123484759Y-107685192D02*
G01*
X123508785Y-107688756D01*
X123532345Y-107694657D01*
X123555214Y-107702840D01*
X123577171Y-107713224D01*
X123598004Y-107725711D01*
X123617512Y-107740180D01*
X123635509Y-107756491D01*
X123651820Y-107774488D01*
X123666289Y-107793996D01*
X123678776Y-107814829D01*
X123689160Y-107836786D01*
X123697343Y-107859655D01*
X123703244Y-107883215D01*
X123706808Y-107907241D01*
X123708000Y-107931500D01*
X123708000Y-108476500D01*
X123706808Y-108500759D01*
X123703244Y-108524785D01*
X123697343Y-108548345D01*
X123689160Y-108571214D01*
X123678776Y-108593171D01*
X123666289Y-108614004D01*
X123651820Y-108633512D01*
X123635509Y-108651509D01*
X123617512Y-108667820D01*
X123598004Y-108682289D01*
X123577171Y-108694776D01*
X123555214Y-108705160D01*
X123532345Y-108713343D01*
X123508785Y-108719244D01*
X123484759Y-108722808D01*
X123460500Y-108724000D01*
X122965500Y-108724000D01*
X122941241Y-108722808D01*
X122917215Y-108719244D01*
X122893655Y-108713343D01*
X122870786Y-108705160D01*
X122848829Y-108694776D01*
X122827996Y-108682289D01*
X122808488Y-108667820D01*
X122790491Y-108651509D01*
X122774180Y-108633512D01*
X122759711Y-108614004D01*
X122747224Y-108593171D01*
X122736840Y-108571214D01*
X122728657Y-108548345D01*
X122722756Y-108524785D01*
X122719192Y-108500759D01*
X122718000Y-108476500D01*
X122718000Y-107931500D01*
X122719192Y-107907241D01*
X122722756Y-107883215D01*
X122728657Y-107859655D01*
X122736840Y-107836786D01*
X122747224Y-107814829D01*
X122759711Y-107793996D01*
X122774180Y-107774488D01*
X122790491Y-107756491D01*
X122808488Y-107740180D01*
X122827996Y-107725711D01*
X122848829Y-107713224D01*
X122870786Y-107702840D01*
X122893655Y-107694657D01*
X122917215Y-107688756D01*
X122941241Y-107685192D01*
X122965500Y-107684000D01*
X123460500Y-107684000D01*
X123484759Y-107685192D01*
X123484759Y-107685192D01*
G37*
D24*
X123213000Y-108204000D03*
D23*
G36*
X116857759Y-107685192D02*
G01*
X116881785Y-107688756D01*
X116905345Y-107694657D01*
X116928214Y-107702840D01*
X116950171Y-107713224D01*
X116971004Y-107725711D01*
X116990512Y-107740180D01*
X117008509Y-107756491D01*
X117024820Y-107774488D01*
X117039289Y-107793996D01*
X117051776Y-107814829D01*
X117062160Y-107836786D01*
X117070343Y-107859655D01*
X117076244Y-107883215D01*
X117079808Y-107907241D01*
X117081000Y-107931500D01*
X117081000Y-108476500D01*
X117079808Y-108500759D01*
X117076244Y-108524785D01*
X117070343Y-108548345D01*
X117062160Y-108571214D01*
X117051776Y-108593171D01*
X117039289Y-108614004D01*
X117024820Y-108633512D01*
X117008509Y-108651509D01*
X116990512Y-108667820D01*
X116971004Y-108682289D01*
X116950171Y-108694776D01*
X116928214Y-108705160D01*
X116905345Y-108713343D01*
X116881785Y-108719244D01*
X116857759Y-108722808D01*
X116833500Y-108724000D01*
X116338500Y-108724000D01*
X116314241Y-108722808D01*
X116290215Y-108719244D01*
X116266655Y-108713343D01*
X116243786Y-108705160D01*
X116221829Y-108694776D01*
X116200996Y-108682289D01*
X116181488Y-108667820D01*
X116163491Y-108651509D01*
X116147180Y-108633512D01*
X116132711Y-108614004D01*
X116120224Y-108593171D01*
X116109840Y-108571214D01*
X116101657Y-108548345D01*
X116095756Y-108524785D01*
X116092192Y-108500759D01*
X116091000Y-108476500D01*
X116091000Y-107931500D01*
X116092192Y-107907241D01*
X116095756Y-107883215D01*
X116101657Y-107859655D01*
X116109840Y-107836786D01*
X116120224Y-107814829D01*
X116132711Y-107793996D01*
X116147180Y-107774488D01*
X116163491Y-107756491D01*
X116181488Y-107740180D01*
X116200996Y-107725711D01*
X116221829Y-107713224D01*
X116243786Y-107702840D01*
X116266655Y-107694657D01*
X116290215Y-107688756D01*
X116314241Y-107685192D01*
X116338500Y-107684000D01*
X116833500Y-107684000D01*
X116857759Y-107685192D01*
X116857759Y-107685192D01*
G37*
D24*
X116586000Y-108204000D03*
D23*
G36*
X115887759Y-107685192D02*
G01*
X115911785Y-107688756D01*
X115935345Y-107694657D01*
X115958214Y-107702840D01*
X115980171Y-107713224D01*
X116001004Y-107725711D01*
X116020512Y-107740180D01*
X116038509Y-107756491D01*
X116054820Y-107774488D01*
X116069289Y-107793996D01*
X116081776Y-107814829D01*
X116092160Y-107836786D01*
X116100343Y-107859655D01*
X116106244Y-107883215D01*
X116109808Y-107907241D01*
X116111000Y-107931500D01*
X116111000Y-108476500D01*
X116109808Y-108500759D01*
X116106244Y-108524785D01*
X116100343Y-108548345D01*
X116092160Y-108571214D01*
X116081776Y-108593171D01*
X116069289Y-108614004D01*
X116054820Y-108633512D01*
X116038509Y-108651509D01*
X116020512Y-108667820D01*
X116001004Y-108682289D01*
X115980171Y-108694776D01*
X115958214Y-108705160D01*
X115935345Y-108713343D01*
X115911785Y-108719244D01*
X115887759Y-108722808D01*
X115863500Y-108724000D01*
X115368500Y-108724000D01*
X115344241Y-108722808D01*
X115320215Y-108719244D01*
X115296655Y-108713343D01*
X115273786Y-108705160D01*
X115251829Y-108694776D01*
X115230996Y-108682289D01*
X115211488Y-108667820D01*
X115193491Y-108651509D01*
X115177180Y-108633512D01*
X115162711Y-108614004D01*
X115150224Y-108593171D01*
X115139840Y-108571214D01*
X115131657Y-108548345D01*
X115125756Y-108524785D01*
X115122192Y-108500759D01*
X115121000Y-108476500D01*
X115121000Y-107931500D01*
X115122192Y-107907241D01*
X115125756Y-107883215D01*
X115131657Y-107859655D01*
X115139840Y-107836786D01*
X115150224Y-107814829D01*
X115162711Y-107793996D01*
X115177180Y-107774488D01*
X115193491Y-107756491D01*
X115211488Y-107740180D01*
X115230996Y-107725711D01*
X115251829Y-107713224D01*
X115273786Y-107702840D01*
X115296655Y-107694657D01*
X115320215Y-107688756D01*
X115344241Y-107685192D01*
X115368500Y-107684000D01*
X115863500Y-107684000D01*
X115887759Y-107685192D01*
X115887759Y-107685192D01*
G37*
D24*
X115616000Y-108204000D03*
D23*
G36*
X119397759Y-107685192D02*
G01*
X119421785Y-107688756D01*
X119445345Y-107694657D01*
X119468214Y-107702840D01*
X119490171Y-107713224D01*
X119511004Y-107725711D01*
X119530512Y-107740180D01*
X119548509Y-107756491D01*
X119564820Y-107774488D01*
X119579289Y-107793996D01*
X119591776Y-107814829D01*
X119602160Y-107836786D01*
X119610343Y-107859655D01*
X119616244Y-107883215D01*
X119619808Y-107907241D01*
X119621000Y-107931500D01*
X119621000Y-108476500D01*
X119619808Y-108500759D01*
X119616244Y-108524785D01*
X119610343Y-108548345D01*
X119602160Y-108571214D01*
X119591776Y-108593171D01*
X119579289Y-108614004D01*
X119564820Y-108633512D01*
X119548509Y-108651509D01*
X119530512Y-108667820D01*
X119511004Y-108682289D01*
X119490171Y-108694776D01*
X119468214Y-108705160D01*
X119445345Y-108713343D01*
X119421785Y-108719244D01*
X119397759Y-108722808D01*
X119373500Y-108724000D01*
X118878500Y-108724000D01*
X118854241Y-108722808D01*
X118830215Y-108719244D01*
X118806655Y-108713343D01*
X118783786Y-108705160D01*
X118761829Y-108694776D01*
X118740996Y-108682289D01*
X118721488Y-108667820D01*
X118703491Y-108651509D01*
X118687180Y-108633512D01*
X118672711Y-108614004D01*
X118660224Y-108593171D01*
X118649840Y-108571214D01*
X118641657Y-108548345D01*
X118635756Y-108524785D01*
X118632192Y-108500759D01*
X118631000Y-108476500D01*
X118631000Y-107931500D01*
X118632192Y-107907241D01*
X118635756Y-107883215D01*
X118641657Y-107859655D01*
X118649840Y-107836786D01*
X118660224Y-107814829D01*
X118672711Y-107793996D01*
X118687180Y-107774488D01*
X118703491Y-107756491D01*
X118721488Y-107740180D01*
X118740996Y-107725711D01*
X118761829Y-107713224D01*
X118783786Y-107702840D01*
X118806655Y-107694657D01*
X118830215Y-107688756D01*
X118854241Y-107685192D01*
X118878500Y-107684000D01*
X119373500Y-107684000D01*
X119397759Y-107685192D01*
X119397759Y-107685192D01*
G37*
D24*
X119126000Y-108204000D03*
D23*
G36*
X118427759Y-107685192D02*
G01*
X118451785Y-107688756D01*
X118475345Y-107694657D01*
X118498214Y-107702840D01*
X118520171Y-107713224D01*
X118541004Y-107725711D01*
X118560512Y-107740180D01*
X118578509Y-107756491D01*
X118594820Y-107774488D01*
X118609289Y-107793996D01*
X118621776Y-107814829D01*
X118632160Y-107836786D01*
X118640343Y-107859655D01*
X118646244Y-107883215D01*
X118649808Y-107907241D01*
X118651000Y-107931500D01*
X118651000Y-108476500D01*
X118649808Y-108500759D01*
X118646244Y-108524785D01*
X118640343Y-108548345D01*
X118632160Y-108571214D01*
X118621776Y-108593171D01*
X118609289Y-108614004D01*
X118594820Y-108633512D01*
X118578509Y-108651509D01*
X118560512Y-108667820D01*
X118541004Y-108682289D01*
X118520171Y-108694776D01*
X118498214Y-108705160D01*
X118475345Y-108713343D01*
X118451785Y-108719244D01*
X118427759Y-108722808D01*
X118403500Y-108724000D01*
X117908500Y-108724000D01*
X117884241Y-108722808D01*
X117860215Y-108719244D01*
X117836655Y-108713343D01*
X117813786Y-108705160D01*
X117791829Y-108694776D01*
X117770996Y-108682289D01*
X117751488Y-108667820D01*
X117733491Y-108651509D01*
X117717180Y-108633512D01*
X117702711Y-108614004D01*
X117690224Y-108593171D01*
X117679840Y-108571214D01*
X117671657Y-108548345D01*
X117665756Y-108524785D01*
X117662192Y-108500759D01*
X117661000Y-108476500D01*
X117661000Y-107931500D01*
X117662192Y-107907241D01*
X117665756Y-107883215D01*
X117671657Y-107859655D01*
X117679840Y-107836786D01*
X117690224Y-107814829D01*
X117702711Y-107793996D01*
X117717180Y-107774488D01*
X117733491Y-107756491D01*
X117751488Y-107740180D01*
X117770996Y-107725711D01*
X117791829Y-107713224D01*
X117813786Y-107702840D01*
X117836655Y-107694657D01*
X117860215Y-107688756D01*
X117884241Y-107685192D01*
X117908500Y-107684000D01*
X118403500Y-107684000D01*
X118427759Y-107685192D01*
X118427759Y-107685192D01*
G37*
D24*
X118156000Y-108204000D03*
D26*
X93980000Y-106172000D03*
X91440000Y-106172000D03*
X93980000Y-103632000D03*
X91440000Y-103632000D03*
X93980000Y-101092000D03*
D27*
X91440000Y-101092000D03*
D28*
X175266000Y-119750000D03*
D29*
X170266000Y-119750000D03*
D30*
X167266000Y-110750000D03*
D31*
X164266000Y-110750000D03*
D32*
X165266000Y-119750000D03*
D33*
X161266000Y-119750000D03*
D34*
X176266000Y-110750000D03*
D35*
X173266000Y-110750000D03*
D36*
X170266000Y-110750000D03*
D37*
X161266000Y-110750000D03*
D38*
X176266000Y-102750000D03*
D39*
X173266000Y-102750000D03*
D40*
X170266000Y-102750000D03*
D41*
X167266000Y-102750000D03*
D42*
X164266000Y-102750000D03*
D43*
X161266000Y-102750000D03*
D44*
X143205200Y-126238000D03*
D45*
X147777200Y-126085600D03*
D46*
X152089601Y-125862001D03*
D38*
X156311600Y-125730000D03*
D23*
G36*
X94079071Y-114163623D02*
G01*
X94111781Y-114168475D01*
X94143857Y-114176509D01*
X94174991Y-114187649D01*
X94204884Y-114201787D01*
X94233247Y-114218787D01*
X94259807Y-114238485D01*
X94284308Y-114260692D01*
X94306515Y-114285193D01*
X94326213Y-114311753D01*
X94343213Y-114340116D01*
X94357351Y-114370009D01*
X94368491Y-114401143D01*
X94376525Y-114433219D01*
X94381377Y-114465929D01*
X94383000Y-114498956D01*
X94383000Y-115625044D01*
X94381377Y-115658071D01*
X94376525Y-115690781D01*
X94368491Y-115722857D01*
X94357351Y-115753991D01*
X94343213Y-115783884D01*
X94326213Y-115812247D01*
X94306515Y-115838807D01*
X94284308Y-115863308D01*
X94259807Y-115885515D01*
X94233247Y-115905213D01*
X94204884Y-115922213D01*
X94174991Y-115936351D01*
X94143857Y-115947491D01*
X94111781Y-115955525D01*
X94079071Y-115960377D01*
X94046044Y-115962000D01*
X93169956Y-115962000D01*
X93136929Y-115960377D01*
X93104219Y-115955525D01*
X93072143Y-115947491D01*
X93041009Y-115936351D01*
X93011116Y-115922213D01*
X92982753Y-115905213D01*
X92956193Y-115885515D01*
X92931692Y-115863308D01*
X92909485Y-115838807D01*
X92889787Y-115812247D01*
X92872787Y-115783884D01*
X92858649Y-115753991D01*
X92847509Y-115722857D01*
X92839475Y-115690781D01*
X92834623Y-115658071D01*
X92833000Y-115625044D01*
X92833000Y-114498956D01*
X92834623Y-114465929D01*
X92839475Y-114433219D01*
X92847509Y-114401143D01*
X92858649Y-114370009D01*
X92872787Y-114340116D01*
X92889787Y-114311753D01*
X92909485Y-114285193D01*
X92931692Y-114260692D01*
X92956193Y-114238485D01*
X92982753Y-114218787D01*
X93011116Y-114201787D01*
X93041009Y-114187649D01*
X93072143Y-114176509D01*
X93104219Y-114168475D01*
X93136929Y-114163623D01*
X93169956Y-114162000D01*
X94046044Y-114162000D01*
X94079071Y-114163623D01*
X94079071Y-114163623D01*
G37*
D47*
X93608000Y-115062000D03*
D23*
G36*
X92029071Y-114163623D02*
G01*
X92061781Y-114168475D01*
X92093857Y-114176509D01*
X92124991Y-114187649D01*
X92154884Y-114201787D01*
X92183247Y-114218787D01*
X92209807Y-114238485D01*
X92234308Y-114260692D01*
X92256515Y-114285193D01*
X92276213Y-114311753D01*
X92293213Y-114340116D01*
X92307351Y-114370009D01*
X92318491Y-114401143D01*
X92326525Y-114433219D01*
X92331377Y-114465929D01*
X92333000Y-114498956D01*
X92333000Y-115625044D01*
X92331377Y-115658071D01*
X92326525Y-115690781D01*
X92318491Y-115722857D01*
X92307351Y-115753991D01*
X92293213Y-115783884D01*
X92276213Y-115812247D01*
X92256515Y-115838807D01*
X92234308Y-115863308D01*
X92209807Y-115885515D01*
X92183247Y-115905213D01*
X92154884Y-115922213D01*
X92124991Y-115936351D01*
X92093857Y-115947491D01*
X92061781Y-115955525D01*
X92029071Y-115960377D01*
X91996044Y-115962000D01*
X91119956Y-115962000D01*
X91086929Y-115960377D01*
X91054219Y-115955525D01*
X91022143Y-115947491D01*
X90991009Y-115936351D01*
X90961116Y-115922213D01*
X90932753Y-115905213D01*
X90906193Y-115885515D01*
X90881692Y-115863308D01*
X90859485Y-115838807D01*
X90839787Y-115812247D01*
X90822787Y-115783884D01*
X90808649Y-115753991D01*
X90797509Y-115722857D01*
X90789475Y-115690781D01*
X90784623Y-115658071D01*
X90783000Y-115625044D01*
X90783000Y-114498956D01*
X90784623Y-114465929D01*
X90789475Y-114433219D01*
X90797509Y-114401143D01*
X90808649Y-114370009D01*
X90822787Y-114340116D01*
X90839787Y-114311753D01*
X90859485Y-114285193D01*
X90881692Y-114260692D01*
X90906193Y-114238485D01*
X90932753Y-114218787D01*
X90961116Y-114201787D01*
X90991009Y-114187649D01*
X91022143Y-114176509D01*
X91054219Y-114168475D01*
X91086929Y-114163623D01*
X91119956Y-114162000D01*
X91996044Y-114162000D01*
X92029071Y-114163623D01*
X92029071Y-114163623D01*
G37*
D47*
X91558000Y-115062000D03*
D23*
G36*
X112899443Y-114163655D02*
G01*
X112932812Y-114168605D01*
X112965535Y-114176802D01*
X112997297Y-114188166D01*
X113027793Y-114202590D01*
X113056727Y-114219932D01*
X113083823Y-114240028D01*
X113108818Y-114262682D01*
X113131472Y-114287677D01*
X113151568Y-114314773D01*
X113168910Y-114343707D01*
X113183334Y-114374203D01*
X113194698Y-114405965D01*
X113202895Y-114438688D01*
X113207845Y-114472057D01*
X113209500Y-114505750D01*
X113209500Y-115618250D01*
X113207845Y-115651943D01*
X113202895Y-115685312D01*
X113194698Y-115718035D01*
X113183334Y-115749797D01*
X113168910Y-115780293D01*
X113151568Y-115809227D01*
X113131472Y-115836323D01*
X113108818Y-115861318D01*
X113083823Y-115883972D01*
X113056727Y-115904068D01*
X113027793Y-115921410D01*
X112997297Y-115935834D01*
X112965535Y-115947198D01*
X112932812Y-115955395D01*
X112899443Y-115960345D01*
X112865750Y-115962000D01*
X112178250Y-115962000D01*
X112144557Y-115960345D01*
X112111188Y-115955395D01*
X112078465Y-115947198D01*
X112046703Y-115935834D01*
X112016207Y-115921410D01*
X111987273Y-115904068D01*
X111960177Y-115883972D01*
X111935182Y-115861318D01*
X111912528Y-115836323D01*
X111892432Y-115809227D01*
X111875090Y-115780293D01*
X111860666Y-115749797D01*
X111849302Y-115718035D01*
X111841105Y-115685312D01*
X111836155Y-115651943D01*
X111834500Y-115618250D01*
X111834500Y-114505750D01*
X111836155Y-114472057D01*
X111841105Y-114438688D01*
X111849302Y-114405965D01*
X111860666Y-114374203D01*
X111875090Y-114343707D01*
X111892432Y-114314773D01*
X111912528Y-114287677D01*
X111935182Y-114262682D01*
X111960177Y-114240028D01*
X111987273Y-114219932D01*
X112016207Y-114202590D01*
X112046703Y-114188166D01*
X112078465Y-114176802D01*
X112111188Y-114168605D01*
X112144557Y-114163655D01*
X112178250Y-114162000D01*
X112865750Y-114162000D01*
X112899443Y-114163655D01*
X112899443Y-114163655D01*
G37*
D48*
X112522000Y-115062000D03*
D23*
G36*
X111024443Y-114163655D02*
G01*
X111057812Y-114168605D01*
X111090535Y-114176802D01*
X111122297Y-114188166D01*
X111152793Y-114202590D01*
X111181727Y-114219932D01*
X111208823Y-114240028D01*
X111233818Y-114262682D01*
X111256472Y-114287677D01*
X111276568Y-114314773D01*
X111293910Y-114343707D01*
X111308334Y-114374203D01*
X111319698Y-114405965D01*
X111327895Y-114438688D01*
X111332845Y-114472057D01*
X111334500Y-114505750D01*
X111334500Y-115618250D01*
X111332845Y-115651943D01*
X111327895Y-115685312D01*
X111319698Y-115718035D01*
X111308334Y-115749797D01*
X111293910Y-115780293D01*
X111276568Y-115809227D01*
X111256472Y-115836323D01*
X111233818Y-115861318D01*
X111208823Y-115883972D01*
X111181727Y-115904068D01*
X111152793Y-115921410D01*
X111122297Y-115935834D01*
X111090535Y-115947198D01*
X111057812Y-115955395D01*
X111024443Y-115960345D01*
X110990750Y-115962000D01*
X110303250Y-115962000D01*
X110269557Y-115960345D01*
X110236188Y-115955395D01*
X110203465Y-115947198D01*
X110171703Y-115935834D01*
X110141207Y-115921410D01*
X110112273Y-115904068D01*
X110085177Y-115883972D01*
X110060182Y-115861318D01*
X110037528Y-115836323D01*
X110017432Y-115809227D01*
X110000090Y-115780293D01*
X109985666Y-115749797D01*
X109974302Y-115718035D01*
X109966105Y-115685312D01*
X109961155Y-115651943D01*
X109959500Y-115618250D01*
X109959500Y-114505750D01*
X109961155Y-114472057D01*
X109966105Y-114438688D01*
X109974302Y-114405965D01*
X109985666Y-114374203D01*
X110000090Y-114343707D01*
X110017432Y-114314773D01*
X110037528Y-114287677D01*
X110060182Y-114262682D01*
X110085177Y-114240028D01*
X110112273Y-114219932D01*
X110141207Y-114202590D01*
X110171703Y-114188166D01*
X110203465Y-114176802D01*
X110236188Y-114168605D01*
X110269557Y-114163655D01*
X110303250Y-114162000D01*
X110990750Y-114162000D01*
X111024443Y-114163655D01*
X111024443Y-114163655D01*
G37*
D48*
X110647000Y-115062000D03*
D23*
G36*
X106846581Y-111086625D02*
G01*
X106879343Y-111091485D01*
X106911471Y-111099533D01*
X106942656Y-111110691D01*
X106972596Y-111124852D01*
X107001005Y-111141879D01*
X107027608Y-111161609D01*
X107052149Y-111183851D01*
X107074391Y-111208392D01*
X107094121Y-111234995D01*
X107111148Y-111263404D01*
X107125309Y-111293344D01*
X107136467Y-111324529D01*
X107144515Y-111356657D01*
X107149375Y-111389419D01*
X107151000Y-111422500D01*
X107151000Y-112097500D01*
X107149375Y-112130581D01*
X107144515Y-112163343D01*
X107136467Y-112195471D01*
X107125309Y-112226656D01*
X107111148Y-112256596D01*
X107094121Y-112285005D01*
X107074391Y-112311608D01*
X107052149Y-112336149D01*
X107027608Y-112358391D01*
X107001005Y-112378121D01*
X106972596Y-112395148D01*
X106942656Y-112409309D01*
X106911471Y-112420467D01*
X106879343Y-112428515D01*
X106846581Y-112433375D01*
X106813500Y-112435000D01*
X106038500Y-112435000D01*
X106005419Y-112433375D01*
X105972657Y-112428515D01*
X105940529Y-112420467D01*
X105909344Y-112409309D01*
X105879404Y-112395148D01*
X105850995Y-112378121D01*
X105824392Y-112358391D01*
X105799851Y-112336149D01*
X105777609Y-112311608D01*
X105757879Y-112285005D01*
X105740852Y-112256596D01*
X105726691Y-112226656D01*
X105715533Y-112195471D01*
X105707485Y-112163343D01*
X105702625Y-112130581D01*
X105701000Y-112097500D01*
X105701000Y-111422500D01*
X105702625Y-111389419D01*
X105707485Y-111356657D01*
X105715533Y-111324529D01*
X105726691Y-111293344D01*
X105740852Y-111263404D01*
X105757879Y-111234995D01*
X105777609Y-111208392D01*
X105799851Y-111183851D01*
X105824392Y-111161609D01*
X105850995Y-111141879D01*
X105879404Y-111124852D01*
X105909344Y-111110691D01*
X105940529Y-111099533D01*
X105972657Y-111091485D01*
X106005419Y-111086625D01*
X106038500Y-111085000D01*
X106813500Y-111085000D01*
X106846581Y-111086625D01*
X106846581Y-111086625D01*
G37*
D49*
X106426000Y-111760000D03*
D23*
G36*
X105096581Y-111086625D02*
G01*
X105129343Y-111091485D01*
X105161471Y-111099533D01*
X105192656Y-111110691D01*
X105222596Y-111124852D01*
X105251005Y-111141879D01*
X105277608Y-111161609D01*
X105302149Y-111183851D01*
X105324391Y-111208392D01*
X105344121Y-111234995D01*
X105361148Y-111263404D01*
X105375309Y-111293344D01*
X105386467Y-111324529D01*
X105394515Y-111356657D01*
X105399375Y-111389419D01*
X105401000Y-111422500D01*
X105401000Y-112097500D01*
X105399375Y-112130581D01*
X105394515Y-112163343D01*
X105386467Y-112195471D01*
X105375309Y-112226656D01*
X105361148Y-112256596D01*
X105344121Y-112285005D01*
X105324391Y-112311608D01*
X105302149Y-112336149D01*
X105277608Y-112358391D01*
X105251005Y-112378121D01*
X105222596Y-112395148D01*
X105192656Y-112409309D01*
X105161471Y-112420467D01*
X105129343Y-112428515D01*
X105096581Y-112433375D01*
X105063500Y-112435000D01*
X104288500Y-112435000D01*
X104255419Y-112433375D01*
X104222657Y-112428515D01*
X104190529Y-112420467D01*
X104159344Y-112409309D01*
X104129404Y-112395148D01*
X104100995Y-112378121D01*
X104074392Y-112358391D01*
X104049851Y-112336149D01*
X104027609Y-112311608D01*
X104007879Y-112285005D01*
X103990852Y-112256596D01*
X103976691Y-112226656D01*
X103965533Y-112195471D01*
X103957485Y-112163343D01*
X103952625Y-112130581D01*
X103951000Y-112097500D01*
X103951000Y-111422500D01*
X103952625Y-111389419D01*
X103957485Y-111356657D01*
X103965533Y-111324529D01*
X103976691Y-111293344D01*
X103990852Y-111263404D01*
X104007879Y-111234995D01*
X104027609Y-111208392D01*
X104049851Y-111183851D01*
X104074392Y-111161609D01*
X104100995Y-111141879D01*
X104129404Y-111124852D01*
X104159344Y-111110691D01*
X104190529Y-111099533D01*
X104222657Y-111091485D01*
X104255419Y-111086625D01*
X104288500Y-111085000D01*
X105063500Y-111085000D01*
X105096581Y-111086625D01*
X105096581Y-111086625D01*
G37*
D49*
X104676000Y-111760000D03*
D23*
G36*
X112922993Y-111086535D02*
G01*
X112953935Y-111091125D01*
X112984278Y-111098725D01*
X113013730Y-111109263D01*
X113042008Y-111122638D01*
X113068838Y-111138719D01*
X113093963Y-111157353D01*
X113117140Y-111178360D01*
X113138147Y-111201537D01*
X113156781Y-111226662D01*
X113172862Y-111253492D01*
X113186237Y-111281770D01*
X113196775Y-111311222D01*
X113204375Y-111341565D01*
X113208965Y-111372507D01*
X113210500Y-111403750D01*
X113210500Y-112116250D01*
X113208965Y-112147493D01*
X113204375Y-112178435D01*
X113196775Y-112208778D01*
X113186237Y-112238230D01*
X113172862Y-112266508D01*
X113156781Y-112293338D01*
X113138147Y-112318463D01*
X113117140Y-112341640D01*
X113093963Y-112362647D01*
X113068838Y-112381281D01*
X113042008Y-112397362D01*
X113013730Y-112410737D01*
X112984278Y-112421275D01*
X112953935Y-112428875D01*
X112922993Y-112433465D01*
X112891750Y-112435000D01*
X112254250Y-112435000D01*
X112223007Y-112433465D01*
X112192065Y-112428875D01*
X112161722Y-112421275D01*
X112132270Y-112410737D01*
X112103992Y-112397362D01*
X112077162Y-112381281D01*
X112052037Y-112362647D01*
X112028860Y-112341640D01*
X112007853Y-112318463D01*
X111989219Y-112293338D01*
X111973138Y-112266508D01*
X111959763Y-112238230D01*
X111949225Y-112208778D01*
X111941625Y-112178435D01*
X111937035Y-112147493D01*
X111935500Y-112116250D01*
X111935500Y-111403750D01*
X111937035Y-111372507D01*
X111941625Y-111341565D01*
X111949225Y-111311222D01*
X111959763Y-111281770D01*
X111973138Y-111253492D01*
X111989219Y-111226662D01*
X112007853Y-111201537D01*
X112028860Y-111178360D01*
X112052037Y-111157353D01*
X112077162Y-111138719D01*
X112103992Y-111122638D01*
X112132270Y-111109263D01*
X112161722Y-111098725D01*
X112192065Y-111091125D01*
X112223007Y-111086535D01*
X112254250Y-111085000D01*
X112891750Y-111085000D01*
X112922993Y-111086535D01*
X112922993Y-111086535D01*
G37*
D50*
X112573000Y-111760000D03*
D23*
G36*
X111347993Y-111086535D02*
G01*
X111378935Y-111091125D01*
X111409278Y-111098725D01*
X111438730Y-111109263D01*
X111467008Y-111122638D01*
X111493838Y-111138719D01*
X111518963Y-111157353D01*
X111542140Y-111178360D01*
X111563147Y-111201537D01*
X111581781Y-111226662D01*
X111597862Y-111253492D01*
X111611237Y-111281770D01*
X111621775Y-111311222D01*
X111629375Y-111341565D01*
X111633965Y-111372507D01*
X111635500Y-111403750D01*
X111635500Y-112116250D01*
X111633965Y-112147493D01*
X111629375Y-112178435D01*
X111621775Y-112208778D01*
X111611237Y-112238230D01*
X111597862Y-112266508D01*
X111581781Y-112293338D01*
X111563147Y-112318463D01*
X111542140Y-112341640D01*
X111518963Y-112362647D01*
X111493838Y-112381281D01*
X111467008Y-112397362D01*
X111438730Y-112410737D01*
X111409278Y-112421275D01*
X111378935Y-112428875D01*
X111347993Y-112433465D01*
X111316750Y-112435000D01*
X110679250Y-112435000D01*
X110648007Y-112433465D01*
X110617065Y-112428875D01*
X110586722Y-112421275D01*
X110557270Y-112410737D01*
X110528992Y-112397362D01*
X110502162Y-112381281D01*
X110477037Y-112362647D01*
X110453860Y-112341640D01*
X110432853Y-112318463D01*
X110414219Y-112293338D01*
X110398138Y-112266508D01*
X110384763Y-112238230D01*
X110374225Y-112208778D01*
X110366625Y-112178435D01*
X110362035Y-112147493D01*
X110360500Y-112116250D01*
X110360500Y-111403750D01*
X110362035Y-111372507D01*
X110366625Y-111341565D01*
X110374225Y-111311222D01*
X110384763Y-111281770D01*
X110398138Y-111253492D01*
X110414219Y-111226662D01*
X110432853Y-111201537D01*
X110453860Y-111178360D01*
X110477037Y-111157353D01*
X110502162Y-111138719D01*
X110528992Y-111122638D01*
X110557270Y-111109263D01*
X110586722Y-111098725D01*
X110617065Y-111091125D01*
X110648007Y-111086535D01*
X110679250Y-111085000D01*
X111316750Y-111085000D01*
X111347993Y-111086535D01*
X111347993Y-111086535D01*
G37*
D50*
X110998000Y-111760000D03*
D23*
G36*
X97959859Y-121824520D02*
G01*
X97990493Y-121829064D01*
X98020534Y-121836588D01*
X98049692Y-121847021D01*
X98077688Y-121860262D01*
X98104250Y-121876183D01*
X98129125Y-121894632D01*
X98152071Y-121915429D01*
X98172868Y-121938375D01*
X98191317Y-121963250D01*
X98207238Y-121989812D01*
X98220479Y-122017808D01*
X98230912Y-122046966D01*
X98238436Y-122077007D01*
X98242980Y-122107641D01*
X98244500Y-122138572D01*
X98244500Y-125257428D01*
X98242980Y-125288359D01*
X98238436Y-125318993D01*
X98230912Y-125349034D01*
X98220479Y-125378192D01*
X98207238Y-125406188D01*
X98191317Y-125432750D01*
X98172868Y-125457625D01*
X98152071Y-125480571D01*
X98129125Y-125501368D01*
X98104250Y-125519817D01*
X98077688Y-125535738D01*
X98049692Y-125548979D01*
X98020534Y-125559412D01*
X97990493Y-125566936D01*
X97959859Y-125571480D01*
X97928928Y-125573000D01*
X96635072Y-125573000D01*
X96604141Y-125571480D01*
X96573507Y-125566936D01*
X96543466Y-125559412D01*
X96514308Y-125548979D01*
X96486312Y-125535738D01*
X96459750Y-125519817D01*
X96434875Y-125501368D01*
X96411929Y-125480571D01*
X96391132Y-125457625D01*
X96372683Y-125432750D01*
X96356762Y-125406188D01*
X96343521Y-125378192D01*
X96333088Y-125349034D01*
X96325564Y-125318993D01*
X96321020Y-125288359D01*
X96319500Y-125257428D01*
X96319500Y-122138572D01*
X96321020Y-122107641D01*
X96325564Y-122077007D01*
X96333088Y-122046966D01*
X96343521Y-122017808D01*
X96356762Y-121989812D01*
X96372683Y-121963250D01*
X96391132Y-121938375D01*
X96411929Y-121915429D01*
X96434875Y-121894632D01*
X96459750Y-121876183D01*
X96486312Y-121860262D01*
X96514308Y-121847021D01*
X96543466Y-121836588D01*
X96573507Y-121829064D01*
X96604141Y-121824520D01*
X96635072Y-121823000D01*
X97928928Y-121823000D01*
X97959859Y-121824520D01*
X97959859Y-121824520D01*
G37*
D51*
X97282000Y-123698000D03*
D23*
G36*
X91984859Y-121824520D02*
G01*
X92015493Y-121829064D01*
X92045534Y-121836588D01*
X92074692Y-121847021D01*
X92102688Y-121860262D01*
X92129250Y-121876183D01*
X92154125Y-121894632D01*
X92177071Y-121915429D01*
X92197868Y-121938375D01*
X92216317Y-121963250D01*
X92232238Y-121989812D01*
X92245479Y-122017808D01*
X92255912Y-122046966D01*
X92263436Y-122077007D01*
X92267980Y-122107641D01*
X92269500Y-122138572D01*
X92269500Y-125257428D01*
X92267980Y-125288359D01*
X92263436Y-125318993D01*
X92255912Y-125349034D01*
X92245479Y-125378192D01*
X92232238Y-125406188D01*
X92216317Y-125432750D01*
X92197868Y-125457625D01*
X92177071Y-125480571D01*
X92154125Y-125501368D01*
X92129250Y-125519817D01*
X92102688Y-125535738D01*
X92074692Y-125548979D01*
X92045534Y-125559412D01*
X92015493Y-125566936D01*
X91984859Y-125571480D01*
X91953928Y-125573000D01*
X90660072Y-125573000D01*
X90629141Y-125571480D01*
X90598507Y-125566936D01*
X90568466Y-125559412D01*
X90539308Y-125548979D01*
X90511312Y-125535738D01*
X90484750Y-125519817D01*
X90459875Y-125501368D01*
X90436929Y-125480571D01*
X90416132Y-125457625D01*
X90397683Y-125432750D01*
X90381762Y-125406188D01*
X90368521Y-125378192D01*
X90358088Y-125349034D01*
X90350564Y-125318993D01*
X90346020Y-125288359D01*
X90344500Y-125257428D01*
X90344500Y-122138572D01*
X90346020Y-122107641D01*
X90350564Y-122077007D01*
X90358088Y-122046966D01*
X90368521Y-122017808D01*
X90381762Y-121989812D01*
X90397683Y-121963250D01*
X90416132Y-121938375D01*
X90436929Y-121915429D01*
X90459875Y-121894632D01*
X90484750Y-121876183D01*
X90511312Y-121860262D01*
X90539308Y-121847021D01*
X90568466Y-121836588D01*
X90598507Y-121829064D01*
X90629141Y-121824520D01*
X90660072Y-121823000D01*
X91953928Y-121823000D01*
X91984859Y-121824520D01*
X91984859Y-121824520D01*
G37*
D51*
X91307000Y-123698000D03*
D23*
G36*
X107103859Y-121824520D02*
G01*
X107134493Y-121829064D01*
X107164534Y-121836588D01*
X107193692Y-121847021D01*
X107221688Y-121860262D01*
X107248250Y-121876183D01*
X107273125Y-121894632D01*
X107296071Y-121915429D01*
X107316868Y-121938375D01*
X107335317Y-121963250D01*
X107351238Y-121989812D01*
X107364479Y-122017808D01*
X107374912Y-122046966D01*
X107382436Y-122077007D01*
X107386980Y-122107641D01*
X107388500Y-122138572D01*
X107388500Y-125257428D01*
X107386980Y-125288359D01*
X107382436Y-125318993D01*
X107374912Y-125349034D01*
X107364479Y-125378192D01*
X107351238Y-125406188D01*
X107335317Y-125432750D01*
X107316868Y-125457625D01*
X107296071Y-125480571D01*
X107273125Y-125501368D01*
X107248250Y-125519817D01*
X107221688Y-125535738D01*
X107193692Y-125548979D01*
X107164534Y-125559412D01*
X107134493Y-125566936D01*
X107103859Y-125571480D01*
X107072928Y-125573000D01*
X105779072Y-125573000D01*
X105748141Y-125571480D01*
X105717507Y-125566936D01*
X105687466Y-125559412D01*
X105658308Y-125548979D01*
X105630312Y-125535738D01*
X105603750Y-125519817D01*
X105578875Y-125501368D01*
X105555929Y-125480571D01*
X105535132Y-125457625D01*
X105516683Y-125432750D01*
X105500762Y-125406188D01*
X105487521Y-125378192D01*
X105477088Y-125349034D01*
X105469564Y-125318993D01*
X105465020Y-125288359D01*
X105463500Y-125257428D01*
X105463500Y-122138572D01*
X105465020Y-122107641D01*
X105469564Y-122077007D01*
X105477088Y-122046966D01*
X105487521Y-122017808D01*
X105500762Y-121989812D01*
X105516683Y-121963250D01*
X105535132Y-121938375D01*
X105555929Y-121915429D01*
X105578875Y-121894632D01*
X105603750Y-121876183D01*
X105630312Y-121860262D01*
X105658308Y-121847021D01*
X105687466Y-121836588D01*
X105717507Y-121829064D01*
X105748141Y-121824520D01*
X105779072Y-121823000D01*
X107072928Y-121823000D01*
X107103859Y-121824520D01*
X107103859Y-121824520D01*
G37*
D51*
X106426000Y-123698000D03*
D23*
G36*
X101128859Y-121824520D02*
G01*
X101159493Y-121829064D01*
X101189534Y-121836588D01*
X101218692Y-121847021D01*
X101246688Y-121860262D01*
X101273250Y-121876183D01*
X101298125Y-121894632D01*
X101321071Y-121915429D01*
X101341868Y-121938375D01*
X101360317Y-121963250D01*
X101376238Y-121989812D01*
X101389479Y-122017808D01*
X101399912Y-122046966D01*
X101407436Y-122077007D01*
X101411980Y-122107641D01*
X101413500Y-122138572D01*
X101413500Y-125257428D01*
X101411980Y-125288359D01*
X101407436Y-125318993D01*
X101399912Y-125349034D01*
X101389479Y-125378192D01*
X101376238Y-125406188D01*
X101360317Y-125432750D01*
X101341868Y-125457625D01*
X101321071Y-125480571D01*
X101298125Y-125501368D01*
X101273250Y-125519817D01*
X101246688Y-125535738D01*
X101218692Y-125548979D01*
X101189534Y-125559412D01*
X101159493Y-125566936D01*
X101128859Y-125571480D01*
X101097928Y-125573000D01*
X99804072Y-125573000D01*
X99773141Y-125571480D01*
X99742507Y-125566936D01*
X99712466Y-125559412D01*
X99683308Y-125548979D01*
X99655312Y-125535738D01*
X99628750Y-125519817D01*
X99603875Y-125501368D01*
X99580929Y-125480571D01*
X99560132Y-125457625D01*
X99541683Y-125432750D01*
X99525762Y-125406188D01*
X99512521Y-125378192D01*
X99502088Y-125349034D01*
X99494564Y-125318993D01*
X99490020Y-125288359D01*
X99488500Y-125257428D01*
X99488500Y-122138572D01*
X99490020Y-122107641D01*
X99494564Y-122077007D01*
X99502088Y-122046966D01*
X99512521Y-122017808D01*
X99525762Y-121989812D01*
X99541683Y-121963250D01*
X99560132Y-121938375D01*
X99580929Y-121915429D01*
X99603875Y-121894632D01*
X99628750Y-121876183D01*
X99655312Y-121860262D01*
X99683308Y-121847021D01*
X99712466Y-121836588D01*
X99742507Y-121829064D01*
X99773141Y-121824520D01*
X99804072Y-121823000D01*
X101097928Y-121823000D01*
X101128859Y-121824520D01*
X101128859Y-121824520D01*
G37*
D51*
X100451000Y-123698000D03*
D23*
G36*
X115602692Y-121824561D02*
G01*
X115634151Y-121829227D01*
X115665000Y-121836954D01*
X115694944Y-121847669D01*
X115723694Y-121861266D01*
X115750972Y-121877616D01*
X115776517Y-121896561D01*
X115800081Y-121917919D01*
X115821439Y-121941483D01*
X115840384Y-121967028D01*
X115856734Y-121994306D01*
X115870331Y-122023056D01*
X115881046Y-122053000D01*
X115888773Y-122083849D01*
X115893439Y-122115308D01*
X115895000Y-122147073D01*
X115895000Y-125248927D01*
X115893439Y-125280692D01*
X115888773Y-125312151D01*
X115881046Y-125343000D01*
X115870331Y-125372944D01*
X115856734Y-125401694D01*
X115840384Y-125428972D01*
X115821439Y-125454517D01*
X115800081Y-125478081D01*
X115776517Y-125499439D01*
X115750972Y-125518384D01*
X115723694Y-125534734D01*
X115694944Y-125548331D01*
X115665000Y-125559046D01*
X115634151Y-125566773D01*
X115602692Y-125571439D01*
X115570927Y-125573000D01*
X114469073Y-125573000D01*
X114437308Y-125571439D01*
X114405849Y-125566773D01*
X114375000Y-125559046D01*
X114345056Y-125548331D01*
X114316306Y-125534734D01*
X114289028Y-125518384D01*
X114263483Y-125499439D01*
X114239919Y-125478081D01*
X114218561Y-125454517D01*
X114199616Y-125428972D01*
X114183266Y-125401694D01*
X114169669Y-125372944D01*
X114158954Y-125343000D01*
X114151227Y-125312151D01*
X114146561Y-125280692D01*
X114145000Y-125248927D01*
X114145000Y-122147073D01*
X114146561Y-122115308D01*
X114151227Y-122083849D01*
X114158954Y-122053000D01*
X114169669Y-122023056D01*
X114183266Y-121994306D01*
X114199616Y-121967028D01*
X114218561Y-121941483D01*
X114239919Y-121917919D01*
X114263483Y-121896561D01*
X114289028Y-121877616D01*
X114316306Y-121861266D01*
X114345056Y-121847669D01*
X114375000Y-121836954D01*
X114405849Y-121829227D01*
X114437308Y-121824561D01*
X114469073Y-121823000D01*
X115570927Y-121823000D01*
X115602692Y-121824561D01*
X115602692Y-121824561D01*
G37*
D52*
X115020000Y-123698000D03*
D23*
G36*
X109802692Y-121824561D02*
G01*
X109834151Y-121829227D01*
X109865000Y-121836954D01*
X109894944Y-121847669D01*
X109923694Y-121861266D01*
X109950972Y-121877616D01*
X109976517Y-121896561D01*
X110000081Y-121917919D01*
X110021439Y-121941483D01*
X110040384Y-121967028D01*
X110056734Y-121994306D01*
X110070331Y-122023056D01*
X110081046Y-122053000D01*
X110088773Y-122083849D01*
X110093439Y-122115308D01*
X110095000Y-122147073D01*
X110095000Y-125248927D01*
X110093439Y-125280692D01*
X110088773Y-125312151D01*
X110081046Y-125343000D01*
X110070331Y-125372944D01*
X110056734Y-125401694D01*
X110040384Y-125428972D01*
X110021439Y-125454517D01*
X110000081Y-125478081D01*
X109976517Y-125499439D01*
X109950972Y-125518384D01*
X109923694Y-125534734D01*
X109894944Y-125548331D01*
X109865000Y-125559046D01*
X109834151Y-125566773D01*
X109802692Y-125571439D01*
X109770927Y-125573000D01*
X108669073Y-125573000D01*
X108637308Y-125571439D01*
X108605849Y-125566773D01*
X108575000Y-125559046D01*
X108545056Y-125548331D01*
X108516306Y-125534734D01*
X108489028Y-125518384D01*
X108463483Y-125499439D01*
X108439919Y-125478081D01*
X108418561Y-125454517D01*
X108399616Y-125428972D01*
X108383266Y-125401694D01*
X108369669Y-125372944D01*
X108358954Y-125343000D01*
X108351227Y-125312151D01*
X108346561Y-125280692D01*
X108345000Y-125248927D01*
X108345000Y-122147073D01*
X108346561Y-122115308D01*
X108351227Y-122083849D01*
X108358954Y-122053000D01*
X108369669Y-122023056D01*
X108383266Y-121994306D01*
X108399616Y-121967028D01*
X108418561Y-121941483D01*
X108439919Y-121917919D01*
X108463483Y-121896561D01*
X108489028Y-121877616D01*
X108516306Y-121861266D01*
X108545056Y-121847669D01*
X108575000Y-121836954D01*
X108605849Y-121829227D01*
X108637308Y-121824561D01*
X108669073Y-121823000D01*
X109770927Y-121823000D01*
X109802692Y-121824561D01*
X109802692Y-121824561D01*
G37*
D52*
X109220000Y-123698000D03*
D23*
G36*
X124365692Y-121824561D02*
G01*
X124397151Y-121829227D01*
X124428000Y-121836954D01*
X124457944Y-121847669D01*
X124486694Y-121861266D01*
X124513972Y-121877616D01*
X124539517Y-121896561D01*
X124563081Y-121917919D01*
X124584439Y-121941483D01*
X124603384Y-121967028D01*
X124619734Y-121994306D01*
X124633331Y-122023056D01*
X124644046Y-122053000D01*
X124651773Y-122083849D01*
X124656439Y-122115308D01*
X124658000Y-122147073D01*
X124658000Y-125248927D01*
X124656439Y-125280692D01*
X124651773Y-125312151D01*
X124644046Y-125343000D01*
X124633331Y-125372944D01*
X124619734Y-125401694D01*
X124603384Y-125428972D01*
X124584439Y-125454517D01*
X124563081Y-125478081D01*
X124539517Y-125499439D01*
X124513972Y-125518384D01*
X124486694Y-125534734D01*
X124457944Y-125548331D01*
X124428000Y-125559046D01*
X124397151Y-125566773D01*
X124365692Y-125571439D01*
X124333927Y-125573000D01*
X123232073Y-125573000D01*
X123200308Y-125571439D01*
X123168849Y-125566773D01*
X123138000Y-125559046D01*
X123108056Y-125548331D01*
X123079306Y-125534734D01*
X123052028Y-125518384D01*
X123026483Y-125499439D01*
X123002919Y-125478081D01*
X122981561Y-125454517D01*
X122962616Y-125428972D01*
X122946266Y-125401694D01*
X122932669Y-125372944D01*
X122921954Y-125343000D01*
X122914227Y-125312151D01*
X122909561Y-125280692D01*
X122908000Y-125248927D01*
X122908000Y-122147073D01*
X122909561Y-122115308D01*
X122914227Y-122083849D01*
X122921954Y-122053000D01*
X122932669Y-122023056D01*
X122946266Y-121994306D01*
X122962616Y-121967028D01*
X122981561Y-121941483D01*
X123002919Y-121917919D01*
X123026483Y-121896561D01*
X123052028Y-121877616D01*
X123079306Y-121861266D01*
X123108056Y-121847669D01*
X123138000Y-121836954D01*
X123168849Y-121829227D01*
X123200308Y-121824561D01*
X123232073Y-121823000D01*
X124333927Y-121823000D01*
X124365692Y-121824561D01*
X124365692Y-121824561D01*
G37*
D52*
X123783000Y-123698000D03*
D23*
G36*
X118565692Y-121824561D02*
G01*
X118597151Y-121829227D01*
X118628000Y-121836954D01*
X118657944Y-121847669D01*
X118686694Y-121861266D01*
X118713972Y-121877616D01*
X118739517Y-121896561D01*
X118763081Y-121917919D01*
X118784439Y-121941483D01*
X118803384Y-121967028D01*
X118819734Y-121994306D01*
X118833331Y-122023056D01*
X118844046Y-122053000D01*
X118851773Y-122083849D01*
X118856439Y-122115308D01*
X118858000Y-122147073D01*
X118858000Y-125248927D01*
X118856439Y-125280692D01*
X118851773Y-125312151D01*
X118844046Y-125343000D01*
X118833331Y-125372944D01*
X118819734Y-125401694D01*
X118803384Y-125428972D01*
X118784439Y-125454517D01*
X118763081Y-125478081D01*
X118739517Y-125499439D01*
X118713972Y-125518384D01*
X118686694Y-125534734D01*
X118657944Y-125548331D01*
X118628000Y-125559046D01*
X118597151Y-125566773D01*
X118565692Y-125571439D01*
X118533927Y-125573000D01*
X117432073Y-125573000D01*
X117400308Y-125571439D01*
X117368849Y-125566773D01*
X117338000Y-125559046D01*
X117308056Y-125548331D01*
X117279306Y-125534734D01*
X117252028Y-125518384D01*
X117226483Y-125499439D01*
X117202919Y-125478081D01*
X117181561Y-125454517D01*
X117162616Y-125428972D01*
X117146266Y-125401694D01*
X117132669Y-125372944D01*
X117121954Y-125343000D01*
X117114227Y-125312151D01*
X117109561Y-125280692D01*
X117108000Y-125248927D01*
X117108000Y-122147073D01*
X117109561Y-122115308D01*
X117114227Y-122083849D01*
X117121954Y-122053000D01*
X117132669Y-122023056D01*
X117146266Y-121994306D01*
X117162616Y-121967028D01*
X117181561Y-121941483D01*
X117202919Y-121917919D01*
X117226483Y-121896561D01*
X117252028Y-121877616D01*
X117279306Y-121861266D01*
X117308056Y-121847669D01*
X117338000Y-121836954D01*
X117368849Y-121829227D01*
X117400308Y-121824561D01*
X117432073Y-121823000D01*
X118533927Y-121823000D01*
X118565692Y-121824561D01*
X118565692Y-121824561D01*
G37*
D52*
X117983000Y-123698000D03*
D23*
G36*
X95546707Y-117798542D02*
G01*
X95577787Y-117803152D01*
X95608266Y-117810787D01*
X95637850Y-117821372D01*
X95666254Y-117834806D01*
X95693204Y-117850959D01*
X95718442Y-117869677D01*
X95741723Y-117890777D01*
X95762823Y-117914058D01*
X95781541Y-117939296D01*
X95797694Y-117966246D01*
X95811128Y-117994650D01*
X95821713Y-118024234D01*
X95829348Y-118054713D01*
X95833958Y-118085793D01*
X95835500Y-118117176D01*
X95835500Y-119626824D01*
X95833958Y-119658207D01*
X95829348Y-119689287D01*
X95821713Y-119719766D01*
X95811128Y-119749350D01*
X95797694Y-119777754D01*
X95781541Y-119804704D01*
X95762823Y-119829942D01*
X95741723Y-119853223D01*
X95718442Y-119874323D01*
X95693204Y-119893041D01*
X95666254Y-119909194D01*
X95637850Y-119922628D01*
X95608266Y-119933213D01*
X95577787Y-119940848D01*
X95546707Y-119945458D01*
X95515324Y-119947000D01*
X94330676Y-119947000D01*
X94299293Y-119945458D01*
X94268213Y-119940848D01*
X94237734Y-119933213D01*
X94208150Y-119922628D01*
X94179746Y-119909194D01*
X94152796Y-119893041D01*
X94127558Y-119874323D01*
X94104277Y-119853223D01*
X94083177Y-119829942D01*
X94064459Y-119804704D01*
X94048306Y-119777754D01*
X94034872Y-119749350D01*
X94024287Y-119719766D01*
X94016652Y-119689287D01*
X94012042Y-119658207D01*
X94010500Y-119626824D01*
X94010500Y-118117176D01*
X94012042Y-118085793D01*
X94016652Y-118054713D01*
X94024287Y-118024234D01*
X94034872Y-117994650D01*
X94048306Y-117966246D01*
X94064459Y-117939296D01*
X94083177Y-117914058D01*
X94104277Y-117890777D01*
X94127558Y-117869677D01*
X94152796Y-117850959D01*
X94179746Y-117834806D01*
X94208150Y-117821372D01*
X94237734Y-117810787D01*
X94268213Y-117803152D01*
X94299293Y-117798542D01*
X94330676Y-117797000D01*
X95515324Y-117797000D01*
X95546707Y-117798542D01*
X95546707Y-117798542D01*
G37*
D53*
X94923000Y-118872000D03*
D23*
G36*
X92571707Y-117798542D02*
G01*
X92602787Y-117803152D01*
X92633266Y-117810787D01*
X92662850Y-117821372D01*
X92691254Y-117834806D01*
X92718204Y-117850959D01*
X92743442Y-117869677D01*
X92766723Y-117890777D01*
X92787823Y-117914058D01*
X92806541Y-117939296D01*
X92822694Y-117966246D01*
X92836128Y-117994650D01*
X92846713Y-118024234D01*
X92854348Y-118054713D01*
X92858958Y-118085793D01*
X92860500Y-118117176D01*
X92860500Y-119626824D01*
X92858958Y-119658207D01*
X92854348Y-119689287D01*
X92846713Y-119719766D01*
X92836128Y-119749350D01*
X92822694Y-119777754D01*
X92806541Y-119804704D01*
X92787823Y-119829942D01*
X92766723Y-119853223D01*
X92743442Y-119874323D01*
X92718204Y-119893041D01*
X92691254Y-119909194D01*
X92662850Y-119922628D01*
X92633266Y-119933213D01*
X92602787Y-119940848D01*
X92571707Y-119945458D01*
X92540324Y-119947000D01*
X91355676Y-119947000D01*
X91324293Y-119945458D01*
X91293213Y-119940848D01*
X91262734Y-119933213D01*
X91233150Y-119922628D01*
X91204746Y-119909194D01*
X91177796Y-119893041D01*
X91152558Y-119874323D01*
X91129277Y-119853223D01*
X91108177Y-119829942D01*
X91089459Y-119804704D01*
X91073306Y-119777754D01*
X91059872Y-119749350D01*
X91049287Y-119719766D01*
X91041652Y-119689287D01*
X91037042Y-119658207D01*
X91035500Y-119626824D01*
X91035500Y-118117176D01*
X91037042Y-118085793D01*
X91041652Y-118054713D01*
X91049287Y-118024234D01*
X91059872Y-117994650D01*
X91073306Y-117966246D01*
X91089459Y-117939296D01*
X91108177Y-117914058D01*
X91129277Y-117890777D01*
X91152558Y-117869677D01*
X91177796Y-117850959D01*
X91204746Y-117834806D01*
X91233150Y-117821372D01*
X91262734Y-117810787D01*
X91293213Y-117803152D01*
X91324293Y-117798542D01*
X91355676Y-117797000D01*
X92540324Y-117797000D01*
X92571707Y-117798542D01*
X92571707Y-117798542D01*
G37*
D53*
X91948000Y-118872000D03*
D23*
G36*
X101261707Y-117798542D02*
G01*
X101292787Y-117803152D01*
X101323266Y-117810787D01*
X101352850Y-117821372D01*
X101381254Y-117834806D01*
X101408204Y-117850959D01*
X101433442Y-117869677D01*
X101456723Y-117890777D01*
X101477823Y-117914058D01*
X101496541Y-117939296D01*
X101512694Y-117966246D01*
X101526128Y-117994650D01*
X101536713Y-118024234D01*
X101544348Y-118054713D01*
X101548958Y-118085793D01*
X101550500Y-118117176D01*
X101550500Y-119626824D01*
X101548958Y-119658207D01*
X101544348Y-119689287D01*
X101536713Y-119719766D01*
X101526128Y-119749350D01*
X101512694Y-119777754D01*
X101496541Y-119804704D01*
X101477823Y-119829942D01*
X101456723Y-119853223D01*
X101433442Y-119874323D01*
X101408204Y-119893041D01*
X101381254Y-119909194D01*
X101352850Y-119922628D01*
X101323266Y-119933213D01*
X101292787Y-119940848D01*
X101261707Y-119945458D01*
X101230324Y-119947000D01*
X100045676Y-119947000D01*
X100014293Y-119945458D01*
X99983213Y-119940848D01*
X99952734Y-119933213D01*
X99923150Y-119922628D01*
X99894746Y-119909194D01*
X99867796Y-119893041D01*
X99842558Y-119874323D01*
X99819277Y-119853223D01*
X99798177Y-119829942D01*
X99779459Y-119804704D01*
X99763306Y-119777754D01*
X99749872Y-119749350D01*
X99739287Y-119719766D01*
X99731652Y-119689287D01*
X99727042Y-119658207D01*
X99725500Y-119626824D01*
X99725500Y-118117176D01*
X99727042Y-118085793D01*
X99731652Y-118054713D01*
X99739287Y-118024234D01*
X99749872Y-117994650D01*
X99763306Y-117966246D01*
X99779459Y-117939296D01*
X99798177Y-117914058D01*
X99819277Y-117890777D01*
X99842558Y-117869677D01*
X99867796Y-117850959D01*
X99894746Y-117834806D01*
X99923150Y-117821372D01*
X99952734Y-117810787D01*
X99983213Y-117803152D01*
X100014293Y-117798542D01*
X100045676Y-117797000D01*
X101230324Y-117797000D01*
X101261707Y-117798542D01*
X101261707Y-117798542D01*
G37*
D53*
X100638000Y-118872000D03*
D23*
G36*
X98286707Y-117798542D02*
G01*
X98317787Y-117803152D01*
X98348266Y-117810787D01*
X98377850Y-117821372D01*
X98406254Y-117834806D01*
X98433204Y-117850959D01*
X98458442Y-117869677D01*
X98481723Y-117890777D01*
X98502823Y-117914058D01*
X98521541Y-117939296D01*
X98537694Y-117966246D01*
X98551128Y-117994650D01*
X98561713Y-118024234D01*
X98569348Y-118054713D01*
X98573958Y-118085793D01*
X98575500Y-118117176D01*
X98575500Y-119626824D01*
X98573958Y-119658207D01*
X98569348Y-119689287D01*
X98561713Y-119719766D01*
X98551128Y-119749350D01*
X98537694Y-119777754D01*
X98521541Y-119804704D01*
X98502823Y-119829942D01*
X98481723Y-119853223D01*
X98458442Y-119874323D01*
X98433204Y-119893041D01*
X98406254Y-119909194D01*
X98377850Y-119922628D01*
X98348266Y-119933213D01*
X98317787Y-119940848D01*
X98286707Y-119945458D01*
X98255324Y-119947000D01*
X97070676Y-119947000D01*
X97039293Y-119945458D01*
X97008213Y-119940848D01*
X96977734Y-119933213D01*
X96948150Y-119922628D01*
X96919746Y-119909194D01*
X96892796Y-119893041D01*
X96867558Y-119874323D01*
X96844277Y-119853223D01*
X96823177Y-119829942D01*
X96804459Y-119804704D01*
X96788306Y-119777754D01*
X96774872Y-119749350D01*
X96764287Y-119719766D01*
X96756652Y-119689287D01*
X96752042Y-119658207D01*
X96750500Y-119626824D01*
X96750500Y-118117176D01*
X96752042Y-118085793D01*
X96756652Y-118054713D01*
X96764287Y-118024234D01*
X96774872Y-117994650D01*
X96788306Y-117966246D01*
X96804459Y-117939296D01*
X96823177Y-117914058D01*
X96844277Y-117890777D01*
X96867558Y-117869677D01*
X96892796Y-117850959D01*
X96919746Y-117834806D01*
X96948150Y-117821372D01*
X96977734Y-117810787D01*
X97008213Y-117803152D01*
X97039293Y-117798542D01*
X97070676Y-117797000D01*
X98255324Y-117797000D01*
X98286707Y-117798542D01*
X98286707Y-117798542D01*
G37*
D53*
X97663000Y-118872000D03*
D23*
G36*
X106976707Y-117798542D02*
G01*
X107007787Y-117803152D01*
X107038266Y-117810787D01*
X107067850Y-117821372D01*
X107096254Y-117834806D01*
X107123204Y-117850959D01*
X107148442Y-117869677D01*
X107171723Y-117890777D01*
X107192823Y-117914058D01*
X107211541Y-117939296D01*
X107227694Y-117966246D01*
X107241128Y-117994650D01*
X107251713Y-118024234D01*
X107259348Y-118054713D01*
X107263958Y-118085793D01*
X107265500Y-118117176D01*
X107265500Y-119626824D01*
X107263958Y-119658207D01*
X107259348Y-119689287D01*
X107251713Y-119719766D01*
X107241128Y-119749350D01*
X107227694Y-119777754D01*
X107211541Y-119804704D01*
X107192823Y-119829942D01*
X107171723Y-119853223D01*
X107148442Y-119874323D01*
X107123204Y-119893041D01*
X107096254Y-119909194D01*
X107067850Y-119922628D01*
X107038266Y-119933213D01*
X107007787Y-119940848D01*
X106976707Y-119945458D01*
X106945324Y-119947000D01*
X105760676Y-119947000D01*
X105729293Y-119945458D01*
X105698213Y-119940848D01*
X105667734Y-119933213D01*
X105638150Y-119922628D01*
X105609746Y-119909194D01*
X105582796Y-119893041D01*
X105557558Y-119874323D01*
X105534277Y-119853223D01*
X105513177Y-119829942D01*
X105494459Y-119804704D01*
X105478306Y-119777754D01*
X105464872Y-119749350D01*
X105454287Y-119719766D01*
X105446652Y-119689287D01*
X105442042Y-119658207D01*
X105440500Y-119626824D01*
X105440500Y-118117176D01*
X105442042Y-118085793D01*
X105446652Y-118054713D01*
X105454287Y-118024234D01*
X105464872Y-117994650D01*
X105478306Y-117966246D01*
X105494459Y-117939296D01*
X105513177Y-117914058D01*
X105534277Y-117890777D01*
X105557558Y-117869677D01*
X105582796Y-117850959D01*
X105609746Y-117834806D01*
X105638150Y-117821372D01*
X105667734Y-117810787D01*
X105698213Y-117803152D01*
X105729293Y-117798542D01*
X105760676Y-117797000D01*
X106945324Y-117797000D01*
X106976707Y-117798542D01*
X106976707Y-117798542D01*
G37*
D53*
X106353000Y-118872000D03*
D23*
G36*
X104001707Y-117798542D02*
G01*
X104032787Y-117803152D01*
X104063266Y-117810787D01*
X104092850Y-117821372D01*
X104121254Y-117834806D01*
X104148204Y-117850959D01*
X104173442Y-117869677D01*
X104196723Y-117890777D01*
X104217823Y-117914058D01*
X104236541Y-117939296D01*
X104252694Y-117966246D01*
X104266128Y-117994650D01*
X104276713Y-118024234D01*
X104284348Y-118054713D01*
X104288958Y-118085793D01*
X104290500Y-118117176D01*
X104290500Y-119626824D01*
X104288958Y-119658207D01*
X104284348Y-119689287D01*
X104276713Y-119719766D01*
X104266128Y-119749350D01*
X104252694Y-119777754D01*
X104236541Y-119804704D01*
X104217823Y-119829942D01*
X104196723Y-119853223D01*
X104173442Y-119874323D01*
X104148204Y-119893041D01*
X104121254Y-119909194D01*
X104092850Y-119922628D01*
X104063266Y-119933213D01*
X104032787Y-119940848D01*
X104001707Y-119945458D01*
X103970324Y-119947000D01*
X102785676Y-119947000D01*
X102754293Y-119945458D01*
X102723213Y-119940848D01*
X102692734Y-119933213D01*
X102663150Y-119922628D01*
X102634746Y-119909194D01*
X102607796Y-119893041D01*
X102582558Y-119874323D01*
X102559277Y-119853223D01*
X102538177Y-119829942D01*
X102519459Y-119804704D01*
X102503306Y-119777754D01*
X102489872Y-119749350D01*
X102479287Y-119719766D01*
X102471652Y-119689287D01*
X102467042Y-119658207D01*
X102465500Y-119626824D01*
X102465500Y-118117176D01*
X102467042Y-118085793D01*
X102471652Y-118054713D01*
X102479287Y-118024234D01*
X102489872Y-117994650D01*
X102503306Y-117966246D01*
X102519459Y-117939296D01*
X102538177Y-117914058D01*
X102559277Y-117890777D01*
X102582558Y-117869677D01*
X102607796Y-117850959D01*
X102634746Y-117834806D01*
X102663150Y-117821372D01*
X102692734Y-117810787D01*
X102723213Y-117803152D01*
X102754293Y-117798542D01*
X102785676Y-117797000D01*
X103970324Y-117797000D01*
X104001707Y-117798542D01*
X104001707Y-117798542D01*
G37*
D53*
X103378000Y-118872000D03*
D23*
G36*
X114325346Y-117798589D02*
G01*
X114357380Y-117803341D01*
X114388794Y-117811210D01*
X114419286Y-117822120D01*
X114448561Y-117835966D01*
X114476338Y-117852615D01*
X114502350Y-117871907D01*
X114526345Y-117893655D01*
X114548093Y-117917650D01*
X114567385Y-117943662D01*
X114584034Y-117971439D01*
X114597880Y-118000714D01*
X114608790Y-118031206D01*
X114616659Y-118062620D01*
X114621411Y-118094654D01*
X114623000Y-118127000D01*
X114623000Y-119617000D01*
X114621411Y-119649346D01*
X114616659Y-119681380D01*
X114608790Y-119712794D01*
X114597880Y-119743286D01*
X114584034Y-119772561D01*
X114567385Y-119800338D01*
X114548093Y-119826350D01*
X114526345Y-119850345D01*
X114502350Y-119872093D01*
X114476338Y-119891385D01*
X114448561Y-119908034D01*
X114419286Y-119921880D01*
X114388794Y-119932790D01*
X114357380Y-119940659D01*
X114325346Y-119945411D01*
X114293000Y-119947000D01*
X113303000Y-119947000D01*
X113270654Y-119945411D01*
X113238620Y-119940659D01*
X113207206Y-119932790D01*
X113176714Y-119921880D01*
X113147439Y-119908034D01*
X113119662Y-119891385D01*
X113093650Y-119872093D01*
X113069655Y-119850345D01*
X113047907Y-119826350D01*
X113028615Y-119800338D01*
X113011966Y-119772561D01*
X112998120Y-119743286D01*
X112987210Y-119712794D01*
X112979341Y-119681380D01*
X112974589Y-119649346D01*
X112973000Y-119617000D01*
X112973000Y-118127000D01*
X112974589Y-118094654D01*
X112979341Y-118062620D01*
X112987210Y-118031206D01*
X112998120Y-118000714D01*
X113011966Y-117971439D01*
X113028615Y-117943662D01*
X113047907Y-117917650D01*
X113069655Y-117893655D01*
X113093650Y-117871907D01*
X113119662Y-117852615D01*
X113147439Y-117835966D01*
X113176714Y-117822120D01*
X113207206Y-117811210D01*
X113238620Y-117803341D01*
X113270654Y-117798589D01*
X113303000Y-117797000D01*
X114293000Y-117797000D01*
X114325346Y-117798589D01*
X114325346Y-117798589D01*
G37*
D54*
X113798000Y-118872000D03*
D23*
G36*
X111525346Y-117798589D02*
G01*
X111557380Y-117803341D01*
X111588794Y-117811210D01*
X111619286Y-117822120D01*
X111648561Y-117835966D01*
X111676338Y-117852615D01*
X111702350Y-117871907D01*
X111726345Y-117893655D01*
X111748093Y-117917650D01*
X111767385Y-117943662D01*
X111784034Y-117971439D01*
X111797880Y-118000714D01*
X111808790Y-118031206D01*
X111816659Y-118062620D01*
X111821411Y-118094654D01*
X111823000Y-118127000D01*
X111823000Y-119617000D01*
X111821411Y-119649346D01*
X111816659Y-119681380D01*
X111808790Y-119712794D01*
X111797880Y-119743286D01*
X111784034Y-119772561D01*
X111767385Y-119800338D01*
X111748093Y-119826350D01*
X111726345Y-119850345D01*
X111702350Y-119872093D01*
X111676338Y-119891385D01*
X111648561Y-119908034D01*
X111619286Y-119921880D01*
X111588794Y-119932790D01*
X111557380Y-119940659D01*
X111525346Y-119945411D01*
X111493000Y-119947000D01*
X110503000Y-119947000D01*
X110470654Y-119945411D01*
X110438620Y-119940659D01*
X110407206Y-119932790D01*
X110376714Y-119921880D01*
X110347439Y-119908034D01*
X110319662Y-119891385D01*
X110293650Y-119872093D01*
X110269655Y-119850345D01*
X110247907Y-119826350D01*
X110228615Y-119800338D01*
X110211966Y-119772561D01*
X110198120Y-119743286D01*
X110187210Y-119712794D01*
X110179341Y-119681380D01*
X110174589Y-119649346D01*
X110173000Y-119617000D01*
X110173000Y-118127000D01*
X110174589Y-118094654D01*
X110179341Y-118062620D01*
X110187210Y-118031206D01*
X110198120Y-118000714D01*
X110211966Y-117971439D01*
X110228615Y-117943662D01*
X110247907Y-117917650D01*
X110269655Y-117893655D01*
X110293650Y-117871907D01*
X110319662Y-117852615D01*
X110347439Y-117835966D01*
X110376714Y-117822120D01*
X110407206Y-117811210D01*
X110438620Y-117803341D01*
X110470654Y-117798589D01*
X110503000Y-117797000D01*
X111493000Y-117797000D01*
X111525346Y-117798589D01*
X111525346Y-117798589D01*
G37*
D54*
X110998000Y-118872000D03*
D23*
G36*
X119405346Y-117798589D02*
G01*
X119437380Y-117803341D01*
X119468794Y-117811210D01*
X119499286Y-117822120D01*
X119528561Y-117835966D01*
X119556338Y-117852615D01*
X119582350Y-117871907D01*
X119606345Y-117893655D01*
X119628093Y-117917650D01*
X119647385Y-117943662D01*
X119664034Y-117971439D01*
X119677880Y-118000714D01*
X119688790Y-118031206D01*
X119696659Y-118062620D01*
X119701411Y-118094654D01*
X119703000Y-118127000D01*
X119703000Y-119617000D01*
X119701411Y-119649346D01*
X119696659Y-119681380D01*
X119688790Y-119712794D01*
X119677880Y-119743286D01*
X119664034Y-119772561D01*
X119647385Y-119800338D01*
X119628093Y-119826350D01*
X119606345Y-119850345D01*
X119582350Y-119872093D01*
X119556338Y-119891385D01*
X119528561Y-119908034D01*
X119499286Y-119921880D01*
X119468794Y-119932790D01*
X119437380Y-119940659D01*
X119405346Y-119945411D01*
X119373000Y-119947000D01*
X118383000Y-119947000D01*
X118350654Y-119945411D01*
X118318620Y-119940659D01*
X118287206Y-119932790D01*
X118256714Y-119921880D01*
X118227439Y-119908034D01*
X118199662Y-119891385D01*
X118173650Y-119872093D01*
X118149655Y-119850345D01*
X118127907Y-119826350D01*
X118108615Y-119800338D01*
X118091966Y-119772561D01*
X118078120Y-119743286D01*
X118067210Y-119712794D01*
X118059341Y-119681380D01*
X118054589Y-119649346D01*
X118053000Y-119617000D01*
X118053000Y-118127000D01*
X118054589Y-118094654D01*
X118059341Y-118062620D01*
X118067210Y-118031206D01*
X118078120Y-118000714D01*
X118091966Y-117971439D01*
X118108615Y-117943662D01*
X118127907Y-117917650D01*
X118149655Y-117893655D01*
X118173650Y-117871907D01*
X118199662Y-117852615D01*
X118227439Y-117835966D01*
X118256714Y-117822120D01*
X118287206Y-117811210D01*
X118318620Y-117803341D01*
X118350654Y-117798589D01*
X118383000Y-117797000D01*
X119373000Y-117797000D01*
X119405346Y-117798589D01*
X119405346Y-117798589D01*
G37*
D54*
X118878000Y-118872000D03*
D23*
G36*
X116605346Y-117798589D02*
G01*
X116637380Y-117803341D01*
X116668794Y-117811210D01*
X116699286Y-117822120D01*
X116728561Y-117835966D01*
X116756338Y-117852615D01*
X116782350Y-117871907D01*
X116806345Y-117893655D01*
X116828093Y-117917650D01*
X116847385Y-117943662D01*
X116864034Y-117971439D01*
X116877880Y-118000714D01*
X116888790Y-118031206D01*
X116896659Y-118062620D01*
X116901411Y-118094654D01*
X116903000Y-118127000D01*
X116903000Y-119617000D01*
X116901411Y-119649346D01*
X116896659Y-119681380D01*
X116888790Y-119712794D01*
X116877880Y-119743286D01*
X116864034Y-119772561D01*
X116847385Y-119800338D01*
X116828093Y-119826350D01*
X116806345Y-119850345D01*
X116782350Y-119872093D01*
X116756338Y-119891385D01*
X116728561Y-119908034D01*
X116699286Y-119921880D01*
X116668794Y-119932790D01*
X116637380Y-119940659D01*
X116605346Y-119945411D01*
X116573000Y-119947000D01*
X115583000Y-119947000D01*
X115550654Y-119945411D01*
X115518620Y-119940659D01*
X115487206Y-119932790D01*
X115456714Y-119921880D01*
X115427439Y-119908034D01*
X115399662Y-119891385D01*
X115373650Y-119872093D01*
X115349655Y-119850345D01*
X115327907Y-119826350D01*
X115308615Y-119800338D01*
X115291966Y-119772561D01*
X115278120Y-119743286D01*
X115267210Y-119712794D01*
X115259341Y-119681380D01*
X115254589Y-119649346D01*
X115253000Y-119617000D01*
X115253000Y-118127000D01*
X115254589Y-118094654D01*
X115259341Y-118062620D01*
X115267210Y-118031206D01*
X115278120Y-118000714D01*
X115291966Y-117971439D01*
X115308615Y-117943662D01*
X115327907Y-117917650D01*
X115349655Y-117893655D01*
X115373650Y-117871907D01*
X115399662Y-117852615D01*
X115427439Y-117835966D01*
X115456714Y-117822120D01*
X115487206Y-117811210D01*
X115518620Y-117803341D01*
X115550654Y-117798589D01*
X115583000Y-117797000D01*
X116573000Y-117797000D01*
X116605346Y-117798589D01*
X116605346Y-117798589D01*
G37*
D54*
X116078000Y-118872000D03*
D23*
G36*
X124485346Y-117798589D02*
G01*
X124517380Y-117803341D01*
X124548794Y-117811210D01*
X124579286Y-117822120D01*
X124608561Y-117835966D01*
X124636338Y-117852615D01*
X124662350Y-117871907D01*
X124686345Y-117893655D01*
X124708093Y-117917650D01*
X124727385Y-117943662D01*
X124744034Y-117971439D01*
X124757880Y-118000714D01*
X124768790Y-118031206D01*
X124776659Y-118062620D01*
X124781411Y-118094654D01*
X124783000Y-118127000D01*
X124783000Y-119617000D01*
X124781411Y-119649346D01*
X124776659Y-119681380D01*
X124768790Y-119712794D01*
X124757880Y-119743286D01*
X124744034Y-119772561D01*
X124727385Y-119800338D01*
X124708093Y-119826350D01*
X124686345Y-119850345D01*
X124662350Y-119872093D01*
X124636338Y-119891385D01*
X124608561Y-119908034D01*
X124579286Y-119921880D01*
X124548794Y-119932790D01*
X124517380Y-119940659D01*
X124485346Y-119945411D01*
X124453000Y-119947000D01*
X123463000Y-119947000D01*
X123430654Y-119945411D01*
X123398620Y-119940659D01*
X123367206Y-119932790D01*
X123336714Y-119921880D01*
X123307439Y-119908034D01*
X123279662Y-119891385D01*
X123253650Y-119872093D01*
X123229655Y-119850345D01*
X123207907Y-119826350D01*
X123188615Y-119800338D01*
X123171966Y-119772561D01*
X123158120Y-119743286D01*
X123147210Y-119712794D01*
X123139341Y-119681380D01*
X123134589Y-119649346D01*
X123133000Y-119617000D01*
X123133000Y-118127000D01*
X123134589Y-118094654D01*
X123139341Y-118062620D01*
X123147210Y-118031206D01*
X123158120Y-118000714D01*
X123171966Y-117971439D01*
X123188615Y-117943662D01*
X123207907Y-117917650D01*
X123229655Y-117893655D01*
X123253650Y-117871907D01*
X123279662Y-117852615D01*
X123307439Y-117835966D01*
X123336714Y-117822120D01*
X123367206Y-117811210D01*
X123398620Y-117803341D01*
X123430654Y-117798589D01*
X123463000Y-117797000D01*
X124453000Y-117797000D01*
X124485346Y-117798589D01*
X124485346Y-117798589D01*
G37*
D54*
X123958000Y-118872000D03*
D23*
G36*
X121685346Y-117798589D02*
G01*
X121717380Y-117803341D01*
X121748794Y-117811210D01*
X121779286Y-117822120D01*
X121808561Y-117835966D01*
X121836338Y-117852615D01*
X121862350Y-117871907D01*
X121886345Y-117893655D01*
X121908093Y-117917650D01*
X121927385Y-117943662D01*
X121944034Y-117971439D01*
X121957880Y-118000714D01*
X121968790Y-118031206D01*
X121976659Y-118062620D01*
X121981411Y-118094654D01*
X121983000Y-118127000D01*
X121983000Y-119617000D01*
X121981411Y-119649346D01*
X121976659Y-119681380D01*
X121968790Y-119712794D01*
X121957880Y-119743286D01*
X121944034Y-119772561D01*
X121927385Y-119800338D01*
X121908093Y-119826350D01*
X121886345Y-119850345D01*
X121862350Y-119872093D01*
X121836338Y-119891385D01*
X121808561Y-119908034D01*
X121779286Y-119921880D01*
X121748794Y-119932790D01*
X121717380Y-119940659D01*
X121685346Y-119945411D01*
X121653000Y-119947000D01*
X120663000Y-119947000D01*
X120630654Y-119945411D01*
X120598620Y-119940659D01*
X120567206Y-119932790D01*
X120536714Y-119921880D01*
X120507439Y-119908034D01*
X120479662Y-119891385D01*
X120453650Y-119872093D01*
X120429655Y-119850345D01*
X120407907Y-119826350D01*
X120388615Y-119800338D01*
X120371966Y-119772561D01*
X120358120Y-119743286D01*
X120347210Y-119712794D01*
X120339341Y-119681380D01*
X120334589Y-119649346D01*
X120333000Y-119617000D01*
X120333000Y-118127000D01*
X120334589Y-118094654D01*
X120339341Y-118062620D01*
X120347210Y-118031206D01*
X120358120Y-118000714D01*
X120371966Y-117971439D01*
X120388615Y-117943662D01*
X120407907Y-117917650D01*
X120429655Y-117893655D01*
X120453650Y-117871907D01*
X120479662Y-117852615D01*
X120507439Y-117835966D01*
X120536714Y-117822120D01*
X120567206Y-117811210D01*
X120598620Y-117803341D01*
X120630654Y-117798589D01*
X120663000Y-117797000D01*
X121653000Y-117797000D01*
X121685346Y-117798589D01*
X121685346Y-117798589D01*
G37*
D54*
X121158000Y-118872000D03*
D23*
G36*
X98279071Y-114163623D02*
G01*
X98311781Y-114168475D01*
X98343857Y-114176509D01*
X98374991Y-114187649D01*
X98404884Y-114201787D01*
X98433247Y-114218787D01*
X98459807Y-114238485D01*
X98484308Y-114260692D01*
X98506515Y-114285193D01*
X98526213Y-114311753D01*
X98543213Y-114340116D01*
X98557351Y-114370009D01*
X98568491Y-114401143D01*
X98576525Y-114433219D01*
X98581377Y-114465929D01*
X98583000Y-114498956D01*
X98583000Y-115625044D01*
X98581377Y-115658071D01*
X98576525Y-115690781D01*
X98568491Y-115722857D01*
X98557351Y-115753991D01*
X98543213Y-115783884D01*
X98526213Y-115812247D01*
X98506515Y-115838807D01*
X98484308Y-115863308D01*
X98459807Y-115885515D01*
X98433247Y-115905213D01*
X98404884Y-115922213D01*
X98374991Y-115936351D01*
X98343857Y-115947491D01*
X98311781Y-115955525D01*
X98279071Y-115960377D01*
X98246044Y-115962000D01*
X97369956Y-115962000D01*
X97336929Y-115960377D01*
X97304219Y-115955525D01*
X97272143Y-115947491D01*
X97241009Y-115936351D01*
X97211116Y-115922213D01*
X97182753Y-115905213D01*
X97156193Y-115885515D01*
X97131692Y-115863308D01*
X97109485Y-115838807D01*
X97089787Y-115812247D01*
X97072787Y-115783884D01*
X97058649Y-115753991D01*
X97047509Y-115722857D01*
X97039475Y-115690781D01*
X97034623Y-115658071D01*
X97033000Y-115625044D01*
X97033000Y-114498956D01*
X97034623Y-114465929D01*
X97039475Y-114433219D01*
X97047509Y-114401143D01*
X97058649Y-114370009D01*
X97072787Y-114340116D01*
X97089787Y-114311753D01*
X97109485Y-114285193D01*
X97131692Y-114260692D01*
X97156193Y-114238485D01*
X97182753Y-114218787D01*
X97211116Y-114201787D01*
X97241009Y-114187649D01*
X97272143Y-114176509D01*
X97304219Y-114168475D01*
X97336929Y-114163623D01*
X97369956Y-114162000D01*
X98246044Y-114162000D01*
X98279071Y-114163623D01*
X98279071Y-114163623D01*
G37*
D47*
X97808000Y-115062000D03*
D23*
G36*
X96229071Y-114163623D02*
G01*
X96261781Y-114168475D01*
X96293857Y-114176509D01*
X96324991Y-114187649D01*
X96354884Y-114201787D01*
X96383247Y-114218787D01*
X96409807Y-114238485D01*
X96434308Y-114260692D01*
X96456515Y-114285193D01*
X96476213Y-114311753D01*
X96493213Y-114340116D01*
X96507351Y-114370009D01*
X96518491Y-114401143D01*
X96526525Y-114433219D01*
X96531377Y-114465929D01*
X96533000Y-114498956D01*
X96533000Y-115625044D01*
X96531377Y-115658071D01*
X96526525Y-115690781D01*
X96518491Y-115722857D01*
X96507351Y-115753991D01*
X96493213Y-115783884D01*
X96476213Y-115812247D01*
X96456515Y-115838807D01*
X96434308Y-115863308D01*
X96409807Y-115885515D01*
X96383247Y-115905213D01*
X96354884Y-115922213D01*
X96324991Y-115936351D01*
X96293857Y-115947491D01*
X96261781Y-115955525D01*
X96229071Y-115960377D01*
X96196044Y-115962000D01*
X95319956Y-115962000D01*
X95286929Y-115960377D01*
X95254219Y-115955525D01*
X95222143Y-115947491D01*
X95191009Y-115936351D01*
X95161116Y-115922213D01*
X95132753Y-115905213D01*
X95106193Y-115885515D01*
X95081692Y-115863308D01*
X95059485Y-115838807D01*
X95039787Y-115812247D01*
X95022787Y-115783884D01*
X95008649Y-115753991D01*
X94997509Y-115722857D01*
X94989475Y-115690781D01*
X94984623Y-115658071D01*
X94983000Y-115625044D01*
X94983000Y-114498956D01*
X94984623Y-114465929D01*
X94989475Y-114433219D01*
X94997509Y-114401143D01*
X95008649Y-114370009D01*
X95022787Y-114340116D01*
X95039787Y-114311753D01*
X95059485Y-114285193D01*
X95081692Y-114260692D01*
X95106193Y-114238485D01*
X95132753Y-114218787D01*
X95161116Y-114201787D01*
X95191009Y-114187649D01*
X95222143Y-114176509D01*
X95254219Y-114168475D01*
X95286929Y-114163623D01*
X95319956Y-114162000D01*
X96196044Y-114162000D01*
X96229071Y-114163623D01*
X96229071Y-114163623D01*
G37*
D47*
X95758000Y-115062000D03*
D23*
G36*
X102724071Y-114163623D02*
G01*
X102756781Y-114168475D01*
X102788857Y-114176509D01*
X102819991Y-114187649D01*
X102849884Y-114201787D01*
X102878247Y-114218787D01*
X102904807Y-114238485D01*
X102929308Y-114260692D01*
X102951515Y-114285193D01*
X102971213Y-114311753D01*
X102988213Y-114340116D01*
X103002351Y-114370009D01*
X103013491Y-114401143D01*
X103021525Y-114433219D01*
X103026377Y-114465929D01*
X103028000Y-114498956D01*
X103028000Y-115625044D01*
X103026377Y-115658071D01*
X103021525Y-115690781D01*
X103013491Y-115722857D01*
X103002351Y-115753991D01*
X102988213Y-115783884D01*
X102971213Y-115812247D01*
X102951515Y-115838807D01*
X102929308Y-115863308D01*
X102904807Y-115885515D01*
X102878247Y-115905213D01*
X102849884Y-115922213D01*
X102819991Y-115936351D01*
X102788857Y-115947491D01*
X102756781Y-115955525D01*
X102724071Y-115960377D01*
X102691044Y-115962000D01*
X101814956Y-115962000D01*
X101781929Y-115960377D01*
X101749219Y-115955525D01*
X101717143Y-115947491D01*
X101686009Y-115936351D01*
X101656116Y-115922213D01*
X101627753Y-115905213D01*
X101601193Y-115885515D01*
X101576692Y-115863308D01*
X101554485Y-115838807D01*
X101534787Y-115812247D01*
X101517787Y-115783884D01*
X101503649Y-115753991D01*
X101492509Y-115722857D01*
X101484475Y-115690781D01*
X101479623Y-115658071D01*
X101478000Y-115625044D01*
X101478000Y-114498956D01*
X101479623Y-114465929D01*
X101484475Y-114433219D01*
X101492509Y-114401143D01*
X101503649Y-114370009D01*
X101517787Y-114340116D01*
X101534787Y-114311753D01*
X101554485Y-114285193D01*
X101576692Y-114260692D01*
X101601193Y-114238485D01*
X101627753Y-114218787D01*
X101656116Y-114201787D01*
X101686009Y-114187649D01*
X101717143Y-114176509D01*
X101749219Y-114168475D01*
X101781929Y-114163623D01*
X101814956Y-114162000D01*
X102691044Y-114162000D01*
X102724071Y-114163623D01*
X102724071Y-114163623D01*
G37*
D47*
X102253000Y-115062000D03*
D23*
G36*
X100674071Y-114163623D02*
G01*
X100706781Y-114168475D01*
X100738857Y-114176509D01*
X100769991Y-114187649D01*
X100799884Y-114201787D01*
X100828247Y-114218787D01*
X100854807Y-114238485D01*
X100879308Y-114260692D01*
X100901515Y-114285193D01*
X100921213Y-114311753D01*
X100938213Y-114340116D01*
X100952351Y-114370009D01*
X100963491Y-114401143D01*
X100971525Y-114433219D01*
X100976377Y-114465929D01*
X100978000Y-114498956D01*
X100978000Y-115625044D01*
X100976377Y-115658071D01*
X100971525Y-115690781D01*
X100963491Y-115722857D01*
X100952351Y-115753991D01*
X100938213Y-115783884D01*
X100921213Y-115812247D01*
X100901515Y-115838807D01*
X100879308Y-115863308D01*
X100854807Y-115885515D01*
X100828247Y-115905213D01*
X100799884Y-115922213D01*
X100769991Y-115936351D01*
X100738857Y-115947491D01*
X100706781Y-115955525D01*
X100674071Y-115960377D01*
X100641044Y-115962000D01*
X99764956Y-115962000D01*
X99731929Y-115960377D01*
X99699219Y-115955525D01*
X99667143Y-115947491D01*
X99636009Y-115936351D01*
X99606116Y-115922213D01*
X99577753Y-115905213D01*
X99551193Y-115885515D01*
X99526692Y-115863308D01*
X99504485Y-115838807D01*
X99484787Y-115812247D01*
X99467787Y-115783884D01*
X99453649Y-115753991D01*
X99442509Y-115722857D01*
X99434475Y-115690781D01*
X99429623Y-115658071D01*
X99428000Y-115625044D01*
X99428000Y-114498956D01*
X99429623Y-114465929D01*
X99434475Y-114433219D01*
X99442509Y-114401143D01*
X99453649Y-114370009D01*
X99467787Y-114340116D01*
X99484787Y-114311753D01*
X99504485Y-114285193D01*
X99526692Y-114260692D01*
X99551193Y-114238485D01*
X99577753Y-114218787D01*
X99606116Y-114201787D01*
X99636009Y-114187649D01*
X99667143Y-114176509D01*
X99699219Y-114168475D01*
X99731929Y-114163623D01*
X99764956Y-114162000D01*
X100641044Y-114162000D01*
X100674071Y-114163623D01*
X100674071Y-114163623D01*
G37*
D47*
X100203000Y-115062000D03*
D23*
G36*
X106897071Y-114163623D02*
G01*
X106929781Y-114168475D01*
X106961857Y-114176509D01*
X106992991Y-114187649D01*
X107022884Y-114201787D01*
X107051247Y-114218787D01*
X107077807Y-114238485D01*
X107102308Y-114260692D01*
X107124515Y-114285193D01*
X107144213Y-114311753D01*
X107161213Y-114340116D01*
X107175351Y-114370009D01*
X107186491Y-114401143D01*
X107194525Y-114433219D01*
X107199377Y-114465929D01*
X107201000Y-114498956D01*
X107201000Y-115625044D01*
X107199377Y-115658071D01*
X107194525Y-115690781D01*
X107186491Y-115722857D01*
X107175351Y-115753991D01*
X107161213Y-115783884D01*
X107144213Y-115812247D01*
X107124515Y-115838807D01*
X107102308Y-115863308D01*
X107077807Y-115885515D01*
X107051247Y-115905213D01*
X107022884Y-115922213D01*
X106992991Y-115936351D01*
X106961857Y-115947491D01*
X106929781Y-115955525D01*
X106897071Y-115960377D01*
X106864044Y-115962000D01*
X105987956Y-115962000D01*
X105954929Y-115960377D01*
X105922219Y-115955525D01*
X105890143Y-115947491D01*
X105859009Y-115936351D01*
X105829116Y-115922213D01*
X105800753Y-115905213D01*
X105774193Y-115885515D01*
X105749692Y-115863308D01*
X105727485Y-115838807D01*
X105707787Y-115812247D01*
X105690787Y-115783884D01*
X105676649Y-115753991D01*
X105665509Y-115722857D01*
X105657475Y-115690781D01*
X105652623Y-115658071D01*
X105651000Y-115625044D01*
X105651000Y-114498956D01*
X105652623Y-114465929D01*
X105657475Y-114433219D01*
X105665509Y-114401143D01*
X105676649Y-114370009D01*
X105690787Y-114340116D01*
X105707787Y-114311753D01*
X105727485Y-114285193D01*
X105749692Y-114260692D01*
X105774193Y-114238485D01*
X105800753Y-114218787D01*
X105829116Y-114201787D01*
X105859009Y-114187649D01*
X105890143Y-114176509D01*
X105922219Y-114168475D01*
X105954929Y-114163623D01*
X105987956Y-114162000D01*
X106864044Y-114162000D01*
X106897071Y-114163623D01*
X106897071Y-114163623D01*
G37*
D47*
X106426000Y-115062000D03*
D23*
G36*
X104847071Y-114163623D02*
G01*
X104879781Y-114168475D01*
X104911857Y-114176509D01*
X104942991Y-114187649D01*
X104972884Y-114201787D01*
X105001247Y-114218787D01*
X105027807Y-114238485D01*
X105052308Y-114260692D01*
X105074515Y-114285193D01*
X105094213Y-114311753D01*
X105111213Y-114340116D01*
X105125351Y-114370009D01*
X105136491Y-114401143D01*
X105144525Y-114433219D01*
X105149377Y-114465929D01*
X105151000Y-114498956D01*
X105151000Y-115625044D01*
X105149377Y-115658071D01*
X105144525Y-115690781D01*
X105136491Y-115722857D01*
X105125351Y-115753991D01*
X105111213Y-115783884D01*
X105094213Y-115812247D01*
X105074515Y-115838807D01*
X105052308Y-115863308D01*
X105027807Y-115885515D01*
X105001247Y-115905213D01*
X104972884Y-115922213D01*
X104942991Y-115936351D01*
X104911857Y-115947491D01*
X104879781Y-115955525D01*
X104847071Y-115960377D01*
X104814044Y-115962000D01*
X103937956Y-115962000D01*
X103904929Y-115960377D01*
X103872219Y-115955525D01*
X103840143Y-115947491D01*
X103809009Y-115936351D01*
X103779116Y-115922213D01*
X103750753Y-115905213D01*
X103724193Y-115885515D01*
X103699692Y-115863308D01*
X103677485Y-115838807D01*
X103657787Y-115812247D01*
X103640787Y-115783884D01*
X103626649Y-115753991D01*
X103615509Y-115722857D01*
X103607475Y-115690781D01*
X103602623Y-115658071D01*
X103601000Y-115625044D01*
X103601000Y-114498956D01*
X103602623Y-114465929D01*
X103607475Y-114433219D01*
X103615509Y-114401143D01*
X103626649Y-114370009D01*
X103640787Y-114340116D01*
X103657787Y-114311753D01*
X103677485Y-114285193D01*
X103699692Y-114260692D01*
X103724193Y-114238485D01*
X103750753Y-114218787D01*
X103779116Y-114201787D01*
X103809009Y-114187649D01*
X103840143Y-114176509D01*
X103872219Y-114168475D01*
X103904929Y-114163623D01*
X103937956Y-114162000D01*
X104814044Y-114162000D01*
X104847071Y-114163623D01*
X104847071Y-114163623D01*
G37*
D47*
X104376000Y-115062000D03*
D23*
G36*
X116709443Y-114163655D02*
G01*
X116742812Y-114168605D01*
X116775535Y-114176802D01*
X116807297Y-114188166D01*
X116837793Y-114202590D01*
X116866727Y-114219932D01*
X116893823Y-114240028D01*
X116918818Y-114262682D01*
X116941472Y-114287677D01*
X116961568Y-114314773D01*
X116978910Y-114343707D01*
X116993334Y-114374203D01*
X117004698Y-114405965D01*
X117012895Y-114438688D01*
X117017845Y-114472057D01*
X117019500Y-114505750D01*
X117019500Y-115618250D01*
X117017845Y-115651943D01*
X117012895Y-115685312D01*
X117004698Y-115718035D01*
X116993334Y-115749797D01*
X116978910Y-115780293D01*
X116961568Y-115809227D01*
X116941472Y-115836323D01*
X116918818Y-115861318D01*
X116893823Y-115883972D01*
X116866727Y-115904068D01*
X116837793Y-115921410D01*
X116807297Y-115935834D01*
X116775535Y-115947198D01*
X116742812Y-115955395D01*
X116709443Y-115960345D01*
X116675750Y-115962000D01*
X115988250Y-115962000D01*
X115954557Y-115960345D01*
X115921188Y-115955395D01*
X115888465Y-115947198D01*
X115856703Y-115935834D01*
X115826207Y-115921410D01*
X115797273Y-115904068D01*
X115770177Y-115883972D01*
X115745182Y-115861318D01*
X115722528Y-115836323D01*
X115702432Y-115809227D01*
X115685090Y-115780293D01*
X115670666Y-115749797D01*
X115659302Y-115718035D01*
X115651105Y-115685312D01*
X115646155Y-115651943D01*
X115644500Y-115618250D01*
X115644500Y-114505750D01*
X115646155Y-114472057D01*
X115651105Y-114438688D01*
X115659302Y-114405965D01*
X115670666Y-114374203D01*
X115685090Y-114343707D01*
X115702432Y-114314773D01*
X115722528Y-114287677D01*
X115745182Y-114262682D01*
X115770177Y-114240028D01*
X115797273Y-114219932D01*
X115826207Y-114202590D01*
X115856703Y-114188166D01*
X115888465Y-114176802D01*
X115921188Y-114168605D01*
X115954557Y-114163655D01*
X115988250Y-114162000D01*
X116675750Y-114162000D01*
X116709443Y-114163655D01*
X116709443Y-114163655D01*
G37*
D48*
X116332000Y-115062000D03*
D23*
G36*
X114834443Y-114163655D02*
G01*
X114867812Y-114168605D01*
X114900535Y-114176802D01*
X114932297Y-114188166D01*
X114962793Y-114202590D01*
X114991727Y-114219932D01*
X115018823Y-114240028D01*
X115043818Y-114262682D01*
X115066472Y-114287677D01*
X115086568Y-114314773D01*
X115103910Y-114343707D01*
X115118334Y-114374203D01*
X115129698Y-114405965D01*
X115137895Y-114438688D01*
X115142845Y-114472057D01*
X115144500Y-114505750D01*
X115144500Y-115618250D01*
X115142845Y-115651943D01*
X115137895Y-115685312D01*
X115129698Y-115718035D01*
X115118334Y-115749797D01*
X115103910Y-115780293D01*
X115086568Y-115809227D01*
X115066472Y-115836323D01*
X115043818Y-115861318D01*
X115018823Y-115883972D01*
X114991727Y-115904068D01*
X114962793Y-115921410D01*
X114932297Y-115935834D01*
X114900535Y-115947198D01*
X114867812Y-115955395D01*
X114834443Y-115960345D01*
X114800750Y-115962000D01*
X114113250Y-115962000D01*
X114079557Y-115960345D01*
X114046188Y-115955395D01*
X114013465Y-115947198D01*
X113981703Y-115935834D01*
X113951207Y-115921410D01*
X113922273Y-115904068D01*
X113895177Y-115883972D01*
X113870182Y-115861318D01*
X113847528Y-115836323D01*
X113827432Y-115809227D01*
X113810090Y-115780293D01*
X113795666Y-115749797D01*
X113784302Y-115718035D01*
X113776105Y-115685312D01*
X113771155Y-115651943D01*
X113769500Y-115618250D01*
X113769500Y-114505750D01*
X113771155Y-114472057D01*
X113776105Y-114438688D01*
X113784302Y-114405965D01*
X113795666Y-114374203D01*
X113810090Y-114343707D01*
X113827432Y-114314773D01*
X113847528Y-114287677D01*
X113870182Y-114262682D01*
X113895177Y-114240028D01*
X113922273Y-114219932D01*
X113951207Y-114202590D01*
X113981703Y-114188166D01*
X114013465Y-114176802D01*
X114046188Y-114168605D01*
X114079557Y-114163655D01*
X114113250Y-114162000D01*
X114800750Y-114162000D01*
X114834443Y-114163655D01*
X114834443Y-114163655D01*
G37*
D48*
X114457000Y-115062000D03*
D23*
G36*
X120519443Y-114163655D02*
G01*
X120552812Y-114168605D01*
X120585535Y-114176802D01*
X120617297Y-114188166D01*
X120647793Y-114202590D01*
X120676727Y-114219932D01*
X120703823Y-114240028D01*
X120728818Y-114262682D01*
X120751472Y-114287677D01*
X120771568Y-114314773D01*
X120788910Y-114343707D01*
X120803334Y-114374203D01*
X120814698Y-114405965D01*
X120822895Y-114438688D01*
X120827845Y-114472057D01*
X120829500Y-114505750D01*
X120829500Y-115618250D01*
X120827845Y-115651943D01*
X120822895Y-115685312D01*
X120814698Y-115718035D01*
X120803334Y-115749797D01*
X120788910Y-115780293D01*
X120771568Y-115809227D01*
X120751472Y-115836323D01*
X120728818Y-115861318D01*
X120703823Y-115883972D01*
X120676727Y-115904068D01*
X120647793Y-115921410D01*
X120617297Y-115935834D01*
X120585535Y-115947198D01*
X120552812Y-115955395D01*
X120519443Y-115960345D01*
X120485750Y-115962000D01*
X119798250Y-115962000D01*
X119764557Y-115960345D01*
X119731188Y-115955395D01*
X119698465Y-115947198D01*
X119666703Y-115935834D01*
X119636207Y-115921410D01*
X119607273Y-115904068D01*
X119580177Y-115883972D01*
X119555182Y-115861318D01*
X119532528Y-115836323D01*
X119512432Y-115809227D01*
X119495090Y-115780293D01*
X119480666Y-115749797D01*
X119469302Y-115718035D01*
X119461105Y-115685312D01*
X119456155Y-115651943D01*
X119454500Y-115618250D01*
X119454500Y-114505750D01*
X119456155Y-114472057D01*
X119461105Y-114438688D01*
X119469302Y-114405965D01*
X119480666Y-114374203D01*
X119495090Y-114343707D01*
X119512432Y-114314773D01*
X119532528Y-114287677D01*
X119555182Y-114262682D01*
X119580177Y-114240028D01*
X119607273Y-114219932D01*
X119636207Y-114202590D01*
X119666703Y-114188166D01*
X119698465Y-114176802D01*
X119731188Y-114168605D01*
X119764557Y-114163655D01*
X119798250Y-114162000D01*
X120485750Y-114162000D01*
X120519443Y-114163655D01*
X120519443Y-114163655D01*
G37*
D48*
X120142000Y-115062000D03*
D23*
G36*
X118644443Y-114163655D02*
G01*
X118677812Y-114168605D01*
X118710535Y-114176802D01*
X118742297Y-114188166D01*
X118772793Y-114202590D01*
X118801727Y-114219932D01*
X118828823Y-114240028D01*
X118853818Y-114262682D01*
X118876472Y-114287677D01*
X118896568Y-114314773D01*
X118913910Y-114343707D01*
X118928334Y-114374203D01*
X118939698Y-114405965D01*
X118947895Y-114438688D01*
X118952845Y-114472057D01*
X118954500Y-114505750D01*
X118954500Y-115618250D01*
X118952845Y-115651943D01*
X118947895Y-115685312D01*
X118939698Y-115718035D01*
X118928334Y-115749797D01*
X118913910Y-115780293D01*
X118896568Y-115809227D01*
X118876472Y-115836323D01*
X118853818Y-115861318D01*
X118828823Y-115883972D01*
X118801727Y-115904068D01*
X118772793Y-115921410D01*
X118742297Y-115935834D01*
X118710535Y-115947198D01*
X118677812Y-115955395D01*
X118644443Y-115960345D01*
X118610750Y-115962000D01*
X117923250Y-115962000D01*
X117889557Y-115960345D01*
X117856188Y-115955395D01*
X117823465Y-115947198D01*
X117791703Y-115935834D01*
X117761207Y-115921410D01*
X117732273Y-115904068D01*
X117705177Y-115883972D01*
X117680182Y-115861318D01*
X117657528Y-115836323D01*
X117637432Y-115809227D01*
X117620090Y-115780293D01*
X117605666Y-115749797D01*
X117594302Y-115718035D01*
X117586105Y-115685312D01*
X117581155Y-115651943D01*
X117579500Y-115618250D01*
X117579500Y-114505750D01*
X117581155Y-114472057D01*
X117586105Y-114438688D01*
X117594302Y-114405965D01*
X117605666Y-114374203D01*
X117620090Y-114343707D01*
X117637432Y-114314773D01*
X117657528Y-114287677D01*
X117680182Y-114262682D01*
X117705177Y-114240028D01*
X117732273Y-114219932D01*
X117761207Y-114202590D01*
X117791703Y-114188166D01*
X117823465Y-114176802D01*
X117856188Y-114168605D01*
X117889557Y-114163655D01*
X117923250Y-114162000D01*
X118610750Y-114162000D01*
X118644443Y-114163655D01*
X118644443Y-114163655D01*
G37*
D48*
X118267000Y-115062000D03*
D23*
G36*
X124329443Y-114163655D02*
G01*
X124362812Y-114168605D01*
X124395535Y-114176802D01*
X124427297Y-114188166D01*
X124457793Y-114202590D01*
X124486727Y-114219932D01*
X124513823Y-114240028D01*
X124538818Y-114262682D01*
X124561472Y-114287677D01*
X124581568Y-114314773D01*
X124598910Y-114343707D01*
X124613334Y-114374203D01*
X124624698Y-114405965D01*
X124632895Y-114438688D01*
X124637845Y-114472057D01*
X124639500Y-114505750D01*
X124639500Y-115618250D01*
X124637845Y-115651943D01*
X124632895Y-115685312D01*
X124624698Y-115718035D01*
X124613334Y-115749797D01*
X124598910Y-115780293D01*
X124581568Y-115809227D01*
X124561472Y-115836323D01*
X124538818Y-115861318D01*
X124513823Y-115883972D01*
X124486727Y-115904068D01*
X124457793Y-115921410D01*
X124427297Y-115935834D01*
X124395535Y-115947198D01*
X124362812Y-115955395D01*
X124329443Y-115960345D01*
X124295750Y-115962000D01*
X123608250Y-115962000D01*
X123574557Y-115960345D01*
X123541188Y-115955395D01*
X123508465Y-115947198D01*
X123476703Y-115935834D01*
X123446207Y-115921410D01*
X123417273Y-115904068D01*
X123390177Y-115883972D01*
X123365182Y-115861318D01*
X123342528Y-115836323D01*
X123322432Y-115809227D01*
X123305090Y-115780293D01*
X123290666Y-115749797D01*
X123279302Y-115718035D01*
X123271105Y-115685312D01*
X123266155Y-115651943D01*
X123264500Y-115618250D01*
X123264500Y-114505750D01*
X123266155Y-114472057D01*
X123271105Y-114438688D01*
X123279302Y-114405965D01*
X123290666Y-114374203D01*
X123305090Y-114343707D01*
X123322432Y-114314773D01*
X123342528Y-114287677D01*
X123365182Y-114262682D01*
X123390177Y-114240028D01*
X123417273Y-114219932D01*
X123446207Y-114202590D01*
X123476703Y-114188166D01*
X123508465Y-114176802D01*
X123541188Y-114168605D01*
X123574557Y-114163655D01*
X123608250Y-114162000D01*
X124295750Y-114162000D01*
X124329443Y-114163655D01*
X124329443Y-114163655D01*
G37*
D48*
X123952000Y-115062000D03*
D23*
G36*
X122454443Y-114163655D02*
G01*
X122487812Y-114168605D01*
X122520535Y-114176802D01*
X122552297Y-114188166D01*
X122582793Y-114202590D01*
X122611727Y-114219932D01*
X122638823Y-114240028D01*
X122663818Y-114262682D01*
X122686472Y-114287677D01*
X122706568Y-114314773D01*
X122723910Y-114343707D01*
X122738334Y-114374203D01*
X122749698Y-114405965D01*
X122757895Y-114438688D01*
X122762845Y-114472057D01*
X122764500Y-114505750D01*
X122764500Y-115618250D01*
X122762845Y-115651943D01*
X122757895Y-115685312D01*
X122749698Y-115718035D01*
X122738334Y-115749797D01*
X122723910Y-115780293D01*
X122706568Y-115809227D01*
X122686472Y-115836323D01*
X122663818Y-115861318D01*
X122638823Y-115883972D01*
X122611727Y-115904068D01*
X122582793Y-115921410D01*
X122552297Y-115935834D01*
X122520535Y-115947198D01*
X122487812Y-115955395D01*
X122454443Y-115960345D01*
X122420750Y-115962000D01*
X121733250Y-115962000D01*
X121699557Y-115960345D01*
X121666188Y-115955395D01*
X121633465Y-115947198D01*
X121601703Y-115935834D01*
X121571207Y-115921410D01*
X121542273Y-115904068D01*
X121515177Y-115883972D01*
X121490182Y-115861318D01*
X121467528Y-115836323D01*
X121447432Y-115809227D01*
X121430090Y-115780293D01*
X121415666Y-115749797D01*
X121404302Y-115718035D01*
X121396105Y-115685312D01*
X121391155Y-115651943D01*
X121389500Y-115618250D01*
X121389500Y-114505750D01*
X121391155Y-114472057D01*
X121396105Y-114438688D01*
X121404302Y-114405965D01*
X121415666Y-114374203D01*
X121430090Y-114343707D01*
X121447432Y-114314773D01*
X121467528Y-114287677D01*
X121490182Y-114262682D01*
X121515177Y-114240028D01*
X121542273Y-114219932D01*
X121571207Y-114202590D01*
X121601703Y-114188166D01*
X121633465Y-114176802D01*
X121666188Y-114168605D01*
X121699557Y-114163655D01*
X121733250Y-114162000D01*
X122420750Y-114162000D01*
X122454443Y-114163655D01*
X122454443Y-114163655D01*
G37*
D48*
X122077000Y-115062000D03*
D23*
G36*
X94654581Y-111086625D02*
G01*
X94687343Y-111091485D01*
X94719471Y-111099533D01*
X94750656Y-111110691D01*
X94780596Y-111124852D01*
X94809005Y-111141879D01*
X94835608Y-111161609D01*
X94860149Y-111183851D01*
X94882391Y-111208392D01*
X94902121Y-111234995D01*
X94919148Y-111263404D01*
X94933309Y-111293344D01*
X94944467Y-111324529D01*
X94952515Y-111356657D01*
X94957375Y-111389419D01*
X94959000Y-111422500D01*
X94959000Y-112097500D01*
X94957375Y-112130581D01*
X94952515Y-112163343D01*
X94944467Y-112195471D01*
X94933309Y-112226656D01*
X94919148Y-112256596D01*
X94902121Y-112285005D01*
X94882391Y-112311608D01*
X94860149Y-112336149D01*
X94835608Y-112358391D01*
X94809005Y-112378121D01*
X94780596Y-112395148D01*
X94750656Y-112409309D01*
X94719471Y-112420467D01*
X94687343Y-112428515D01*
X94654581Y-112433375D01*
X94621500Y-112435000D01*
X93846500Y-112435000D01*
X93813419Y-112433375D01*
X93780657Y-112428515D01*
X93748529Y-112420467D01*
X93717344Y-112409309D01*
X93687404Y-112395148D01*
X93658995Y-112378121D01*
X93632392Y-112358391D01*
X93607851Y-112336149D01*
X93585609Y-112311608D01*
X93565879Y-112285005D01*
X93548852Y-112256596D01*
X93534691Y-112226656D01*
X93523533Y-112195471D01*
X93515485Y-112163343D01*
X93510625Y-112130581D01*
X93509000Y-112097500D01*
X93509000Y-111422500D01*
X93510625Y-111389419D01*
X93515485Y-111356657D01*
X93523533Y-111324529D01*
X93534691Y-111293344D01*
X93548852Y-111263404D01*
X93565879Y-111234995D01*
X93585609Y-111208392D01*
X93607851Y-111183851D01*
X93632392Y-111161609D01*
X93658995Y-111141879D01*
X93687404Y-111124852D01*
X93717344Y-111110691D01*
X93748529Y-111099533D01*
X93780657Y-111091485D01*
X93813419Y-111086625D01*
X93846500Y-111085000D01*
X94621500Y-111085000D01*
X94654581Y-111086625D01*
X94654581Y-111086625D01*
G37*
D49*
X94234000Y-111760000D03*
D23*
G36*
X92904581Y-111086625D02*
G01*
X92937343Y-111091485D01*
X92969471Y-111099533D01*
X93000656Y-111110691D01*
X93030596Y-111124852D01*
X93059005Y-111141879D01*
X93085608Y-111161609D01*
X93110149Y-111183851D01*
X93132391Y-111208392D01*
X93152121Y-111234995D01*
X93169148Y-111263404D01*
X93183309Y-111293344D01*
X93194467Y-111324529D01*
X93202515Y-111356657D01*
X93207375Y-111389419D01*
X93209000Y-111422500D01*
X93209000Y-112097500D01*
X93207375Y-112130581D01*
X93202515Y-112163343D01*
X93194467Y-112195471D01*
X93183309Y-112226656D01*
X93169148Y-112256596D01*
X93152121Y-112285005D01*
X93132391Y-112311608D01*
X93110149Y-112336149D01*
X93085608Y-112358391D01*
X93059005Y-112378121D01*
X93030596Y-112395148D01*
X93000656Y-112409309D01*
X92969471Y-112420467D01*
X92937343Y-112428515D01*
X92904581Y-112433375D01*
X92871500Y-112435000D01*
X92096500Y-112435000D01*
X92063419Y-112433375D01*
X92030657Y-112428515D01*
X91998529Y-112420467D01*
X91967344Y-112409309D01*
X91937404Y-112395148D01*
X91908995Y-112378121D01*
X91882392Y-112358391D01*
X91857851Y-112336149D01*
X91835609Y-112311608D01*
X91815879Y-112285005D01*
X91798852Y-112256596D01*
X91784691Y-112226656D01*
X91773533Y-112195471D01*
X91765485Y-112163343D01*
X91760625Y-112130581D01*
X91759000Y-112097500D01*
X91759000Y-111422500D01*
X91760625Y-111389419D01*
X91765485Y-111356657D01*
X91773533Y-111324529D01*
X91784691Y-111293344D01*
X91798852Y-111263404D01*
X91815879Y-111234995D01*
X91835609Y-111208392D01*
X91857851Y-111183851D01*
X91882392Y-111161609D01*
X91908995Y-111141879D01*
X91937404Y-111124852D01*
X91967344Y-111110691D01*
X91998529Y-111099533D01*
X92030657Y-111091485D01*
X92063419Y-111086625D01*
X92096500Y-111085000D01*
X92871500Y-111085000D01*
X92904581Y-111086625D01*
X92904581Y-111086625D01*
G37*
D49*
X92484000Y-111760000D03*
D23*
G36*
X98718581Y-111086625D02*
G01*
X98751343Y-111091485D01*
X98783471Y-111099533D01*
X98814656Y-111110691D01*
X98844596Y-111124852D01*
X98873005Y-111141879D01*
X98899608Y-111161609D01*
X98924149Y-111183851D01*
X98946391Y-111208392D01*
X98966121Y-111234995D01*
X98983148Y-111263404D01*
X98997309Y-111293344D01*
X99008467Y-111324529D01*
X99016515Y-111356657D01*
X99021375Y-111389419D01*
X99023000Y-111422500D01*
X99023000Y-112097500D01*
X99021375Y-112130581D01*
X99016515Y-112163343D01*
X99008467Y-112195471D01*
X98997309Y-112226656D01*
X98983148Y-112256596D01*
X98966121Y-112285005D01*
X98946391Y-112311608D01*
X98924149Y-112336149D01*
X98899608Y-112358391D01*
X98873005Y-112378121D01*
X98844596Y-112395148D01*
X98814656Y-112409309D01*
X98783471Y-112420467D01*
X98751343Y-112428515D01*
X98718581Y-112433375D01*
X98685500Y-112435000D01*
X97910500Y-112435000D01*
X97877419Y-112433375D01*
X97844657Y-112428515D01*
X97812529Y-112420467D01*
X97781344Y-112409309D01*
X97751404Y-112395148D01*
X97722995Y-112378121D01*
X97696392Y-112358391D01*
X97671851Y-112336149D01*
X97649609Y-112311608D01*
X97629879Y-112285005D01*
X97612852Y-112256596D01*
X97598691Y-112226656D01*
X97587533Y-112195471D01*
X97579485Y-112163343D01*
X97574625Y-112130581D01*
X97573000Y-112097500D01*
X97573000Y-111422500D01*
X97574625Y-111389419D01*
X97579485Y-111356657D01*
X97587533Y-111324529D01*
X97598691Y-111293344D01*
X97612852Y-111263404D01*
X97629879Y-111234995D01*
X97649609Y-111208392D01*
X97671851Y-111183851D01*
X97696392Y-111161609D01*
X97722995Y-111141879D01*
X97751404Y-111124852D01*
X97781344Y-111110691D01*
X97812529Y-111099533D01*
X97844657Y-111091485D01*
X97877419Y-111086625D01*
X97910500Y-111085000D01*
X98685500Y-111085000D01*
X98718581Y-111086625D01*
X98718581Y-111086625D01*
G37*
D49*
X98298000Y-111760000D03*
D23*
G36*
X96968581Y-111086625D02*
G01*
X97001343Y-111091485D01*
X97033471Y-111099533D01*
X97064656Y-111110691D01*
X97094596Y-111124852D01*
X97123005Y-111141879D01*
X97149608Y-111161609D01*
X97174149Y-111183851D01*
X97196391Y-111208392D01*
X97216121Y-111234995D01*
X97233148Y-111263404D01*
X97247309Y-111293344D01*
X97258467Y-111324529D01*
X97266515Y-111356657D01*
X97271375Y-111389419D01*
X97273000Y-111422500D01*
X97273000Y-112097500D01*
X97271375Y-112130581D01*
X97266515Y-112163343D01*
X97258467Y-112195471D01*
X97247309Y-112226656D01*
X97233148Y-112256596D01*
X97216121Y-112285005D01*
X97196391Y-112311608D01*
X97174149Y-112336149D01*
X97149608Y-112358391D01*
X97123005Y-112378121D01*
X97094596Y-112395148D01*
X97064656Y-112409309D01*
X97033471Y-112420467D01*
X97001343Y-112428515D01*
X96968581Y-112433375D01*
X96935500Y-112435000D01*
X96160500Y-112435000D01*
X96127419Y-112433375D01*
X96094657Y-112428515D01*
X96062529Y-112420467D01*
X96031344Y-112409309D01*
X96001404Y-112395148D01*
X95972995Y-112378121D01*
X95946392Y-112358391D01*
X95921851Y-112336149D01*
X95899609Y-112311608D01*
X95879879Y-112285005D01*
X95862852Y-112256596D01*
X95848691Y-112226656D01*
X95837533Y-112195471D01*
X95829485Y-112163343D01*
X95824625Y-112130581D01*
X95823000Y-112097500D01*
X95823000Y-111422500D01*
X95824625Y-111389419D01*
X95829485Y-111356657D01*
X95837533Y-111324529D01*
X95848691Y-111293344D01*
X95862852Y-111263404D01*
X95879879Y-111234995D01*
X95899609Y-111208392D01*
X95921851Y-111183851D01*
X95946392Y-111161609D01*
X95972995Y-111141879D01*
X96001404Y-111124852D01*
X96031344Y-111110691D01*
X96062529Y-111099533D01*
X96094657Y-111091485D01*
X96127419Y-111086625D01*
X96160500Y-111085000D01*
X96935500Y-111085000D01*
X96968581Y-111086625D01*
X96968581Y-111086625D01*
G37*
D49*
X96548000Y-111760000D03*
D23*
G36*
X102782581Y-111086625D02*
G01*
X102815343Y-111091485D01*
X102847471Y-111099533D01*
X102878656Y-111110691D01*
X102908596Y-111124852D01*
X102937005Y-111141879D01*
X102963608Y-111161609D01*
X102988149Y-111183851D01*
X103010391Y-111208392D01*
X103030121Y-111234995D01*
X103047148Y-111263404D01*
X103061309Y-111293344D01*
X103072467Y-111324529D01*
X103080515Y-111356657D01*
X103085375Y-111389419D01*
X103087000Y-111422500D01*
X103087000Y-112097500D01*
X103085375Y-112130581D01*
X103080515Y-112163343D01*
X103072467Y-112195471D01*
X103061309Y-112226656D01*
X103047148Y-112256596D01*
X103030121Y-112285005D01*
X103010391Y-112311608D01*
X102988149Y-112336149D01*
X102963608Y-112358391D01*
X102937005Y-112378121D01*
X102908596Y-112395148D01*
X102878656Y-112409309D01*
X102847471Y-112420467D01*
X102815343Y-112428515D01*
X102782581Y-112433375D01*
X102749500Y-112435000D01*
X101974500Y-112435000D01*
X101941419Y-112433375D01*
X101908657Y-112428515D01*
X101876529Y-112420467D01*
X101845344Y-112409309D01*
X101815404Y-112395148D01*
X101786995Y-112378121D01*
X101760392Y-112358391D01*
X101735851Y-112336149D01*
X101713609Y-112311608D01*
X101693879Y-112285005D01*
X101676852Y-112256596D01*
X101662691Y-112226656D01*
X101651533Y-112195471D01*
X101643485Y-112163343D01*
X101638625Y-112130581D01*
X101637000Y-112097500D01*
X101637000Y-111422500D01*
X101638625Y-111389419D01*
X101643485Y-111356657D01*
X101651533Y-111324529D01*
X101662691Y-111293344D01*
X101676852Y-111263404D01*
X101693879Y-111234995D01*
X101713609Y-111208392D01*
X101735851Y-111183851D01*
X101760392Y-111161609D01*
X101786995Y-111141879D01*
X101815404Y-111124852D01*
X101845344Y-111110691D01*
X101876529Y-111099533D01*
X101908657Y-111091485D01*
X101941419Y-111086625D01*
X101974500Y-111085000D01*
X102749500Y-111085000D01*
X102782581Y-111086625D01*
X102782581Y-111086625D01*
G37*
D49*
X102362000Y-111760000D03*
D23*
G36*
X101032581Y-111086625D02*
G01*
X101065343Y-111091485D01*
X101097471Y-111099533D01*
X101128656Y-111110691D01*
X101158596Y-111124852D01*
X101187005Y-111141879D01*
X101213608Y-111161609D01*
X101238149Y-111183851D01*
X101260391Y-111208392D01*
X101280121Y-111234995D01*
X101297148Y-111263404D01*
X101311309Y-111293344D01*
X101322467Y-111324529D01*
X101330515Y-111356657D01*
X101335375Y-111389419D01*
X101337000Y-111422500D01*
X101337000Y-112097500D01*
X101335375Y-112130581D01*
X101330515Y-112163343D01*
X101322467Y-112195471D01*
X101311309Y-112226656D01*
X101297148Y-112256596D01*
X101280121Y-112285005D01*
X101260391Y-112311608D01*
X101238149Y-112336149D01*
X101213608Y-112358391D01*
X101187005Y-112378121D01*
X101158596Y-112395148D01*
X101128656Y-112409309D01*
X101097471Y-112420467D01*
X101065343Y-112428515D01*
X101032581Y-112433375D01*
X100999500Y-112435000D01*
X100224500Y-112435000D01*
X100191419Y-112433375D01*
X100158657Y-112428515D01*
X100126529Y-112420467D01*
X100095344Y-112409309D01*
X100065404Y-112395148D01*
X100036995Y-112378121D01*
X100010392Y-112358391D01*
X99985851Y-112336149D01*
X99963609Y-112311608D01*
X99943879Y-112285005D01*
X99926852Y-112256596D01*
X99912691Y-112226656D01*
X99901533Y-112195471D01*
X99893485Y-112163343D01*
X99888625Y-112130581D01*
X99887000Y-112097500D01*
X99887000Y-111422500D01*
X99888625Y-111389419D01*
X99893485Y-111356657D01*
X99901533Y-111324529D01*
X99912691Y-111293344D01*
X99926852Y-111263404D01*
X99943879Y-111234995D01*
X99963609Y-111208392D01*
X99985851Y-111183851D01*
X100010392Y-111161609D01*
X100036995Y-111141879D01*
X100065404Y-111124852D01*
X100095344Y-111110691D01*
X100126529Y-111099533D01*
X100158657Y-111091485D01*
X100191419Y-111086625D01*
X100224500Y-111085000D01*
X100999500Y-111085000D01*
X101032581Y-111086625D01*
X101032581Y-111086625D01*
G37*
D49*
X100612000Y-111760000D03*
D23*
G36*
X116732993Y-111086535D02*
G01*
X116763935Y-111091125D01*
X116794278Y-111098725D01*
X116823730Y-111109263D01*
X116852008Y-111122638D01*
X116878838Y-111138719D01*
X116903963Y-111157353D01*
X116927140Y-111178360D01*
X116948147Y-111201537D01*
X116966781Y-111226662D01*
X116982862Y-111253492D01*
X116996237Y-111281770D01*
X117006775Y-111311222D01*
X117014375Y-111341565D01*
X117018965Y-111372507D01*
X117020500Y-111403750D01*
X117020500Y-112116250D01*
X117018965Y-112147493D01*
X117014375Y-112178435D01*
X117006775Y-112208778D01*
X116996237Y-112238230D01*
X116982862Y-112266508D01*
X116966781Y-112293338D01*
X116948147Y-112318463D01*
X116927140Y-112341640D01*
X116903963Y-112362647D01*
X116878838Y-112381281D01*
X116852008Y-112397362D01*
X116823730Y-112410737D01*
X116794278Y-112421275D01*
X116763935Y-112428875D01*
X116732993Y-112433465D01*
X116701750Y-112435000D01*
X116064250Y-112435000D01*
X116033007Y-112433465D01*
X116002065Y-112428875D01*
X115971722Y-112421275D01*
X115942270Y-112410737D01*
X115913992Y-112397362D01*
X115887162Y-112381281D01*
X115862037Y-112362647D01*
X115838860Y-112341640D01*
X115817853Y-112318463D01*
X115799219Y-112293338D01*
X115783138Y-112266508D01*
X115769763Y-112238230D01*
X115759225Y-112208778D01*
X115751625Y-112178435D01*
X115747035Y-112147493D01*
X115745500Y-112116250D01*
X115745500Y-111403750D01*
X115747035Y-111372507D01*
X115751625Y-111341565D01*
X115759225Y-111311222D01*
X115769763Y-111281770D01*
X115783138Y-111253492D01*
X115799219Y-111226662D01*
X115817853Y-111201537D01*
X115838860Y-111178360D01*
X115862037Y-111157353D01*
X115887162Y-111138719D01*
X115913992Y-111122638D01*
X115942270Y-111109263D01*
X115971722Y-111098725D01*
X116002065Y-111091125D01*
X116033007Y-111086535D01*
X116064250Y-111085000D01*
X116701750Y-111085000D01*
X116732993Y-111086535D01*
X116732993Y-111086535D01*
G37*
D50*
X116383000Y-111760000D03*
D23*
G36*
X115157993Y-111086535D02*
G01*
X115188935Y-111091125D01*
X115219278Y-111098725D01*
X115248730Y-111109263D01*
X115277008Y-111122638D01*
X115303838Y-111138719D01*
X115328963Y-111157353D01*
X115352140Y-111178360D01*
X115373147Y-111201537D01*
X115391781Y-111226662D01*
X115407862Y-111253492D01*
X115421237Y-111281770D01*
X115431775Y-111311222D01*
X115439375Y-111341565D01*
X115443965Y-111372507D01*
X115445500Y-111403750D01*
X115445500Y-112116250D01*
X115443965Y-112147493D01*
X115439375Y-112178435D01*
X115431775Y-112208778D01*
X115421237Y-112238230D01*
X115407862Y-112266508D01*
X115391781Y-112293338D01*
X115373147Y-112318463D01*
X115352140Y-112341640D01*
X115328963Y-112362647D01*
X115303838Y-112381281D01*
X115277008Y-112397362D01*
X115248730Y-112410737D01*
X115219278Y-112421275D01*
X115188935Y-112428875D01*
X115157993Y-112433465D01*
X115126750Y-112435000D01*
X114489250Y-112435000D01*
X114458007Y-112433465D01*
X114427065Y-112428875D01*
X114396722Y-112421275D01*
X114367270Y-112410737D01*
X114338992Y-112397362D01*
X114312162Y-112381281D01*
X114287037Y-112362647D01*
X114263860Y-112341640D01*
X114242853Y-112318463D01*
X114224219Y-112293338D01*
X114208138Y-112266508D01*
X114194763Y-112238230D01*
X114184225Y-112208778D01*
X114176625Y-112178435D01*
X114172035Y-112147493D01*
X114170500Y-112116250D01*
X114170500Y-111403750D01*
X114172035Y-111372507D01*
X114176625Y-111341565D01*
X114184225Y-111311222D01*
X114194763Y-111281770D01*
X114208138Y-111253492D01*
X114224219Y-111226662D01*
X114242853Y-111201537D01*
X114263860Y-111178360D01*
X114287037Y-111157353D01*
X114312162Y-111138719D01*
X114338992Y-111122638D01*
X114367270Y-111109263D01*
X114396722Y-111098725D01*
X114427065Y-111091125D01*
X114458007Y-111086535D01*
X114489250Y-111085000D01*
X115126750Y-111085000D01*
X115157993Y-111086535D01*
X115157993Y-111086535D01*
G37*
D50*
X114808000Y-111760000D03*
D23*
G36*
X120542993Y-111086535D02*
G01*
X120573935Y-111091125D01*
X120604278Y-111098725D01*
X120633730Y-111109263D01*
X120662008Y-111122638D01*
X120688838Y-111138719D01*
X120713963Y-111157353D01*
X120737140Y-111178360D01*
X120758147Y-111201537D01*
X120776781Y-111226662D01*
X120792862Y-111253492D01*
X120806237Y-111281770D01*
X120816775Y-111311222D01*
X120824375Y-111341565D01*
X120828965Y-111372507D01*
X120830500Y-111403750D01*
X120830500Y-112116250D01*
X120828965Y-112147493D01*
X120824375Y-112178435D01*
X120816775Y-112208778D01*
X120806237Y-112238230D01*
X120792862Y-112266508D01*
X120776781Y-112293338D01*
X120758147Y-112318463D01*
X120737140Y-112341640D01*
X120713963Y-112362647D01*
X120688838Y-112381281D01*
X120662008Y-112397362D01*
X120633730Y-112410737D01*
X120604278Y-112421275D01*
X120573935Y-112428875D01*
X120542993Y-112433465D01*
X120511750Y-112435000D01*
X119874250Y-112435000D01*
X119843007Y-112433465D01*
X119812065Y-112428875D01*
X119781722Y-112421275D01*
X119752270Y-112410737D01*
X119723992Y-112397362D01*
X119697162Y-112381281D01*
X119672037Y-112362647D01*
X119648860Y-112341640D01*
X119627853Y-112318463D01*
X119609219Y-112293338D01*
X119593138Y-112266508D01*
X119579763Y-112238230D01*
X119569225Y-112208778D01*
X119561625Y-112178435D01*
X119557035Y-112147493D01*
X119555500Y-112116250D01*
X119555500Y-111403750D01*
X119557035Y-111372507D01*
X119561625Y-111341565D01*
X119569225Y-111311222D01*
X119579763Y-111281770D01*
X119593138Y-111253492D01*
X119609219Y-111226662D01*
X119627853Y-111201537D01*
X119648860Y-111178360D01*
X119672037Y-111157353D01*
X119697162Y-111138719D01*
X119723992Y-111122638D01*
X119752270Y-111109263D01*
X119781722Y-111098725D01*
X119812065Y-111091125D01*
X119843007Y-111086535D01*
X119874250Y-111085000D01*
X120511750Y-111085000D01*
X120542993Y-111086535D01*
X120542993Y-111086535D01*
G37*
D50*
X120193000Y-111760000D03*
D23*
G36*
X118967993Y-111086535D02*
G01*
X118998935Y-111091125D01*
X119029278Y-111098725D01*
X119058730Y-111109263D01*
X119087008Y-111122638D01*
X119113838Y-111138719D01*
X119138963Y-111157353D01*
X119162140Y-111178360D01*
X119183147Y-111201537D01*
X119201781Y-111226662D01*
X119217862Y-111253492D01*
X119231237Y-111281770D01*
X119241775Y-111311222D01*
X119249375Y-111341565D01*
X119253965Y-111372507D01*
X119255500Y-111403750D01*
X119255500Y-112116250D01*
X119253965Y-112147493D01*
X119249375Y-112178435D01*
X119241775Y-112208778D01*
X119231237Y-112238230D01*
X119217862Y-112266508D01*
X119201781Y-112293338D01*
X119183147Y-112318463D01*
X119162140Y-112341640D01*
X119138963Y-112362647D01*
X119113838Y-112381281D01*
X119087008Y-112397362D01*
X119058730Y-112410737D01*
X119029278Y-112421275D01*
X118998935Y-112428875D01*
X118967993Y-112433465D01*
X118936750Y-112435000D01*
X118299250Y-112435000D01*
X118268007Y-112433465D01*
X118237065Y-112428875D01*
X118206722Y-112421275D01*
X118177270Y-112410737D01*
X118148992Y-112397362D01*
X118122162Y-112381281D01*
X118097037Y-112362647D01*
X118073860Y-112341640D01*
X118052853Y-112318463D01*
X118034219Y-112293338D01*
X118018138Y-112266508D01*
X118004763Y-112238230D01*
X117994225Y-112208778D01*
X117986625Y-112178435D01*
X117982035Y-112147493D01*
X117980500Y-112116250D01*
X117980500Y-111403750D01*
X117982035Y-111372507D01*
X117986625Y-111341565D01*
X117994225Y-111311222D01*
X118004763Y-111281770D01*
X118018138Y-111253492D01*
X118034219Y-111226662D01*
X118052853Y-111201537D01*
X118073860Y-111178360D01*
X118097037Y-111157353D01*
X118122162Y-111138719D01*
X118148992Y-111122638D01*
X118177270Y-111109263D01*
X118206722Y-111098725D01*
X118237065Y-111091125D01*
X118268007Y-111086535D01*
X118299250Y-111085000D01*
X118936750Y-111085000D01*
X118967993Y-111086535D01*
X118967993Y-111086535D01*
G37*
D50*
X118618000Y-111760000D03*
D23*
G36*
X124352993Y-111086535D02*
G01*
X124383935Y-111091125D01*
X124414278Y-111098725D01*
X124443730Y-111109263D01*
X124472008Y-111122638D01*
X124498838Y-111138719D01*
X124523963Y-111157353D01*
X124547140Y-111178360D01*
X124568147Y-111201537D01*
X124586781Y-111226662D01*
X124602862Y-111253492D01*
X124616237Y-111281770D01*
X124626775Y-111311222D01*
X124634375Y-111341565D01*
X124638965Y-111372507D01*
X124640500Y-111403750D01*
X124640500Y-112116250D01*
X124638965Y-112147493D01*
X124634375Y-112178435D01*
X124626775Y-112208778D01*
X124616237Y-112238230D01*
X124602862Y-112266508D01*
X124586781Y-112293338D01*
X124568147Y-112318463D01*
X124547140Y-112341640D01*
X124523963Y-112362647D01*
X124498838Y-112381281D01*
X124472008Y-112397362D01*
X124443730Y-112410737D01*
X124414278Y-112421275D01*
X124383935Y-112428875D01*
X124352993Y-112433465D01*
X124321750Y-112435000D01*
X123684250Y-112435000D01*
X123653007Y-112433465D01*
X123622065Y-112428875D01*
X123591722Y-112421275D01*
X123562270Y-112410737D01*
X123533992Y-112397362D01*
X123507162Y-112381281D01*
X123482037Y-112362647D01*
X123458860Y-112341640D01*
X123437853Y-112318463D01*
X123419219Y-112293338D01*
X123403138Y-112266508D01*
X123389763Y-112238230D01*
X123379225Y-112208778D01*
X123371625Y-112178435D01*
X123367035Y-112147493D01*
X123365500Y-112116250D01*
X123365500Y-111403750D01*
X123367035Y-111372507D01*
X123371625Y-111341565D01*
X123379225Y-111311222D01*
X123389763Y-111281770D01*
X123403138Y-111253492D01*
X123419219Y-111226662D01*
X123437853Y-111201537D01*
X123458860Y-111178360D01*
X123482037Y-111157353D01*
X123507162Y-111138719D01*
X123533992Y-111122638D01*
X123562270Y-111109263D01*
X123591722Y-111098725D01*
X123622065Y-111091125D01*
X123653007Y-111086535D01*
X123684250Y-111085000D01*
X124321750Y-111085000D01*
X124352993Y-111086535D01*
X124352993Y-111086535D01*
G37*
D50*
X124003000Y-111760000D03*
D23*
G36*
X122777993Y-111086535D02*
G01*
X122808935Y-111091125D01*
X122839278Y-111098725D01*
X122868730Y-111109263D01*
X122897008Y-111122638D01*
X122923838Y-111138719D01*
X122948963Y-111157353D01*
X122972140Y-111178360D01*
X122993147Y-111201537D01*
X123011781Y-111226662D01*
X123027862Y-111253492D01*
X123041237Y-111281770D01*
X123051775Y-111311222D01*
X123059375Y-111341565D01*
X123063965Y-111372507D01*
X123065500Y-111403750D01*
X123065500Y-112116250D01*
X123063965Y-112147493D01*
X123059375Y-112178435D01*
X123051775Y-112208778D01*
X123041237Y-112238230D01*
X123027862Y-112266508D01*
X123011781Y-112293338D01*
X122993147Y-112318463D01*
X122972140Y-112341640D01*
X122948963Y-112362647D01*
X122923838Y-112381281D01*
X122897008Y-112397362D01*
X122868730Y-112410737D01*
X122839278Y-112421275D01*
X122808935Y-112428875D01*
X122777993Y-112433465D01*
X122746750Y-112435000D01*
X122109250Y-112435000D01*
X122078007Y-112433465D01*
X122047065Y-112428875D01*
X122016722Y-112421275D01*
X121987270Y-112410737D01*
X121958992Y-112397362D01*
X121932162Y-112381281D01*
X121907037Y-112362647D01*
X121883860Y-112341640D01*
X121862853Y-112318463D01*
X121844219Y-112293338D01*
X121828138Y-112266508D01*
X121814763Y-112238230D01*
X121804225Y-112208778D01*
X121796625Y-112178435D01*
X121792035Y-112147493D01*
X121790500Y-112116250D01*
X121790500Y-111403750D01*
X121792035Y-111372507D01*
X121796625Y-111341565D01*
X121804225Y-111311222D01*
X121814763Y-111281770D01*
X121828138Y-111253492D01*
X121844219Y-111226662D01*
X121862853Y-111201537D01*
X121883860Y-111178360D01*
X121907037Y-111157353D01*
X121932162Y-111138719D01*
X121958992Y-111122638D01*
X121987270Y-111109263D01*
X122016722Y-111098725D01*
X122047065Y-111091125D01*
X122078007Y-111086535D01*
X122109250Y-111085000D01*
X122746750Y-111085000D01*
X122777993Y-111086535D01*
X122777993Y-111086535D01*
G37*
D50*
X122428000Y-111760000D03*
M02*
