G04 #@! TF.GenerationSoftware,KiCad,Pcbnew,(5.1.4-0-10_14)*
G04 #@! TF.CreationDate,2020-02-25T06:48:49+00:00*
G04 #@! TF.ProjectId,ruler,72756c65-722e-46b6-9963-61645f706362,1.0*
G04 #@! TF.SameCoordinates,Original*
G04 #@! TF.FileFunction,Legend,Bot*
G04 #@! TF.FilePolarity,Positive*
%FSLAX46Y46*%
G04 Gerber Fmt 4.6, Leading zero omitted, Abs format (unit mm)*
G04 Created by KiCad (PCBNEW (5.1.4-0-10_14)) date 2020-02-25 06:48:49*
%MOMM*%
%LPD*%
G04 APERTURE LIST*
%ADD10C,0.150000*%
%ADD11C,0.120000*%
%ADD12C,0.250000*%
G04 APERTURE END LIST*
D10*
X124316571Y-103338380D02*
X124221333Y-103338380D01*
X124126095Y-103386000D01*
X124078476Y-103433619D01*
X124030857Y-103528857D01*
X123983238Y-103719333D01*
X123983238Y-103957428D01*
X124030857Y-104147904D01*
X124078476Y-104243142D01*
X124126095Y-104290761D01*
X124221333Y-104338380D01*
X124316571Y-104338380D01*
X124411809Y-104290761D01*
X124459428Y-104243142D01*
X124507047Y-104147904D01*
X124554666Y-103957428D01*
X124554666Y-103719333D01*
X124507047Y-103528857D01*
X124459428Y-103433619D01*
X124411809Y-103386000D01*
X124316571Y-103338380D01*
X123602285Y-103433619D02*
X123554666Y-103386000D01*
X123459428Y-103338380D01*
X123221333Y-103338380D01*
X123126095Y-103386000D01*
X123078476Y-103433619D01*
X123030857Y-103528857D01*
X123030857Y-103624095D01*
X123078476Y-103766952D01*
X123649904Y-104338380D01*
X123030857Y-104338380D01*
X122411809Y-103338380D02*
X122316571Y-103338380D01*
X122221333Y-103386000D01*
X122173714Y-103433619D01*
X122126095Y-103528857D01*
X122078476Y-103719333D01*
X122078476Y-103957428D01*
X122126095Y-104147904D01*
X122173714Y-104243142D01*
X122221333Y-104290761D01*
X122316571Y-104338380D01*
X122411809Y-104338380D01*
X122507047Y-104290761D01*
X122554666Y-104243142D01*
X122602285Y-104147904D01*
X122649904Y-103957428D01*
X122649904Y-103719333D01*
X122602285Y-103528857D01*
X122554666Y-103433619D01*
X122507047Y-103386000D01*
X122411809Y-103338380D01*
X121126095Y-104338380D02*
X121697523Y-104338380D01*
X121411809Y-104338380D02*
X121411809Y-103338380D01*
X121507047Y-103481238D01*
X121602285Y-103576476D01*
X121697523Y-103624095D01*
X119649904Y-104719333D02*
X119697523Y-104671714D01*
X119792761Y-104528857D01*
X119840380Y-104433619D01*
X119888000Y-104290761D01*
X119935619Y-104052666D01*
X119935619Y-103862190D01*
X119888000Y-103624095D01*
X119840380Y-103481238D01*
X119792761Y-103386000D01*
X119697523Y-103243142D01*
X119649904Y-103195523D01*
X119078476Y-103338380D02*
X118983238Y-103338380D01*
X118888000Y-103386000D01*
X118840380Y-103433619D01*
X118792761Y-103528857D01*
X118745142Y-103719333D01*
X118745142Y-103957428D01*
X118792761Y-104147904D01*
X118840380Y-104243142D01*
X118888000Y-104290761D01*
X118983238Y-104338380D01*
X119078476Y-104338380D01*
X119173714Y-104290761D01*
X119221333Y-104243142D01*
X119268952Y-104147904D01*
X119316571Y-103957428D01*
X119316571Y-103719333D01*
X119268952Y-103528857D01*
X119221333Y-103433619D01*
X119173714Y-103386000D01*
X119078476Y-103338380D01*
X117888000Y-103338380D02*
X118078476Y-103338380D01*
X118173714Y-103386000D01*
X118221333Y-103433619D01*
X118316571Y-103576476D01*
X118364190Y-103766952D01*
X118364190Y-104147904D01*
X118316571Y-104243142D01*
X118268952Y-104290761D01*
X118173714Y-104338380D01*
X117983238Y-104338380D01*
X117888000Y-104290761D01*
X117840380Y-104243142D01*
X117792761Y-104147904D01*
X117792761Y-103909809D01*
X117840380Y-103814571D01*
X117888000Y-103766952D01*
X117983238Y-103719333D01*
X118173714Y-103719333D01*
X118268952Y-103766952D01*
X118316571Y-103814571D01*
X118364190Y-103909809D01*
X117173714Y-103338380D02*
X117078476Y-103338380D01*
X116983238Y-103386000D01*
X116935619Y-103433619D01*
X116888000Y-103528857D01*
X116840380Y-103719333D01*
X116840380Y-103957428D01*
X116888000Y-104147904D01*
X116935619Y-104243142D01*
X116983238Y-104290761D01*
X117078476Y-104338380D01*
X117173714Y-104338380D01*
X117268952Y-104290761D01*
X117316571Y-104243142D01*
X117364190Y-104147904D01*
X117411809Y-103957428D01*
X117411809Y-103719333D01*
X117364190Y-103528857D01*
X117316571Y-103433619D01*
X117268952Y-103386000D01*
X117173714Y-103338380D01*
X116507047Y-103338380D02*
X115888000Y-103338380D01*
X116221333Y-103719333D01*
X116078476Y-103719333D01*
X115983238Y-103766952D01*
X115935619Y-103814571D01*
X115888000Y-103909809D01*
X115888000Y-104147904D01*
X115935619Y-104243142D01*
X115983238Y-104290761D01*
X116078476Y-104338380D01*
X116364190Y-104338380D01*
X116459428Y-104290761D01*
X116507047Y-104243142D01*
X115554666Y-104719333D02*
X115507047Y-104671714D01*
X115411809Y-104528857D01*
X115364190Y-104433619D01*
X115316571Y-104290761D01*
X115268952Y-104052666D01*
X115268952Y-103862190D01*
X115316571Y-103624095D01*
X115364190Y-103481238D01*
X115411809Y-103386000D01*
X115507047Y-103243142D01*
X115554666Y-103195523D01*
X124316571Y-106386380D02*
X124221333Y-106386380D01*
X124126095Y-106434000D01*
X124078476Y-106481619D01*
X124030857Y-106576857D01*
X123983238Y-106767333D01*
X123983238Y-107005428D01*
X124030857Y-107195904D01*
X124078476Y-107291142D01*
X124126095Y-107338761D01*
X124221333Y-107386380D01*
X124316571Y-107386380D01*
X124411809Y-107338761D01*
X124459428Y-107291142D01*
X124507047Y-107195904D01*
X124554666Y-107005428D01*
X124554666Y-106767333D01*
X124507047Y-106576857D01*
X124459428Y-106481619D01*
X124411809Y-106434000D01*
X124316571Y-106386380D01*
X123126095Y-106719714D02*
X123126095Y-107386380D01*
X123364190Y-106338761D02*
X123602285Y-107053047D01*
X122983238Y-107053047D01*
X122411809Y-106386380D02*
X122316571Y-106386380D01*
X122221333Y-106434000D01*
X122173714Y-106481619D01*
X122126095Y-106576857D01*
X122078476Y-106767333D01*
X122078476Y-107005428D01*
X122126095Y-107195904D01*
X122173714Y-107291142D01*
X122221333Y-107338761D01*
X122316571Y-107386380D01*
X122411809Y-107386380D01*
X122507047Y-107338761D01*
X122554666Y-107291142D01*
X122602285Y-107195904D01*
X122649904Y-107005428D01*
X122649904Y-106767333D01*
X122602285Y-106576857D01*
X122554666Y-106481619D01*
X122507047Y-106434000D01*
X122411809Y-106386380D01*
X121697523Y-106481619D02*
X121649904Y-106434000D01*
X121554666Y-106386380D01*
X121316571Y-106386380D01*
X121221333Y-106434000D01*
X121173714Y-106481619D01*
X121126095Y-106576857D01*
X121126095Y-106672095D01*
X121173714Y-106814952D01*
X121745142Y-107386380D01*
X121126095Y-107386380D01*
X119649904Y-107767333D02*
X119697523Y-107719714D01*
X119792761Y-107576857D01*
X119840380Y-107481619D01*
X119888000Y-107338761D01*
X119935619Y-107100666D01*
X119935619Y-106910190D01*
X119888000Y-106672095D01*
X119840380Y-106529238D01*
X119792761Y-106434000D01*
X119697523Y-106291142D01*
X119649904Y-106243523D01*
X118745142Y-107386380D02*
X119316571Y-107386380D01*
X119030857Y-107386380D02*
X119030857Y-106386380D01*
X119126095Y-106529238D01*
X119221333Y-106624476D01*
X119316571Y-106672095D01*
X118126095Y-106386380D02*
X118030857Y-106386380D01*
X117935619Y-106434000D01*
X117888000Y-106481619D01*
X117840380Y-106576857D01*
X117792761Y-106767333D01*
X117792761Y-107005428D01*
X117840380Y-107195904D01*
X117888000Y-107291142D01*
X117935619Y-107338761D01*
X118030857Y-107386380D01*
X118126095Y-107386380D01*
X118221333Y-107338761D01*
X118268952Y-107291142D01*
X118316571Y-107195904D01*
X118364190Y-107005428D01*
X118364190Y-106767333D01*
X118316571Y-106576857D01*
X118268952Y-106481619D01*
X118221333Y-106434000D01*
X118126095Y-106386380D01*
X117173714Y-106386380D02*
X117078476Y-106386380D01*
X116983238Y-106434000D01*
X116935619Y-106481619D01*
X116888000Y-106576857D01*
X116840380Y-106767333D01*
X116840380Y-107005428D01*
X116888000Y-107195904D01*
X116935619Y-107291142D01*
X116983238Y-107338761D01*
X117078476Y-107386380D01*
X117173714Y-107386380D01*
X117268952Y-107338761D01*
X117316571Y-107291142D01*
X117364190Y-107195904D01*
X117411809Y-107005428D01*
X117411809Y-106767333D01*
X117364190Y-106576857D01*
X117316571Y-106481619D01*
X117268952Y-106434000D01*
X117173714Y-106386380D01*
X115935619Y-106386380D02*
X116411809Y-106386380D01*
X116459428Y-106862571D01*
X116411809Y-106814952D01*
X116316571Y-106767333D01*
X116078476Y-106767333D01*
X115983238Y-106814952D01*
X115935619Y-106862571D01*
X115888000Y-106957809D01*
X115888000Y-107195904D01*
X115935619Y-107291142D01*
X115983238Y-107338761D01*
X116078476Y-107386380D01*
X116316571Y-107386380D01*
X116411809Y-107338761D01*
X116459428Y-107291142D01*
X115554666Y-107767333D02*
X115507047Y-107719714D01*
X115411809Y-107576857D01*
X115364190Y-107481619D01*
X115316571Y-107338761D01*
X115268952Y-107100666D01*
X115268952Y-106910190D01*
X115316571Y-106672095D01*
X115364190Y-106529238D01*
X115411809Y-106434000D01*
X115507047Y-106291142D01*
X115554666Y-106243523D01*
X107142119Y-102512761D02*
X107005214Y-102560380D01*
X106767119Y-102560380D01*
X106665928Y-102512761D01*
X106612357Y-102465142D01*
X106552833Y-102369904D01*
X106540928Y-102274666D01*
X106576642Y-102179428D01*
X106618309Y-102131809D01*
X106707595Y-102084190D01*
X106892119Y-102036571D01*
X106981404Y-101988952D01*
X107023071Y-101941333D01*
X107058785Y-101846095D01*
X107046880Y-101750857D01*
X106987357Y-101655619D01*
X106933785Y-101608000D01*
X106832595Y-101560380D01*
X106594500Y-101560380D01*
X106457595Y-101608000D01*
X106148071Y-102560380D02*
X106023071Y-101560380D01*
X105779023Y-102274666D01*
X105356404Y-101560380D01*
X105481404Y-102560380D01*
X105005214Y-102560380D02*
X104880214Y-101560380D01*
X104642119Y-101560380D01*
X104505214Y-101608000D01*
X104421880Y-101703238D01*
X104386166Y-101798476D01*
X104362357Y-101988952D01*
X104380214Y-102131809D01*
X104451642Y-102322285D01*
X104511166Y-102417523D01*
X104618309Y-102512761D01*
X104767119Y-102560380D01*
X105005214Y-102560380D01*
X103243309Y-102560380D02*
X103118309Y-101560380D01*
X103177833Y-102036571D02*
X102606404Y-102036571D01*
X102671880Y-102560380D02*
X102546880Y-101560380D01*
X101767119Y-102560380D02*
X101701642Y-102036571D01*
X101737357Y-101941333D01*
X101826642Y-101893714D01*
X102017119Y-101893714D01*
X102118309Y-101941333D01*
X101761166Y-102512761D02*
X101862357Y-102560380D01*
X102100452Y-102560380D01*
X102189738Y-102512761D01*
X102225452Y-102417523D01*
X102213547Y-102322285D01*
X102154023Y-102227047D01*
X102052833Y-102179428D01*
X101814738Y-102179428D01*
X101713547Y-102131809D01*
X101207595Y-101893714D02*
X101290928Y-102560380D01*
X101219500Y-101988952D02*
X101165928Y-101941333D01*
X101064738Y-101893714D01*
X100921880Y-101893714D01*
X100832595Y-101941333D01*
X100796880Y-102036571D01*
X100862357Y-102560380D01*
X99957595Y-102560380D02*
X99832595Y-101560380D01*
X99951642Y-102512761D02*
X100052833Y-102560380D01*
X100243309Y-102560380D01*
X100332595Y-102512761D01*
X100374261Y-102465142D01*
X100409976Y-102369904D01*
X100374261Y-102084190D01*
X100314738Y-101988952D01*
X100261166Y-101941333D01*
X100159976Y-101893714D01*
X99969500Y-101893714D01*
X99880214Y-101941333D01*
X98761166Y-102512761D02*
X98624261Y-102560380D01*
X98386166Y-102560380D01*
X98284976Y-102512761D01*
X98231404Y-102465142D01*
X98171880Y-102369904D01*
X98159976Y-102274666D01*
X98195690Y-102179428D01*
X98237357Y-102131809D01*
X98326642Y-102084190D01*
X98511166Y-102036571D01*
X98600452Y-101988952D01*
X98642119Y-101941333D01*
X98677833Y-101846095D01*
X98665928Y-101750857D01*
X98606404Y-101655619D01*
X98552833Y-101608000D01*
X98451642Y-101560380D01*
X98213547Y-101560380D01*
X98076642Y-101608000D01*
X97624261Y-102560380D02*
X97713547Y-102512761D01*
X97755214Y-102465142D01*
X97790928Y-102369904D01*
X97755214Y-102084190D01*
X97695690Y-101988952D01*
X97642119Y-101941333D01*
X97540928Y-101893714D01*
X97398071Y-101893714D01*
X97308785Y-101941333D01*
X97267119Y-101988952D01*
X97231404Y-102084190D01*
X97267119Y-102369904D01*
X97326642Y-102465142D01*
X97380214Y-102512761D01*
X97481404Y-102560380D01*
X97624261Y-102560380D01*
X96719500Y-102560380D02*
X96808785Y-102512761D01*
X96844500Y-102417523D01*
X96737357Y-101560380D01*
X95909976Y-102560380D02*
X95784976Y-101560380D01*
X95904023Y-102512761D02*
X96005214Y-102560380D01*
X96195690Y-102560380D01*
X96284976Y-102512761D01*
X96326642Y-102465142D01*
X96362357Y-102369904D01*
X96326642Y-102084190D01*
X96267119Y-101988952D01*
X96213547Y-101941333D01*
X96112357Y-101893714D01*
X95921880Y-101893714D01*
X95832595Y-101941333D01*
X95046880Y-102512761D02*
X95148071Y-102560380D01*
X95338547Y-102560380D01*
X95427833Y-102512761D01*
X95463547Y-102417523D01*
X95415928Y-102036571D01*
X95356404Y-101941333D01*
X95255214Y-101893714D01*
X95064738Y-101893714D01*
X94975452Y-101941333D01*
X94939738Y-102036571D01*
X94951642Y-102131809D01*
X95439738Y-102227047D01*
X94576642Y-102560380D02*
X94493309Y-101893714D01*
X94517119Y-102084190D02*
X94457595Y-101988952D01*
X94404023Y-101941333D01*
X94302833Y-101893714D01*
X94207595Y-101893714D01*
X125176119Y-102512761D02*
X125039214Y-102560380D01*
X124801119Y-102560380D01*
X124699928Y-102512761D01*
X124646357Y-102465142D01*
X124586833Y-102369904D01*
X124574928Y-102274666D01*
X124610642Y-102179428D01*
X124652309Y-102131809D01*
X124741595Y-102084190D01*
X124926119Y-102036571D01*
X125015404Y-101988952D01*
X125057071Y-101941333D01*
X125092785Y-101846095D01*
X125080880Y-101750857D01*
X125021357Y-101655619D01*
X124967785Y-101608000D01*
X124866595Y-101560380D01*
X124628500Y-101560380D01*
X124491595Y-101608000D01*
X124182071Y-102560380D02*
X124057071Y-101560380D01*
X123813023Y-102274666D01*
X123390404Y-101560380D01*
X123515404Y-102560380D01*
X123039214Y-102560380D02*
X122914214Y-101560380D01*
X122676119Y-101560380D01*
X122539214Y-101608000D01*
X122455880Y-101703238D01*
X122420166Y-101798476D01*
X122396357Y-101988952D01*
X122414214Y-102131809D01*
X122485642Y-102322285D01*
X122545166Y-102417523D01*
X122652309Y-102512761D01*
X122801119Y-102560380D01*
X123039214Y-102560380D01*
X121277309Y-102560380D02*
X121152309Y-101560380D01*
X120908261Y-102274666D01*
X120485642Y-101560380D01*
X120610642Y-102560380D01*
X119705880Y-102560380D02*
X119640404Y-102036571D01*
X119676119Y-101941333D01*
X119765404Y-101893714D01*
X119955880Y-101893714D01*
X120057071Y-101941333D01*
X119699928Y-102512761D02*
X119801119Y-102560380D01*
X120039214Y-102560380D01*
X120128500Y-102512761D01*
X120164214Y-102417523D01*
X120152309Y-102322285D01*
X120092785Y-102227047D01*
X119991595Y-102179428D01*
X119753500Y-102179428D01*
X119652309Y-102131809D01*
X118795166Y-102512761D02*
X118896357Y-102560380D01*
X119086833Y-102560380D01*
X119176119Y-102512761D01*
X119217785Y-102465142D01*
X119253500Y-102369904D01*
X119217785Y-102084190D01*
X119158261Y-101988952D01*
X119104690Y-101941333D01*
X119003500Y-101893714D01*
X118813023Y-101893714D01*
X118723738Y-101941333D01*
X118372547Y-102560380D02*
X118247547Y-101560380D01*
X117943976Y-102560380D02*
X117878500Y-102036571D01*
X117914214Y-101941333D01*
X118003500Y-101893714D01*
X118146357Y-101893714D01*
X118247547Y-101941333D01*
X118301119Y-101988952D01*
X117467785Y-102560380D02*
X117384452Y-101893714D01*
X117342785Y-101560380D02*
X117396357Y-101608000D01*
X117354690Y-101655619D01*
X117301119Y-101608000D01*
X117342785Y-101560380D01*
X117354690Y-101655619D01*
X116908261Y-101893714D02*
X116991595Y-102560380D01*
X116920166Y-101988952D02*
X116866595Y-101941333D01*
X116765404Y-101893714D01*
X116622547Y-101893714D01*
X116533261Y-101941333D01*
X116497547Y-102036571D01*
X116563023Y-102560380D01*
X115699928Y-102512761D02*
X115801119Y-102560380D01*
X115991595Y-102560380D01*
X116080880Y-102512761D01*
X116116595Y-102417523D01*
X116068976Y-102036571D01*
X116009452Y-101941333D01*
X115908261Y-101893714D01*
X115717785Y-101893714D01*
X115628500Y-101941333D01*
X115592785Y-102036571D01*
X115604690Y-102131809D01*
X116092785Y-102227047D01*
X114509452Y-102512761D02*
X114372547Y-102560380D01*
X114134452Y-102560380D01*
X114033261Y-102512761D01*
X113979690Y-102465142D01*
X113920166Y-102369904D01*
X113908261Y-102274666D01*
X113943976Y-102179428D01*
X113985642Y-102131809D01*
X114074928Y-102084190D01*
X114259452Y-102036571D01*
X114348738Y-101988952D01*
X114390404Y-101941333D01*
X114426119Y-101846095D01*
X114414214Y-101750857D01*
X114354690Y-101655619D01*
X114301119Y-101608000D01*
X114199928Y-101560380D01*
X113961833Y-101560380D01*
X113824928Y-101608000D01*
X113372547Y-102560380D02*
X113461833Y-102512761D01*
X113503500Y-102465142D01*
X113539214Y-102369904D01*
X113503500Y-102084190D01*
X113443976Y-101988952D01*
X113390404Y-101941333D01*
X113289214Y-101893714D01*
X113146357Y-101893714D01*
X113057071Y-101941333D01*
X113015404Y-101988952D01*
X112979690Y-102084190D01*
X113015404Y-102369904D01*
X113074928Y-102465142D01*
X113128500Y-102512761D01*
X113229690Y-102560380D01*
X113372547Y-102560380D01*
X112467785Y-102560380D02*
X112557071Y-102512761D01*
X112592785Y-102417523D01*
X112485642Y-101560380D01*
X111658261Y-102560380D02*
X111533261Y-101560380D01*
X111652309Y-102512761D02*
X111753500Y-102560380D01*
X111943976Y-102560380D01*
X112033261Y-102512761D01*
X112074928Y-102465142D01*
X112110642Y-102369904D01*
X112074928Y-102084190D01*
X112015404Y-101988952D01*
X111961833Y-101941333D01*
X111860642Y-101893714D01*
X111670166Y-101893714D01*
X111580880Y-101941333D01*
X110795166Y-102512761D02*
X110896357Y-102560380D01*
X111086833Y-102560380D01*
X111176119Y-102512761D01*
X111211833Y-102417523D01*
X111164214Y-102036571D01*
X111104690Y-101941333D01*
X111003500Y-101893714D01*
X110813023Y-101893714D01*
X110723738Y-101941333D01*
X110688023Y-102036571D01*
X110699928Y-102131809D01*
X111188023Y-102227047D01*
X110324928Y-102560380D02*
X110241595Y-101893714D01*
X110265404Y-102084190D02*
X110205880Y-101988952D01*
X110152309Y-101941333D01*
X110051119Y-101893714D01*
X109955880Y-101893714D01*
X124554666Y-120578619D02*
X124507047Y-120531000D01*
X124411809Y-120483380D01*
X124173714Y-120483380D01*
X124078476Y-120531000D01*
X124030857Y-120578619D01*
X123983238Y-120673857D01*
X123983238Y-120769095D01*
X124030857Y-120911952D01*
X124602285Y-121483380D01*
X123983238Y-121483380D01*
X123078476Y-120483380D02*
X123554666Y-120483380D01*
X123602285Y-120959571D01*
X123554666Y-120911952D01*
X123459428Y-120864333D01*
X123221333Y-120864333D01*
X123126095Y-120911952D01*
X123078476Y-120959571D01*
X123030857Y-121054809D01*
X123030857Y-121292904D01*
X123078476Y-121388142D01*
X123126095Y-121435761D01*
X123221333Y-121483380D01*
X123459428Y-121483380D01*
X123554666Y-121435761D01*
X123602285Y-121388142D01*
X122078476Y-121483380D02*
X122649904Y-121483380D01*
X122364190Y-121483380D02*
X122364190Y-120483380D01*
X122459428Y-120626238D01*
X122554666Y-120721476D01*
X122649904Y-120769095D01*
X121697523Y-120578619D02*
X121649904Y-120531000D01*
X121554666Y-120483380D01*
X121316571Y-120483380D01*
X121221333Y-120531000D01*
X121173714Y-120578619D01*
X121126095Y-120673857D01*
X121126095Y-120769095D01*
X121173714Y-120911952D01*
X121745142Y-121483380D01*
X121126095Y-121483380D01*
X119649904Y-121864333D02*
X119697523Y-121816714D01*
X119792761Y-121673857D01*
X119840380Y-121578619D01*
X119888000Y-121435761D01*
X119935619Y-121197666D01*
X119935619Y-121007190D01*
X119888000Y-120769095D01*
X119840380Y-120626238D01*
X119792761Y-120531000D01*
X119697523Y-120388142D01*
X119649904Y-120340523D01*
X118840380Y-120483380D02*
X119030857Y-120483380D01*
X119126095Y-120531000D01*
X119173714Y-120578619D01*
X119268952Y-120721476D01*
X119316571Y-120911952D01*
X119316571Y-121292904D01*
X119268952Y-121388142D01*
X119221333Y-121435761D01*
X119126095Y-121483380D01*
X118935619Y-121483380D01*
X118840380Y-121435761D01*
X118792761Y-121388142D01*
X118745142Y-121292904D01*
X118745142Y-121054809D01*
X118792761Y-120959571D01*
X118840380Y-120911952D01*
X118935619Y-120864333D01*
X119126095Y-120864333D01*
X119221333Y-120911952D01*
X119268952Y-120959571D01*
X119316571Y-121054809D01*
X117888000Y-120816714D02*
X117888000Y-121483380D01*
X118126095Y-120435761D02*
X118364190Y-121150047D01*
X117745142Y-121150047D01*
X117459428Y-120483380D02*
X116840380Y-120483380D01*
X117173714Y-120864333D01*
X117030857Y-120864333D01*
X116935619Y-120911952D01*
X116888000Y-120959571D01*
X116840380Y-121054809D01*
X116840380Y-121292904D01*
X116888000Y-121388142D01*
X116935619Y-121435761D01*
X117030857Y-121483380D01*
X117316571Y-121483380D01*
X117411809Y-121435761D01*
X117459428Y-121388142D01*
X116459428Y-120578619D02*
X116411809Y-120531000D01*
X116316571Y-120483380D01*
X116078476Y-120483380D01*
X115983238Y-120531000D01*
X115935619Y-120578619D01*
X115888000Y-120673857D01*
X115888000Y-120769095D01*
X115935619Y-120911952D01*
X116507047Y-121483380D01*
X115888000Y-121483380D01*
X115554666Y-121864333D02*
X115507047Y-121816714D01*
X115411809Y-121673857D01*
X115364190Y-121578619D01*
X115316571Y-121435761D01*
X115268952Y-121197666D01*
X115268952Y-121007190D01*
X115316571Y-120769095D01*
X115364190Y-120626238D01*
X115411809Y-120531000D01*
X115507047Y-120388142D01*
X115554666Y-120340523D01*
X123983238Y-117419380D02*
X124554666Y-117419380D01*
X124268952Y-117419380D02*
X124268952Y-116419380D01*
X124364190Y-116562238D01*
X124459428Y-116657476D01*
X124554666Y-116705095D01*
X123602285Y-116514619D02*
X123554666Y-116467000D01*
X123459428Y-116419380D01*
X123221333Y-116419380D01*
X123126095Y-116467000D01*
X123078476Y-116514619D01*
X123030857Y-116609857D01*
X123030857Y-116705095D01*
X123078476Y-116847952D01*
X123649904Y-117419380D01*
X123030857Y-117419380D01*
X122411809Y-116419380D02*
X122316571Y-116419380D01*
X122221333Y-116467000D01*
X122173714Y-116514619D01*
X122126095Y-116609857D01*
X122078476Y-116800333D01*
X122078476Y-117038428D01*
X122126095Y-117228904D01*
X122173714Y-117324142D01*
X122221333Y-117371761D01*
X122316571Y-117419380D01*
X122411809Y-117419380D01*
X122507047Y-117371761D01*
X122554666Y-117324142D01*
X122602285Y-117228904D01*
X122649904Y-117038428D01*
X122649904Y-116800333D01*
X122602285Y-116609857D01*
X122554666Y-116514619D01*
X122507047Y-116467000D01*
X122411809Y-116419380D01*
X121221333Y-116419380D02*
X121411809Y-116419380D01*
X121507047Y-116467000D01*
X121554666Y-116514619D01*
X121649904Y-116657476D01*
X121697523Y-116847952D01*
X121697523Y-117228904D01*
X121649904Y-117324142D01*
X121602285Y-117371761D01*
X121507047Y-117419380D01*
X121316571Y-117419380D01*
X121221333Y-117371761D01*
X121173714Y-117324142D01*
X121126095Y-117228904D01*
X121126095Y-116990809D01*
X121173714Y-116895571D01*
X121221333Y-116847952D01*
X121316571Y-116800333D01*
X121507047Y-116800333D01*
X121602285Y-116847952D01*
X121649904Y-116895571D01*
X121697523Y-116990809D01*
X119649904Y-117800333D02*
X119697523Y-117752714D01*
X119792761Y-117609857D01*
X119840380Y-117514619D01*
X119888000Y-117371761D01*
X119935619Y-117133666D01*
X119935619Y-116943190D01*
X119888000Y-116705095D01*
X119840380Y-116562238D01*
X119792761Y-116467000D01*
X119697523Y-116324142D01*
X119649904Y-116276523D01*
X119364190Y-116419380D02*
X118745142Y-116419380D01*
X119078476Y-116800333D01*
X118935619Y-116800333D01*
X118840380Y-116847952D01*
X118792761Y-116895571D01*
X118745142Y-116990809D01*
X118745142Y-117228904D01*
X118792761Y-117324142D01*
X118840380Y-117371761D01*
X118935619Y-117419380D01*
X119221333Y-117419380D01*
X119316571Y-117371761D01*
X119364190Y-117324142D01*
X118364190Y-116514619D02*
X118316571Y-116467000D01*
X118221333Y-116419380D01*
X117983238Y-116419380D01*
X117888000Y-116467000D01*
X117840380Y-116514619D01*
X117792761Y-116609857D01*
X117792761Y-116705095D01*
X117840380Y-116847952D01*
X118411809Y-117419380D01*
X117792761Y-117419380D01*
X116840380Y-117419380D02*
X117411809Y-117419380D01*
X117126095Y-117419380D02*
X117126095Y-116419380D01*
X117221333Y-116562238D01*
X117316571Y-116657476D01*
X117411809Y-116705095D01*
X115983238Y-116419380D02*
X116173714Y-116419380D01*
X116268952Y-116467000D01*
X116316571Y-116514619D01*
X116411809Y-116657476D01*
X116459428Y-116847952D01*
X116459428Y-117228904D01*
X116411809Y-117324142D01*
X116364190Y-117371761D01*
X116268952Y-117419380D01*
X116078476Y-117419380D01*
X115983238Y-117371761D01*
X115935619Y-117324142D01*
X115888000Y-117228904D01*
X115888000Y-116990809D01*
X115935619Y-116895571D01*
X115983238Y-116847952D01*
X116078476Y-116800333D01*
X116268952Y-116800333D01*
X116364190Y-116847952D01*
X116411809Y-116895571D01*
X116459428Y-116990809D01*
X115554666Y-117800333D02*
X115507047Y-117752714D01*
X115411809Y-117609857D01*
X115364190Y-117514619D01*
X115316571Y-117371761D01*
X115268952Y-117133666D01*
X115268952Y-116943190D01*
X115316571Y-116705095D01*
X115364190Y-116562238D01*
X115411809Y-116467000D01*
X115507047Y-116324142D01*
X115554666Y-116276523D01*
X124316571Y-112736380D02*
X124221333Y-112736380D01*
X124126095Y-112784000D01*
X124078476Y-112831619D01*
X124030857Y-112926857D01*
X123983238Y-113117333D01*
X123983238Y-113355428D01*
X124030857Y-113545904D01*
X124078476Y-113641142D01*
X124126095Y-113688761D01*
X124221333Y-113736380D01*
X124316571Y-113736380D01*
X124411809Y-113688761D01*
X124459428Y-113641142D01*
X124507047Y-113545904D01*
X124554666Y-113355428D01*
X124554666Y-113117333D01*
X124507047Y-112926857D01*
X124459428Y-112831619D01*
X124411809Y-112784000D01*
X124316571Y-112736380D01*
X123411809Y-113164952D02*
X123507047Y-113117333D01*
X123554666Y-113069714D01*
X123602285Y-112974476D01*
X123602285Y-112926857D01*
X123554666Y-112831619D01*
X123507047Y-112784000D01*
X123411809Y-112736380D01*
X123221333Y-112736380D01*
X123126095Y-112784000D01*
X123078476Y-112831619D01*
X123030857Y-112926857D01*
X123030857Y-112974476D01*
X123078476Y-113069714D01*
X123126095Y-113117333D01*
X123221333Y-113164952D01*
X123411809Y-113164952D01*
X123507047Y-113212571D01*
X123554666Y-113260190D01*
X123602285Y-113355428D01*
X123602285Y-113545904D01*
X123554666Y-113641142D01*
X123507047Y-113688761D01*
X123411809Y-113736380D01*
X123221333Y-113736380D01*
X123126095Y-113688761D01*
X123078476Y-113641142D01*
X123030857Y-113545904D01*
X123030857Y-113355428D01*
X123078476Y-113260190D01*
X123126095Y-113212571D01*
X123221333Y-113164952D01*
X122411809Y-112736380D02*
X122316571Y-112736380D01*
X122221333Y-112784000D01*
X122173714Y-112831619D01*
X122126095Y-112926857D01*
X122078476Y-113117333D01*
X122078476Y-113355428D01*
X122126095Y-113545904D01*
X122173714Y-113641142D01*
X122221333Y-113688761D01*
X122316571Y-113736380D01*
X122411809Y-113736380D01*
X122507047Y-113688761D01*
X122554666Y-113641142D01*
X122602285Y-113545904D01*
X122649904Y-113355428D01*
X122649904Y-113117333D01*
X122602285Y-112926857D01*
X122554666Y-112831619D01*
X122507047Y-112784000D01*
X122411809Y-112736380D01*
X121173714Y-112736380D02*
X121649904Y-112736380D01*
X121697523Y-113212571D01*
X121649904Y-113164952D01*
X121554666Y-113117333D01*
X121316571Y-113117333D01*
X121221333Y-113164952D01*
X121173714Y-113212571D01*
X121126095Y-113307809D01*
X121126095Y-113545904D01*
X121173714Y-113641142D01*
X121221333Y-113688761D01*
X121316571Y-113736380D01*
X121554666Y-113736380D01*
X121649904Y-113688761D01*
X121697523Y-113641142D01*
X119649904Y-114117333D02*
X119697523Y-114069714D01*
X119792761Y-113926857D01*
X119840380Y-113831619D01*
X119888000Y-113688761D01*
X119935619Y-113450666D01*
X119935619Y-113260190D01*
X119888000Y-113022095D01*
X119840380Y-112879238D01*
X119792761Y-112784000D01*
X119697523Y-112641142D01*
X119649904Y-112593523D01*
X119316571Y-112831619D02*
X119268952Y-112784000D01*
X119173714Y-112736380D01*
X118935619Y-112736380D01*
X118840380Y-112784000D01*
X118792761Y-112831619D01*
X118745142Y-112926857D01*
X118745142Y-113022095D01*
X118792761Y-113164952D01*
X119364190Y-113736380D01*
X118745142Y-113736380D01*
X118126095Y-112736380D02*
X118030857Y-112736380D01*
X117935619Y-112784000D01*
X117888000Y-112831619D01*
X117840380Y-112926857D01*
X117792761Y-113117333D01*
X117792761Y-113355428D01*
X117840380Y-113545904D01*
X117888000Y-113641142D01*
X117935619Y-113688761D01*
X118030857Y-113736380D01*
X118126095Y-113736380D01*
X118221333Y-113688761D01*
X118268952Y-113641142D01*
X118316571Y-113545904D01*
X118364190Y-113355428D01*
X118364190Y-113117333D01*
X118316571Y-112926857D01*
X118268952Y-112831619D01*
X118221333Y-112784000D01*
X118126095Y-112736380D01*
X116840380Y-113736380D02*
X117411809Y-113736380D01*
X117126095Y-113736380D02*
X117126095Y-112736380D01*
X117221333Y-112879238D01*
X117316571Y-112974476D01*
X117411809Y-113022095D01*
X116459428Y-112831619D02*
X116411809Y-112784000D01*
X116316571Y-112736380D01*
X116078476Y-112736380D01*
X115983238Y-112784000D01*
X115935619Y-112831619D01*
X115888000Y-112926857D01*
X115888000Y-113022095D01*
X115935619Y-113164952D01*
X116507047Y-113736380D01*
X115888000Y-113736380D01*
X115554666Y-114117333D02*
X115507047Y-114069714D01*
X115411809Y-113926857D01*
X115364190Y-113831619D01*
X115316571Y-113688761D01*
X115268952Y-113450666D01*
X115268952Y-113260190D01*
X115316571Y-113022095D01*
X115364190Y-112879238D01*
X115411809Y-112784000D01*
X115507047Y-112641142D01*
X115554666Y-112593523D01*
X124316571Y-109307380D02*
X124221333Y-109307380D01*
X124126095Y-109355000D01*
X124078476Y-109402619D01*
X124030857Y-109497857D01*
X123983238Y-109688333D01*
X123983238Y-109926428D01*
X124030857Y-110116904D01*
X124078476Y-110212142D01*
X124126095Y-110259761D01*
X124221333Y-110307380D01*
X124316571Y-110307380D01*
X124411809Y-110259761D01*
X124459428Y-110212142D01*
X124507047Y-110116904D01*
X124554666Y-109926428D01*
X124554666Y-109688333D01*
X124507047Y-109497857D01*
X124459428Y-109402619D01*
X124411809Y-109355000D01*
X124316571Y-109307380D01*
X123126095Y-109307380D02*
X123316571Y-109307380D01*
X123411809Y-109355000D01*
X123459428Y-109402619D01*
X123554666Y-109545476D01*
X123602285Y-109735952D01*
X123602285Y-110116904D01*
X123554666Y-110212142D01*
X123507047Y-110259761D01*
X123411809Y-110307380D01*
X123221333Y-110307380D01*
X123126095Y-110259761D01*
X123078476Y-110212142D01*
X123030857Y-110116904D01*
X123030857Y-109878809D01*
X123078476Y-109783571D01*
X123126095Y-109735952D01*
X123221333Y-109688333D01*
X123411809Y-109688333D01*
X123507047Y-109735952D01*
X123554666Y-109783571D01*
X123602285Y-109878809D01*
X122411809Y-109307380D02*
X122316571Y-109307380D01*
X122221333Y-109355000D01*
X122173714Y-109402619D01*
X122126095Y-109497857D01*
X122078476Y-109688333D01*
X122078476Y-109926428D01*
X122126095Y-110116904D01*
X122173714Y-110212142D01*
X122221333Y-110259761D01*
X122316571Y-110307380D01*
X122411809Y-110307380D01*
X122507047Y-110259761D01*
X122554666Y-110212142D01*
X122602285Y-110116904D01*
X122649904Y-109926428D01*
X122649904Y-109688333D01*
X122602285Y-109497857D01*
X122554666Y-109402619D01*
X122507047Y-109355000D01*
X122411809Y-109307380D01*
X121745142Y-109307380D02*
X121126095Y-109307380D01*
X121459428Y-109688333D01*
X121316571Y-109688333D01*
X121221333Y-109735952D01*
X121173714Y-109783571D01*
X121126095Y-109878809D01*
X121126095Y-110116904D01*
X121173714Y-110212142D01*
X121221333Y-110259761D01*
X121316571Y-110307380D01*
X121602285Y-110307380D01*
X121697523Y-110259761D01*
X121745142Y-110212142D01*
X119649904Y-110688333D02*
X119697523Y-110640714D01*
X119792761Y-110497857D01*
X119840380Y-110402619D01*
X119888000Y-110259761D01*
X119935619Y-110021666D01*
X119935619Y-109831190D01*
X119888000Y-109593095D01*
X119840380Y-109450238D01*
X119792761Y-109355000D01*
X119697523Y-109212142D01*
X119649904Y-109164523D01*
X118745142Y-110307380D02*
X119316571Y-110307380D01*
X119030857Y-110307380D02*
X119030857Y-109307380D01*
X119126095Y-109450238D01*
X119221333Y-109545476D01*
X119316571Y-109593095D01*
X117888000Y-109307380D02*
X118078476Y-109307380D01*
X118173714Y-109355000D01*
X118221333Y-109402619D01*
X118316571Y-109545476D01*
X118364190Y-109735952D01*
X118364190Y-110116904D01*
X118316571Y-110212142D01*
X118268952Y-110259761D01*
X118173714Y-110307380D01*
X117983238Y-110307380D01*
X117888000Y-110259761D01*
X117840380Y-110212142D01*
X117792761Y-110116904D01*
X117792761Y-109878809D01*
X117840380Y-109783571D01*
X117888000Y-109735952D01*
X117983238Y-109688333D01*
X118173714Y-109688333D01*
X118268952Y-109735952D01*
X118316571Y-109783571D01*
X118364190Y-109878809D01*
X117173714Y-109307380D02*
X117078476Y-109307380D01*
X116983238Y-109355000D01*
X116935619Y-109402619D01*
X116888000Y-109497857D01*
X116840380Y-109688333D01*
X116840380Y-109926428D01*
X116888000Y-110116904D01*
X116935619Y-110212142D01*
X116983238Y-110259761D01*
X117078476Y-110307380D01*
X117173714Y-110307380D01*
X117268952Y-110259761D01*
X117316571Y-110212142D01*
X117364190Y-110116904D01*
X117411809Y-109926428D01*
X117411809Y-109688333D01*
X117364190Y-109497857D01*
X117316571Y-109402619D01*
X117268952Y-109355000D01*
X117173714Y-109307380D01*
X116268952Y-109735952D02*
X116364190Y-109688333D01*
X116411809Y-109640714D01*
X116459428Y-109545476D01*
X116459428Y-109497857D01*
X116411809Y-109402619D01*
X116364190Y-109355000D01*
X116268952Y-109307380D01*
X116078476Y-109307380D01*
X115983238Y-109355000D01*
X115935619Y-109402619D01*
X115888000Y-109497857D01*
X115888000Y-109545476D01*
X115935619Y-109640714D01*
X115983238Y-109688333D01*
X116078476Y-109735952D01*
X116268952Y-109735952D01*
X116364190Y-109783571D01*
X116411809Y-109831190D01*
X116459428Y-109926428D01*
X116459428Y-110116904D01*
X116411809Y-110212142D01*
X116364190Y-110259761D01*
X116268952Y-110307380D01*
X116078476Y-110307380D01*
X115983238Y-110259761D01*
X115935619Y-110212142D01*
X115888000Y-110116904D01*
X115888000Y-109926428D01*
X115935619Y-109831190D01*
X115983238Y-109783571D01*
X116078476Y-109735952D01*
X115554666Y-110688333D02*
X115507047Y-110640714D01*
X115411809Y-110497857D01*
X115364190Y-110402619D01*
X115316571Y-110259761D01*
X115268952Y-110021666D01*
X115268952Y-109831190D01*
X115316571Y-109593095D01*
X115364190Y-109450238D01*
X115411809Y-109355000D01*
X115507047Y-109212142D01*
X115554666Y-109164523D01*
X140073071Y-103363285D02*
X140001642Y-103363285D01*
X139930214Y-103399000D01*
X139894500Y-103434714D01*
X139858785Y-103506142D01*
X139823071Y-103649000D01*
X139823071Y-103827571D01*
X139858785Y-103970428D01*
X139894500Y-104041857D01*
X139930214Y-104077571D01*
X140001642Y-104113285D01*
X140073071Y-104113285D01*
X140144500Y-104077571D01*
X140180214Y-104041857D01*
X140215928Y-103970428D01*
X140251642Y-103827571D01*
X140251642Y-103649000D01*
X140215928Y-103506142D01*
X140180214Y-103434714D01*
X140144500Y-103399000D01*
X140073071Y-103363285D01*
X139501642Y-104041857D02*
X139465928Y-104077571D01*
X139501642Y-104113285D01*
X139537357Y-104077571D01*
X139501642Y-104041857D01*
X139501642Y-104113285D01*
X139215928Y-103363285D02*
X138715928Y-103363285D01*
X139037357Y-104113285D01*
X138073071Y-103363285D02*
X138430214Y-103363285D01*
X138465928Y-103720428D01*
X138430214Y-103684714D01*
X138358785Y-103649000D01*
X138180214Y-103649000D01*
X138108785Y-103684714D01*
X138073071Y-103720428D01*
X138037357Y-103791857D01*
X138037357Y-103970428D01*
X138073071Y-104041857D01*
X138108785Y-104077571D01*
X138180214Y-104113285D01*
X138358785Y-104113285D01*
X138430214Y-104077571D01*
X138465928Y-104041857D01*
X137180214Y-103327571D02*
X137823071Y-104291857D01*
X137001642Y-103363285D02*
X136537357Y-103363285D01*
X136787357Y-103649000D01*
X136680214Y-103649000D01*
X136608785Y-103684714D01*
X136573071Y-103720428D01*
X136537357Y-103791857D01*
X136537357Y-103970428D01*
X136573071Y-104041857D01*
X136608785Y-104077571D01*
X136680214Y-104113285D01*
X136894500Y-104113285D01*
X136965928Y-104077571D01*
X137001642Y-104041857D01*
X136073071Y-103363285D02*
X136001642Y-103363285D01*
X135930214Y-103399000D01*
X135894500Y-103434714D01*
X135858785Y-103506142D01*
X135823071Y-103649000D01*
X135823071Y-103827571D01*
X135858785Y-103970428D01*
X135894500Y-104041857D01*
X135930214Y-104077571D01*
X136001642Y-104113285D01*
X136073071Y-104113285D01*
X136144500Y-104077571D01*
X136180214Y-104041857D01*
X136215928Y-103970428D01*
X136251642Y-103827571D01*
X136251642Y-103649000D01*
X136215928Y-103506142D01*
X136180214Y-103434714D01*
X136144500Y-103399000D01*
X136073071Y-103363285D01*
X139773556Y-102036571D02*
X140106889Y-102036571D01*
X140172366Y-102560380D02*
X140047366Y-101560380D01*
X139571175Y-101560380D01*
X139172366Y-102560380D02*
X139261651Y-102512761D01*
X139303318Y-102465142D01*
X139339032Y-102369904D01*
X139303318Y-102084190D01*
X139243794Y-101988952D01*
X139190223Y-101941333D01*
X139089032Y-101893714D01*
X138946175Y-101893714D01*
X138856889Y-101941333D01*
X138815223Y-101988952D01*
X138779508Y-102084190D01*
X138815223Y-102369904D01*
X138874747Y-102465142D01*
X138928318Y-102512761D01*
X139029508Y-102560380D01*
X139172366Y-102560380D01*
X138327127Y-101893714D02*
X138410461Y-102560380D01*
X138339032Y-101988952D02*
X138285461Y-101941333D01*
X138184270Y-101893714D01*
X138041413Y-101893714D01*
X137952127Y-101941333D01*
X137916413Y-102036571D01*
X137981889Y-102560380D01*
X137565223Y-101893714D02*
X137184270Y-101893714D01*
X137380699Y-101560380D02*
X137487842Y-102417523D01*
X137452127Y-102512761D01*
X137362842Y-102560380D01*
X137267604Y-102560380D01*
X135934270Y-102941333D02*
X135975937Y-102893714D01*
X136053318Y-102750857D01*
X136089032Y-102655619D01*
X136118794Y-102512761D01*
X136136651Y-102274666D01*
X136112842Y-102084190D01*
X136035461Y-101846095D01*
X135969985Y-101703238D01*
X135910461Y-101608000D01*
X135797366Y-101465142D01*
X135743794Y-101417523D01*
X135505699Y-102560380D02*
X135422366Y-101893714D01*
X135434270Y-101988952D02*
X135380699Y-101941333D01*
X135279508Y-101893714D01*
X135136651Y-101893714D01*
X135047366Y-101941333D01*
X135011651Y-102036571D01*
X135077127Y-102560380D01*
X135011651Y-102036571D02*
X134952127Y-101941333D01*
X134850937Y-101893714D01*
X134708080Y-101893714D01*
X134618794Y-101941333D01*
X134583080Y-102036571D01*
X134648556Y-102560380D01*
X134172366Y-102560380D02*
X134089032Y-101893714D01*
X134100937Y-101988952D02*
X134047366Y-101941333D01*
X133946175Y-101893714D01*
X133803318Y-101893714D01*
X133714032Y-101941333D01*
X133678318Y-102036571D01*
X133743794Y-102560380D01*
X133678318Y-102036571D02*
X133618794Y-101941333D01*
X133517604Y-101893714D01*
X133374747Y-101893714D01*
X133285461Y-101941333D01*
X133249747Y-102036571D01*
X133315223Y-102560380D01*
X131993794Y-101512761D02*
X133011651Y-102798476D01*
X131791413Y-102560380D02*
X131708080Y-101893714D01*
X131719985Y-101988952D02*
X131666413Y-101941333D01*
X131565223Y-101893714D01*
X131422366Y-101893714D01*
X131333080Y-101941333D01*
X131297366Y-102036571D01*
X131362842Y-102560380D01*
X131297366Y-102036571D02*
X131237842Y-101941333D01*
X131136651Y-101893714D01*
X130993794Y-101893714D01*
X130904508Y-101941333D01*
X130868794Y-102036571D01*
X130934270Y-102560380D01*
X130458080Y-102560380D02*
X130374747Y-101893714D01*
X130333080Y-101560380D02*
X130386651Y-101608000D01*
X130344985Y-101655619D01*
X130291413Y-101608000D01*
X130333080Y-101560380D01*
X130344985Y-101655619D01*
X129839032Y-102560380D02*
X129928318Y-102512761D01*
X129964032Y-102417523D01*
X129856889Y-101560380D01*
X129600937Y-102941333D02*
X129547366Y-102893714D01*
X129434270Y-102750857D01*
X129374747Y-102655619D01*
X129309270Y-102512761D01*
X129231889Y-102274666D01*
X129208080Y-102084190D01*
X129225937Y-101846095D01*
X129255699Y-101703238D01*
X129291413Y-101608000D01*
X129368794Y-101465142D01*
X129410461Y-101417523D01*
X140013547Y-111619238D02*
X139918309Y-111524000D01*
X139727833Y-111428761D01*
X139251642Y-111428761D01*
X139061166Y-111524000D01*
X138965928Y-111619238D01*
X138870690Y-111809714D01*
X138870690Y-112000190D01*
X138965928Y-112285904D01*
X140108785Y-113428761D01*
X138870690Y-113428761D01*
X138013547Y-113238285D02*
X137918309Y-113333523D01*
X138013547Y-113428761D01*
X138108785Y-113333523D01*
X138013547Y-113238285D01*
X138013547Y-113428761D01*
X136680214Y-111428761D02*
X136489738Y-111428761D01*
X136299261Y-111524000D01*
X136204023Y-111619238D01*
X136108785Y-111809714D01*
X136013547Y-112190666D01*
X136013547Y-112666857D01*
X136108785Y-113047809D01*
X136204023Y-113238285D01*
X136299261Y-113333523D01*
X136489738Y-113428761D01*
X136680214Y-113428761D01*
X136870690Y-113333523D01*
X136965928Y-113238285D01*
X137061166Y-113047809D01*
X137156404Y-112666857D01*
X137156404Y-112190666D01*
X137061166Y-111809714D01*
X136965928Y-111619238D01*
X136870690Y-111524000D01*
X136680214Y-111428761D01*
X133727833Y-111333523D02*
X135442119Y-113904952D01*
X132775452Y-112285904D02*
X132965928Y-112190666D01*
X133061166Y-112095428D01*
X133156404Y-111904952D01*
X133156404Y-111809714D01*
X133061166Y-111619238D01*
X132965928Y-111524000D01*
X132775452Y-111428761D01*
X132394500Y-111428761D01*
X132204023Y-111524000D01*
X132108785Y-111619238D01*
X132013547Y-111809714D01*
X132013547Y-111904952D01*
X132108785Y-112095428D01*
X132204023Y-112190666D01*
X132394500Y-112285904D01*
X132775452Y-112285904D01*
X132965928Y-112381142D01*
X133061166Y-112476380D01*
X133156404Y-112666857D01*
X133156404Y-113047809D01*
X133061166Y-113238285D01*
X132965928Y-113333523D01*
X132775452Y-113428761D01*
X132394500Y-113428761D01*
X132204023Y-113333523D01*
X132108785Y-113238285D01*
X132013547Y-113047809D01*
X132013547Y-112666857D01*
X132108785Y-112476380D01*
X132204023Y-112381142D01*
X132394500Y-112285904D01*
X130775452Y-111428761D02*
X130584976Y-111428761D01*
X130394500Y-111524000D01*
X130299261Y-111619238D01*
X130204023Y-111809714D01*
X130108785Y-112190666D01*
X130108785Y-112666857D01*
X130204023Y-113047809D01*
X130299261Y-113238285D01*
X130394500Y-113333523D01*
X130584976Y-113428761D01*
X130775452Y-113428761D01*
X130965928Y-113333523D01*
X131061166Y-113238285D01*
X131156404Y-113047809D01*
X131251642Y-112666857D01*
X131251642Y-112190666D01*
X131156404Y-111809714D01*
X131061166Y-111619238D01*
X130965928Y-111524000D01*
X130775452Y-111428761D01*
X139404023Y-108112095D02*
X140146880Y-108112095D01*
X139775452Y-108112095D02*
X139775452Y-106812095D01*
X139899261Y-106997809D01*
X140023071Y-107121619D01*
X140146880Y-107183523D01*
X138846880Y-107988285D02*
X138784976Y-108050190D01*
X138846880Y-108112095D01*
X138908785Y-108050190D01*
X138846880Y-107988285D01*
X138846880Y-108112095D01*
X138351642Y-106812095D02*
X137546880Y-106812095D01*
X137980214Y-107307333D01*
X137794500Y-107307333D01*
X137670690Y-107369238D01*
X137608785Y-107431142D01*
X137546880Y-107554952D01*
X137546880Y-107864476D01*
X137608785Y-107988285D01*
X137670690Y-108050190D01*
X137794500Y-108112095D01*
X138165928Y-108112095D01*
X138289738Y-108050190D01*
X138351642Y-107988285D01*
X136061166Y-106750190D02*
X137175452Y-108421619D01*
X135008785Y-106812095D02*
X135627833Y-106812095D01*
X135689738Y-107431142D01*
X135627833Y-107369238D01*
X135504023Y-107307333D01*
X135194500Y-107307333D01*
X135070690Y-107369238D01*
X135008785Y-107431142D01*
X134946880Y-107554952D01*
X134946880Y-107864476D01*
X135008785Y-107988285D01*
X135070690Y-108050190D01*
X135194500Y-108112095D01*
X135504023Y-108112095D01*
X135627833Y-108050190D01*
X135689738Y-107988285D01*
X134142119Y-106812095D02*
X134018309Y-106812095D01*
X133894500Y-106874000D01*
X133832595Y-106935904D01*
X133770690Y-107059714D01*
X133708785Y-107307333D01*
X133708785Y-107616857D01*
X133770690Y-107864476D01*
X133832595Y-107988285D01*
X133894500Y-108050190D01*
X134018309Y-108112095D01*
X134142119Y-108112095D01*
X134265928Y-108050190D01*
X134327833Y-107988285D01*
X134389738Y-107864476D01*
X134451642Y-107616857D01*
X134451642Y-107307333D01*
X134389738Y-107059714D01*
X134327833Y-106935904D01*
X134265928Y-106874000D01*
X134142119Y-106812095D01*
X139251642Y-110802571D02*
X140108785Y-110802571D01*
X139680214Y-110802571D02*
X139680214Y-109302571D01*
X139823071Y-109516857D01*
X139965928Y-109659714D01*
X140108785Y-109731142D01*
X138608785Y-110659714D02*
X138537357Y-110731142D01*
X138608785Y-110802571D01*
X138680214Y-110731142D01*
X138608785Y-110659714D01*
X138608785Y-110802571D01*
X137180214Y-109302571D02*
X137894500Y-109302571D01*
X137965928Y-110016857D01*
X137894500Y-109945428D01*
X137751642Y-109874000D01*
X137394500Y-109874000D01*
X137251642Y-109945428D01*
X137180214Y-110016857D01*
X137108785Y-110159714D01*
X137108785Y-110516857D01*
X137180214Y-110659714D01*
X137251642Y-110731142D01*
X137394500Y-110802571D01*
X137751642Y-110802571D01*
X137894500Y-110731142D01*
X137965928Y-110659714D01*
X135394500Y-109231142D02*
X136680214Y-111159714D01*
X134251642Y-109302571D02*
X134537357Y-109302571D01*
X134680214Y-109374000D01*
X134751642Y-109445428D01*
X134894500Y-109659714D01*
X134965928Y-109945428D01*
X134965928Y-110516857D01*
X134894500Y-110659714D01*
X134823071Y-110731142D01*
X134680214Y-110802571D01*
X134394500Y-110802571D01*
X134251642Y-110731142D01*
X134180214Y-110659714D01*
X134108785Y-110516857D01*
X134108785Y-110159714D01*
X134180214Y-110016857D01*
X134251642Y-109945428D01*
X134394500Y-109874000D01*
X134680214Y-109874000D01*
X134823071Y-109945428D01*
X134894500Y-110016857D01*
X134965928Y-110159714D01*
X133180214Y-109302571D02*
X133037357Y-109302571D01*
X132894500Y-109374000D01*
X132823071Y-109445428D01*
X132751642Y-109588285D01*
X132680214Y-109874000D01*
X132680214Y-110231142D01*
X132751642Y-110516857D01*
X132823071Y-110659714D01*
X132894500Y-110731142D01*
X133037357Y-110802571D01*
X133180214Y-110802571D01*
X133323071Y-110731142D01*
X133394500Y-110659714D01*
X133465928Y-110516857D01*
X133537357Y-110231142D01*
X133537357Y-109874000D01*
X133465928Y-109588285D01*
X133394500Y-109445428D01*
X133323071Y-109374000D01*
X133180214Y-109302571D01*
X139632595Y-105976380D02*
X140204023Y-105976380D01*
X139918309Y-105976380D02*
X139918309Y-104976380D01*
X140013547Y-105119238D01*
X140108785Y-105214476D01*
X140204023Y-105262095D01*
X139204023Y-105881142D02*
X139156404Y-105928761D01*
X139204023Y-105976380D01*
X139251642Y-105928761D01*
X139204023Y-105881142D01*
X139204023Y-105976380D01*
X138537357Y-104976380D02*
X138442119Y-104976380D01*
X138346880Y-105024000D01*
X138299261Y-105071619D01*
X138251642Y-105166857D01*
X138204023Y-105357333D01*
X138204023Y-105595428D01*
X138251642Y-105785904D01*
X138299261Y-105881142D01*
X138346880Y-105928761D01*
X138442119Y-105976380D01*
X138537357Y-105976380D01*
X138632595Y-105928761D01*
X138680214Y-105881142D01*
X138727833Y-105785904D01*
X138775452Y-105595428D01*
X138775452Y-105357333D01*
X138727833Y-105166857D01*
X138680214Y-105071619D01*
X138632595Y-105024000D01*
X138537357Y-104976380D01*
X137061166Y-104928761D02*
X137918309Y-106214476D01*
X136299261Y-105309714D02*
X136299261Y-105976380D01*
X136537357Y-104928761D02*
X136775452Y-105643047D01*
X136156404Y-105643047D01*
X135584976Y-104976380D02*
X135489738Y-104976380D01*
X135394500Y-105024000D01*
X135346880Y-105071619D01*
X135299261Y-105166857D01*
X135251642Y-105357333D01*
X135251642Y-105595428D01*
X135299261Y-105785904D01*
X135346880Y-105881142D01*
X135394500Y-105928761D01*
X135489738Y-105976380D01*
X135584976Y-105976380D01*
X135680214Y-105928761D01*
X135727833Y-105881142D01*
X135775452Y-105785904D01*
X135823071Y-105595428D01*
X135823071Y-105357333D01*
X135775452Y-105166857D01*
X135727833Y-105071619D01*
X135680214Y-105024000D01*
X135584976Y-104976380D01*
X86166666Y-100583333D02*
X86166666Y-101059523D01*
X86452380Y-100488095D02*
X85452380Y-100821428D01*
X86452380Y-101154761D01*
X86452380Y-101488095D02*
X85785714Y-101488095D01*
X85976190Y-101488095D02*
X85880952Y-101535714D01*
X85833333Y-101583333D01*
X85785714Y-101678571D01*
X85785714Y-101773809D01*
X86404761Y-102535714D02*
X86452380Y-102440476D01*
X86452380Y-102250000D01*
X86404761Y-102154761D01*
X86357142Y-102107142D01*
X86261904Y-102059523D01*
X85976190Y-102059523D01*
X85880952Y-102107142D01*
X85833333Y-102154761D01*
X85785714Y-102250000D01*
X85785714Y-102440476D01*
X85833333Y-102535714D01*
X86452380Y-104250000D02*
X86452380Y-103678571D01*
X86452380Y-103964285D02*
X85452380Y-103964285D01*
X85595238Y-103869047D01*
X85690476Y-103773809D01*
X85738095Y-103678571D01*
X86452380Y-104678571D02*
X85785714Y-104678571D01*
X85880952Y-104678571D02*
X85833333Y-104726190D01*
X85785714Y-104821428D01*
X85785714Y-104964285D01*
X85833333Y-105059523D01*
X85928571Y-105107142D01*
X86452380Y-105107142D01*
X85928571Y-105107142D02*
X85833333Y-105154761D01*
X85785714Y-105250000D01*
X85785714Y-105392857D01*
X85833333Y-105488095D01*
X85928571Y-105535714D01*
X86452380Y-105535714D01*
X86452380Y-106011904D02*
X85785714Y-106011904D01*
X85880952Y-106011904D02*
X85833333Y-106059523D01*
X85785714Y-106154761D01*
X85785714Y-106297619D01*
X85833333Y-106392857D01*
X85928571Y-106440476D01*
X86452380Y-106440476D01*
X85928571Y-106440476D02*
X85833333Y-106488095D01*
X85785714Y-106583333D01*
X85785714Y-106726190D01*
X85833333Y-106821428D01*
X85928571Y-106869047D01*
X86452380Y-106869047D01*
X183916666Y-122583333D02*
X183916666Y-123059523D01*
X184202380Y-122488095D02*
X183202380Y-122821428D01*
X184202380Y-123154761D01*
X184202380Y-123488095D02*
X183535714Y-123488095D01*
X183726190Y-123488095D02*
X183630952Y-123535714D01*
X183583333Y-123583333D01*
X183535714Y-123678571D01*
X183535714Y-123773809D01*
X184154761Y-124535714D02*
X184202380Y-124440476D01*
X184202380Y-124250000D01*
X184154761Y-124154761D01*
X184107142Y-124107142D01*
X184011904Y-124059523D01*
X183726190Y-124059523D01*
X183630952Y-124107142D01*
X183583333Y-124154761D01*
X183535714Y-124250000D01*
X183535714Y-124440476D01*
X183583333Y-124535714D01*
X183297619Y-125678571D02*
X183250000Y-125726190D01*
X183202380Y-125821428D01*
X183202380Y-126059523D01*
X183250000Y-126154761D01*
X183297619Y-126202380D01*
X183392857Y-126250000D01*
X183488095Y-126250000D01*
X183630952Y-126202380D01*
X184202380Y-125630952D01*
X184202380Y-126250000D01*
X184202380Y-126678571D02*
X183535714Y-126678571D01*
X183630952Y-126678571D02*
X183583333Y-126726190D01*
X183535714Y-126821428D01*
X183535714Y-126964285D01*
X183583333Y-127059523D01*
X183678571Y-127107142D01*
X184202380Y-127107142D01*
X183678571Y-127107142D02*
X183583333Y-127154761D01*
X183535714Y-127250000D01*
X183535714Y-127392857D01*
X183583333Y-127488095D01*
X183678571Y-127535714D01*
X184202380Y-127535714D01*
X184202380Y-128011904D02*
X183535714Y-128011904D01*
X183630952Y-128011904D02*
X183583333Y-128059523D01*
X183535714Y-128154761D01*
X183535714Y-128297619D01*
X183583333Y-128392857D01*
X183678571Y-128440476D01*
X184202380Y-128440476D01*
X183678571Y-128440476D02*
X183583333Y-128488095D01*
X183535714Y-128583333D01*
X183535714Y-128726190D01*
X183583333Y-128821428D01*
X183678571Y-128869047D01*
X184202380Y-128869047D01*
X183916666Y-100465333D02*
X183916666Y-100941523D01*
X184202380Y-100370095D02*
X183202380Y-100703428D01*
X184202380Y-101036761D01*
X184202380Y-101370095D02*
X183535714Y-101370095D01*
X183726190Y-101370095D02*
X183630952Y-101417714D01*
X183583333Y-101465333D01*
X183535714Y-101560571D01*
X183535714Y-101655809D01*
X184154761Y-102417714D02*
X184202380Y-102322476D01*
X184202380Y-102132000D01*
X184154761Y-102036761D01*
X184107142Y-101989142D01*
X184011904Y-101941523D01*
X183726190Y-101941523D01*
X183630952Y-101989142D01*
X183583333Y-102036761D01*
X183535714Y-102132000D01*
X183535714Y-102322476D01*
X183583333Y-102417714D01*
X183202380Y-103512952D02*
X183202380Y-104132000D01*
X183583333Y-103798666D01*
X183583333Y-103941523D01*
X183630952Y-104036761D01*
X183678571Y-104084380D01*
X183773809Y-104132000D01*
X184011904Y-104132000D01*
X184107142Y-104084380D01*
X184154761Y-104036761D01*
X184202380Y-103941523D01*
X184202380Y-103655809D01*
X184154761Y-103560571D01*
X184107142Y-103512952D01*
X184202380Y-104560571D02*
X183535714Y-104560571D01*
X183630952Y-104560571D02*
X183583333Y-104608190D01*
X183535714Y-104703428D01*
X183535714Y-104846285D01*
X183583333Y-104941523D01*
X183678571Y-104989142D01*
X184202380Y-104989142D01*
X183678571Y-104989142D02*
X183583333Y-105036761D01*
X183535714Y-105132000D01*
X183535714Y-105274857D01*
X183583333Y-105370095D01*
X183678571Y-105417714D01*
X184202380Y-105417714D01*
X184202380Y-105893904D02*
X183535714Y-105893904D01*
X183630952Y-105893904D02*
X183583333Y-105941523D01*
X183535714Y-106036761D01*
X183535714Y-106179619D01*
X183583333Y-106274857D01*
X183678571Y-106322476D01*
X184202380Y-106322476D01*
X183678571Y-106322476D02*
X183583333Y-106370095D01*
X183535714Y-106465333D01*
X183535714Y-106608190D01*
X183583333Y-106703428D01*
X183678571Y-106751047D01*
X184202380Y-106751047D01*
X151763175Y-101560380D02*
X151144127Y-101560380D01*
X151525080Y-101941333D01*
X151382223Y-101941333D01*
X151292937Y-101988952D01*
X151251270Y-102036571D01*
X151215556Y-102131809D01*
X151245318Y-102369904D01*
X151304842Y-102465142D01*
X151358413Y-102512761D01*
X151459604Y-102560380D01*
X151745318Y-102560380D01*
X151834604Y-102512761D01*
X151876270Y-102465142D01*
X150239366Y-101560380D02*
X150715556Y-101560380D01*
X150822699Y-102036571D01*
X150769127Y-101988952D01*
X150667937Y-101941333D01*
X150429842Y-101941333D01*
X150340556Y-101988952D01*
X150298889Y-102036571D01*
X150263175Y-102131809D01*
X150292937Y-102369904D01*
X150352461Y-102465142D01*
X150406032Y-102512761D01*
X150507223Y-102560380D01*
X150745318Y-102560380D01*
X150834604Y-102512761D01*
X150876270Y-102465142D01*
X149804842Y-101893714D02*
X149929842Y-102893714D01*
X149394127Y-102417523D02*
X149358413Y-102512761D01*
X149269127Y-102560380D01*
X149870318Y-102417523D02*
X149834604Y-102512761D01*
X149745318Y-102560380D01*
X149554842Y-102560380D01*
X149453651Y-102512761D01*
X149394127Y-102417523D01*
X149328651Y-101893714D01*
X148840556Y-102560380D02*
X148757223Y-101893714D01*
X148769127Y-101988952D02*
X148715556Y-101941333D01*
X148614366Y-101893714D01*
X148471508Y-101893714D01*
X148382223Y-101941333D01*
X148346508Y-102036571D01*
X148411985Y-102560380D01*
X148346508Y-102036571D02*
X148286985Y-101941333D01*
X148185794Y-101893714D01*
X148042937Y-101893714D01*
X147953651Y-101941333D01*
X147917937Y-102036571D01*
X147983413Y-102560380D01*
X147441747Y-102036571D02*
X146679842Y-102036571D01*
X146715556Y-102322285D02*
X147477461Y-102322285D01*
X145745318Y-102560380D02*
X146316747Y-102560380D01*
X146031032Y-102560380D02*
X145906032Y-101560380D01*
X146019127Y-101703238D01*
X146126270Y-101798476D01*
X146227461Y-101846095D01*
X145304842Y-102465142D02*
X145263175Y-102512761D01*
X145316747Y-102560380D01*
X145358413Y-102512761D01*
X145304842Y-102465142D01*
X145316747Y-102560380D01*
X144328651Y-101893714D02*
X144411985Y-102560380D01*
X144519127Y-101512761D02*
X144846508Y-102227047D01*
X144227461Y-102227047D01*
X143888175Y-102560380D02*
X143804842Y-101893714D01*
X143816747Y-101988952D02*
X143763175Y-101941333D01*
X143661985Y-101893714D01*
X143519127Y-101893714D01*
X143429842Y-101941333D01*
X143394127Y-102036571D01*
X143459604Y-102560380D01*
X143394127Y-102036571D02*
X143334604Y-101941333D01*
X143233413Y-101893714D01*
X143090556Y-101893714D01*
X143001270Y-101941333D01*
X142965556Y-102036571D01*
X143031032Y-102560380D01*
X142554842Y-102560380D02*
X142471508Y-101893714D01*
X142429842Y-101560380D02*
X142483413Y-101608000D01*
X142441747Y-101655619D01*
X142388175Y-101608000D01*
X142429842Y-101560380D01*
X142441747Y-101655619D01*
X141935794Y-102560380D02*
X142025080Y-102512761D01*
X142060794Y-102417523D01*
X141953651Y-101560380D01*
X158061190Y-122142714D02*
X158061190Y-122809380D01*
X158299285Y-121761761D02*
X158537380Y-122476047D01*
X157918333Y-122476047D01*
X157346904Y-121809380D02*
X157251666Y-121809380D01*
X157156428Y-121857000D01*
X157108809Y-121904619D01*
X157061190Y-121999857D01*
X157013571Y-122190333D01*
X157013571Y-122428428D01*
X157061190Y-122618904D01*
X157108809Y-122714142D01*
X157156428Y-122761761D01*
X157251666Y-122809380D01*
X157346904Y-122809380D01*
X157442142Y-122761761D01*
X157489761Y-122714142D01*
X157537380Y-122618904D01*
X157585000Y-122428428D01*
X157585000Y-122190333D01*
X157537380Y-121999857D01*
X157489761Y-121904619D01*
X157442142Y-121857000D01*
X157346904Y-121809380D01*
X155870714Y-121761761D02*
X156727857Y-123047476D01*
X155013571Y-122809380D02*
X155585000Y-122809380D01*
X155299285Y-122809380D02*
X155299285Y-121809380D01*
X155394523Y-121952238D01*
X155489761Y-122047476D01*
X155585000Y-122095095D01*
X154585000Y-122714142D02*
X154537380Y-122761761D01*
X154585000Y-122809380D01*
X154632619Y-122761761D01*
X154585000Y-122714142D01*
X154585000Y-122809380D01*
X153918333Y-121809380D02*
X153823095Y-121809380D01*
X153727857Y-121857000D01*
X153680238Y-121904619D01*
X153632619Y-121999857D01*
X153585000Y-122190333D01*
X153585000Y-122428428D01*
X153632619Y-122618904D01*
X153680238Y-122714142D01*
X153727857Y-122761761D01*
X153823095Y-122809380D01*
X153918333Y-122809380D01*
X154013571Y-122761761D01*
X154061190Y-122714142D01*
X154108809Y-122618904D01*
X154156428Y-122428428D01*
X154156428Y-122190333D01*
X154108809Y-121999857D01*
X154061190Y-121904619D01*
X154013571Y-121857000D01*
X153918333Y-121809380D01*
X152965952Y-121809380D02*
X152870714Y-121809380D01*
X152775476Y-121857000D01*
X152727857Y-121904619D01*
X152680238Y-121999857D01*
X152632619Y-122190333D01*
X152632619Y-122428428D01*
X152680238Y-122618904D01*
X152727857Y-122714142D01*
X152775476Y-122761761D01*
X152870714Y-122809380D01*
X152965952Y-122809380D01*
X153061190Y-122761761D01*
X153108809Y-122714142D01*
X153156428Y-122618904D01*
X153204047Y-122428428D01*
X153204047Y-122190333D01*
X153156428Y-121999857D01*
X153108809Y-121904619D01*
X153061190Y-121857000D01*
X152965952Y-121809380D01*
X158585000Y-120309380D02*
X157965952Y-120309380D01*
X158299285Y-120690333D01*
X158156428Y-120690333D01*
X158061190Y-120737952D01*
X158013571Y-120785571D01*
X157965952Y-120880809D01*
X157965952Y-121118904D01*
X158013571Y-121214142D01*
X158061190Y-121261761D01*
X158156428Y-121309380D01*
X158442142Y-121309380D01*
X158537380Y-121261761D01*
X158585000Y-121214142D01*
X157585000Y-120404619D02*
X157537380Y-120357000D01*
X157442142Y-120309380D01*
X157204047Y-120309380D01*
X157108809Y-120357000D01*
X157061190Y-120404619D01*
X157013571Y-120499857D01*
X157013571Y-120595095D01*
X157061190Y-120737952D01*
X157632619Y-121309380D01*
X157013571Y-121309380D01*
X155870714Y-120261761D02*
X156727857Y-121547476D01*
X155346904Y-120309380D02*
X155251666Y-120309380D01*
X155156428Y-120357000D01*
X155108809Y-120404619D01*
X155061190Y-120499857D01*
X155013571Y-120690333D01*
X155013571Y-120928428D01*
X155061190Y-121118904D01*
X155108809Y-121214142D01*
X155156428Y-121261761D01*
X155251666Y-121309380D01*
X155346904Y-121309380D01*
X155442142Y-121261761D01*
X155489761Y-121214142D01*
X155537380Y-121118904D01*
X155585000Y-120928428D01*
X155585000Y-120690333D01*
X155537380Y-120499857D01*
X155489761Y-120404619D01*
X155442142Y-120357000D01*
X155346904Y-120309380D01*
X154585000Y-121214142D02*
X154537380Y-121261761D01*
X154585000Y-121309380D01*
X154632619Y-121261761D01*
X154585000Y-121214142D01*
X154585000Y-121309380D01*
X153965952Y-120737952D02*
X154061190Y-120690333D01*
X154108809Y-120642714D01*
X154156428Y-120547476D01*
X154156428Y-120499857D01*
X154108809Y-120404619D01*
X154061190Y-120357000D01*
X153965952Y-120309380D01*
X153775476Y-120309380D01*
X153680238Y-120357000D01*
X153632619Y-120404619D01*
X153585000Y-120499857D01*
X153585000Y-120547476D01*
X153632619Y-120642714D01*
X153680238Y-120690333D01*
X153775476Y-120737952D01*
X153965952Y-120737952D01*
X154061190Y-120785571D01*
X154108809Y-120833190D01*
X154156428Y-120928428D01*
X154156428Y-121118904D01*
X154108809Y-121214142D01*
X154061190Y-121261761D01*
X153965952Y-121309380D01*
X153775476Y-121309380D01*
X153680238Y-121261761D01*
X153632619Y-121214142D01*
X153585000Y-121118904D01*
X153585000Y-120928428D01*
X153632619Y-120833190D01*
X153680238Y-120785571D01*
X153775476Y-120737952D01*
X152965952Y-120309380D02*
X152870714Y-120309380D01*
X152775476Y-120357000D01*
X152727857Y-120404619D01*
X152680238Y-120499857D01*
X152632619Y-120690333D01*
X152632619Y-120928428D01*
X152680238Y-121118904D01*
X152727857Y-121214142D01*
X152775476Y-121261761D01*
X152870714Y-121309380D01*
X152965952Y-121309380D01*
X153061190Y-121261761D01*
X153108809Y-121214142D01*
X153156428Y-121118904D01*
X153204047Y-120928428D01*
X153204047Y-120690333D01*
X153156428Y-120499857D01*
X153108809Y-120404619D01*
X153061190Y-120357000D01*
X152965952Y-120309380D01*
X158585000Y-118809380D02*
X157965952Y-118809380D01*
X158299285Y-119190333D01*
X158156428Y-119190333D01*
X158061190Y-119237952D01*
X158013571Y-119285571D01*
X157965952Y-119380809D01*
X157965952Y-119618904D01*
X158013571Y-119714142D01*
X158061190Y-119761761D01*
X158156428Y-119809380D01*
X158442142Y-119809380D01*
X158537380Y-119761761D01*
X158585000Y-119714142D01*
X157346904Y-118809380D02*
X157251666Y-118809380D01*
X157156428Y-118857000D01*
X157108809Y-118904619D01*
X157061190Y-118999857D01*
X157013571Y-119190333D01*
X157013571Y-119428428D01*
X157061190Y-119618904D01*
X157108809Y-119714142D01*
X157156428Y-119761761D01*
X157251666Y-119809380D01*
X157346904Y-119809380D01*
X157442142Y-119761761D01*
X157489761Y-119714142D01*
X157537380Y-119618904D01*
X157585000Y-119428428D01*
X157585000Y-119190333D01*
X157537380Y-118999857D01*
X157489761Y-118904619D01*
X157442142Y-118857000D01*
X157346904Y-118809380D01*
X155870714Y-118761761D02*
X156727857Y-120047476D01*
X155346904Y-118809380D02*
X155251666Y-118809380D01*
X155156428Y-118857000D01*
X155108809Y-118904619D01*
X155061190Y-118999857D01*
X155013571Y-119190333D01*
X155013571Y-119428428D01*
X155061190Y-119618904D01*
X155108809Y-119714142D01*
X155156428Y-119761761D01*
X155251666Y-119809380D01*
X155346904Y-119809380D01*
X155442142Y-119761761D01*
X155489761Y-119714142D01*
X155537380Y-119618904D01*
X155585000Y-119428428D01*
X155585000Y-119190333D01*
X155537380Y-118999857D01*
X155489761Y-118904619D01*
X155442142Y-118857000D01*
X155346904Y-118809380D01*
X154585000Y-119714142D02*
X154537380Y-119761761D01*
X154585000Y-119809380D01*
X154632619Y-119761761D01*
X154585000Y-119714142D01*
X154585000Y-119809380D01*
X154204047Y-118809380D02*
X153537380Y-118809380D01*
X153965952Y-119809380D01*
X152727857Y-118809380D02*
X152918333Y-118809380D01*
X153013571Y-118857000D01*
X153061190Y-118904619D01*
X153156428Y-119047476D01*
X153204047Y-119237952D01*
X153204047Y-119618904D01*
X153156428Y-119714142D01*
X153108809Y-119761761D01*
X153013571Y-119809380D01*
X152823095Y-119809380D01*
X152727857Y-119761761D01*
X152680238Y-119714142D01*
X152632619Y-119618904D01*
X152632619Y-119380809D01*
X152680238Y-119285571D01*
X152727857Y-119237952D01*
X152823095Y-119190333D01*
X153013571Y-119190333D01*
X153108809Y-119237952D01*
X153156428Y-119285571D01*
X153204047Y-119380809D01*
X158537380Y-117404619D02*
X158489761Y-117357000D01*
X158394523Y-117309380D01*
X158156428Y-117309380D01*
X158061190Y-117357000D01*
X158013571Y-117404619D01*
X157965952Y-117499857D01*
X157965952Y-117595095D01*
X158013571Y-117737952D01*
X158585000Y-118309380D01*
X157965952Y-118309380D01*
X157394523Y-117737952D02*
X157489761Y-117690333D01*
X157537380Y-117642714D01*
X157585000Y-117547476D01*
X157585000Y-117499857D01*
X157537380Y-117404619D01*
X157489761Y-117357000D01*
X157394523Y-117309380D01*
X157204047Y-117309380D01*
X157108809Y-117357000D01*
X157061190Y-117404619D01*
X157013571Y-117499857D01*
X157013571Y-117547476D01*
X157061190Y-117642714D01*
X157108809Y-117690333D01*
X157204047Y-117737952D01*
X157394523Y-117737952D01*
X157489761Y-117785571D01*
X157537380Y-117833190D01*
X157585000Y-117928428D01*
X157585000Y-118118904D01*
X157537380Y-118214142D01*
X157489761Y-118261761D01*
X157394523Y-118309380D01*
X157204047Y-118309380D01*
X157108809Y-118261761D01*
X157061190Y-118214142D01*
X157013571Y-118118904D01*
X157013571Y-117928428D01*
X157061190Y-117833190D01*
X157108809Y-117785571D01*
X157204047Y-117737952D01*
X155870714Y-117261761D02*
X156727857Y-118547476D01*
X155346904Y-117309380D02*
X155251666Y-117309380D01*
X155156428Y-117357000D01*
X155108809Y-117404619D01*
X155061190Y-117499857D01*
X155013571Y-117690333D01*
X155013571Y-117928428D01*
X155061190Y-118118904D01*
X155108809Y-118214142D01*
X155156428Y-118261761D01*
X155251666Y-118309380D01*
X155346904Y-118309380D01*
X155442142Y-118261761D01*
X155489761Y-118214142D01*
X155537380Y-118118904D01*
X155585000Y-117928428D01*
X155585000Y-117690333D01*
X155537380Y-117499857D01*
X155489761Y-117404619D01*
X155442142Y-117357000D01*
X155346904Y-117309380D01*
X154585000Y-118214142D02*
X154537380Y-118261761D01*
X154585000Y-118309380D01*
X154632619Y-118261761D01*
X154585000Y-118214142D01*
X154585000Y-118309380D01*
X154204047Y-117309380D02*
X153537380Y-117309380D01*
X153965952Y-118309380D01*
X152965952Y-117309380D02*
X152870714Y-117309380D01*
X152775476Y-117357000D01*
X152727857Y-117404619D01*
X152680238Y-117499857D01*
X152632619Y-117690333D01*
X152632619Y-117928428D01*
X152680238Y-118118904D01*
X152727857Y-118214142D01*
X152775476Y-118261761D01*
X152870714Y-118309380D01*
X152965952Y-118309380D01*
X153061190Y-118261761D01*
X153108809Y-118214142D01*
X153156428Y-118118904D01*
X153204047Y-117928428D01*
X153204047Y-117690333D01*
X153156428Y-117499857D01*
X153108809Y-117404619D01*
X153061190Y-117357000D01*
X152965952Y-117309380D01*
X158537380Y-115904619D02*
X158489761Y-115857000D01*
X158394523Y-115809380D01*
X158156428Y-115809380D01*
X158061190Y-115857000D01*
X158013571Y-115904619D01*
X157965952Y-115999857D01*
X157965952Y-116095095D01*
X158013571Y-116237952D01*
X158585000Y-116809380D01*
X157965952Y-116809380D01*
X157108809Y-116142714D02*
X157108809Y-116809380D01*
X157346904Y-115761761D02*
X157585000Y-116476047D01*
X156965952Y-116476047D01*
X155870714Y-115761761D02*
X156727857Y-117047476D01*
X155346904Y-115809380D02*
X155251666Y-115809380D01*
X155156428Y-115857000D01*
X155108809Y-115904619D01*
X155061190Y-115999857D01*
X155013571Y-116190333D01*
X155013571Y-116428428D01*
X155061190Y-116618904D01*
X155108809Y-116714142D01*
X155156428Y-116761761D01*
X155251666Y-116809380D01*
X155346904Y-116809380D01*
X155442142Y-116761761D01*
X155489761Y-116714142D01*
X155537380Y-116618904D01*
X155585000Y-116428428D01*
X155585000Y-116190333D01*
X155537380Y-115999857D01*
X155489761Y-115904619D01*
X155442142Y-115857000D01*
X155346904Y-115809380D01*
X154585000Y-116714142D02*
X154537380Y-116761761D01*
X154585000Y-116809380D01*
X154632619Y-116761761D01*
X154585000Y-116714142D01*
X154585000Y-116809380D01*
X153680238Y-115809380D02*
X153870714Y-115809380D01*
X153965952Y-115857000D01*
X154013571Y-115904619D01*
X154108809Y-116047476D01*
X154156428Y-116237952D01*
X154156428Y-116618904D01*
X154108809Y-116714142D01*
X154061190Y-116761761D01*
X153965952Y-116809380D01*
X153775476Y-116809380D01*
X153680238Y-116761761D01*
X153632619Y-116714142D01*
X153585000Y-116618904D01*
X153585000Y-116380809D01*
X153632619Y-116285571D01*
X153680238Y-116237952D01*
X153775476Y-116190333D01*
X153965952Y-116190333D01*
X154061190Y-116237952D01*
X154108809Y-116285571D01*
X154156428Y-116380809D01*
X152965952Y-115809380D02*
X152870714Y-115809380D01*
X152775476Y-115857000D01*
X152727857Y-115904619D01*
X152680238Y-115999857D01*
X152632619Y-116190333D01*
X152632619Y-116428428D01*
X152680238Y-116618904D01*
X152727857Y-116714142D01*
X152775476Y-116761761D01*
X152870714Y-116809380D01*
X152965952Y-116809380D01*
X153061190Y-116761761D01*
X153108809Y-116714142D01*
X153156428Y-116618904D01*
X153204047Y-116428428D01*
X153204047Y-116190333D01*
X153156428Y-115999857D01*
X153108809Y-115904619D01*
X153061190Y-115857000D01*
X152965952Y-115809380D01*
X158537380Y-114404619D02*
X158489761Y-114357000D01*
X158394523Y-114309380D01*
X158156428Y-114309380D01*
X158061190Y-114357000D01*
X158013571Y-114404619D01*
X157965952Y-114499857D01*
X157965952Y-114595095D01*
X158013571Y-114737952D01*
X158585000Y-115309380D01*
X157965952Y-115309380D01*
X157346904Y-114309380D02*
X157251666Y-114309380D01*
X157156428Y-114357000D01*
X157108809Y-114404619D01*
X157061190Y-114499857D01*
X157013571Y-114690333D01*
X157013571Y-114928428D01*
X157061190Y-115118904D01*
X157108809Y-115214142D01*
X157156428Y-115261761D01*
X157251666Y-115309380D01*
X157346904Y-115309380D01*
X157442142Y-115261761D01*
X157489761Y-115214142D01*
X157537380Y-115118904D01*
X157585000Y-114928428D01*
X157585000Y-114690333D01*
X157537380Y-114499857D01*
X157489761Y-114404619D01*
X157442142Y-114357000D01*
X157346904Y-114309380D01*
X155870714Y-114261761D02*
X156727857Y-115547476D01*
X155346904Y-114309380D02*
X155251666Y-114309380D01*
X155156428Y-114357000D01*
X155108809Y-114404619D01*
X155061190Y-114499857D01*
X155013571Y-114690333D01*
X155013571Y-114928428D01*
X155061190Y-115118904D01*
X155108809Y-115214142D01*
X155156428Y-115261761D01*
X155251666Y-115309380D01*
X155346904Y-115309380D01*
X155442142Y-115261761D01*
X155489761Y-115214142D01*
X155537380Y-115118904D01*
X155585000Y-114928428D01*
X155585000Y-114690333D01*
X155537380Y-114499857D01*
X155489761Y-114404619D01*
X155442142Y-114357000D01*
X155346904Y-114309380D01*
X154585000Y-115214142D02*
X154537380Y-115261761D01*
X154585000Y-115309380D01*
X154632619Y-115261761D01*
X154585000Y-115214142D01*
X154585000Y-115309380D01*
X153632619Y-114309380D02*
X154108809Y-114309380D01*
X154156428Y-114785571D01*
X154108809Y-114737952D01*
X154013571Y-114690333D01*
X153775476Y-114690333D01*
X153680238Y-114737952D01*
X153632619Y-114785571D01*
X153585000Y-114880809D01*
X153585000Y-115118904D01*
X153632619Y-115214142D01*
X153680238Y-115261761D01*
X153775476Y-115309380D01*
X154013571Y-115309380D01*
X154108809Y-115261761D01*
X154156428Y-115214142D01*
X152965952Y-114309380D02*
X152870714Y-114309380D01*
X152775476Y-114357000D01*
X152727857Y-114404619D01*
X152680238Y-114499857D01*
X152632619Y-114690333D01*
X152632619Y-114928428D01*
X152680238Y-115118904D01*
X152727857Y-115214142D01*
X152775476Y-115261761D01*
X152870714Y-115309380D01*
X152965952Y-115309380D01*
X153061190Y-115261761D01*
X153108809Y-115214142D01*
X153156428Y-115118904D01*
X153204047Y-114928428D01*
X153204047Y-114690333D01*
X153156428Y-114499857D01*
X153108809Y-114404619D01*
X153061190Y-114357000D01*
X152965952Y-114309380D01*
X157965952Y-113809380D02*
X158537380Y-113809380D01*
X158251666Y-113809380D02*
X158251666Y-112809380D01*
X158346904Y-112952238D01*
X158442142Y-113047476D01*
X158537380Y-113095095D01*
X157394523Y-113237952D02*
X157489761Y-113190333D01*
X157537380Y-113142714D01*
X157585000Y-113047476D01*
X157585000Y-112999857D01*
X157537380Y-112904619D01*
X157489761Y-112857000D01*
X157394523Y-112809380D01*
X157204047Y-112809380D01*
X157108809Y-112857000D01*
X157061190Y-112904619D01*
X157013571Y-112999857D01*
X157013571Y-113047476D01*
X157061190Y-113142714D01*
X157108809Y-113190333D01*
X157204047Y-113237952D01*
X157394523Y-113237952D01*
X157489761Y-113285571D01*
X157537380Y-113333190D01*
X157585000Y-113428428D01*
X157585000Y-113618904D01*
X157537380Y-113714142D01*
X157489761Y-113761761D01*
X157394523Y-113809380D01*
X157204047Y-113809380D01*
X157108809Y-113761761D01*
X157061190Y-113714142D01*
X157013571Y-113618904D01*
X157013571Y-113428428D01*
X157061190Y-113333190D01*
X157108809Y-113285571D01*
X157204047Y-113237952D01*
X155870714Y-112761761D02*
X156727857Y-114047476D01*
X155346904Y-112809380D02*
X155251666Y-112809380D01*
X155156428Y-112857000D01*
X155108809Y-112904619D01*
X155061190Y-112999857D01*
X155013571Y-113190333D01*
X155013571Y-113428428D01*
X155061190Y-113618904D01*
X155108809Y-113714142D01*
X155156428Y-113761761D01*
X155251666Y-113809380D01*
X155346904Y-113809380D01*
X155442142Y-113761761D01*
X155489761Y-113714142D01*
X155537380Y-113618904D01*
X155585000Y-113428428D01*
X155585000Y-113190333D01*
X155537380Y-112999857D01*
X155489761Y-112904619D01*
X155442142Y-112857000D01*
X155346904Y-112809380D01*
X154585000Y-113714142D02*
X154537380Y-113761761D01*
X154585000Y-113809380D01*
X154632619Y-113761761D01*
X154585000Y-113714142D01*
X154585000Y-113809380D01*
X153680238Y-113142714D02*
X153680238Y-113809380D01*
X153918333Y-112761761D02*
X154156428Y-113476047D01*
X153537380Y-113476047D01*
X152680238Y-112809380D02*
X153156428Y-112809380D01*
X153204047Y-113285571D01*
X153156428Y-113237952D01*
X153061190Y-113190333D01*
X152823095Y-113190333D01*
X152727857Y-113237952D01*
X152680238Y-113285571D01*
X152632619Y-113380809D01*
X152632619Y-113618904D01*
X152680238Y-113714142D01*
X152727857Y-113761761D01*
X152823095Y-113809380D01*
X153061190Y-113809380D01*
X153156428Y-113761761D01*
X153204047Y-113714142D01*
X157965952Y-112309380D02*
X158537380Y-112309380D01*
X158251666Y-112309380D02*
X158251666Y-111309380D01*
X158346904Y-111452238D01*
X158442142Y-111547476D01*
X158537380Y-111595095D01*
X157108809Y-111309380D02*
X157299285Y-111309380D01*
X157394523Y-111357000D01*
X157442142Y-111404619D01*
X157537380Y-111547476D01*
X157585000Y-111737952D01*
X157585000Y-112118904D01*
X157537380Y-112214142D01*
X157489761Y-112261761D01*
X157394523Y-112309380D01*
X157204047Y-112309380D01*
X157108809Y-112261761D01*
X157061190Y-112214142D01*
X157013571Y-112118904D01*
X157013571Y-111880809D01*
X157061190Y-111785571D01*
X157108809Y-111737952D01*
X157204047Y-111690333D01*
X157394523Y-111690333D01*
X157489761Y-111737952D01*
X157537380Y-111785571D01*
X157585000Y-111880809D01*
X155870714Y-111261761D02*
X156727857Y-112547476D01*
X155346904Y-111309380D02*
X155251666Y-111309380D01*
X155156428Y-111357000D01*
X155108809Y-111404619D01*
X155061190Y-111499857D01*
X155013571Y-111690333D01*
X155013571Y-111928428D01*
X155061190Y-112118904D01*
X155108809Y-112214142D01*
X155156428Y-112261761D01*
X155251666Y-112309380D01*
X155346904Y-112309380D01*
X155442142Y-112261761D01*
X155489761Y-112214142D01*
X155537380Y-112118904D01*
X155585000Y-111928428D01*
X155585000Y-111690333D01*
X155537380Y-111499857D01*
X155489761Y-111404619D01*
X155442142Y-111357000D01*
X155346904Y-111309380D01*
X154585000Y-112214142D02*
X154537380Y-112261761D01*
X154585000Y-112309380D01*
X154632619Y-112261761D01*
X154585000Y-112214142D01*
X154585000Y-112309380D01*
X153680238Y-111642714D02*
X153680238Y-112309380D01*
X153918333Y-111261761D02*
X154156428Y-111976047D01*
X153537380Y-111976047D01*
X152965952Y-111309380D02*
X152870714Y-111309380D01*
X152775476Y-111357000D01*
X152727857Y-111404619D01*
X152680238Y-111499857D01*
X152632619Y-111690333D01*
X152632619Y-111928428D01*
X152680238Y-112118904D01*
X152727857Y-112214142D01*
X152775476Y-112261761D01*
X152870714Y-112309380D01*
X152965952Y-112309380D01*
X153061190Y-112261761D01*
X153108809Y-112214142D01*
X153156428Y-112118904D01*
X153204047Y-111928428D01*
X153204047Y-111690333D01*
X153156428Y-111499857D01*
X153108809Y-111404619D01*
X153061190Y-111357000D01*
X152965952Y-111309380D01*
X157955952Y-110688380D02*
X158527380Y-110688380D01*
X158241666Y-110688380D02*
X158241666Y-109688380D01*
X158336904Y-109831238D01*
X158432142Y-109926476D01*
X158527380Y-109974095D01*
X157098809Y-110021714D02*
X157098809Y-110688380D01*
X157336904Y-109640761D02*
X157575000Y-110355047D01*
X156955952Y-110355047D01*
X155860714Y-109640761D02*
X156717857Y-110926476D01*
X155336904Y-109688380D02*
X155241666Y-109688380D01*
X155146428Y-109736000D01*
X155098809Y-109783619D01*
X155051190Y-109878857D01*
X155003571Y-110069333D01*
X155003571Y-110307428D01*
X155051190Y-110497904D01*
X155098809Y-110593142D01*
X155146428Y-110640761D01*
X155241666Y-110688380D01*
X155336904Y-110688380D01*
X155432142Y-110640761D01*
X155479761Y-110593142D01*
X155527380Y-110497904D01*
X155575000Y-110307428D01*
X155575000Y-110069333D01*
X155527380Y-109878857D01*
X155479761Y-109783619D01*
X155432142Y-109736000D01*
X155336904Y-109688380D01*
X154575000Y-110593142D02*
X154527380Y-110640761D01*
X154575000Y-110688380D01*
X154622619Y-110640761D01*
X154575000Y-110593142D01*
X154575000Y-110688380D01*
X154194047Y-109688380D02*
X153575000Y-109688380D01*
X153908333Y-110069333D01*
X153765476Y-110069333D01*
X153670238Y-110116952D01*
X153622619Y-110164571D01*
X153575000Y-110259809D01*
X153575000Y-110497904D01*
X153622619Y-110593142D01*
X153670238Y-110640761D01*
X153765476Y-110688380D01*
X154051190Y-110688380D01*
X154146428Y-110640761D01*
X154194047Y-110593142D01*
X152670238Y-109688380D02*
X153146428Y-109688380D01*
X153194047Y-110164571D01*
X153146428Y-110116952D01*
X153051190Y-110069333D01*
X152813095Y-110069333D01*
X152717857Y-110116952D01*
X152670238Y-110164571D01*
X152622619Y-110259809D01*
X152622619Y-110497904D01*
X152670238Y-110593142D01*
X152717857Y-110640761D01*
X152813095Y-110688380D01*
X153051190Y-110688380D01*
X153146428Y-110640761D01*
X153194047Y-110593142D01*
X157955952Y-109164380D02*
X158527380Y-109164380D01*
X158241666Y-109164380D02*
X158241666Y-108164380D01*
X158336904Y-108307238D01*
X158432142Y-108402476D01*
X158527380Y-108450095D01*
X157575000Y-108259619D02*
X157527380Y-108212000D01*
X157432142Y-108164380D01*
X157194047Y-108164380D01*
X157098809Y-108212000D01*
X157051190Y-108259619D01*
X157003571Y-108354857D01*
X157003571Y-108450095D01*
X157051190Y-108592952D01*
X157622619Y-109164380D01*
X157003571Y-109164380D01*
X155860714Y-108116761D02*
X156717857Y-109402476D01*
X155336904Y-108164380D02*
X155241666Y-108164380D01*
X155146428Y-108212000D01*
X155098809Y-108259619D01*
X155051190Y-108354857D01*
X155003571Y-108545333D01*
X155003571Y-108783428D01*
X155051190Y-108973904D01*
X155098809Y-109069142D01*
X155146428Y-109116761D01*
X155241666Y-109164380D01*
X155336904Y-109164380D01*
X155432142Y-109116761D01*
X155479761Y-109069142D01*
X155527380Y-108973904D01*
X155575000Y-108783428D01*
X155575000Y-108545333D01*
X155527380Y-108354857D01*
X155479761Y-108259619D01*
X155432142Y-108212000D01*
X155336904Y-108164380D01*
X154575000Y-109069142D02*
X154527380Y-109116761D01*
X154575000Y-109164380D01*
X154622619Y-109116761D01*
X154575000Y-109069142D01*
X154575000Y-109164380D01*
X154194047Y-108164380D02*
X153575000Y-108164380D01*
X153908333Y-108545333D01*
X153765476Y-108545333D01*
X153670238Y-108592952D01*
X153622619Y-108640571D01*
X153575000Y-108735809D01*
X153575000Y-108973904D01*
X153622619Y-109069142D01*
X153670238Y-109116761D01*
X153765476Y-109164380D01*
X154051190Y-109164380D01*
X154146428Y-109116761D01*
X154194047Y-109069142D01*
X152955952Y-108164380D02*
X152860714Y-108164380D01*
X152765476Y-108212000D01*
X152717857Y-108259619D01*
X152670238Y-108354857D01*
X152622619Y-108545333D01*
X152622619Y-108783428D01*
X152670238Y-108973904D01*
X152717857Y-109069142D01*
X152765476Y-109116761D01*
X152860714Y-109164380D01*
X152955952Y-109164380D01*
X153051190Y-109116761D01*
X153098809Y-109069142D01*
X153146428Y-108973904D01*
X153194047Y-108783428D01*
X153194047Y-108545333D01*
X153146428Y-108354857D01*
X153098809Y-108259619D01*
X153051190Y-108212000D01*
X152955952Y-108164380D01*
X157955952Y-107682380D02*
X158527380Y-107682380D01*
X158241666Y-107682380D02*
X158241666Y-106682380D01*
X158336904Y-106825238D01*
X158432142Y-106920476D01*
X158527380Y-106968095D01*
X157336904Y-106682380D02*
X157241666Y-106682380D01*
X157146428Y-106730000D01*
X157098809Y-106777619D01*
X157051190Y-106872857D01*
X157003571Y-107063333D01*
X157003571Y-107301428D01*
X157051190Y-107491904D01*
X157098809Y-107587142D01*
X157146428Y-107634761D01*
X157241666Y-107682380D01*
X157336904Y-107682380D01*
X157432142Y-107634761D01*
X157479761Y-107587142D01*
X157527380Y-107491904D01*
X157575000Y-107301428D01*
X157575000Y-107063333D01*
X157527380Y-106872857D01*
X157479761Y-106777619D01*
X157432142Y-106730000D01*
X157336904Y-106682380D01*
X155860714Y-106634761D02*
X156717857Y-107920476D01*
X155336904Y-106682380D02*
X155241666Y-106682380D01*
X155146428Y-106730000D01*
X155098809Y-106777619D01*
X155051190Y-106872857D01*
X155003571Y-107063333D01*
X155003571Y-107301428D01*
X155051190Y-107491904D01*
X155098809Y-107587142D01*
X155146428Y-107634761D01*
X155241666Y-107682380D01*
X155336904Y-107682380D01*
X155432142Y-107634761D01*
X155479761Y-107587142D01*
X155527380Y-107491904D01*
X155575000Y-107301428D01*
X155575000Y-107063333D01*
X155527380Y-106872857D01*
X155479761Y-106777619D01*
X155432142Y-106730000D01*
X155336904Y-106682380D01*
X154575000Y-107587142D02*
X154527380Y-107634761D01*
X154575000Y-107682380D01*
X154622619Y-107634761D01*
X154575000Y-107587142D01*
X154575000Y-107682380D01*
X154146428Y-106777619D02*
X154098809Y-106730000D01*
X154003571Y-106682380D01*
X153765476Y-106682380D01*
X153670238Y-106730000D01*
X153622619Y-106777619D01*
X153575000Y-106872857D01*
X153575000Y-106968095D01*
X153622619Y-107110952D01*
X154194047Y-107682380D01*
X153575000Y-107682380D01*
X152670238Y-106682380D02*
X153146428Y-106682380D01*
X153194047Y-107158571D01*
X153146428Y-107110952D01*
X153051190Y-107063333D01*
X152813095Y-107063333D01*
X152717857Y-107110952D01*
X152670238Y-107158571D01*
X152622619Y-107253809D01*
X152622619Y-107491904D01*
X152670238Y-107587142D01*
X152717857Y-107634761D01*
X152813095Y-107682380D01*
X153051190Y-107682380D01*
X153146428Y-107634761D01*
X153194047Y-107587142D01*
X157352714Y-105544952D02*
X157447952Y-105497333D01*
X157495571Y-105449714D01*
X157543190Y-105354476D01*
X157543190Y-105306857D01*
X157495571Y-105211619D01*
X157447952Y-105164000D01*
X157352714Y-105116380D01*
X157162238Y-105116380D01*
X157067000Y-105164000D01*
X157019380Y-105211619D01*
X156971761Y-105306857D01*
X156971761Y-105354476D01*
X157019380Y-105449714D01*
X157067000Y-105497333D01*
X157162238Y-105544952D01*
X157352714Y-105544952D01*
X157447952Y-105592571D01*
X157495571Y-105640190D01*
X157543190Y-105735428D01*
X157543190Y-105925904D01*
X157495571Y-106021142D01*
X157447952Y-106068761D01*
X157352714Y-106116380D01*
X157162238Y-106116380D01*
X157067000Y-106068761D01*
X157019380Y-106021142D01*
X156971761Y-105925904D01*
X156971761Y-105735428D01*
X157019380Y-105640190D01*
X157067000Y-105592571D01*
X157162238Y-105544952D01*
X155828904Y-105068761D02*
X156686047Y-106354476D01*
X155305095Y-105116380D02*
X155209857Y-105116380D01*
X155114619Y-105164000D01*
X155067000Y-105211619D01*
X155019380Y-105306857D01*
X154971761Y-105497333D01*
X154971761Y-105735428D01*
X155019380Y-105925904D01*
X155067000Y-106021142D01*
X155114619Y-106068761D01*
X155209857Y-106116380D01*
X155305095Y-106116380D01*
X155400333Y-106068761D01*
X155447952Y-106021142D01*
X155495571Y-105925904D01*
X155543190Y-105735428D01*
X155543190Y-105497333D01*
X155495571Y-105306857D01*
X155447952Y-105211619D01*
X155400333Y-105164000D01*
X155305095Y-105116380D01*
X154543190Y-106021142D02*
X154495571Y-106068761D01*
X154543190Y-106116380D01*
X154590809Y-106068761D01*
X154543190Y-106021142D01*
X154543190Y-106116380D01*
X154114619Y-105211619D02*
X154067000Y-105164000D01*
X153971761Y-105116380D01*
X153733666Y-105116380D01*
X153638428Y-105164000D01*
X153590809Y-105211619D01*
X153543190Y-105306857D01*
X153543190Y-105402095D01*
X153590809Y-105544952D01*
X154162238Y-106116380D01*
X153543190Y-106116380D01*
X152924142Y-105116380D02*
X152828904Y-105116380D01*
X152733666Y-105164000D01*
X152686047Y-105211619D01*
X152638428Y-105306857D01*
X152590809Y-105497333D01*
X152590809Y-105735428D01*
X152638428Y-105925904D01*
X152686047Y-106021142D01*
X152733666Y-106068761D01*
X152828904Y-106116380D01*
X152924142Y-106116380D01*
X153019380Y-106068761D01*
X153067000Y-106021142D01*
X153114619Y-105925904D01*
X153162238Y-105735428D01*
X153162238Y-105497333D01*
X153114619Y-105306857D01*
X153067000Y-105211619D01*
X153019380Y-105164000D01*
X152924142Y-105116380D01*
X158333699Y-102560380D02*
X158250366Y-101893714D01*
X158262270Y-101988952D02*
X158208699Y-101941333D01*
X158107508Y-101893714D01*
X157964651Y-101893714D01*
X157875366Y-101941333D01*
X157839651Y-102036571D01*
X157905127Y-102560380D01*
X157839651Y-102036571D02*
X157780127Y-101941333D01*
X157678937Y-101893714D01*
X157536080Y-101893714D01*
X157446794Y-101941333D01*
X157411080Y-102036571D01*
X157476556Y-102560380D01*
X157000366Y-102560380D02*
X156917032Y-101893714D01*
X156875366Y-101560380D02*
X156928937Y-101608000D01*
X156887270Y-101655619D01*
X156833699Y-101608000D01*
X156875366Y-101560380D01*
X156887270Y-101655619D01*
X156381318Y-102560380D02*
X156470604Y-102512761D01*
X156506318Y-102417523D01*
X156399175Y-101560380D01*
X155155127Y-101512761D02*
X156172985Y-102798476D01*
X154952747Y-102560380D02*
X154869413Y-101893714D01*
X154881318Y-101988952D02*
X154827747Y-101941333D01*
X154726556Y-101893714D01*
X154583699Y-101893714D01*
X154494413Y-101941333D01*
X154458699Y-102036571D01*
X154524175Y-102560380D01*
X154458699Y-102036571D02*
X154399175Y-101941333D01*
X154297985Y-101893714D01*
X154155127Y-101893714D01*
X154065842Y-101941333D01*
X154030127Y-102036571D01*
X154095604Y-102560380D01*
X153619413Y-102560380D02*
X153536080Y-101893714D01*
X153547985Y-101988952D02*
X153494413Y-101941333D01*
X153393223Y-101893714D01*
X153250366Y-101893714D01*
X153161080Y-101941333D01*
X153125366Y-102036571D01*
X153190842Y-102560380D01*
X153125366Y-102036571D02*
X153065842Y-101941333D01*
X152964651Y-101893714D01*
X152821794Y-101893714D01*
X152732508Y-101941333D01*
X152696794Y-102036571D01*
X152762270Y-102560380D01*
X157067000Y-103682380D02*
X157257476Y-103682380D01*
X157352714Y-103730000D01*
X157400333Y-103777619D01*
X157495571Y-103920476D01*
X157543190Y-104110952D01*
X157543190Y-104491904D01*
X157495571Y-104587142D01*
X157447952Y-104634761D01*
X157352714Y-104682380D01*
X157162238Y-104682380D01*
X157067000Y-104634761D01*
X157019380Y-104587142D01*
X156971761Y-104491904D01*
X156971761Y-104253809D01*
X157019380Y-104158571D01*
X157067000Y-104110952D01*
X157162238Y-104063333D01*
X157352714Y-104063333D01*
X157447952Y-104110952D01*
X157495571Y-104158571D01*
X157543190Y-104253809D01*
X155828904Y-103634761D02*
X156686047Y-104920476D01*
X155305095Y-103682380D02*
X155209857Y-103682380D01*
X155114619Y-103730000D01*
X155067000Y-103777619D01*
X155019380Y-103872857D01*
X154971761Y-104063333D01*
X154971761Y-104301428D01*
X155019380Y-104491904D01*
X155067000Y-104587142D01*
X155114619Y-104634761D01*
X155209857Y-104682380D01*
X155305095Y-104682380D01*
X155400333Y-104634761D01*
X155447952Y-104587142D01*
X155495571Y-104491904D01*
X155543190Y-104301428D01*
X155543190Y-104063333D01*
X155495571Y-103872857D01*
X155447952Y-103777619D01*
X155400333Y-103730000D01*
X155305095Y-103682380D01*
X154543190Y-104587142D02*
X154495571Y-104634761D01*
X154543190Y-104682380D01*
X154590809Y-104634761D01*
X154543190Y-104587142D01*
X154543190Y-104682380D01*
X153543190Y-104682380D02*
X154114619Y-104682380D01*
X153828904Y-104682380D02*
X153828904Y-103682380D01*
X153924142Y-103825238D01*
X154019380Y-103920476D01*
X154114619Y-103968095D01*
X152638428Y-103682380D02*
X153114619Y-103682380D01*
X153162238Y-104158571D01*
X153114619Y-104110952D01*
X153019380Y-104063333D01*
X152781285Y-104063333D01*
X152686047Y-104110952D01*
X152638428Y-104158571D01*
X152590809Y-104253809D01*
X152590809Y-104491904D01*
X152638428Y-104587142D01*
X152686047Y-104634761D01*
X152781285Y-104682380D01*
X153019380Y-104682380D01*
X153114619Y-104634761D01*
X153162238Y-104587142D01*
D11*
X144655200Y-126238000D02*
G75*
G03X144655200Y-126238000I-1450000J0D01*
G01*
X148977200Y-126085600D02*
G75*
G03X148977200Y-126085600I-1200000J0D01*
G01*
X153039601Y-125862001D02*
G75*
G03X153039601Y-125862001I-950000J0D01*
G01*
X157011600Y-125730000D02*
G75*
G03X157011600Y-125730000I-700000J0D01*
G01*
X92321748Y-114352000D02*
X92844252Y-114352000D01*
X92321748Y-115772000D02*
X92844252Y-115772000D01*
X111325922Y-114352000D02*
X111843078Y-114352000D01*
X111325922Y-115772000D02*
X111843078Y-115772000D01*
X105379733Y-111250000D02*
X105722267Y-111250000D01*
X105379733Y-112270000D02*
X105722267Y-112270000D01*
X111622721Y-111250000D02*
X111948279Y-111250000D01*
X111622721Y-112270000D02*
X111948279Y-112270000D01*
X92242436Y-121988000D02*
X96346564Y-121988000D01*
X92242436Y-125408000D02*
X96346564Y-125408000D01*
X101386436Y-121988000D02*
X105490564Y-121988000D01*
X101386436Y-125408000D02*
X105490564Y-125408000D01*
X110067936Y-121988000D02*
X114172064Y-121988000D01*
X110067936Y-125408000D02*
X114172064Y-125408000D01*
X118830936Y-121988000D02*
X122935064Y-121988000D01*
X118830936Y-125408000D02*
X122935064Y-125408000D01*
X92833436Y-117962000D02*
X94037564Y-117962000D01*
X92833436Y-119782000D02*
X94037564Y-119782000D01*
X98548436Y-117962000D02*
X99752564Y-117962000D01*
X98548436Y-119782000D02*
X99752564Y-119782000D01*
X104263436Y-117962000D02*
X105467564Y-117962000D01*
X104263436Y-119782000D02*
X105467564Y-119782000D01*
X111795936Y-117962000D02*
X113000064Y-117962000D01*
X111795936Y-119782000D02*
X113000064Y-119782000D01*
X116875936Y-117962000D02*
X118080064Y-117962000D01*
X116875936Y-119782000D02*
X118080064Y-119782000D01*
X121955936Y-117962000D02*
X123160064Y-117962000D01*
X121955936Y-119782000D02*
X123160064Y-119782000D01*
X96521748Y-114352000D02*
X97044252Y-114352000D01*
X96521748Y-115772000D02*
X97044252Y-115772000D01*
X100966748Y-114352000D02*
X101489252Y-114352000D01*
X100966748Y-115772000D02*
X101489252Y-115772000D01*
X105139748Y-114352000D02*
X105662252Y-114352000D01*
X105139748Y-115772000D02*
X105662252Y-115772000D01*
X115135922Y-114352000D02*
X115653078Y-114352000D01*
X115135922Y-115772000D02*
X115653078Y-115772000D01*
X118945922Y-114352000D02*
X119463078Y-114352000D01*
X118945922Y-115772000D02*
X119463078Y-115772000D01*
X122755922Y-114352000D02*
X123273078Y-114352000D01*
X122755922Y-115772000D02*
X123273078Y-115772000D01*
X93187733Y-111250000D02*
X93530267Y-111250000D01*
X93187733Y-112270000D02*
X93530267Y-112270000D01*
X97251733Y-111250000D02*
X97594267Y-111250000D01*
X97251733Y-112270000D02*
X97594267Y-112270000D01*
X101315733Y-111250000D02*
X101658267Y-111250000D01*
X101315733Y-112270000D02*
X101658267Y-112270000D01*
X115432721Y-111250000D02*
X115758279Y-111250000D01*
X115432721Y-112270000D02*
X115758279Y-112270000D01*
X119242721Y-111250000D02*
X119568279Y-111250000D01*
X119242721Y-112270000D02*
X119568279Y-112270000D01*
X123052721Y-111250000D02*
X123378279Y-111250000D01*
X123052721Y-112270000D02*
X123378279Y-112270000D01*
D10*
X91285714Y-128678571D02*
X91000000Y-128678571D01*
X90857142Y-128607142D01*
X90785714Y-128535714D01*
X90642857Y-128321428D01*
X90571428Y-128035714D01*
X90571428Y-127464285D01*
X90642857Y-127321428D01*
X90714285Y-127250000D01*
X90857142Y-127178571D01*
X91142857Y-127178571D01*
X91285714Y-127250000D01*
X91357142Y-127321428D01*
X91428571Y-127464285D01*
X91428571Y-127821428D01*
X91357142Y-127964285D01*
X91285714Y-128035714D01*
X91142857Y-128107142D01*
X90857142Y-128107142D01*
X90714285Y-128035714D01*
X90642857Y-127964285D01*
X90571428Y-127821428D01*
X101142857Y-127821428D02*
X101285714Y-127750000D01*
X101357142Y-127678571D01*
X101428571Y-127535714D01*
X101428571Y-127464285D01*
X101357142Y-127321428D01*
X101285714Y-127250000D01*
X101142857Y-127178571D01*
X100857142Y-127178571D01*
X100714285Y-127250000D01*
X100642857Y-127321428D01*
X100571428Y-127464285D01*
X100571428Y-127535714D01*
X100642857Y-127678571D01*
X100714285Y-127750000D01*
X100857142Y-127821428D01*
X101142857Y-127821428D01*
X101285714Y-127892857D01*
X101357142Y-127964285D01*
X101428571Y-128107142D01*
X101428571Y-128392857D01*
X101357142Y-128535714D01*
X101285714Y-128607142D01*
X101142857Y-128678571D01*
X100857142Y-128678571D01*
X100714285Y-128607142D01*
X100642857Y-128535714D01*
X100571428Y-128392857D01*
X100571428Y-128107142D01*
X100642857Y-127964285D01*
X100714285Y-127892857D01*
X100857142Y-127821428D01*
X111500000Y-127178571D02*
X110500000Y-127178571D01*
X111142857Y-128678571D01*
X120714285Y-127178571D02*
X121000000Y-127178571D01*
X121142857Y-127250000D01*
X121214285Y-127321428D01*
X121357142Y-127535714D01*
X121428571Y-127821428D01*
X121428571Y-128392857D01*
X121357142Y-128535714D01*
X121285714Y-128607142D01*
X121142857Y-128678571D01*
X120857142Y-128678571D01*
X120714285Y-128607142D01*
X120642857Y-128535714D01*
X120571428Y-128392857D01*
X120571428Y-128035714D01*
X120642857Y-127892857D01*
X120714285Y-127821428D01*
X120857142Y-127750000D01*
X121142857Y-127750000D01*
X121285714Y-127821428D01*
X121357142Y-127892857D01*
X121428571Y-128035714D01*
X130642857Y-127178571D02*
X131357142Y-127178571D01*
X131428571Y-127892857D01*
X131357142Y-127821428D01*
X131214285Y-127750000D01*
X130857142Y-127750000D01*
X130714285Y-127821428D01*
X130642857Y-127892857D01*
X130571428Y-128035714D01*
X130571428Y-128392857D01*
X130642857Y-128535714D01*
X130714285Y-128607142D01*
X130857142Y-128678571D01*
X131214285Y-128678571D01*
X131357142Y-128607142D01*
X131428571Y-128535714D01*
X140714285Y-127678571D02*
X140714285Y-128678571D01*
X141071428Y-127107142D02*
X141428571Y-128178571D01*
X140500000Y-128178571D01*
X151500000Y-127178571D02*
X150571428Y-127178571D01*
X151071428Y-127750000D01*
X150857142Y-127750000D01*
X150714285Y-127821428D01*
X150642857Y-127892857D01*
X150571428Y-128035714D01*
X150571428Y-128392857D01*
X150642857Y-128535714D01*
X150714285Y-128607142D01*
X150857142Y-128678571D01*
X151285714Y-128678571D01*
X151428571Y-128607142D01*
X151500000Y-128535714D01*
X161428571Y-127321428D02*
X161357142Y-127250000D01*
X161214285Y-127178571D01*
X160857142Y-127178571D01*
X160714285Y-127250000D01*
X160642857Y-127321428D01*
X160571428Y-127464285D01*
X160571428Y-127607142D01*
X160642857Y-127821428D01*
X161500000Y-128678571D01*
X160571428Y-128678571D01*
X170571428Y-128678571D02*
X171428571Y-128678571D01*
X171000000Y-128678571D02*
X171000000Y-127178571D01*
X171142857Y-127392857D01*
X171285714Y-127535714D01*
X171428571Y-127607142D01*
X181071428Y-127178571D02*
X180928571Y-127178571D01*
X180785714Y-127250000D01*
X180714285Y-127321428D01*
X180642857Y-127464285D01*
X180571428Y-127750000D01*
X180571428Y-128107142D01*
X180642857Y-128392857D01*
X180714285Y-128535714D01*
X180785714Y-128607142D01*
X180928571Y-128678571D01*
X181071428Y-128678571D01*
X181214285Y-128607142D01*
X181285714Y-128535714D01*
X181357142Y-128392857D01*
X181428571Y-128107142D01*
X181428571Y-127750000D01*
X181357142Y-127464285D01*
X181285714Y-127321428D01*
X181214285Y-127250000D01*
X181071428Y-127178571D01*
X184197333Y-116276380D02*
X184197333Y-115609714D01*
X184197333Y-115704952D02*
X184149714Y-115657333D01*
X184054476Y-115609714D01*
X183911619Y-115609714D01*
X183816380Y-115657333D01*
X183768761Y-115752571D01*
X183768761Y-116276380D01*
X183768761Y-115752571D02*
X183721142Y-115657333D01*
X183625904Y-115609714D01*
X183483047Y-115609714D01*
X183387809Y-115657333D01*
X183340190Y-115752571D01*
X183340190Y-116276380D01*
X182435428Y-116276380D02*
X182435428Y-115752571D01*
X182483047Y-115657333D01*
X182578285Y-115609714D01*
X182768761Y-115609714D01*
X182864000Y-115657333D01*
X182435428Y-116228761D02*
X182530666Y-116276380D01*
X182768761Y-116276380D01*
X182864000Y-116228761D01*
X182911619Y-116133523D01*
X182911619Y-116038285D01*
X182864000Y-115943047D01*
X182768761Y-115895428D01*
X182530666Y-115895428D01*
X182435428Y-115847809D01*
X182054476Y-116276380D02*
X181530666Y-115609714D01*
X182054476Y-115609714D02*
X181530666Y-116276380D01*
X181149714Y-116181142D02*
X181102095Y-116228761D01*
X181149714Y-116276380D01*
X181197333Y-116228761D01*
X181149714Y-116181142D01*
X181149714Y-116276380D01*
X179959238Y-115990666D02*
X179483047Y-115990666D01*
X180054476Y-116276380D02*
X179721142Y-115276380D01*
X179387809Y-116276380D01*
X176170761Y-125202380D02*
X176742190Y-125202380D01*
X176456476Y-125202380D02*
X176456476Y-124202380D01*
X176551714Y-124345238D01*
X176646952Y-124440476D01*
X176742190Y-124488095D01*
X175551714Y-124202380D02*
X175456476Y-124202380D01*
X175361238Y-124250000D01*
X175313619Y-124297619D01*
X175266000Y-124392857D01*
X175218380Y-124583333D01*
X175218380Y-124821428D01*
X175266000Y-125011904D01*
X175313619Y-125107142D01*
X175361238Y-125154761D01*
X175456476Y-125202380D01*
X175551714Y-125202380D01*
X175646952Y-125154761D01*
X175694571Y-125107142D01*
X175742190Y-125011904D01*
X175789809Y-124821428D01*
X175789809Y-124583333D01*
X175742190Y-124392857D01*
X175694571Y-124297619D01*
X175646952Y-124250000D01*
X175551714Y-124202380D01*
X174789809Y-125107142D02*
X174742190Y-125154761D01*
X174789809Y-125202380D01*
X174837428Y-125154761D01*
X174789809Y-125107142D01*
X174789809Y-125202380D01*
X174408857Y-124202380D02*
X173789809Y-124202380D01*
X174123142Y-124583333D01*
X173980285Y-124583333D01*
X173885047Y-124630952D01*
X173837428Y-124678571D01*
X173789809Y-124773809D01*
X173789809Y-125011904D01*
X173837428Y-125107142D01*
X173885047Y-125154761D01*
X173980285Y-125202380D01*
X174266000Y-125202380D01*
X174361238Y-125154761D01*
X174408857Y-125107142D01*
X171170761Y-125202380D02*
X170980285Y-125202380D01*
X170885047Y-125154761D01*
X170837428Y-125107142D01*
X170742190Y-124964285D01*
X170694571Y-124773809D01*
X170694571Y-124392857D01*
X170742190Y-124297619D01*
X170789809Y-124250000D01*
X170885047Y-124202380D01*
X171075523Y-124202380D01*
X171170761Y-124250000D01*
X171218380Y-124297619D01*
X171266000Y-124392857D01*
X171266000Y-124630952D01*
X171218380Y-124726190D01*
X171170761Y-124773809D01*
X171075523Y-124821428D01*
X170885047Y-124821428D01*
X170789809Y-124773809D01*
X170742190Y-124726190D01*
X170694571Y-124630952D01*
X170266000Y-125107142D02*
X170218380Y-125154761D01*
X170266000Y-125202380D01*
X170313619Y-125154761D01*
X170266000Y-125107142D01*
X170266000Y-125202380D01*
X169885047Y-124202380D02*
X169266000Y-124202380D01*
X169599333Y-124583333D01*
X169456476Y-124583333D01*
X169361238Y-124630952D01*
X169313619Y-124678571D01*
X169266000Y-124773809D01*
X169266000Y-125011904D01*
X169313619Y-125107142D01*
X169361238Y-125154761D01*
X169456476Y-125202380D01*
X169742190Y-125202380D01*
X169837428Y-125154761D01*
X169885047Y-125107142D01*
X176789809Y-115202380D02*
X176980285Y-115202380D01*
X177075523Y-115250000D01*
X177123142Y-115297619D01*
X177218380Y-115440476D01*
X177266000Y-115630952D01*
X177266000Y-116011904D01*
X177218380Y-116107142D01*
X177170761Y-116154761D01*
X177075523Y-116202380D01*
X176885047Y-116202380D01*
X176789809Y-116154761D01*
X176742190Y-116107142D01*
X176694571Y-116011904D01*
X176694571Y-115773809D01*
X176742190Y-115678571D01*
X176789809Y-115630952D01*
X176885047Y-115583333D01*
X177075523Y-115583333D01*
X177170761Y-115630952D01*
X177218380Y-115678571D01*
X177266000Y-115773809D01*
X176266000Y-116107142D02*
X176218380Y-116154761D01*
X176266000Y-116202380D01*
X176313619Y-116154761D01*
X176266000Y-116107142D01*
X176266000Y-116202380D01*
X175599333Y-115202380D02*
X175504095Y-115202380D01*
X175408857Y-115250000D01*
X175361238Y-115297619D01*
X175313619Y-115392857D01*
X175266000Y-115583333D01*
X175266000Y-115821428D01*
X175313619Y-116011904D01*
X175361238Y-116107142D01*
X175408857Y-116154761D01*
X175504095Y-116202380D01*
X175599333Y-116202380D01*
X175694571Y-116154761D01*
X175742190Y-116107142D01*
X175789809Y-116011904D01*
X175837428Y-115821428D01*
X175837428Y-115583333D01*
X175789809Y-115392857D01*
X175742190Y-115297619D01*
X175694571Y-115250000D01*
X175599333Y-115202380D01*
X166075523Y-124630952D02*
X166170761Y-124583333D01*
X166218380Y-124535714D01*
X166266000Y-124440476D01*
X166266000Y-124392857D01*
X166218380Y-124297619D01*
X166170761Y-124250000D01*
X166075523Y-124202380D01*
X165885047Y-124202380D01*
X165789809Y-124250000D01*
X165742190Y-124297619D01*
X165694571Y-124392857D01*
X165694571Y-124440476D01*
X165742190Y-124535714D01*
X165789809Y-124583333D01*
X165885047Y-124630952D01*
X166075523Y-124630952D01*
X166170761Y-124678571D01*
X166218380Y-124726190D01*
X166266000Y-124821428D01*
X166266000Y-125011904D01*
X166218380Y-125107142D01*
X166170761Y-125154761D01*
X166075523Y-125202380D01*
X165885047Y-125202380D01*
X165789809Y-125154761D01*
X165742190Y-125107142D01*
X165694571Y-125011904D01*
X165694571Y-124821428D01*
X165742190Y-124726190D01*
X165789809Y-124678571D01*
X165885047Y-124630952D01*
X165266000Y-125107142D02*
X165218380Y-125154761D01*
X165266000Y-125202380D01*
X165313619Y-125154761D01*
X165266000Y-125107142D01*
X165266000Y-125202380D01*
X164837428Y-124297619D02*
X164789809Y-124250000D01*
X164694571Y-124202380D01*
X164456476Y-124202380D01*
X164361238Y-124250000D01*
X164313619Y-124297619D01*
X164266000Y-124392857D01*
X164266000Y-124488095D01*
X164313619Y-124630952D01*
X164885047Y-125202380D01*
X164266000Y-125202380D01*
X162313619Y-124202380D02*
X161646952Y-124202380D01*
X162075523Y-125202380D01*
X161266000Y-125107142D02*
X161218380Y-125154761D01*
X161266000Y-125202380D01*
X161313619Y-125154761D01*
X161266000Y-125107142D01*
X161266000Y-125202380D01*
X160837428Y-124297619D02*
X160789809Y-124250000D01*
X160694571Y-124202380D01*
X160456476Y-124202380D01*
X160361238Y-124250000D01*
X160313619Y-124297619D01*
X160266000Y-124392857D01*
X160266000Y-124488095D01*
X160313619Y-124630952D01*
X160885047Y-125202380D01*
X160266000Y-125202380D01*
X173789809Y-115535714D02*
X173789809Y-116202380D01*
X174027904Y-115154761D02*
X174266000Y-115869047D01*
X173646952Y-115869047D01*
X173266000Y-116107142D02*
X173218380Y-116154761D01*
X173266000Y-116202380D01*
X173313619Y-116154761D01*
X173266000Y-116107142D01*
X173266000Y-116202380D01*
X172646952Y-115630952D02*
X172742190Y-115583333D01*
X172789809Y-115535714D01*
X172837428Y-115440476D01*
X172837428Y-115392857D01*
X172789809Y-115297619D01*
X172742190Y-115250000D01*
X172646952Y-115202380D01*
X172456476Y-115202380D01*
X172361238Y-115250000D01*
X172313619Y-115297619D01*
X172266000Y-115392857D01*
X172266000Y-115440476D01*
X172313619Y-115535714D01*
X172361238Y-115583333D01*
X172456476Y-115630952D01*
X172646952Y-115630952D01*
X172742190Y-115678571D01*
X172789809Y-115726190D01*
X172837428Y-115821428D01*
X172837428Y-116011904D01*
X172789809Y-116107142D01*
X172742190Y-116154761D01*
X172646952Y-116202380D01*
X172456476Y-116202380D01*
X172361238Y-116154761D01*
X172313619Y-116107142D01*
X172266000Y-116011904D01*
X172266000Y-115821428D01*
X172313619Y-115726190D01*
X172361238Y-115678571D01*
X172456476Y-115630952D01*
X170789809Y-115535714D02*
X170789809Y-116202380D01*
X171027904Y-115154761D02*
X171266000Y-115869047D01*
X170646952Y-115869047D01*
X170266000Y-116107142D02*
X170218380Y-116154761D01*
X170266000Y-116202380D01*
X170313619Y-116154761D01*
X170266000Y-116107142D01*
X170266000Y-116202380D01*
X169266000Y-116202380D02*
X169837428Y-116202380D01*
X169551714Y-116202380D02*
X169551714Y-115202380D01*
X169646952Y-115345238D01*
X169742190Y-115440476D01*
X169837428Y-115488095D01*
X168313619Y-115202380D02*
X167694571Y-115202380D01*
X168027904Y-115583333D01*
X167885047Y-115583333D01*
X167789809Y-115630952D01*
X167742190Y-115678571D01*
X167694571Y-115773809D01*
X167694571Y-116011904D01*
X167742190Y-116107142D01*
X167789809Y-116154761D01*
X167885047Y-116202380D01*
X168170761Y-116202380D01*
X168266000Y-116154761D01*
X168313619Y-116107142D01*
X167266000Y-116107142D02*
X167218380Y-116154761D01*
X167266000Y-116202380D01*
X167313619Y-116154761D01*
X167266000Y-116107142D01*
X167266000Y-116202380D01*
X166646952Y-115630952D02*
X166742190Y-115583333D01*
X166789809Y-115535714D01*
X166837428Y-115440476D01*
X166837428Y-115392857D01*
X166789809Y-115297619D01*
X166742190Y-115250000D01*
X166646952Y-115202380D01*
X166456476Y-115202380D01*
X166361238Y-115250000D01*
X166313619Y-115297619D01*
X166266000Y-115392857D01*
X166266000Y-115440476D01*
X166313619Y-115535714D01*
X166361238Y-115583333D01*
X166456476Y-115630952D01*
X166646952Y-115630952D01*
X166742190Y-115678571D01*
X166789809Y-115726190D01*
X166837428Y-115821428D01*
X166837428Y-116011904D01*
X166789809Y-116107142D01*
X166742190Y-116154761D01*
X166646952Y-116202380D01*
X166456476Y-116202380D01*
X166361238Y-116154761D01*
X166313619Y-116107142D01*
X166266000Y-116011904D01*
X166266000Y-115821428D01*
X166313619Y-115726190D01*
X166361238Y-115678571D01*
X166456476Y-115630952D01*
X165313619Y-115202380D02*
X164694571Y-115202380D01*
X165027904Y-115583333D01*
X164885047Y-115583333D01*
X164789809Y-115630952D01*
X164742190Y-115678571D01*
X164694571Y-115773809D01*
X164694571Y-116011904D01*
X164742190Y-116107142D01*
X164789809Y-116154761D01*
X164885047Y-116202380D01*
X165170761Y-116202380D01*
X165266000Y-116154761D01*
X165313619Y-116107142D01*
X164266000Y-116107142D02*
X164218380Y-116154761D01*
X164266000Y-116202380D01*
X164313619Y-116154761D01*
X164266000Y-116107142D01*
X164266000Y-116202380D01*
X163313619Y-115202380D02*
X163789809Y-115202380D01*
X163837428Y-115678571D01*
X163789809Y-115630952D01*
X163694571Y-115583333D01*
X163456476Y-115583333D01*
X163361238Y-115630952D01*
X163313619Y-115678571D01*
X163266000Y-115773809D01*
X163266000Y-116011904D01*
X163313619Y-116107142D01*
X163361238Y-116154761D01*
X163456476Y-116202380D01*
X163694571Y-116202380D01*
X163789809Y-116154761D01*
X163837428Y-116107142D01*
X162313619Y-115202380D02*
X161694571Y-115202380D01*
X162027904Y-115583333D01*
X161885047Y-115583333D01*
X161789809Y-115630952D01*
X161742190Y-115678571D01*
X161694571Y-115773809D01*
X161694571Y-116011904D01*
X161742190Y-116107142D01*
X161789809Y-116154761D01*
X161885047Y-116202380D01*
X162170761Y-116202380D01*
X162266000Y-116154761D01*
X162313619Y-116107142D01*
X161266000Y-116107142D02*
X161218380Y-116154761D01*
X161266000Y-116202380D01*
X161313619Y-116154761D01*
X161266000Y-116107142D01*
X161266000Y-116202380D01*
X160837428Y-115297619D02*
X160789809Y-115250000D01*
X160694571Y-115202380D01*
X160456476Y-115202380D01*
X160361238Y-115250000D01*
X160313619Y-115297619D01*
X160266000Y-115392857D01*
X160266000Y-115488095D01*
X160313619Y-115630952D01*
X160885047Y-116202380D01*
X160266000Y-116202380D01*
X177313619Y-107202380D02*
X176694571Y-107202380D01*
X177027904Y-107583333D01*
X176885047Y-107583333D01*
X176789809Y-107630952D01*
X176742190Y-107678571D01*
X176694571Y-107773809D01*
X176694571Y-108011904D01*
X176742190Y-108107142D01*
X176789809Y-108154761D01*
X176885047Y-108202380D01*
X177170761Y-108202380D01*
X177266000Y-108154761D01*
X177313619Y-108107142D01*
X176266000Y-108107142D02*
X176218380Y-108154761D01*
X176266000Y-108202380D01*
X176313619Y-108154761D01*
X176266000Y-108107142D01*
X176266000Y-108202380D01*
X175599333Y-107202380D02*
X175504095Y-107202380D01*
X175408857Y-107250000D01*
X175361238Y-107297619D01*
X175313619Y-107392857D01*
X175266000Y-107583333D01*
X175266000Y-107821428D01*
X175313619Y-108011904D01*
X175361238Y-108107142D01*
X175408857Y-108154761D01*
X175504095Y-108202380D01*
X175599333Y-108202380D01*
X175694571Y-108154761D01*
X175742190Y-108107142D01*
X175789809Y-108011904D01*
X175837428Y-107821428D01*
X175837428Y-107583333D01*
X175789809Y-107392857D01*
X175742190Y-107297619D01*
X175694571Y-107250000D01*
X175599333Y-107202380D01*
X174266000Y-107297619D02*
X174218380Y-107250000D01*
X174123142Y-107202380D01*
X173885047Y-107202380D01*
X173789809Y-107250000D01*
X173742190Y-107297619D01*
X173694571Y-107392857D01*
X173694571Y-107488095D01*
X173742190Y-107630952D01*
X174313619Y-108202380D01*
X173694571Y-108202380D01*
X173266000Y-108107142D02*
X173218380Y-108154761D01*
X173266000Y-108202380D01*
X173313619Y-108154761D01*
X173266000Y-108107142D01*
X173266000Y-108202380D01*
X172885047Y-107202380D02*
X172218380Y-107202380D01*
X172646952Y-108202380D01*
X171266000Y-107297619D02*
X171218380Y-107250000D01*
X171123142Y-107202380D01*
X170885047Y-107202380D01*
X170789809Y-107250000D01*
X170742190Y-107297619D01*
X170694571Y-107392857D01*
X170694571Y-107488095D01*
X170742190Y-107630952D01*
X171313619Y-108202380D01*
X170694571Y-108202380D01*
X170266000Y-108107142D02*
X170218380Y-108154761D01*
X170266000Y-108202380D01*
X170313619Y-108154761D01*
X170266000Y-108107142D01*
X170266000Y-108202380D01*
X169361238Y-107535714D02*
X169361238Y-108202380D01*
X169599333Y-107154761D02*
X169837428Y-107869047D01*
X169218380Y-107869047D01*
X168266000Y-107297619D02*
X168218380Y-107250000D01*
X168123142Y-107202380D01*
X167885047Y-107202380D01*
X167789809Y-107250000D01*
X167742190Y-107297619D01*
X167694571Y-107392857D01*
X167694571Y-107488095D01*
X167742190Y-107630952D01*
X168313619Y-108202380D01*
X167694571Y-108202380D01*
X167266000Y-108107142D02*
X167218380Y-108154761D01*
X167266000Y-108202380D01*
X167313619Y-108154761D01*
X167266000Y-108107142D01*
X167266000Y-108202380D01*
X166599333Y-107202380D02*
X166504095Y-107202380D01*
X166408857Y-107250000D01*
X166361238Y-107297619D01*
X166313619Y-107392857D01*
X166266000Y-107583333D01*
X166266000Y-107821428D01*
X166313619Y-108011904D01*
X166361238Y-108107142D01*
X166408857Y-108154761D01*
X166504095Y-108202380D01*
X166599333Y-108202380D01*
X166694571Y-108154761D01*
X166742190Y-108107142D01*
X166789809Y-108011904D01*
X166837428Y-107821428D01*
X166837428Y-107583333D01*
X166789809Y-107392857D01*
X166742190Y-107297619D01*
X166694571Y-107250000D01*
X166599333Y-107202380D01*
X164694571Y-108202380D02*
X165266000Y-108202380D01*
X164980285Y-108202380D02*
X164980285Y-107202380D01*
X165075523Y-107345238D01*
X165170761Y-107440476D01*
X165266000Y-107488095D01*
X164266000Y-108107142D02*
X164218380Y-108154761D01*
X164266000Y-108202380D01*
X164313619Y-108154761D01*
X164266000Y-108107142D01*
X164266000Y-108202380D01*
X163885047Y-107202380D02*
X163218380Y-107202380D01*
X163646952Y-108202380D01*
X161694571Y-108202380D02*
X162266000Y-108202380D01*
X161980285Y-108202380D02*
X161980285Y-107202380D01*
X162075523Y-107345238D01*
X162170761Y-107440476D01*
X162266000Y-107488095D01*
X161266000Y-108107142D02*
X161218380Y-108154761D01*
X161266000Y-108202380D01*
X161313619Y-108154761D01*
X161266000Y-108107142D01*
X161266000Y-108202380D01*
X160361238Y-107535714D02*
X160361238Y-108202380D01*
X160599333Y-107154761D02*
X160837428Y-107869047D01*
X160218380Y-107869047D01*
X161456476Y-123202380D02*
X162027904Y-123202380D01*
X161742190Y-123202380D02*
X161742190Y-122202380D01*
X161837428Y-122345238D01*
X161932666Y-122440476D01*
X162027904Y-122488095D01*
X160504095Y-123202380D02*
X161075523Y-123202380D01*
X160789809Y-123202380D02*
X160789809Y-122202380D01*
X160885047Y-122345238D01*
X160980285Y-122440476D01*
X161075523Y-122488095D01*
X165456476Y-123202380D02*
X165266000Y-123202380D01*
X165170761Y-123154761D01*
X165123142Y-123107142D01*
X165027904Y-122964285D01*
X164980285Y-122773809D01*
X164980285Y-122392857D01*
X165027904Y-122297619D01*
X165075523Y-122250000D01*
X165170761Y-122202380D01*
X165361238Y-122202380D01*
X165456476Y-122250000D01*
X165504095Y-122297619D01*
X165551714Y-122392857D01*
X165551714Y-122630952D01*
X165504095Y-122726190D01*
X165456476Y-122773809D01*
X165361238Y-122821428D01*
X165170761Y-122821428D01*
X165075523Y-122773809D01*
X165027904Y-122726190D01*
X164980285Y-122630952D01*
X170361238Y-122630952D02*
X170456476Y-122583333D01*
X170504095Y-122535714D01*
X170551714Y-122440476D01*
X170551714Y-122392857D01*
X170504095Y-122297619D01*
X170456476Y-122250000D01*
X170361238Y-122202380D01*
X170170761Y-122202380D01*
X170075523Y-122250000D01*
X170027904Y-122297619D01*
X169980285Y-122392857D01*
X169980285Y-122440476D01*
X170027904Y-122535714D01*
X170075523Y-122583333D01*
X170170761Y-122630952D01*
X170361238Y-122630952D01*
X170456476Y-122678571D01*
X170504095Y-122726190D01*
X170551714Y-122821428D01*
X170551714Y-123011904D01*
X170504095Y-123107142D01*
X170456476Y-123154761D01*
X170361238Y-123202380D01*
X170170761Y-123202380D01*
X170075523Y-123154761D01*
X170027904Y-123107142D01*
X169980285Y-123011904D01*
X169980285Y-122821428D01*
X170027904Y-122726190D01*
X170075523Y-122678571D01*
X170170761Y-122630952D01*
X175599333Y-122202380D02*
X174932666Y-122202380D01*
X175361238Y-123202380D01*
X162027904Y-113297619D02*
X161980285Y-113250000D01*
X161885047Y-113202380D01*
X161646952Y-113202380D01*
X161551714Y-113250000D01*
X161504095Y-113297619D01*
X161456476Y-113392857D01*
X161456476Y-113488095D01*
X161504095Y-113630952D01*
X162075523Y-114202380D01*
X161456476Y-114202380D01*
X160837428Y-113202380D02*
X160742190Y-113202380D01*
X160646952Y-113250000D01*
X160599333Y-113297619D01*
X160551714Y-113392857D01*
X160504095Y-113583333D01*
X160504095Y-113821428D01*
X160551714Y-114011904D01*
X160599333Y-114107142D01*
X160646952Y-114154761D01*
X160742190Y-114202380D01*
X160837428Y-114202380D01*
X160932666Y-114154761D01*
X160980285Y-114107142D01*
X161027904Y-114011904D01*
X161075523Y-113821428D01*
X161075523Y-113583333D01*
X161027904Y-113392857D01*
X160980285Y-113297619D01*
X160932666Y-113250000D01*
X160837428Y-113202380D01*
X164456476Y-114202380D02*
X165027904Y-114202380D01*
X164742190Y-114202380D02*
X164742190Y-113202380D01*
X164837428Y-113345238D01*
X164932666Y-113440476D01*
X165027904Y-113488095D01*
X163980285Y-114202380D02*
X163789809Y-114202380D01*
X163694571Y-114154761D01*
X163646952Y-114107142D01*
X163551714Y-113964285D01*
X163504095Y-113773809D01*
X163504095Y-113392857D01*
X163551714Y-113297619D01*
X163599333Y-113250000D01*
X163694571Y-113202380D01*
X163885047Y-113202380D01*
X163980285Y-113250000D01*
X164027904Y-113297619D01*
X164075523Y-113392857D01*
X164075523Y-113630952D01*
X164027904Y-113726190D01*
X163980285Y-113773809D01*
X163885047Y-113821428D01*
X163694571Y-113821428D01*
X163599333Y-113773809D01*
X163551714Y-113726190D01*
X163504095Y-113630952D01*
X167456476Y-114202380D02*
X168027904Y-114202380D01*
X167742190Y-114202380D02*
X167742190Y-113202380D01*
X167837428Y-113345238D01*
X167932666Y-113440476D01*
X168027904Y-113488095D01*
X166885047Y-113630952D02*
X166980285Y-113583333D01*
X167027904Y-113535714D01*
X167075523Y-113440476D01*
X167075523Y-113392857D01*
X167027904Y-113297619D01*
X166980285Y-113250000D01*
X166885047Y-113202380D01*
X166694571Y-113202380D01*
X166599333Y-113250000D01*
X166551714Y-113297619D01*
X166504095Y-113392857D01*
X166504095Y-113440476D01*
X166551714Y-113535714D01*
X166599333Y-113583333D01*
X166694571Y-113630952D01*
X166885047Y-113630952D01*
X166980285Y-113678571D01*
X167027904Y-113726190D01*
X167075523Y-113821428D01*
X167075523Y-114011904D01*
X167027904Y-114107142D01*
X166980285Y-114154761D01*
X166885047Y-114202380D01*
X166694571Y-114202380D01*
X166599333Y-114154761D01*
X166551714Y-114107142D01*
X166504095Y-114011904D01*
X166504095Y-113821428D01*
X166551714Y-113726190D01*
X166599333Y-113678571D01*
X166694571Y-113630952D01*
X170456476Y-114202380D02*
X171027904Y-114202380D01*
X170742190Y-114202380D02*
X170742190Y-113202380D01*
X170837428Y-113345238D01*
X170932666Y-113440476D01*
X171027904Y-113488095D01*
X170123142Y-113202380D02*
X169456476Y-113202380D01*
X169885047Y-114202380D01*
X173456476Y-114202380D02*
X174027904Y-114202380D01*
X173742190Y-114202380D02*
X173742190Y-113202380D01*
X173837428Y-113345238D01*
X173932666Y-113440476D01*
X174027904Y-113488095D01*
X172551714Y-113202380D02*
X173027904Y-113202380D01*
X173075523Y-113678571D01*
X173027904Y-113630952D01*
X172932666Y-113583333D01*
X172694571Y-113583333D01*
X172599333Y-113630952D01*
X172551714Y-113678571D01*
X172504095Y-113773809D01*
X172504095Y-114011904D01*
X172551714Y-114107142D01*
X172599333Y-114154761D01*
X172694571Y-114202380D01*
X172932666Y-114202380D01*
X173027904Y-114154761D01*
X173075523Y-114107142D01*
X176456476Y-114202380D02*
X177027904Y-114202380D01*
X176742190Y-114202380D02*
X176742190Y-113202380D01*
X176837428Y-113345238D01*
X176932666Y-113440476D01*
X177027904Y-113488095D01*
X176123142Y-113202380D02*
X175504095Y-113202380D01*
X175837428Y-113583333D01*
X175694571Y-113583333D01*
X175599333Y-113630952D01*
X175551714Y-113678571D01*
X175504095Y-113773809D01*
X175504095Y-114011904D01*
X175551714Y-114107142D01*
X175599333Y-114154761D01*
X175694571Y-114202380D01*
X175980285Y-114202380D01*
X176075523Y-114154761D01*
X176123142Y-114107142D01*
X162027904Y-105297619D02*
X161980285Y-105250000D01*
X161885047Y-105202380D01*
X161646952Y-105202380D01*
X161551714Y-105250000D01*
X161504095Y-105297619D01*
X161456476Y-105392857D01*
X161456476Y-105488095D01*
X161504095Y-105630952D01*
X162075523Y-106202380D01*
X161456476Y-106202380D01*
X160980285Y-106202380D02*
X160789809Y-106202380D01*
X160694571Y-106154761D01*
X160646952Y-106107142D01*
X160551714Y-105964285D01*
X160504095Y-105773809D01*
X160504095Y-105392857D01*
X160551714Y-105297619D01*
X160599333Y-105250000D01*
X160694571Y-105202380D01*
X160885047Y-105202380D01*
X160980285Y-105250000D01*
X161027904Y-105297619D01*
X161075523Y-105392857D01*
X161075523Y-105630952D01*
X161027904Y-105726190D01*
X160980285Y-105773809D01*
X160885047Y-105821428D01*
X160694571Y-105821428D01*
X160599333Y-105773809D01*
X160551714Y-105726190D01*
X160504095Y-105630952D01*
X165027904Y-105297619D02*
X164980285Y-105250000D01*
X164885047Y-105202380D01*
X164646952Y-105202380D01*
X164551714Y-105250000D01*
X164504095Y-105297619D01*
X164456476Y-105392857D01*
X164456476Y-105488095D01*
X164504095Y-105630952D01*
X165075523Y-106202380D01*
X164456476Y-106202380D01*
X164123142Y-105202380D02*
X163456476Y-105202380D01*
X163885047Y-106202380D01*
X168027904Y-105297619D02*
X167980285Y-105250000D01*
X167885047Y-105202380D01*
X167646952Y-105202380D01*
X167551714Y-105250000D01*
X167504095Y-105297619D01*
X167456476Y-105392857D01*
X167456476Y-105488095D01*
X167504095Y-105630952D01*
X168075523Y-106202380D01*
X167456476Y-106202380D01*
X166551714Y-105202380D02*
X167027904Y-105202380D01*
X167075523Y-105678571D01*
X167027904Y-105630952D01*
X166932666Y-105583333D01*
X166694571Y-105583333D01*
X166599333Y-105630952D01*
X166551714Y-105678571D01*
X166504095Y-105773809D01*
X166504095Y-106011904D01*
X166551714Y-106107142D01*
X166599333Y-106154761D01*
X166694571Y-106202380D01*
X166932666Y-106202380D01*
X167027904Y-106154761D01*
X167075523Y-106107142D01*
X171027904Y-105297619D02*
X170980285Y-105250000D01*
X170885047Y-105202380D01*
X170646952Y-105202380D01*
X170551714Y-105250000D01*
X170504095Y-105297619D01*
X170456476Y-105392857D01*
X170456476Y-105488095D01*
X170504095Y-105630952D01*
X171075523Y-106202380D01*
X170456476Y-106202380D01*
X170123142Y-105202380D02*
X169504095Y-105202380D01*
X169837428Y-105583333D01*
X169694571Y-105583333D01*
X169599333Y-105630952D01*
X169551714Y-105678571D01*
X169504095Y-105773809D01*
X169504095Y-106011904D01*
X169551714Y-106107142D01*
X169599333Y-106154761D01*
X169694571Y-106202380D01*
X169980285Y-106202380D01*
X170075523Y-106154761D01*
X170123142Y-106107142D01*
X174027904Y-105297619D02*
X173980285Y-105250000D01*
X173885047Y-105202380D01*
X173646952Y-105202380D01*
X173551714Y-105250000D01*
X173504095Y-105297619D01*
X173456476Y-105392857D01*
X173456476Y-105488095D01*
X173504095Y-105630952D01*
X174075523Y-106202380D01*
X173456476Y-106202380D01*
X173075523Y-105297619D02*
X173027904Y-105250000D01*
X172932666Y-105202380D01*
X172694571Y-105202380D01*
X172599333Y-105250000D01*
X172551714Y-105297619D01*
X172504095Y-105392857D01*
X172504095Y-105488095D01*
X172551714Y-105630952D01*
X173123142Y-106202380D01*
X172504095Y-106202380D01*
X177027904Y-105297619D02*
X176980285Y-105250000D01*
X176885047Y-105202380D01*
X176646952Y-105202380D01*
X176551714Y-105250000D01*
X176504095Y-105297619D01*
X176456476Y-105392857D01*
X176456476Y-105488095D01*
X176504095Y-105630952D01*
X177075523Y-106202380D01*
X176456476Y-106202380D01*
X175504095Y-106202380D02*
X176075523Y-106202380D01*
X175789809Y-106202380D02*
X175789809Y-105202380D01*
X175885047Y-105345238D01*
X175980285Y-105440476D01*
X176075523Y-105488095D01*
X184125904Y-114149142D02*
X183364000Y-114149142D01*
X184125904Y-113863428D02*
X183364000Y-113863428D01*
X184125904Y-113577714D02*
X184078285Y-113530095D01*
X183935428Y-113482476D01*
X183792571Y-113530095D01*
X183697333Y-113625333D01*
X183554476Y-113672952D01*
X183411619Y-113625333D01*
X183364000Y-113577714D01*
X182173523Y-113958666D02*
X181697333Y-113958666D01*
X182268761Y-114244380D02*
X181935428Y-113244380D01*
X181602095Y-114244380D01*
X181364000Y-113244380D02*
X181125904Y-114244380D01*
X180935428Y-113530095D01*
X180744952Y-114244380D01*
X180506857Y-113244380D01*
X179602095Y-113292000D02*
X179697333Y-113244380D01*
X179840190Y-113244380D01*
X179983047Y-113292000D01*
X180078285Y-113387238D01*
X180125904Y-113482476D01*
X180173523Y-113672952D01*
X180173523Y-113815809D01*
X180125904Y-114006285D01*
X180078285Y-114101523D01*
X179983047Y-114196761D01*
X179840190Y-114244380D01*
X179744952Y-114244380D01*
X179602095Y-114196761D01*
X179554476Y-114149142D01*
X179554476Y-113815809D01*
X179744952Y-113815809D01*
X170513285Y-98861285D02*
X170513285Y-98432714D01*
X170513285Y-98647000D02*
X169763285Y-98647000D01*
X169870428Y-98575571D01*
X169941857Y-98504142D01*
X169977571Y-98432714D01*
X169727571Y-99718428D02*
X170691857Y-99075571D01*
X170084714Y-100075571D02*
X170049000Y-100004142D01*
X170013285Y-99968428D01*
X169941857Y-99932714D01*
X169906142Y-99932714D01*
X169834714Y-99968428D01*
X169799000Y-100004142D01*
X169763285Y-100075571D01*
X169763285Y-100218428D01*
X169799000Y-100289857D01*
X169834714Y-100325571D01*
X169906142Y-100361285D01*
X169941857Y-100361285D01*
X170013285Y-100325571D01*
X170049000Y-100289857D01*
X170084714Y-100218428D01*
X170084714Y-100075571D01*
X170120428Y-100004142D01*
X170156142Y-99968428D01*
X170227571Y-99932714D01*
X170370428Y-99932714D01*
X170441857Y-99968428D01*
X170477571Y-100004142D01*
X170513285Y-100075571D01*
X170513285Y-100218428D01*
X170477571Y-100289857D01*
X170441857Y-100325571D01*
X170370428Y-100361285D01*
X170227571Y-100361285D01*
X170156142Y-100325571D01*
X170120428Y-100289857D01*
X170084714Y-100218428D01*
D12*
X98030000Y-99337571D02*
X97101428Y-99337571D01*
X97601428Y-99909000D01*
X97387142Y-99909000D01*
X97244285Y-99980428D01*
X97172857Y-100051857D01*
X97101428Y-100194714D01*
X97101428Y-100551857D01*
X97172857Y-100694714D01*
X97244285Y-100766142D01*
X97387142Y-100837571D01*
X97815714Y-100837571D01*
X97958571Y-100766142D01*
X98030000Y-100694714D01*
X123358571Y-99480428D02*
X123287142Y-99409000D01*
X123144285Y-99337571D01*
X122787142Y-99337571D01*
X122644285Y-99409000D01*
X122572857Y-99480428D01*
X122501428Y-99623285D01*
X122501428Y-99766142D01*
X122572857Y-99980428D01*
X123430000Y-100837571D01*
X122501428Y-100837571D01*
X147901428Y-100837571D02*
X148758571Y-100837571D01*
X148330000Y-100837571D02*
X148330000Y-99337571D01*
X148472857Y-99551857D01*
X148615714Y-99694714D01*
X148758571Y-99766142D01*
X173801428Y-99337571D02*
X173658571Y-99337571D01*
X173515714Y-99409000D01*
X173444285Y-99480428D01*
X173372857Y-99623285D01*
X173301428Y-99909000D01*
X173301428Y-100266142D01*
X173372857Y-100551857D01*
X173444285Y-100694714D01*
X173515714Y-100766142D01*
X173658571Y-100837571D01*
X173801428Y-100837571D01*
X173944285Y-100766142D01*
X174015714Y-100694714D01*
X174087142Y-100551857D01*
X174158571Y-100266142D01*
X174158571Y-99909000D01*
X174087142Y-99623285D01*
X174015714Y-99480428D01*
X173944285Y-99409000D01*
X173801428Y-99337571D01*
D10*
X144490914Y-123642476D02*
X144300438Y-123642476D01*
X144109961Y-123737714D01*
X144014723Y-123928190D01*
X144014723Y-124118666D01*
X144109961Y-124309142D01*
X144300438Y-124404380D01*
X144490914Y-124404380D01*
X144681390Y-124309142D01*
X144776628Y-124118666D01*
X144776628Y-123928190D01*
X144681390Y-123737714D01*
X144490914Y-123642476D01*
X144014723Y-123642476D02*
X144776628Y-124404380D01*
X143586152Y-123499619D02*
X143538533Y-123452000D01*
X143443295Y-123404380D01*
X143205200Y-123404380D01*
X143109961Y-123452000D01*
X143062342Y-123499619D01*
X143014723Y-123594857D01*
X143014723Y-123690095D01*
X143062342Y-123832952D01*
X143633771Y-124404380D01*
X143014723Y-124404380D01*
X142586152Y-124309142D02*
X142538533Y-124356761D01*
X142586152Y-124404380D01*
X142633771Y-124356761D01*
X142586152Y-124309142D01*
X142586152Y-124404380D01*
X141633771Y-123404380D02*
X142109961Y-123404380D01*
X142157580Y-123880571D01*
X142109961Y-123832952D01*
X142014723Y-123785333D01*
X141776628Y-123785333D01*
X141681390Y-123832952D01*
X141633771Y-123880571D01*
X141586152Y-123975809D01*
X141586152Y-124213904D01*
X141633771Y-124309142D01*
X141681390Y-124356761D01*
X141776628Y-124404380D01*
X142014723Y-124404380D01*
X142109961Y-124356761D01*
X142157580Y-124309142D01*
X149062914Y-123642476D02*
X148872438Y-123642476D01*
X148681961Y-123737714D01*
X148586723Y-123928190D01*
X148586723Y-124118666D01*
X148681961Y-124309142D01*
X148872438Y-124404380D01*
X149062914Y-124404380D01*
X149253390Y-124309142D01*
X149348628Y-124118666D01*
X149348628Y-123928190D01*
X149253390Y-123737714D01*
X149062914Y-123642476D01*
X148586723Y-123642476D02*
X149348628Y-124404380D01*
X148158152Y-123499619D02*
X148110533Y-123452000D01*
X148015295Y-123404380D01*
X147777200Y-123404380D01*
X147681961Y-123452000D01*
X147634342Y-123499619D01*
X147586723Y-123594857D01*
X147586723Y-123690095D01*
X147634342Y-123832952D01*
X148205771Y-124404380D01*
X147586723Y-124404380D01*
X147158152Y-124309142D02*
X147110533Y-124356761D01*
X147158152Y-124404380D01*
X147205771Y-124356761D01*
X147158152Y-124309142D01*
X147158152Y-124404380D01*
X146491485Y-123404380D02*
X146396247Y-123404380D01*
X146301009Y-123452000D01*
X146253390Y-123499619D01*
X146205771Y-123594857D01*
X146158152Y-123785333D01*
X146158152Y-124023428D01*
X146205771Y-124213904D01*
X146253390Y-124309142D01*
X146301009Y-124356761D01*
X146396247Y-124404380D01*
X146491485Y-124404380D01*
X146586723Y-124356761D01*
X146634342Y-124309142D01*
X146681961Y-124213904D01*
X146729580Y-124023428D01*
X146729580Y-123785333D01*
X146681961Y-123594857D01*
X146634342Y-123499619D01*
X146586723Y-123452000D01*
X146491485Y-123404380D01*
X153375315Y-123642476D02*
X153184839Y-123642476D01*
X152994362Y-123737714D01*
X152899124Y-123928190D01*
X152899124Y-124118666D01*
X152994362Y-124309142D01*
X153184839Y-124404380D01*
X153375315Y-124404380D01*
X153565791Y-124309142D01*
X153661029Y-124118666D01*
X153661029Y-123928190D01*
X153565791Y-123737714D01*
X153375315Y-123642476D01*
X152899124Y-123642476D02*
X153661029Y-124404380D01*
X151899124Y-124404380D02*
X152470553Y-124404380D01*
X152184839Y-124404380D02*
X152184839Y-123404380D01*
X152280077Y-123547238D01*
X152375315Y-123642476D01*
X152470553Y-123690095D01*
X151470553Y-124309142D02*
X151422934Y-124356761D01*
X151470553Y-124404380D01*
X151518172Y-124356761D01*
X151470553Y-124309142D01*
X151470553Y-124404380D01*
X150518172Y-123404380D02*
X150994362Y-123404380D01*
X151041981Y-123880571D01*
X150994362Y-123832952D01*
X150899124Y-123785333D01*
X150661029Y-123785333D01*
X150565791Y-123832952D01*
X150518172Y-123880571D01*
X150470553Y-123975809D01*
X150470553Y-124213904D01*
X150518172Y-124309142D01*
X150565791Y-124356761D01*
X150661029Y-124404380D01*
X150899124Y-124404380D01*
X150994362Y-124356761D01*
X151041981Y-124309142D01*
X157597314Y-123642476D02*
X157406838Y-123642476D01*
X157216361Y-123737714D01*
X157121123Y-123928190D01*
X157121123Y-124118666D01*
X157216361Y-124309142D01*
X157406838Y-124404380D01*
X157597314Y-124404380D01*
X157787790Y-124309142D01*
X157883028Y-124118666D01*
X157883028Y-123928190D01*
X157787790Y-123737714D01*
X157597314Y-123642476D01*
X157121123Y-123642476D02*
X157883028Y-124404380D01*
X156121123Y-124404380D02*
X156692552Y-124404380D01*
X156406838Y-124404380D02*
X156406838Y-123404380D01*
X156502076Y-123547238D01*
X156597314Y-123642476D01*
X156692552Y-123690095D01*
X155692552Y-124309142D02*
X155644933Y-124356761D01*
X155692552Y-124404380D01*
X155740171Y-124356761D01*
X155692552Y-124309142D01*
X155692552Y-124404380D01*
X155025885Y-123404380D02*
X154930647Y-123404380D01*
X154835409Y-123452000D01*
X154787790Y-123499619D01*
X154740171Y-123594857D01*
X154692552Y-123785333D01*
X154692552Y-124023428D01*
X154740171Y-124213904D01*
X154787790Y-124309142D01*
X154835409Y-124356761D01*
X154930647Y-124404380D01*
X155025885Y-124404380D01*
X155121123Y-124356761D01*
X155168742Y-124309142D01*
X155216361Y-124213904D01*
X155263980Y-124023428D01*
X155263980Y-123785333D01*
X155216361Y-123594857D01*
X155168742Y-123499619D01*
X155121123Y-123452000D01*
X155025885Y-123404380D01*
M02*
