G04 #@! TF.GenerationSoftware,KiCad,Pcbnew,(5.1.4-0-10_14)*
G04 #@! TF.CreationDate,2020-02-25T06:48:49+00:00*
G04 #@! TF.ProjectId,ruler,72756c65-722e-46b6-9963-61645f706362,1.0*
G04 #@! TF.SameCoordinates,Original*
G04 #@! TF.FileFunction,Soldermask,Top*
G04 #@! TF.FilePolarity,Negative*
%FSLAX46Y46*%
G04 Gerber Fmt 4.6, Leading zero omitted, Abs format (unit mm)*
G04 Created by KiCad (PCBNEW (5.1.4-0-10_14)) date 2020-02-25 06:48:49*
%MOMM*%
%LPD*%
G04 APERTURE LIST*
%ADD10C,0.150000*%
%ADD11C,0.100000*%
%ADD12R,2.100000X1.050000*%
%ADD13C,1.400000*%
%ADD14C,0.800000*%
%ADD15C,0.990000*%
%ADD16C,1.350000*%
%ADD17C,1.550000*%
%ADD18C,1.825000*%
%ADD19O,2.100000X2.100000*%
%ADD20R,2.100000X2.100000*%
%ADD21C,12.400000*%
%ADD22R,5.500000X5.500000*%
G04 APERTURE END LIST*
D10*
X182000000Y-130000000D02*
X182000000Y-129000000D01*
X178000000Y-130000000D02*
X178000000Y-129000000D01*
X179000000Y-130000000D02*
X179000000Y-129000000D01*
X181000000Y-130000000D02*
X181000000Y-128000000D01*
X177000000Y-130000000D02*
X177000000Y-129000000D01*
X180000000Y-130000000D02*
X180000000Y-129000000D01*
X169000000Y-130000000D02*
X169000000Y-129000000D01*
X172000000Y-130000000D02*
X172000000Y-129000000D01*
X174000000Y-130000000D02*
X174000000Y-129000000D01*
X168000000Y-130000000D02*
X168000000Y-129000000D01*
X167000000Y-130000000D02*
X167000000Y-129000000D01*
X171000000Y-130000000D02*
X171000000Y-128000000D01*
X170000000Y-130000000D02*
X170000000Y-129000000D01*
X175000000Y-130000000D02*
X175000000Y-129000000D01*
X173000000Y-130000000D02*
X173000000Y-129000000D01*
X176000000Y-130000000D02*
X176000000Y-127000000D01*
X149000000Y-130000000D02*
X149000000Y-129000000D01*
X148000000Y-130000000D02*
X148000000Y-129000000D01*
X164000000Y-130000000D02*
X164000000Y-129000000D01*
X158000000Y-130000000D02*
X158000000Y-129000000D01*
X147000000Y-130000000D02*
X147000000Y-129000000D01*
X156000000Y-130000000D02*
X156000000Y-127000000D01*
X163000000Y-130000000D02*
X163000000Y-129000000D01*
X161000000Y-130000000D02*
X161000000Y-128000000D01*
X162000000Y-130000000D02*
X162000000Y-129000000D01*
X152000000Y-130000000D02*
X152000000Y-129000000D01*
X151000000Y-130000000D02*
X151000000Y-128000000D01*
X160000000Y-130000000D02*
X160000000Y-129000000D01*
X157000000Y-130000000D02*
X157000000Y-129000000D01*
X153000000Y-130000000D02*
X153000000Y-129000000D01*
X150000000Y-130000000D02*
X150000000Y-129000000D01*
X166000000Y-130000000D02*
X166000000Y-127000000D01*
X165000000Y-130000000D02*
X165000000Y-129000000D01*
X154000000Y-130000000D02*
X154000000Y-129000000D01*
X155000000Y-130000000D02*
X155000000Y-129000000D01*
X159000000Y-130000000D02*
X159000000Y-129000000D01*
X136000000Y-130000000D02*
X136000000Y-127000000D01*
X142000000Y-130000000D02*
X142000000Y-129000000D01*
X135000000Y-130000000D02*
X135000000Y-129000000D01*
X128000000Y-130000000D02*
X128000000Y-129000000D01*
X144000000Y-130000000D02*
X144000000Y-129000000D01*
X134000000Y-130000000D02*
X134000000Y-129000000D01*
X139000000Y-130000000D02*
X139000000Y-129000000D01*
X132000000Y-130000000D02*
X132000000Y-129000000D01*
X130000000Y-130000000D02*
X130000000Y-129000000D01*
X140000000Y-130000000D02*
X140000000Y-129000000D01*
X137000000Y-130000000D02*
X137000000Y-129000000D01*
X141000000Y-130000000D02*
X141000000Y-128000000D01*
X133000000Y-130000000D02*
X133000000Y-129000000D01*
X129000000Y-130000000D02*
X129000000Y-129000000D01*
X145000000Y-130000000D02*
X145000000Y-129000000D01*
X146000000Y-130000000D02*
X146000000Y-127000000D01*
X143000000Y-130000000D02*
X143000000Y-129000000D01*
X127000000Y-130000000D02*
X127000000Y-129000000D01*
X138000000Y-130000000D02*
X138000000Y-129000000D01*
X131000000Y-130000000D02*
X131000000Y-128000000D01*
X111000000Y-130000000D02*
X111000000Y-128000000D01*
X118000000Y-130000000D02*
X118000000Y-129000000D01*
X116000000Y-130000000D02*
X116000000Y-127000000D01*
X122000000Y-130000000D02*
X122000000Y-129000000D01*
X113000000Y-130000000D02*
X113000000Y-129000000D01*
X124000000Y-130000000D02*
X124000000Y-129000000D01*
X109000000Y-130000000D02*
X109000000Y-129000000D01*
X110000000Y-130000000D02*
X110000000Y-129000000D01*
X114000000Y-130000000D02*
X114000000Y-129000000D01*
X125000000Y-130000000D02*
X125000000Y-129000000D01*
X120000000Y-130000000D02*
X120000000Y-129000000D01*
X115000000Y-130000000D02*
X115000000Y-129000000D01*
X126000000Y-130000000D02*
X126000000Y-127000000D01*
X117000000Y-130000000D02*
X117000000Y-129000000D01*
X112000000Y-130000000D02*
X112000000Y-129000000D01*
X119000000Y-130000000D02*
X119000000Y-129000000D01*
X121000000Y-130000000D02*
X121000000Y-128000000D01*
X123000000Y-130000000D02*
X123000000Y-129000000D01*
X107000000Y-130000000D02*
X107000000Y-129000000D01*
X108000000Y-130000000D02*
X108000000Y-129000000D01*
X106000000Y-130000000D02*
X106000000Y-127000000D01*
X105000000Y-130000000D02*
X105000000Y-129000000D01*
X104000000Y-130000000D02*
X104000000Y-129000000D01*
X103000000Y-130000000D02*
X103000000Y-129000000D01*
X102000000Y-130000000D02*
X102000000Y-129000000D01*
X101000000Y-130000000D02*
X101000000Y-128000000D01*
X100000000Y-130000000D02*
X100000000Y-129000000D01*
X99000000Y-130000000D02*
X99000000Y-129000000D01*
X98000000Y-130000000D02*
X98000000Y-129000000D01*
X97000000Y-130000000D02*
X97000000Y-129000000D01*
X96000000Y-130000000D02*
X96000000Y-127000000D01*
X95000000Y-130000000D02*
X95000000Y-129000000D01*
X94000000Y-130000000D02*
X94000000Y-129000000D01*
X93000000Y-130000000D02*
X93000000Y-129000000D01*
X92000000Y-130000000D02*
X92000000Y-129000000D01*
X91000000Y-130000000D02*
X91000000Y-128000000D01*
X90000000Y-130000000D02*
X90000000Y-129000000D01*
X89000000Y-130000000D02*
X89000000Y-129000000D01*
X88000000Y-130000000D02*
X88000000Y-129000000D01*
X87000000Y-130000000D02*
X87000000Y-129000000D01*
X86000000Y-127000000D02*
X86000000Y-127000000D01*
X86000000Y-130000000D02*
X86000000Y-127000000D01*
D11*
X90403749Y-111987382D02*
X91700652Y-111566031D01*
X90190623Y-116054190D02*
X91436366Y-116608817D01*
X87311054Y-108552552D02*
X87865630Y-107306839D01*
X88801919Y-109520718D02*
X89714345Y-108507395D01*
X89596708Y-117082875D02*
X90699901Y-117884381D01*
X90681839Y-113743154D02*
X92500028Y-113743154D01*
X89222436Y-109941300D02*
X90235824Y-109028809D01*
X87840935Y-108822591D02*
X88750027Y-107247957D01*
X90650717Y-114337050D02*
X92006882Y-114479639D01*
X88339708Y-109146446D02*
X89141232Y-108043260D01*
X89596708Y-110403511D02*
X90699901Y-109601923D01*
X90557691Y-114924467D02*
X91891528Y-115207977D01*
X86181312Y-108185527D02*
X86464823Y-106851684D01*
X89920621Y-116584090D02*
X91495224Y-117493182D01*
X90190623Y-111432165D02*
X91436366Y-110877524D01*
X85593960Y-108092457D02*
X85736484Y-106736293D01*
X90650717Y-113149259D02*
X92006882Y-113006735D01*
X86755773Y-108339405D02*
X87177188Y-107042572D01*
X90403749Y-115498953D02*
X91700652Y-115920344D01*
X89920621Y-110902283D02*
X91495224Y-109993191D01*
X90557691Y-112561842D02*
X91891528Y-112278333D01*
X89222436Y-117545047D02*
X90235824Y-118457500D01*
X87311054Y-118933784D02*
X87865630Y-120179527D01*
X86755773Y-119146910D02*
X87177188Y-120443788D01*
X87840935Y-118663783D02*
X88750027Y-120238359D01*
X85593960Y-119393859D02*
X85736484Y-120750043D01*
X88801919Y-117965585D02*
X89714345Y-118978959D01*
X88339708Y-118339863D02*
X89141232Y-119443069D01*
X86181312Y-119300826D02*
X86464823Y-120634663D01*
D10*
X164990000Y-99028700D02*
X164990000Y-99028700D01*
X164990000Y-98012700D02*
X164990000Y-99028700D01*
X172610000Y-99028700D02*
X172610000Y-99028700D01*
X175150000Y-100044700D02*
X175150000Y-100044700D01*
X175150000Y-98012700D02*
X175150000Y-100044700D01*
X170070000Y-98012700D02*
X170070000Y-99028700D01*
X172610000Y-98012700D02*
X172610000Y-99028700D01*
X167530000Y-99028700D02*
X167530000Y-99028700D01*
X167530000Y-98012700D02*
X167530000Y-99028700D01*
X170070000Y-99028700D02*
X170070000Y-99028700D01*
X162450000Y-98012700D02*
X162450000Y-100806700D01*
X159910000Y-98012700D02*
X159910000Y-99028700D01*
X149750000Y-100044700D02*
X149750000Y-100044700D01*
X139590000Y-99028700D02*
X139590000Y-99028700D01*
X142130000Y-99028700D02*
X142130000Y-99028700D01*
X144670000Y-98012700D02*
X144670000Y-99028700D01*
X157370000Y-98012700D02*
X157370000Y-99028700D01*
X154830000Y-99028700D02*
X154830000Y-99028700D01*
X142130000Y-98012700D02*
X142130000Y-99028700D01*
X152290000Y-99028700D02*
X152290000Y-99028700D01*
X154830000Y-98012700D02*
X154830000Y-99028700D01*
X159910000Y-99028700D02*
X159910000Y-99028700D01*
X144670000Y-99028700D02*
X144670000Y-99028700D01*
X149750000Y-98012700D02*
X149750000Y-100044700D01*
X147210000Y-99028700D02*
X147210000Y-99028700D01*
X162450000Y-100806700D02*
X162450000Y-101060700D01*
X162450000Y-101060700D02*
X162450000Y-101060700D01*
X147210000Y-98012700D02*
X147210000Y-99028700D01*
X152290000Y-98012700D02*
X152290000Y-99028700D01*
X139590000Y-98012700D02*
X139590000Y-99028700D01*
X157370000Y-99028700D02*
X157370000Y-99028700D01*
X116730000Y-98012700D02*
X116730000Y-99028700D01*
X119270000Y-98012700D02*
X119270000Y-99028700D01*
X114190000Y-98012700D02*
X114190000Y-99028700D01*
X114190000Y-99028700D02*
X114190000Y-99028700D01*
X116730000Y-99028700D02*
X116730000Y-99028700D01*
X137050000Y-101060700D02*
X137050000Y-101060700D01*
X137050000Y-100806700D02*
X137050000Y-101060700D01*
X134510000Y-99028700D02*
X134510000Y-99028700D01*
X137050000Y-98012700D02*
X137050000Y-100806700D01*
X131970000Y-99028700D02*
X131970000Y-99028700D01*
X131970000Y-98012700D02*
X131970000Y-99028700D01*
X129430000Y-99028700D02*
X129430000Y-99028700D01*
X134510000Y-98012700D02*
X134510000Y-99028700D01*
X126890000Y-99028700D02*
X126890000Y-99028700D01*
X129430000Y-98012700D02*
X129430000Y-99028700D01*
X124350000Y-100044700D02*
X124350000Y-100044700D01*
X126890000Y-98012700D02*
X126890000Y-99028700D01*
X121810000Y-99028700D02*
X121810000Y-99028700D01*
X119270000Y-99028700D02*
X119270000Y-99028700D01*
X121810000Y-98012700D02*
X121810000Y-99028700D01*
X124350000Y-98012700D02*
X124350000Y-100044700D01*
X111650000Y-101060700D02*
X111650000Y-101060700D01*
X111650000Y-100806700D02*
X111650000Y-101060700D01*
X111650000Y-98012700D02*
X111650000Y-100806700D01*
X109110000Y-99028700D02*
X109110000Y-99028700D01*
X109110000Y-98012700D02*
X109110000Y-99028700D01*
X106570000Y-99028700D02*
X106570000Y-99028700D01*
X106570000Y-98012700D02*
X106570000Y-99028700D01*
X104030000Y-99028700D02*
X104030000Y-99028700D01*
X104030000Y-98012700D02*
X104030000Y-99028700D01*
X101490000Y-99028700D02*
X101490000Y-99028700D01*
X101490000Y-98012700D02*
X101490000Y-99028700D01*
X98950000Y-100044700D02*
X98950000Y-100044700D01*
X98950000Y-98012700D02*
X98950000Y-100044700D01*
X96410000Y-99028700D02*
X96410000Y-99028700D01*
X96410000Y-98012700D02*
X96410000Y-99028700D01*
X93870000Y-99028700D02*
X93870000Y-99028700D01*
X93870000Y-98012700D02*
X93870000Y-99028700D01*
X91330000Y-99028700D02*
X91330000Y-99028700D01*
X91330000Y-98012700D02*
X91330000Y-99028700D01*
X88790000Y-99028700D02*
X88790000Y-99028700D01*
X88790000Y-98012700D02*
X88790000Y-99028700D01*
X86250000Y-98012700D02*
X86250000Y-101060700D01*
D12*
X128110000Y-104267000D03*
X128110000Y-105537000D03*
X128110000Y-106807000D03*
X128110000Y-108077000D03*
X120810000Y-108077000D03*
X120810000Y-106807000D03*
X120810000Y-105537000D03*
X120810000Y-104267000D03*
D13*
X118364000Y-125222000D03*
X118364000Y-122936000D03*
X118364000Y-120142000D03*
X118364000Y-116840000D03*
X118364000Y-113030000D03*
D11*
G36*
X120579603Y-124822963D02*
G01*
X120599018Y-124825843D01*
X120618057Y-124830612D01*
X120636537Y-124837224D01*
X120654279Y-124845616D01*
X120671114Y-124855706D01*
X120686879Y-124867398D01*
X120701421Y-124880579D01*
X120714602Y-124895121D01*
X120726294Y-124910886D01*
X120736384Y-124927721D01*
X120744776Y-124945463D01*
X120751388Y-124963943D01*
X120756157Y-124982982D01*
X120759037Y-125002397D01*
X120760000Y-125022000D01*
X120760000Y-125422000D01*
X120759037Y-125441603D01*
X120756157Y-125461018D01*
X120751388Y-125480057D01*
X120744776Y-125498537D01*
X120736384Y-125516279D01*
X120726294Y-125533114D01*
X120714602Y-125548879D01*
X120701421Y-125563421D01*
X120686879Y-125576602D01*
X120671114Y-125588294D01*
X120654279Y-125598384D01*
X120636537Y-125606776D01*
X120618057Y-125613388D01*
X120599018Y-125618157D01*
X120579603Y-125621037D01*
X120560000Y-125622000D01*
X120100000Y-125622000D01*
X120080397Y-125621037D01*
X120060982Y-125618157D01*
X120041943Y-125613388D01*
X120023463Y-125606776D01*
X120005721Y-125598384D01*
X119988886Y-125588294D01*
X119973121Y-125576602D01*
X119958579Y-125563421D01*
X119945398Y-125548879D01*
X119933706Y-125533114D01*
X119923616Y-125516279D01*
X119915224Y-125498537D01*
X119908612Y-125480057D01*
X119903843Y-125461018D01*
X119900963Y-125441603D01*
X119900000Y-125422000D01*
X119900000Y-125022000D01*
X119900963Y-125002397D01*
X119903843Y-124982982D01*
X119908612Y-124963943D01*
X119915224Y-124945463D01*
X119923616Y-124927721D01*
X119933706Y-124910886D01*
X119945398Y-124895121D01*
X119958579Y-124880579D01*
X119973121Y-124867398D01*
X119988886Y-124855706D01*
X120005721Y-124845616D01*
X120023463Y-124837224D01*
X120041943Y-124830612D01*
X120060982Y-124825843D01*
X120080397Y-124822963D01*
X120100000Y-124822000D01*
X120560000Y-124822000D01*
X120579603Y-124822963D01*
X120579603Y-124822963D01*
G37*
D14*
X120330000Y-125222000D03*
D11*
G36*
X121219603Y-124822963D02*
G01*
X121239018Y-124825843D01*
X121258057Y-124830612D01*
X121276537Y-124837224D01*
X121294279Y-124845616D01*
X121311114Y-124855706D01*
X121326879Y-124867398D01*
X121341421Y-124880579D01*
X121354602Y-124895121D01*
X121366294Y-124910886D01*
X121376384Y-124927721D01*
X121384776Y-124945463D01*
X121391388Y-124963943D01*
X121396157Y-124982982D01*
X121399037Y-125002397D01*
X121400000Y-125022000D01*
X121400000Y-125422000D01*
X121399037Y-125441603D01*
X121396157Y-125461018D01*
X121391388Y-125480057D01*
X121384776Y-125498537D01*
X121376384Y-125516279D01*
X121366294Y-125533114D01*
X121354602Y-125548879D01*
X121341421Y-125563421D01*
X121326879Y-125576602D01*
X121311114Y-125588294D01*
X121294279Y-125598384D01*
X121276537Y-125606776D01*
X121258057Y-125613388D01*
X121239018Y-125618157D01*
X121219603Y-125621037D01*
X121200000Y-125622000D01*
X120740000Y-125622000D01*
X120720397Y-125621037D01*
X120700982Y-125618157D01*
X120681943Y-125613388D01*
X120663463Y-125606776D01*
X120645721Y-125598384D01*
X120628886Y-125588294D01*
X120613121Y-125576602D01*
X120598579Y-125563421D01*
X120585398Y-125548879D01*
X120573706Y-125533114D01*
X120563616Y-125516279D01*
X120555224Y-125498537D01*
X120548612Y-125480057D01*
X120543843Y-125461018D01*
X120540963Y-125441603D01*
X120540000Y-125422000D01*
X120540000Y-125022000D01*
X120540963Y-125002397D01*
X120543843Y-124982982D01*
X120548612Y-124963943D01*
X120555224Y-124945463D01*
X120563616Y-124927721D01*
X120573706Y-124910886D01*
X120585398Y-124895121D01*
X120598579Y-124880579D01*
X120613121Y-124867398D01*
X120628886Y-124855706D01*
X120645721Y-124845616D01*
X120663463Y-124837224D01*
X120681943Y-124830612D01*
X120700982Y-124825843D01*
X120720397Y-124822963D01*
X120740000Y-124822000D01*
X121200000Y-124822000D01*
X121219603Y-124822963D01*
X121219603Y-124822963D01*
G37*
D14*
X120970000Y-125222000D03*
D11*
G36*
X120690759Y-122417192D02*
G01*
X120714785Y-122420756D01*
X120738345Y-122426657D01*
X120761214Y-122434840D01*
X120783171Y-122445224D01*
X120804004Y-122457711D01*
X120823512Y-122472180D01*
X120841509Y-122488491D01*
X120857820Y-122506488D01*
X120872289Y-122525996D01*
X120884776Y-122546829D01*
X120895160Y-122568786D01*
X120903343Y-122591655D01*
X120909244Y-122615215D01*
X120912808Y-122639241D01*
X120914000Y-122663500D01*
X120914000Y-123208500D01*
X120912808Y-123232759D01*
X120909244Y-123256785D01*
X120903343Y-123280345D01*
X120895160Y-123303214D01*
X120884776Y-123325171D01*
X120872289Y-123346004D01*
X120857820Y-123365512D01*
X120841509Y-123383509D01*
X120823512Y-123399820D01*
X120804004Y-123414289D01*
X120783171Y-123426776D01*
X120761214Y-123437160D01*
X120738345Y-123445343D01*
X120714785Y-123451244D01*
X120690759Y-123454808D01*
X120666500Y-123456000D01*
X120171500Y-123456000D01*
X120147241Y-123454808D01*
X120123215Y-123451244D01*
X120099655Y-123445343D01*
X120076786Y-123437160D01*
X120054829Y-123426776D01*
X120033996Y-123414289D01*
X120014488Y-123399820D01*
X119996491Y-123383509D01*
X119980180Y-123365512D01*
X119965711Y-123346004D01*
X119953224Y-123325171D01*
X119942840Y-123303214D01*
X119934657Y-123280345D01*
X119928756Y-123256785D01*
X119925192Y-123232759D01*
X119924000Y-123208500D01*
X119924000Y-122663500D01*
X119925192Y-122639241D01*
X119928756Y-122615215D01*
X119934657Y-122591655D01*
X119942840Y-122568786D01*
X119953224Y-122546829D01*
X119965711Y-122525996D01*
X119980180Y-122506488D01*
X119996491Y-122488491D01*
X120014488Y-122472180D01*
X120033996Y-122457711D01*
X120054829Y-122445224D01*
X120076786Y-122434840D01*
X120099655Y-122426657D01*
X120123215Y-122420756D01*
X120147241Y-122417192D01*
X120171500Y-122416000D01*
X120666500Y-122416000D01*
X120690759Y-122417192D01*
X120690759Y-122417192D01*
G37*
D15*
X120419000Y-122936000D03*
D11*
G36*
X121660759Y-122417192D02*
G01*
X121684785Y-122420756D01*
X121708345Y-122426657D01*
X121731214Y-122434840D01*
X121753171Y-122445224D01*
X121774004Y-122457711D01*
X121793512Y-122472180D01*
X121811509Y-122488491D01*
X121827820Y-122506488D01*
X121842289Y-122525996D01*
X121854776Y-122546829D01*
X121865160Y-122568786D01*
X121873343Y-122591655D01*
X121879244Y-122615215D01*
X121882808Y-122639241D01*
X121884000Y-122663500D01*
X121884000Y-123208500D01*
X121882808Y-123232759D01*
X121879244Y-123256785D01*
X121873343Y-123280345D01*
X121865160Y-123303214D01*
X121854776Y-123325171D01*
X121842289Y-123346004D01*
X121827820Y-123365512D01*
X121811509Y-123383509D01*
X121793512Y-123399820D01*
X121774004Y-123414289D01*
X121753171Y-123426776D01*
X121731214Y-123437160D01*
X121708345Y-123445343D01*
X121684785Y-123451244D01*
X121660759Y-123454808D01*
X121636500Y-123456000D01*
X121141500Y-123456000D01*
X121117241Y-123454808D01*
X121093215Y-123451244D01*
X121069655Y-123445343D01*
X121046786Y-123437160D01*
X121024829Y-123426776D01*
X121003996Y-123414289D01*
X120984488Y-123399820D01*
X120966491Y-123383509D01*
X120950180Y-123365512D01*
X120935711Y-123346004D01*
X120923224Y-123325171D01*
X120912840Y-123303214D01*
X120904657Y-123280345D01*
X120898756Y-123256785D01*
X120895192Y-123232759D01*
X120894000Y-123208500D01*
X120894000Y-122663500D01*
X120895192Y-122639241D01*
X120898756Y-122615215D01*
X120904657Y-122591655D01*
X120912840Y-122568786D01*
X120923224Y-122546829D01*
X120935711Y-122525996D01*
X120950180Y-122506488D01*
X120966491Y-122488491D01*
X120984488Y-122472180D01*
X121003996Y-122457711D01*
X121024829Y-122445224D01*
X121046786Y-122434840D01*
X121069655Y-122426657D01*
X121093215Y-122420756D01*
X121117241Y-122417192D01*
X121141500Y-122416000D01*
X121636500Y-122416000D01*
X121660759Y-122417192D01*
X121660759Y-122417192D01*
G37*
D15*
X121389000Y-122936000D03*
D11*
G36*
X121098581Y-119468625D02*
G01*
X121131343Y-119473485D01*
X121163471Y-119481533D01*
X121194656Y-119492691D01*
X121224596Y-119506852D01*
X121253005Y-119523879D01*
X121279608Y-119543609D01*
X121304149Y-119565851D01*
X121326391Y-119590392D01*
X121346121Y-119616995D01*
X121363148Y-119645404D01*
X121377309Y-119675344D01*
X121388467Y-119706529D01*
X121396515Y-119738657D01*
X121401375Y-119771419D01*
X121403000Y-119804500D01*
X121403000Y-120479500D01*
X121401375Y-120512581D01*
X121396515Y-120545343D01*
X121388467Y-120577471D01*
X121377309Y-120608656D01*
X121363148Y-120638596D01*
X121346121Y-120667005D01*
X121326391Y-120693608D01*
X121304149Y-120718149D01*
X121279608Y-120740391D01*
X121253005Y-120760121D01*
X121224596Y-120777148D01*
X121194656Y-120791309D01*
X121163471Y-120802467D01*
X121131343Y-120810515D01*
X121098581Y-120815375D01*
X121065500Y-120817000D01*
X120290500Y-120817000D01*
X120257419Y-120815375D01*
X120224657Y-120810515D01*
X120192529Y-120802467D01*
X120161344Y-120791309D01*
X120131404Y-120777148D01*
X120102995Y-120760121D01*
X120076392Y-120740391D01*
X120051851Y-120718149D01*
X120029609Y-120693608D01*
X120009879Y-120667005D01*
X119992852Y-120638596D01*
X119978691Y-120608656D01*
X119967533Y-120577471D01*
X119959485Y-120545343D01*
X119954625Y-120512581D01*
X119953000Y-120479500D01*
X119953000Y-119804500D01*
X119954625Y-119771419D01*
X119959485Y-119738657D01*
X119967533Y-119706529D01*
X119978691Y-119675344D01*
X119992852Y-119645404D01*
X120009879Y-119616995D01*
X120029609Y-119590392D01*
X120051851Y-119565851D01*
X120076392Y-119543609D01*
X120102995Y-119523879D01*
X120131404Y-119506852D01*
X120161344Y-119492691D01*
X120192529Y-119481533D01*
X120224657Y-119473485D01*
X120257419Y-119468625D01*
X120290500Y-119467000D01*
X121065500Y-119467000D01*
X121098581Y-119468625D01*
X121098581Y-119468625D01*
G37*
D16*
X120678000Y-120142000D03*
D11*
G36*
X122848581Y-119468625D02*
G01*
X122881343Y-119473485D01*
X122913471Y-119481533D01*
X122944656Y-119492691D01*
X122974596Y-119506852D01*
X123003005Y-119523879D01*
X123029608Y-119543609D01*
X123054149Y-119565851D01*
X123076391Y-119590392D01*
X123096121Y-119616995D01*
X123113148Y-119645404D01*
X123127309Y-119675344D01*
X123138467Y-119706529D01*
X123146515Y-119738657D01*
X123151375Y-119771419D01*
X123153000Y-119804500D01*
X123153000Y-120479500D01*
X123151375Y-120512581D01*
X123146515Y-120545343D01*
X123138467Y-120577471D01*
X123127309Y-120608656D01*
X123113148Y-120638596D01*
X123096121Y-120667005D01*
X123076391Y-120693608D01*
X123054149Y-120718149D01*
X123029608Y-120740391D01*
X123003005Y-120760121D01*
X122974596Y-120777148D01*
X122944656Y-120791309D01*
X122913471Y-120802467D01*
X122881343Y-120810515D01*
X122848581Y-120815375D01*
X122815500Y-120817000D01*
X122040500Y-120817000D01*
X122007419Y-120815375D01*
X121974657Y-120810515D01*
X121942529Y-120802467D01*
X121911344Y-120791309D01*
X121881404Y-120777148D01*
X121852995Y-120760121D01*
X121826392Y-120740391D01*
X121801851Y-120718149D01*
X121779609Y-120693608D01*
X121759879Y-120667005D01*
X121742852Y-120638596D01*
X121728691Y-120608656D01*
X121717533Y-120577471D01*
X121709485Y-120545343D01*
X121704625Y-120512581D01*
X121703000Y-120479500D01*
X121703000Y-119804500D01*
X121704625Y-119771419D01*
X121709485Y-119738657D01*
X121717533Y-119706529D01*
X121728691Y-119675344D01*
X121742852Y-119645404D01*
X121759879Y-119616995D01*
X121779609Y-119590392D01*
X121801851Y-119565851D01*
X121826392Y-119543609D01*
X121852995Y-119523879D01*
X121881404Y-119506852D01*
X121911344Y-119492691D01*
X121942529Y-119481533D01*
X121974657Y-119473485D01*
X122007419Y-119468625D01*
X122040500Y-119467000D01*
X122815500Y-119467000D01*
X122848581Y-119468625D01*
X122848581Y-119468625D01*
G37*
D16*
X122428000Y-120142000D03*
D11*
G36*
X121112071Y-115941623D02*
G01*
X121144781Y-115946475D01*
X121176857Y-115954509D01*
X121207991Y-115965649D01*
X121237884Y-115979787D01*
X121266247Y-115996787D01*
X121292807Y-116016485D01*
X121317308Y-116038692D01*
X121339515Y-116063193D01*
X121359213Y-116089753D01*
X121376213Y-116118116D01*
X121390351Y-116148009D01*
X121401491Y-116179143D01*
X121409525Y-116211219D01*
X121414377Y-116243929D01*
X121416000Y-116276956D01*
X121416000Y-117403044D01*
X121414377Y-117436071D01*
X121409525Y-117468781D01*
X121401491Y-117500857D01*
X121390351Y-117531991D01*
X121376213Y-117561884D01*
X121359213Y-117590247D01*
X121339515Y-117616807D01*
X121317308Y-117641308D01*
X121292807Y-117663515D01*
X121266247Y-117683213D01*
X121237884Y-117700213D01*
X121207991Y-117714351D01*
X121176857Y-117725491D01*
X121144781Y-117733525D01*
X121112071Y-117738377D01*
X121079044Y-117740000D01*
X120202956Y-117740000D01*
X120169929Y-117738377D01*
X120137219Y-117733525D01*
X120105143Y-117725491D01*
X120074009Y-117714351D01*
X120044116Y-117700213D01*
X120015753Y-117683213D01*
X119989193Y-117663515D01*
X119964692Y-117641308D01*
X119942485Y-117616807D01*
X119922787Y-117590247D01*
X119905787Y-117561884D01*
X119891649Y-117531991D01*
X119880509Y-117500857D01*
X119872475Y-117468781D01*
X119867623Y-117436071D01*
X119866000Y-117403044D01*
X119866000Y-116276956D01*
X119867623Y-116243929D01*
X119872475Y-116211219D01*
X119880509Y-116179143D01*
X119891649Y-116148009D01*
X119905787Y-116118116D01*
X119922787Y-116089753D01*
X119942485Y-116063193D01*
X119964692Y-116038692D01*
X119989193Y-116016485D01*
X120015753Y-115996787D01*
X120044116Y-115979787D01*
X120074009Y-115965649D01*
X120105143Y-115954509D01*
X120137219Y-115946475D01*
X120169929Y-115941623D01*
X120202956Y-115940000D01*
X121079044Y-115940000D01*
X121112071Y-115941623D01*
X121112071Y-115941623D01*
G37*
D17*
X120641000Y-116840000D03*
D11*
G36*
X123162071Y-115941623D02*
G01*
X123194781Y-115946475D01*
X123226857Y-115954509D01*
X123257991Y-115965649D01*
X123287884Y-115979787D01*
X123316247Y-115996787D01*
X123342807Y-116016485D01*
X123367308Y-116038692D01*
X123389515Y-116063193D01*
X123409213Y-116089753D01*
X123426213Y-116118116D01*
X123440351Y-116148009D01*
X123451491Y-116179143D01*
X123459525Y-116211219D01*
X123464377Y-116243929D01*
X123466000Y-116276956D01*
X123466000Y-117403044D01*
X123464377Y-117436071D01*
X123459525Y-117468781D01*
X123451491Y-117500857D01*
X123440351Y-117531991D01*
X123426213Y-117561884D01*
X123409213Y-117590247D01*
X123389515Y-117616807D01*
X123367308Y-117641308D01*
X123342807Y-117663515D01*
X123316247Y-117683213D01*
X123287884Y-117700213D01*
X123257991Y-117714351D01*
X123226857Y-117725491D01*
X123194781Y-117733525D01*
X123162071Y-117738377D01*
X123129044Y-117740000D01*
X122252956Y-117740000D01*
X122219929Y-117738377D01*
X122187219Y-117733525D01*
X122155143Y-117725491D01*
X122124009Y-117714351D01*
X122094116Y-117700213D01*
X122065753Y-117683213D01*
X122039193Y-117663515D01*
X122014692Y-117641308D01*
X121992485Y-117616807D01*
X121972787Y-117590247D01*
X121955787Y-117561884D01*
X121941649Y-117531991D01*
X121930509Y-117500857D01*
X121922475Y-117468781D01*
X121917623Y-117436071D01*
X121916000Y-117403044D01*
X121916000Y-116276956D01*
X121917623Y-116243929D01*
X121922475Y-116211219D01*
X121930509Y-116179143D01*
X121941649Y-116148009D01*
X121955787Y-116118116D01*
X121972787Y-116089753D01*
X121992485Y-116063193D01*
X122014692Y-116038692D01*
X122039193Y-116016485D01*
X122065753Y-115996787D01*
X122094116Y-115979787D01*
X122124009Y-115965649D01*
X122155143Y-115954509D01*
X122187219Y-115946475D01*
X122219929Y-115941623D01*
X122252956Y-115940000D01*
X123129044Y-115940000D01*
X123162071Y-115941623D01*
X123162071Y-115941623D01*
G37*
D17*
X122691000Y-116840000D03*
D11*
G36*
X121346707Y-111956542D02*
G01*
X121377787Y-111961152D01*
X121408266Y-111968787D01*
X121437850Y-111979372D01*
X121466254Y-111992806D01*
X121493204Y-112008959D01*
X121518442Y-112027677D01*
X121541723Y-112048777D01*
X121562823Y-112072058D01*
X121581541Y-112097296D01*
X121597694Y-112124246D01*
X121611128Y-112152650D01*
X121621713Y-112182234D01*
X121629348Y-112212713D01*
X121633958Y-112243793D01*
X121635500Y-112275176D01*
X121635500Y-113784824D01*
X121633958Y-113816207D01*
X121629348Y-113847287D01*
X121621713Y-113877766D01*
X121611128Y-113907350D01*
X121597694Y-113935754D01*
X121581541Y-113962704D01*
X121562823Y-113987942D01*
X121541723Y-114011223D01*
X121518442Y-114032323D01*
X121493204Y-114051041D01*
X121466254Y-114067194D01*
X121437850Y-114080628D01*
X121408266Y-114091213D01*
X121377787Y-114098848D01*
X121346707Y-114103458D01*
X121315324Y-114105000D01*
X120130676Y-114105000D01*
X120099293Y-114103458D01*
X120068213Y-114098848D01*
X120037734Y-114091213D01*
X120008150Y-114080628D01*
X119979746Y-114067194D01*
X119952796Y-114051041D01*
X119927558Y-114032323D01*
X119904277Y-114011223D01*
X119883177Y-113987942D01*
X119864459Y-113962704D01*
X119848306Y-113935754D01*
X119834872Y-113907350D01*
X119824287Y-113877766D01*
X119816652Y-113847287D01*
X119812042Y-113816207D01*
X119810500Y-113784824D01*
X119810500Y-112275176D01*
X119812042Y-112243793D01*
X119816652Y-112212713D01*
X119824287Y-112182234D01*
X119834872Y-112152650D01*
X119848306Y-112124246D01*
X119864459Y-112097296D01*
X119883177Y-112072058D01*
X119904277Y-112048777D01*
X119927558Y-112027677D01*
X119952796Y-112008959D01*
X119979746Y-111992806D01*
X120008150Y-111979372D01*
X120037734Y-111968787D01*
X120068213Y-111961152D01*
X120099293Y-111956542D01*
X120130676Y-111955000D01*
X121315324Y-111955000D01*
X121346707Y-111956542D01*
X121346707Y-111956542D01*
G37*
D18*
X120723000Y-113030000D03*
D11*
G36*
X124321707Y-111956542D02*
G01*
X124352787Y-111961152D01*
X124383266Y-111968787D01*
X124412850Y-111979372D01*
X124441254Y-111992806D01*
X124468204Y-112008959D01*
X124493442Y-112027677D01*
X124516723Y-112048777D01*
X124537823Y-112072058D01*
X124556541Y-112097296D01*
X124572694Y-112124246D01*
X124586128Y-112152650D01*
X124596713Y-112182234D01*
X124604348Y-112212713D01*
X124608958Y-112243793D01*
X124610500Y-112275176D01*
X124610500Y-113784824D01*
X124608958Y-113816207D01*
X124604348Y-113847287D01*
X124596713Y-113877766D01*
X124586128Y-113907350D01*
X124572694Y-113935754D01*
X124556541Y-113962704D01*
X124537823Y-113987942D01*
X124516723Y-114011223D01*
X124493442Y-114032323D01*
X124468204Y-114051041D01*
X124441254Y-114067194D01*
X124412850Y-114080628D01*
X124383266Y-114091213D01*
X124352787Y-114098848D01*
X124321707Y-114103458D01*
X124290324Y-114105000D01*
X123105676Y-114105000D01*
X123074293Y-114103458D01*
X123043213Y-114098848D01*
X123012734Y-114091213D01*
X122983150Y-114080628D01*
X122954746Y-114067194D01*
X122927796Y-114051041D01*
X122902558Y-114032323D01*
X122879277Y-114011223D01*
X122858177Y-113987942D01*
X122839459Y-113962704D01*
X122823306Y-113935754D01*
X122809872Y-113907350D01*
X122799287Y-113877766D01*
X122791652Y-113847287D01*
X122787042Y-113816207D01*
X122785500Y-113784824D01*
X122785500Y-112275176D01*
X122787042Y-112243793D01*
X122791652Y-112212713D01*
X122799287Y-112182234D01*
X122809872Y-112152650D01*
X122823306Y-112124246D01*
X122839459Y-112097296D01*
X122858177Y-112072058D01*
X122879277Y-112048777D01*
X122902558Y-112027677D01*
X122927796Y-112008959D01*
X122954746Y-111992806D01*
X122983150Y-111979372D01*
X123012734Y-111968787D01*
X123043213Y-111961152D01*
X123074293Y-111956542D01*
X123105676Y-111955000D01*
X124290324Y-111955000D01*
X124321707Y-111956542D01*
X124321707Y-111956542D01*
G37*
D18*
X123698000Y-113030000D03*
D19*
X93980000Y-106172000D03*
X91440000Y-106172000D03*
X93980000Y-103632000D03*
X91440000Y-103632000D03*
X93980000Y-101092000D03*
D20*
X91440000Y-101092000D03*
D11*
G36*
X127945603Y-124822963D02*
G01*
X127965018Y-124825843D01*
X127984057Y-124830612D01*
X128002537Y-124837224D01*
X128020279Y-124845616D01*
X128037114Y-124855706D01*
X128052879Y-124867398D01*
X128067421Y-124880579D01*
X128080602Y-124895121D01*
X128092294Y-124910886D01*
X128102384Y-124927721D01*
X128110776Y-124945463D01*
X128117388Y-124963943D01*
X128122157Y-124982982D01*
X128125037Y-125002397D01*
X128126000Y-125022000D01*
X128126000Y-125422000D01*
X128125037Y-125441603D01*
X128122157Y-125461018D01*
X128117388Y-125480057D01*
X128110776Y-125498537D01*
X128102384Y-125516279D01*
X128092294Y-125533114D01*
X128080602Y-125548879D01*
X128067421Y-125563421D01*
X128052879Y-125576602D01*
X128037114Y-125588294D01*
X128020279Y-125598384D01*
X128002537Y-125606776D01*
X127984057Y-125613388D01*
X127965018Y-125618157D01*
X127945603Y-125621037D01*
X127926000Y-125622000D01*
X127466000Y-125622000D01*
X127446397Y-125621037D01*
X127426982Y-125618157D01*
X127407943Y-125613388D01*
X127389463Y-125606776D01*
X127371721Y-125598384D01*
X127354886Y-125588294D01*
X127339121Y-125576602D01*
X127324579Y-125563421D01*
X127311398Y-125548879D01*
X127299706Y-125533114D01*
X127289616Y-125516279D01*
X127281224Y-125498537D01*
X127274612Y-125480057D01*
X127269843Y-125461018D01*
X127266963Y-125441603D01*
X127266000Y-125422000D01*
X127266000Y-125022000D01*
X127266963Y-125002397D01*
X127269843Y-124982982D01*
X127274612Y-124963943D01*
X127281224Y-124945463D01*
X127289616Y-124927721D01*
X127299706Y-124910886D01*
X127311398Y-124895121D01*
X127324579Y-124880579D01*
X127339121Y-124867398D01*
X127354886Y-124855706D01*
X127371721Y-124845616D01*
X127389463Y-124837224D01*
X127407943Y-124830612D01*
X127426982Y-124825843D01*
X127446397Y-124822963D01*
X127466000Y-124822000D01*
X127926000Y-124822000D01*
X127945603Y-124822963D01*
X127945603Y-124822963D01*
G37*
D14*
X127696000Y-125222000D03*
D11*
G36*
X128585603Y-124822963D02*
G01*
X128605018Y-124825843D01*
X128624057Y-124830612D01*
X128642537Y-124837224D01*
X128660279Y-124845616D01*
X128677114Y-124855706D01*
X128692879Y-124867398D01*
X128707421Y-124880579D01*
X128720602Y-124895121D01*
X128732294Y-124910886D01*
X128742384Y-124927721D01*
X128750776Y-124945463D01*
X128757388Y-124963943D01*
X128762157Y-124982982D01*
X128765037Y-125002397D01*
X128766000Y-125022000D01*
X128766000Y-125422000D01*
X128765037Y-125441603D01*
X128762157Y-125461018D01*
X128757388Y-125480057D01*
X128750776Y-125498537D01*
X128742384Y-125516279D01*
X128732294Y-125533114D01*
X128720602Y-125548879D01*
X128707421Y-125563421D01*
X128692879Y-125576602D01*
X128677114Y-125588294D01*
X128660279Y-125598384D01*
X128642537Y-125606776D01*
X128624057Y-125613388D01*
X128605018Y-125618157D01*
X128585603Y-125621037D01*
X128566000Y-125622000D01*
X128106000Y-125622000D01*
X128086397Y-125621037D01*
X128066982Y-125618157D01*
X128047943Y-125613388D01*
X128029463Y-125606776D01*
X128011721Y-125598384D01*
X127994886Y-125588294D01*
X127979121Y-125576602D01*
X127964579Y-125563421D01*
X127951398Y-125548879D01*
X127939706Y-125533114D01*
X127929616Y-125516279D01*
X127921224Y-125498537D01*
X127914612Y-125480057D01*
X127909843Y-125461018D01*
X127906963Y-125441603D01*
X127906000Y-125422000D01*
X127906000Y-125022000D01*
X127906963Y-125002397D01*
X127909843Y-124982982D01*
X127914612Y-124963943D01*
X127921224Y-124945463D01*
X127929616Y-124927721D01*
X127939706Y-124910886D01*
X127951398Y-124895121D01*
X127964579Y-124880579D01*
X127979121Y-124867398D01*
X127994886Y-124855706D01*
X128011721Y-124845616D01*
X128029463Y-124837224D01*
X128047943Y-124830612D01*
X128066982Y-124825843D01*
X128086397Y-124822963D01*
X128106000Y-124822000D01*
X128566000Y-124822000D01*
X128585603Y-124822963D01*
X128585603Y-124822963D01*
G37*
D14*
X128336000Y-125222000D03*
D11*
G36*
X127802759Y-122417192D02*
G01*
X127826785Y-122420756D01*
X127850345Y-122426657D01*
X127873214Y-122434840D01*
X127895171Y-122445224D01*
X127916004Y-122457711D01*
X127935512Y-122472180D01*
X127953509Y-122488491D01*
X127969820Y-122506488D01*
X127984289Y-122525996D01*
X127996776Y-122546829D01*
X128007160Y-122568786D01*
X128015343Y-122591655D01*
X128021244Y-122615215D01*
X128024808Y-122639241D01*
X128026000Y-122663500D01*
X128026000Y-123208500D01*
X128024808Y-123232759D01*
X128021244Y-123256785D01*
X128015343Y-123280345D01*
X128007160Y-123303214D01*
X127996776Y-123325171D01*
X127984289Y-123346004D01*
X127969820Y-123365512D01*
X127953509Y-123383509D01*
X127935512Y-123399820D01*
X127916004Y-123414289D01*
X127895171Y-123426776D01*
X127873214Y-123437160D01*
X127850345Y-123445343D01*
X127826785Y-123451244D01*
X127802759Y-123454808D01*
X127778500Y-123456000D01*
X127283500Y-123456000D01*
X127259241Y-123454808D01*
X127235215Y-123451244D01*
X127211655Y-123445343D01*
X127188786Y-123437160D01*
X127166829Y-123426776D01*
X127145996Y-123414289D01*
X127126488Y-123399820D01*
X127108491Y-123383509D01*
X127092180Y-123365512D01*
X127077711Y-123346004D01*
X127065224Y-123325171D01*
X127054840Y-123303214D01*
X127046657Y-123280345D01*
X127040756Y-123256785D01*
X127037192Y-123232759D01*
X127036000Y-123208500D01*
X127036000Y-122663500D01*
X127037192Y-122639241D01*
X127040756Y-122615215D01*
X127046657Y-122591655D01*
X127054840Y-122568786D01*
X127065224Y-122546829D01*
X127077711Y-122525996D01*
X127092180Y-122506488D01*
X127108491Y-122488491D01*
X127126488Y-122472180D01*
X127145996Y-122457711D01*
X127166829Y-122445224D01*
X127188786Y-122434840D01*
X127211655Y-122426657D01*
X127235215Y-122420756D01*
X127259241Y-122417192D01*
X127283500Y-122416000D01*
X127778500Y-122416000D01*
X127802759Y-122417192D01*
X127802759Y-122417192D01*
G37*
D15*
X127531000Y-122936000D03*
D11*
G36*
X128772759Y-122417192D02*
G01*
X128796785Y-122420756D01*
X128820345Y-122426657D01*
X128843214Y-122434840D01*
X128865171Y-122445224D01*
X128886004Y-122457711D01*
X128905512Y-122472180D01*
X128923509Y-122488491D01*
X128939820Y-122506488D01*
X128954289Y-122525996D01*
X128966776Y-122546829D01*
X128977160Y-122568786D01*
X128985343Y-122591655D01*
X128991244Y-122615215D01*
X128994808Y-122639241D01*
X128996000Y-122663500D01*
X128996000Y-123208500D01*
X128994808Y-123232759D01*
X128991244Y-123256785D01*
X128985343Y-123280345D01*
X128977160Y-123303214D01*
X128966776Y-123325171D01*
X128954289Y-123346004D01*
X128939820Y-123365512D01*
X128923509Y-123383509D01*
X128905512Y-123399820D01*
X128886004Y-123414289D01*
X128865171Y-123426776D01*
X128843214Y-123437160D01*
X128820345Y-123445343D01*
X128796785Y-123451244D01*
X128772759Y-123454808D01*
X128748500Y-123456000D01*
X128253500Y-123456000D01*
X128229241Y-123454808D01*
X128205215Y-123451244D01*
X128181655Y-123445343D01*
X128158786Y-123437160D01*
X128136829Y-123426776D01*
X128115996Y-123414289D01*
X128096488Y-123399820D01*
X128078491Y-123383509D01*
X128062180Y-123365512D01*
X128047711Y-123346004D01*
X128035224Y-123325171D01*
X128024840Y-123303214D01*
X128016657Y-123280345D01*
X128010756Y-123256785D01*
X128007192Y-123232759D01*
X128006000Y-123208500D01*
X128006000Y-122663500D01*
X128007192Y-122639241D01*
X128010756Y-122615215D01*
X128016657Y-122591655D01*
X128024840Y-122568786D01*
X128035224Y-122546829D01*
X128047711Y-122525996D01*
X128062180Y-122506488D01*
X128078491Y-122488491D01*
X128096488Y-122472180D01*
X128115996Y-122457711D01*
X128136829Y-122445224D01*
X128158786Y-122434840D01*
X128181655Y-122426657D01*
X128205215Y-122420756D01*
X128229241Y-122417192D01*
X128253500Y-122416000D01*
X128748500Y-122416000D01*
X128772759Y-122417192D01*
X128772759Y-122417192D01*
G37*
D15*
X128501000Y-122936000D03*
D11*
G36*
X127561581Y-119468625D02*
G01*
X127594343Y-119473485D01*
X127626471Y-119481533D01*
X127657656Y-119492691D01*
X127687596Y-119506852D01*
X127716005Y-119523879D01*
X127742608Y-119543609D01*
X127767149Y-119565851D01*
X127789391Y-119590392D01*
X127809121Y-119616995D01*
X127826148Y-119645404D01*
X127840309Y-119675344D01*
X127851467Y-119706529D01*
X127859515Y-119738657D01*
X127864375Y-119771419D01*
X127866000Y-119804500D01*
X127866000Y-120479500D01*
X127864375Y-120512581D01*
X127859515Y-120545343D01*
X127851467Y-120577471D01*
X127840309Y-120608656D01*
X127826148Y-120638596D01*
X127809121Y-120667005D01*
X127789391Y-120693608D01*
X127767149Y-120718149D01*
X127742608Y-120740391D01*
X127716005Y-120760121D01*
X127687596Y-120777148D01*
X127657656Y-120791309D01*
X127626471Y-120802467D01*
X127594343Y-120810515D01*
X127561581Y-120815375D01*
X127528500Y-120817000D01*
X126753500Y-120817000D01*
X126720419Y-120815375D01*
X126687657Y-120810515D01*
X126655529Y-120802467D01*
X126624344Y-120791309D01*
X126594404Y-120777148D01*
X126565995Y-120760121D01*
X126539392Y-120740391D01*
X126514851Y-120718149D01*
X126492609Y-120693608D01*
X126472879Y-120667005D01*
X126455852Y-120638596D01*
X126441691Y-120608656D01*
X126430533Y-120577471D01*
X126422485Y-120545343D01*
X126417625Y-120512581D01*
X126416000Y-120479500D01*
X126416000Y-119804500D01*
X126417625Y-119771419D01*
X126422485Y-119738657D01*
X126430533Y-119706529D01*
X126441691Y-119675344D01*
X126455852Y-119645404D01*
X126472879Y-119616995D01*
X126492609Y-119590392D01*
X126514851Y-119565851D01*
X126539392Y-119543609D01*
X126565995Y-119523879D01*
X126594404Y-119506852D01*
X126624344Y-119492691D01*
X126655529Y-119481533D01*
X126687657Y-119473485D01*
X126720419Y-119468625D01*
X126753500Y-119467000D01*
X127528500Y-119467000D01*
X127561581Y-119468625D01*
X127561581Y-119468625D01*
G37*
D16*
X127141000Y-120142000D03*
D11*
G36*
X129311581Y-119468625D02*
G01*
X129344343Y-119473485D01*
X129376471Y-119481533D01*
X129407656Y-119492691D01*
X129437596Y-119506852D01*
X129466005Y-119523879D01*
X129492608Y-119543609D01*
X129517149Y-119565851D01*
X129539391Y-119590392D01*
X129559121Y-119616995D01*
X129576148Y-119645404D01*
X129590309Y-119675344D01*
X129601467Y-119706529D01*
X129609515Y-119738657D01*
X129614375Y-119771419D01*
X129616000Y-119804500D01*
X129616000Y-120479500D01*
X129614375Y-120512581D01*
X129609515Y-120545343D01*
X129601467Y-120577471D01*
X129590309Y-120608656D01*
X129576148Y-120638596D01*
X129559121Y-120667005D01*
X129539391Y-120693608D01*
X129517149Y-120718149D01*
X129492608Y-120740391D01*
X129466005Y-120760121D01*
X129437596Y-120777148D01*
X129407656Y-120791309D01*
X129376471Y-120802467D01*
X129344343Y-120810515D01*
X129311581Y-120815375D01*
X129278500Y-120817000D01*
X128503500Y-120817000D01*
X128470419Y-120815375D01*
X128437657Y-120810515D01*
X128405529Y-120802467D01*
X128374344Y-120791309D01*
X128344404Y-120777148D01*
X128315995Y-120760121D01*
X128289392Y-120740391D01*
X128264851Y-120718149D01*
X128242609Y-120693608D01*
X128222879Y-120667005D01*
X128205852Y-120638596D01*
X128191691Y-120608656D01*
X128180533Y-120577471D01*
X128172485Y-120545343D01*
X128167625Y-120512581D01*
X128166000Y-120479500D01*
X128166000Y-119804500D01*
X128167625Y-119771419D01*
X128172485Y-119738657D01*
X128180533Y-119706529D01*
X128191691Y-119675344D01*
X128205852Y-119645404D01*
X128222879Y-119616995D01*
X128242609Y-119590392D01*
X128264851Y-119565851D01*
X128289392Y-119543609D01*
X128315995Y-119523879D01*
X128344404Y-119506852D01*
X128374344Y-119492691D01*
X128405529Y-119481533D01*
X128437657Y-119473485D01*
X128470419Y-119468625D01*
X128503500Y-119467000D01*
X129278500Y-119467000D01*
X129311581Y-119468625D01*
X129311581Y-119468625D01*
G37*
D16*
X128891000Y-120142000D03*
D11*
G36*
X127471071Y-115941623D02*
G01*
X127503781Y-115946475D01*
X127535857Y-115954509D01*
X127566991Y-115965649D01*
X127596884Y-115979787D01*
X127625247Y-115996787D01*
X127651807Y-116016485D01*
X127676308Y-116038692D01*
X127698515Y-116063193D01*
X127718213Y-116089753D01*
X127735213Y-116118116D01*
X127749351Y-116148009D01*
X127760491Y-116179143D01*
X127768525Y-116211219D01*
X127773377Y-116243929D01*
X127775000Y-116276956D01*
X127775000Y-117403044D01*
X127773377Y-117436071D01*
X127768525Y-117468781D01*
X127760491Y-117500857D01*
X127749351Y-117531991D01*
X127735213Y-117561884D01*
X127718213Y-117590247D01*
X127698515Y-117616807D01*
X127676308Y-117641308D01*
X127651807Y-117663515D01*
X127625247Y-117683213D01*
X127596884Y-117700213D01*
X127566991Y-117714351D01*
X127535857Y-117725491D01*
X127503781Y-117733525D01*
X127471071Y-117738377D01*
X127438044Y-117740000D01*
X126561956Y-117740000D01*
X126528929Y-117738377D01*
X126496219Y-117733525D01*
X126464143Y-117725491D01*
X126433009Y-117714351D01*
X126403116Y-117700213D01*
X126374753Y-117683213D01*
X126348193Y-117663515D01*
X126323692Y-117641308D01*
X126301485Y-117616807D01*
X126281787Y-117590247D01*
X126264787Y-117561884D01*
X126250649Y-117531991D01*
X126239509Y-117500857D01*
X126231475Y-117468781D01*
X126226623Y-117436071D01*
X126225000Y-117403044D01*
X126225000Y-116276956D01*
X126226623Y-116243929D01*
X126231475Y-116211219D01*
X126239509Y-116179143D01*
X126250649Y-116148009D01*
X126264787Y-116118116D01*
X126281787Y-116089753D01*
X126301485Y-116063193D01*
X126323692Y-116038692D01*
X126348193Y-116016485D01*
X126374753Y-115996787D01*
X126403116Y-115979787D01*
X126433009Y-115965649D01*
X126464143Y-115954509D01*
X126496219Y-115946475D01*
X126528929Y-115941623D01*
X126561956Y-115940000D01*
X127438044Y-115940000D01*
X127471071Y-115941623D01*
X127471071Y-115941623D01*
G37*
D17*
X127000000Y-116840000D03*
D11*
G36*
X129521071Y-115941623D02*
G01*
X129553781Y-115946475D01*
X129585857Y-115954509D01*
X129616991Y-115965649D01*
X129646884Y-115979787D01*
X129675247Y-115996787D01*
X129701807Y-116016485D01*
X129726308Y-116038692D01*
X129748515Y-116063193D01*
X129768213Y-116089753D01*
X129785213Y-116118116D01*
X129799351Y-116148009D01*
X129810491Y-116179143D01*
X129818525Y-116211219D01*
X129823377Y-116243929D01*
X129825000Y-116276956D01*
X129825000Y-117403044D01*
X129823377Y-117436071D01*
X129818525Y-117468781D01*
X129810491Y-117500857D01*
X129799351Y-117531991D01*
X129785213Y-117561884D01*
X129768213Y-117590247D01*
X129748515Y-117616807D01*
X129726308Y-117641308D01*
X129701807Y-117663515D01*
X129675247Y-117683213D01*
X129646884Y-117700213D01*
X129616991Y-117714351D01*
X129585857Y-117725491D01*
X129553781Y-117733525D01*
X129521071Y-117738377D01*
X129488044Y-117740000D01*
X128611956Y-117740000D01*
X128578929Y-117738377D01*
X128546219Y-117733525D01*
X128514143Y-117725491D01*
X128483009Y-117714351D01*
X128453116Y-117700213D01*
X128424753Y-117683213D01*
X128398193Y-117663515D01*
X128373692Y-117641308D01*
X128351485Y-117616807D01*
X128331787Y-117590247D01*
X128314787Y-117561884D01*
X128300649Y-117531991D01*
X128289509Y-117500857D01*
X128281475Y-117468781D01*
X128276623Y-117436071D01*
X128275000Y-117403044D01*
X128275000Y-116276956D01*
X128276623Y-116243929D01*
X128281475Y-116211219D01*
X128289509Y-116179143D01*
X128300649Y-116148009D01*
X128314787Y-116118116D01*
X128331787Y-116089753D01*
X128351485Y-116063193D01*
X128373692Y-116038692D01*
X128398193Y-116016485D01*
X128424753Y-115996787D01*
X128453116Y-115979787D01*
X128483009Y-115965649D01*
X128514143Y-115954509D01*
X128546219Y-115946475D01*
X128578929Y-115941623D01*
X128611956Y-115940000D01*
X129488044Y-115940000D01*
X129521071Y-115941623D01*
X129521071Y-115941623D01*
G37*
D17*
X129050000Y-116840000D03*
D11*
G36*
X127115707Y-111956542D02*
G01*
X127146787Y-111961152D01*
X127177266Y-111968787D01*
X127206850Y-111979372D01*
X127235254Y-111992806D01*
X127262204Y-112008959D01*
X127287442Y-112027677D01*
X127310723Y-112048777D01*
X127331823Y-112072058D01*
X127350541Y-112097296D01*
X127366694Y-112124246D01*
X127380128Y-112152650D01*
X127390713Y-112182234D01*
X127398348Y-112212713D01*
X127402958Y-112243793D01*
X127404500Y-112275176D01*
X127404500Y-113784824D01*
X127402958Y-113816207D01*
X127398348Y-113847287D01*
X127390713Y-113877766D01*
X127380128Y-113907350D01*
X127366694Y-113935754D01*
X127350541Y-113962704D01*
X127331823Y-113987942D01*
X127310723Y-114011223D01*
X127287442Y-114032323D01*
X127262204Y-114051041D01*
X127235254Y-114067194D01*
X127206850Y-114080628D01*
X127177266Y-114091213D01*
X127146787Y-114098848D01*
X127115707Y-114103458D01*
X127084324Y-114105000D01*
X125899676Y-114105000D01*
X125868293Y-114103458D01*
X125837213Y-114098848D01*
X125806734Y-114091213D01*
X125777150Y-114080628D01*
X125748746Y-114067194D01*
X125721796Y-114051041D01*
X125696558Y-114032323D01*
X125673277Y-114011223D01*
X125652177Y-113987942D01*
X125633459Y-113962704D01*
X125617306Y-113935754D01*
X125603872Y-113907350D01*
X125593287Y-113877766D01*
X125585652Y-113847287D01*
X125581042Y-113816207D01*
X125579500Y-113784824D01*
X125579500Y-112275176D01*
X125581042Y-112243793D01*
X125585652Y-112212713D01*
X125593287Y-112182234D01*
X125603872Y-112152650D01*
X125617306Y-112124246D01*
X125633459Y-112097296D01*
X125652177Y-112072058D01*
X125673277Y-112048777D01*
X125696558Y-112027677D01*
X125721796Y-112008959D01*
X125748746Y-111992806D01*
X125777150Y-111979372D01*
X125806734Y-111968787D01*
X125837213Y-111961152D01*
X125868293Y-111956542D01*
X125899676Y-111955000D01*
X127084324Y-111955000D01*
X127115707Y-111956542D01*
X127115707Y-111956542D01*
G37*
D18*
X126492000Y-113030000D03*
D11*
G36*
X130090707Y-111956542D02*
G01*
X130121787Y-111961152D01*
X130152266Y-111968787D01*
X130181850Y-111979372D01*
X130210254Y-111992806D01*
X130237204Y-112008959D01*
X130262442Y-112027677D01*
X130285723Y-112048777D01*
X130306823Y-112072058D01*
X130325541Y-112097296D01*
X130341694Y-112124246D01*
X130355128Y-112152650D01*
X130365713Y-112182234D01*
X130373348Y-112212713D01*
X130377958Y-112243793D01*
X130379500Y-112275176D01*
X130379500Y-113784824D01*
X130377958Y-113816207D01*
X130373348Y-113847287D01*
X130365713Y-113877766D01*
X130355128Y-113907350D01*
X130341694Y-113935754D01*
X130325541Y-113962704D01*
X130306823Y-113987942D01*
X130285723Y-114011223D01*
X130262442Y-114032323D01*
X130237204Y-114051041D01*
X130210254Y-114067194D01*
X130181850Y-114080628D01*
X130152266Y-114091213D01*
X130121787Y-114098848D01*
X130090707Y-114103458D01*
X130059324Y-114105000D01*
X128874676Y-114105000D01*
X128843293Y-114103458D01*
X128812213Y-114098848D01*
X128781734Y-114091213D01*
X128752150Y-114080628D01*
X128723746Y-114067194D01*
X128696796Y-114051041D01*
X128671558Y-114032323D01*
X128648277Y-114011223D01*
X128627177Y-113987942D01*
X128608459Y-113962704D01*
X128592306Y-113935754D01*
X128578872Y-113907350D01*
X128568287Y-113877766D01*
X128560652Y-113847287D01*
X128556042Y-113816207D01*
X128554500Y-113784824D01*
X128554500Y-112275176D01*
X128556042Y-112243793D01*
X128560652Y-112212713D01*
X128568287Y-112182234D01*
X128578872Y-112152650D01*
X128592306Y-112124246D01*
X128608459Y-112097296D01*
X128627177Y-112072058D01*
X128648277Y-112048777D01*
X128671558Y-112027677D01*
X128696796Y-112008959D01*
X128723746Y-111992806D01*
X128752150Y-111979372D01*
X128781734Y-111968787D01*
X128812213Y-111961152D01*
X128843293Y-111956542D01*
X128874676Y-111955000D01*
X130059324Y-111955000D01*
X130090707Y-111956542D01*
X130090707Y-111956542D01*
G37*
D18*
X129467000Y-113030000D03*
D11*
G36*
X129004071Y-100701623D02*
G01*
X129036781Y-100706475D01*
X129068857Y-100714509D01*
X129099991Y-100725649D01*
X129129884Y-100739787D01*
X129158247Y-100756787D01*
X129184807Y-100776485D01*
X129209308Y-100798692D01*
X129231515Y-100823193D01*
X129251213Y-100849753D01*
X129268213Y-100878116D01*
X129282351Y-100908009D01*
X129293491Y-100939143D01*
X129301525Y-100971219D01*
X129306377Y-101003929D01*
X129308000Y-101036956D01*
X129308000Y-102163044D01*
X129306377Y-102196071D01*
X129301525Y-102228781D01*
X129293491Y-102260857D01*
X129282351Y-102291991D01*
X129268213Y-102321884D01*
X129251213Y-102350247D01*
X129231515Y-102376807D01*
X129209308Y-102401308D01*
X129184807Y-102423515D01*
X129158247Y-102443213D01*
X129129884Y-102460213D01*
X129099991Y-102474351D01*
X129068857Y-102485491D01*
X129036781Y-102493525D01*
X129004071Y-102498377D01*
X128971044Y-102500000D01*
X128094956Y-102500000D01*
X128061929Y-102498377D01*
X128029219Y-102493525D01*
X127997143Y-102485491D01*
X127966009Y-102474351D01*
X127936116Y-102460213D01*
X127907753Y-102443213D01*
X127881193Y-102423515D01*
X127856692Y-102401308D01*
X127834485Y-102376807D01*
X127814787Y-102350247D01*
X127797787Y-102321884D01*
X127783649Y-102291991D01*
X127772509Y-102260857D01*
X127764475Y-102228781D01*
X127759623Y-102196071D01*
X127758000Y-102163044D01*
X127758000Y-101036956D01*
X127759623Y-101003929D01*
X127764475Y-100971219D01*
X127772509Y-100939143D01*
X127783649Y-100908009D01*
X127797787Y-100878116D01*
X127814787Y-100849753D01*
X127834485Y-100823193D01*
X127856692Y-100798692D01*
X127881193Y-100776485D01*
X127907753Y-100756787D01*
X127936116Y-100739787D01*
X127966009Y-100725649D01*
X127997143Y-100714509D01*
X128029219Y-100706475D01*
X128061929Y-100701623D01*
X128094956Y-100700000D01*
X128971044Y-100700000D01*
X129004071Y-100701623D01*
X129004071Y-100701623D01*
G37*
D17*
X128533000Y-101600000D03*
D11*
G36*
X126954071Y-100701623D02*
G01*
X126986781Y-100706475D01*
X127018857Y-100714509D01*
X127049991Y-100725649D01*
X127079884Y-100739787D01*
X127108247Y-100756787D01*
X127134807Y-100776485D01*
X127159308Y-100798692D01*
X127181515Y-100823193D01*
X127201213Y-100849753D01*
X127218213Y-100878116D01*
X127232351Y-100908009D01*
X127243491Y-100939143D01*
X127251525Y-100971219D01*
X127256377Y-101003929D01*
X127258000Y-101036956D01*
X127258000Y-102163044D01*
X127256377Y-102196071D01*
X127251525Y-102228781D01*
X127243491Y-102260857D01*
X127232351Y-102291991D01*
X127218213Y-102321884D01*
X127201213Y-102350247D01*
X127181515Y-102376807D01*
X127159308Y-102401308D01*
X127134807Y-102423515D01*
X127108247Y-102443213D01*
X127079884Y-102460213D01*
X127049991Y-102474351D01*
X127018857Y-102485491D01*
X126986781Y-102493525D01*
X126954071Y-102498377D01*
X126921044Y-102500000D01*
X126044956Y-102500000D01*
X126011929Y-102498377D01*
X125979219Y-102493525D01*
X125947143Y-102485491D01*
X125916009Y-102474351D01*
X125886116Y-102460213D01*
X125857753Y-102443213D01*
X125831193Y-102423515D01*
X125806692Y-102401308D01*
X125784485Y-102376807D01*
X125764787Y-102350247D01*
X125747787Y-102321884D01*
X125733649Y-102291991D01*
X125722509Y-102260857D01*
X125714475Y-102228781D01*
X125709623Y-102196071D01*
X125708000Y-102163044D01*
X125708000Y-101036956D01*
X125709623Y-101003929D01*
X125714475Y-100971219D01*
X125722509Y-100939143D01*
X125733649Y-100908009D01*
X125747787Y-100878116D01*
X125764787Y-100849753D01*
X125784485Y-100823193D01*
X125806692Y-100798692D01*
X125831193Y-100776485D01*
X125857753Y-100756787D01*
X125886116Y-100739787D01*
X125916009Y-100725649D01*
X125947143Y-100714509D01*
X125979219Y-100706475D01*
X126011929Y-100701623D01*
X126044956Y-100700000D01*
X126921044Y-100700000D01*
X126954071Y-100701623D01*
X126954071Y-100701623D01*
G37*
D17*
X126483000Y-101600000D03*
D21*
X105918000Y-113946000D03*
D22*
X105918000Y-126746000D03*
X105918000Y-101146000D03*
M02*
