M48
; DRILL file {KiCad (5.1.4-0-10_14)} date Tuesday, 25 February 2020 at 06:48:54
; FORMAT={-:-/ absolute / inch / decimal}
; #@! TF.CreationDate,2020-02-25T06:48:54+00:00
; #@! TF.GenerationSoftware,Kicad,Pcbnew,(5.1.4-0-10_14)
; #@! TF.FileFunction,Plated,1,2,PTH
FMAT,2
INCH
T1C0.0157
T2C0.0394
%
G90
G05
T1
X3.8402Y-4.0798
X3.86Y-4.01
X3.92Y-4.1615
X3.92Y-4.22
X4.03Y-4.96
X4.59Y-4.87
X4.5936Y-4.7762
X4.66Y-4.6
X4.68Y-4.1846
X4.7079Y-4.2124
X4.8132Y-4.1896
X4.88Y-4.34
X4.9224Y-4.19
X4.9776Y-4.24
X4.98Y-4.32
T2
X3.6Y-3.98
X3.6Y-4.08
X3.6Y-4.18
X3.7Y-3.98
X3.7Y-4.08
X3.7Y-4.18
T0
M30
